<svg width="338" height="225" viewBox="0 0 338 225" fill="none" xmlns="http://www.w3.org/2000/svg">
<path d="M272.031 137.988C272.031 137.988 266.493 134.914 266.083 141.876C265.673 148.837 264.645 194.121 264.645 194.121" stroke="#263238" stroke-width="2" stroke-linecap="round" stroke-linejoin="round"/>
<path d="M263.189 142.492C263.189 142.492 267.696 152.532 265.655 193.505" stroke="#263238" stroke-width="2" stroke-linecap="round" stroke-linejoin="round"/>
<path d="M267.646 139.387C267.646 139.387 265.524 140.737 264.32 139.194C263.117 137.65 265.136 134.797 263.356 133.582C261.576 132.367 258.498 134.221 258.498 134.221C258.498 134.221 260.864 134.914 260.787 136.206C260.711 137.497 259.57 138.006 259.435 137.421C259.3 136.836 258.151 134.014 256.226 135.198C255.673 135.525 255.192 135.961 254.811 136.48C254.431 136.998 254.16 137.587 254.014 138.213C254.014 138.213 258.489 137.736 258.759 139.419C259.03 141.102 256.925 139.126 255.077 139.018C253.23 138.91 251.544 139.18 251.666 140.296C251.707 141.284 251.648 142.273 251.49 143.248C252.5 142.407 253.78 141.957 255.095 141.979C257.128 142.096 257.051 143.388 255.204 143.28C253.356 143.172 251.769 144.927 251.769 144.927C251.769 144.927 253.455 147.802 255.596 149.224C257.736 150.646 258.507 150.124 258.75 149.04C258.994 147.955 258.426 145.134 259.719 145.21C261.013 145.287 257.579 150.084 259.228 150.367C260.877 150.651 262.207 150.169 262.64 149.085L263.09 148C263.09 148 262.513 145.192 262.766 144.094C263.018 142.996 263.32 144.126 263.613 145.444C263.906 146.763 264.091 149.917 264.654 149.764C265.217 149.611 267.024 147.312 267.448 146.412C267.872 145.512 265.069 142.753 265.1 142.2C265.132 141.646 267.295 142.699 267.633 143.275C267.878 143.713 268.099 144.164 268.295 144.625C268.295 144.625 269.647 143.779 269.611 141.187C269.575 138.595 267.646 139.387 267.646 139.387Z" fill="white"/>
<path opacity="0.3" d="M267.646 139.387C267.646 139.387 265.524 140.737 264.32 139.194C263.117 137.65 265.136 134.797 263.356 133.582C261.576 132.367 258.498 134.221 258.498 134.221C258.498 134.221 260.864 134.914 260.787 136.206C260.711 137.497 259.57 138.006 259.435 137.421C259.3 136.836 258.151 134.014 256.226 135.198C255.673 135.525 255.192 135.961 254.811 136.48C254.431 136.998 254.16 137.587 254.014 138.213C254.014 138.213 258.489 137.736 258.759 139.419C259.03 141.102 256.925 139.126 255.077 139.018C253.23 138.91 251.544 139.18 251.666 140.296C251.707 141.284 251.648 142.273 251.49 143.248C252.5 142.407 253.78 141.957 255.095 141.979C257.128 142.096 257.051 143.388 255.204 143.28C253.356 143.172 251.769 144.927 251.769 144.927C251.769 144.927 253.455 147.802 255.596 149.224C257.736 150.646 258.507 150.124 258.75 149.04C258.994 147.955 258.426 145.134 259.719 145.21C261.013 145.287 257.579 150.084 259.228 150.367C260.877 150.651 262.207 150.169 262.64 149.085L263.09 148C263.09 148 262.513 145.192 262.766 144.094C263.018 142.996 263.32 144.126 263.613 145.444C263.906 146.763 264.091 149.917 264.654 149.764C265.217 149.611 267.024 147.312 267.448 146.412C267.872 145.512 265.069 142.753 265.1 142.2C265.132 141.646 267.295 142.699 267.633 143.275C267.878 143.713 268.099 144.164 268.295 144.625C268.295 144.625 269.647 143.779 269.611 141.187C269.575 138.595 267.646 139.387 267.646 139.387Z" fill="#263238"/>
<path d="M256.903 145.467C258.286 143.761 260.319 141.453 262.027 140.35" stroke="#263238" stroke-linecap="round" stroke-linejoin="round"/>
<path d="M255.298 147.546C255.298 147.546 255.654 147.051 256.231 146.313" stroke="#263238" stroke-linecap="round" stroke-linejoin="round"/>
<path d="M262.928 140.773C262.928 140.773 264.983 143.671 265.362 146.655" stroke="#263238" stroke-linecap="round" stroke-linejoin="round"/>
<path d="M260.603 142.488C260.603 142.488 261.179 142.155 260.963 145.84" stroke="#263238" stroke-linecap="round" stroke-linejoin="round"/>
<path d="M262.103 139.05C262.103 139.05 263.275 138.006 262.658 135.936" stroke="#263238" stroke-linecap="round" stroke-linejoin="round"/>
<path d="M260.517 140.818L259.679 139.288" stroke="#263238" stroke-linecap="round" stroke-linejoin="round"/>
<path d="M258.755 142.38C258.755 142.38 256.096 140.373 254.433 140.274" stroke="#263238" stroke-linecap="round" stroke-linejoin="round"/>
<path d="M275.2 133.92C275.2 133.92 275.114 136.962 272.734 137.11C270.355 137.259 268.886 133.303 266.452 134.253C264.019 135.202 263.784 139.545 263.784 139.545C263.784 139.545 266.092 137.65 267.335 138.609C268.579 139.567 268.291 141.039 267.619 140.805C266.948 140.571 263.329 139.765 263.207 142.492C263.157 143.269 263.265 144.048 263.524 144.782C263.784 145.516 264.19 146.19 264.717 146.763C264.717 146.763 267.29 141.966 269.165 142.839C271.04 143.712 267.619 144.472 266.249 146.245C264.879 148.018 263.996 149.886 265.208 150.529C266.226 151.161 267.177 151.894 268.048 152.716C268.048 152.716 267.723 150.205 269.228 148.257C270.734 146.308 271.973 147.262 270.607 149.035C269.242 150.808 269.918 153.589 269.918 153.589C269.918 153.589 273.947 153.868 276.831 152.689C279.715 151.51 279.733 150.399 278.805 149.4C277.877 148.401 274.668 147.064 275.623 145.822C276.579 144.58 279.048 151.285 280.459 149.827C281.87 148.369 282.289 146.718 281.5 145.543L280.707 144.369C280.707 144.369 277.498 143.019 276.57 142.033C275.641 141.048 276.98 141.498 278.499 142.101C280.017 142.704 283.303 144.67 283.537 144.004C283.771 143.338 282.694 139.954 282.081 138.928C281.468 137.902 276.79 138.811 276.259 138.402C275.727 137.992 278.255 136.548 279.062 136.602C279.869 136.656 280.865 136.849 280.865 136.849C280.865 136.849 280.937 134.928 278.314 133.191C275.691 131.454 275.2 133.92 275.2 133.92Z" fill="white"/>
<path opacity="0.2" d="M275.2 133.92C275.2 133.92 275.114 136.962 272.734 137.11C270.355 137.259 268.886 133.303 266.452 134.253C264.019 135.202 263.784 139.545 263.784 139.545C263.784 139.545 266.092 137.65 267.335 138.609C268.579 139.567 268.291 141.039 267.619 140.805C266.948 140.571 263.329 139.765 263.207 142.492C263.157 143.269 263.265 144.048 263.524 144.782C263.784 145.516 264.19 146.19 264.717 146.763C264.717 146.763 267.29 141.966 269.165 142.839C271.04 143.712 267.619 144.472 266.249 146.245C264.879 148.018 263.996 149.886 265.208 150.529C266.226 151.161 267.177 151.894 268.048 152.716C268.048 152.716 267.723 150.205 269.228 148.257C270.734 146.308 271.973 147.262 270.607 149.035C269.242 150.808 269.918 153.589 269.918 153.589C269.918 153.589 273.947 153.868 276.831 152.689C279.715 151.51 279.733 150.399 278.805 149.4C277.877 148.401 274.668 147.064 275.623 145.822C276.579 144.58 279.048 151.285 280.459 149.827C281.87 148.369 282.289 146.718 281.5 145.543L280.707 144.369C280.707 144.369 277.498 143.019 276.57 142.033C275.641 141.048 276.98 141.498 278.499 142.101C280.017 142.704 283.303 144.67 283.537 144.004C283.771 143.338 282.694 139.954 282.081 138.928C281.468 137.902 276.79 138.811 276.259 138.402C275.727 137.992 278.255 136.548 279.062 136.602C279.869 136.656 280.865 136.849 280.865 136.849C280.865 136.849 280.937 134.928 278.314 133.191C275.691 131.454 275.2 133.92 275.2 133.92Z" fill="#263238"/>
<path d="M273.969 148.806C273.203 146.259 272.275 142.65 272.338 140.193" stroke="#263238" stroke-linecap="round" stroke-linejoin="round"/>
<path d="M274.961 151.821C274.961 151.821 274.708 151.132 274.361 150.052" stroke="#263238" stroke-linecap="round" stroke-linejoin="round"/>
<path d="M273.375 139.581C273.375 139.581 277.678 139.504 280.928 141.156" stroke="#263238" stroke-linecap="round" stroke-linejoin="round"/>
<path d="M273.51 143.073C273.51 143.073 273.564 142.272 277.115 145.003" stroke="#263238" stroke-linecap="round" stroke-linejoin="round"/>
<path d="M271.094 139.239C271.094 139.239 270.851 137.354 268.35 136.562" stroke="#263238" stroke-linecap="round" stroke-linejoin="round"/>
<path d="M271.775 142.024L269.67 141.817" stroke="#263238" stroke-linecap="round" stroke-linejoin="round"/>
<path d="M272.14 144.846C272.14 144.846 268.314 146.142 267.083 147.735" stroke="#263238" stroke-linecap="round" stroke-linejoin="round"/>
<path d="M249.669 154.17C249.669 154.17 261.774 162.162 261.567 193.095" stroke="#263238" stroke-width="2" stroke-linecap="round" stroke-linejoin="round"/>
<path d="M264.595 152.059C264.595 152.059 264.208 155.56 261.441 155.511C258.674 155.461 257.358 150.75 254.464 151.618C251.571 152.487 250.882 157.468 250.882 157.468C250.882 157.468 253.725 155.502 255.073 156.721C256.42 157.941 255.943 159.615 255.19 159.282C254.437 158.949 250.341 157.68 249.94 160.816C249.809 161.709 249.862 162.619 250.094 163.491C250.327 164.363 250.734 165.178 251.292 165.888C251.292 165.888 254.717 160.591 256.794 161.775C258.872 162.958 254.856 163.516 253.108 165.433C251.359 167.35 250.174 169.425 251.499 170.28C252.616 171.103 253.646 172.038 254.573 173.07C254.573 173.07 254.433 170.14 256.375 168.034C258.318 165.928 259.638 167.134 257.894 169.06C256.15 170.986 256.668 174.253 256.668 174.253C256.668 174.253 261.296 174.955 264.735 173.875C268.174 172.795 268.295 171.508 267.317 170.275C266.339 169.042 262.766 167.188 263.987 165.847C265.208 164.506 267.421 172.471 269.188 170.923C270.954 169.375 271.594 167.508 270.792 166.077L269.949 164.646C269.949 164.646 266.376 162.796 265.398 161.559C264.42 160.321 265.92 160.983 267.615 161.82C269.309 162.657 272.919 165.24 273.248 164.488C273.577 163.737 272.653 159.75 272.063 158.494C271.473 157.239 265.97 157.864 265.393 157.342C264.816 156.82 267.876 155.389 268.8 155.542C269.488 155.657 270.169 155.807 270.842 155.992C270.842 155.992 271.103 153.778 268.241 151.528C265.38 149.278 264.595 152.059 264.595 152.059Z" fill="white"/>
<path opacity="0.3" d="M264.595 152.059C264.595 152.059 264.208 155.56 261.441 155.511C258.674 155.461 257.358 150.75 254.464 151.618C251.571 152.487 250.882 157.468 250.882 157.468C250.882 157.468 253.725 155.502 255.073 156.721C256.42 157.941 255.943 159.615 255.19 159.282C254.437 158.949 250.341 157.68 249.94 160.816C249.809 161.709 249.862 162.619 250.094 163.491C250.327 164.363 250.734 165.178 251.292 165.888C251.292 165.888 254.717 160.591 256.794 161.775C258.872 162.958 254.856 163.516 253.108 165.433C251.359 167.35 250.174 169.425 251.499 170.28C252.616 171.103 253.646 172.038 254.573 173.07C254.573 173.07 254.433 170.14 256.375 168.034C258.318 165.928 259.638 167.134 257.894 169.06C256.15 170.986 256.668 174.253 256.668 174.253C256.668 174.253 261.296 174.955 264.735 173.875C268.174 172.795 268.295 171.508 267.317 170.275C266.339 169.042 262.766 167.188 263.987 165.847C265.208 164.506 267.421 172.471 269.188 170.923C270.954 169.375 271.594 167.508 270.792 166.077L269.949 164.646C269.949 164.646 266.376 162.796 265.398 161.559C264.42 160.321 265.92 160.983 267.615 161.82C269.309 162.657 272.919 165.24 273.248 164.488C273.577 163.737 272.653 159.75 272.063 158.494C271.473 157.239 265.97 157.864 265.393 157.342C264.816 156.82 267.876 155.389 268.8 155.542C269.488 155.657 270.169 155.807 270.842 155.992C270.842 155.992 271.103 153.778 268.241 151.528C265.38 149.278 264.595 152.059 264.595 152.059Z" fill="#263238"/>
<path d="M261.774 169.119C261.125 166.113 260.4 161.86 260.697 159.03" stroke="#263238" stroke-linecap="round" stroke-linejoin="round"/>
<path d="M262.631 172.692C262.631 172.692 262.405 171.873 262.103 170.595" stroke="#263238" stroke-linecap="round" stroke-linejoin="round"/>
<path d="M261.955 158.4C261.955 158.4 266.912 158.719 270.517 160.933" stroke="#263238" stroke-linecap="round" stroke-linejoin="round"/>
<path d="M261.779 162.45C261.779 162.45 261.919 161.55 265.758 165.015" stroke="#263238" stroke-linecap="round" stroke-linejoin="round"/>
<path d="M259.354 157.81C259.354 157.81 259.251 155.614 256.443 154.462" stroke="#263238" stroke-linecap="round" stroke-linejoin="round"/>
<path d="M259.877 161.086L257.47 160.65" stroke="#263238" stroke-linecap="round" stroke-linejoin="round"/>
<path d="M260.035 164.38C260.035 164.38 255.496 165.51 253.924 167.233" stroke="#263238" stroke-linecap="round" stroke-linejoin="round"/>
<path d="M254.388 178.551C254.388 178.551 262.184 184.491 263.004 193.302L261.387 163.8" stroke="#263238" stroke-width="2" stroke-linecap="round" stroke-linejoin="round"/>
<path d="M273.262 174.249C263.005 172.404 263.005 193.302 263.005 193.302" stroke="#263238" stroke-width="2" stroke-linecap="round" stroke-linejoin="round"/>
<path d="M264.235 193.095C264.235 193.095 258.286 149.868 275.502 149.868" stroke="#263238" stroke-width="2" stroke-linecap="round" stroke-linejoin="round"/>
<path d="M269.354 173.002C267.953 171.432 264.974 171.432 263.225 175.455C261.477 179.478 263.05 178.776 263.05 178.776C263.05 178.776 266.376 177.727 268.458 177.025C270.54 176.323 273.361 174.577 273.537 175.63C273.712 176.683 272.135 177.727 270.206 178.078C268.277 178.429 263.203 179.824 263.726 180.877C264.248 181.93 265.479 185.071 265.479 185.071C266.976 183.804 268.555 182.636 270.206 181.575C272.487 180.175 273.888 180.702 272.662 182.272C271.437 183.843 267.93 185.598 268.633 187.695C269.336 189.792 273.555 192.42 273.555 192.42C273.555 192.42 274.077 188.046 275.308 186.646C276.538 185.247 276.534 186.822 276.182 189.27C276.006 190.313 275.889 191.364 275.831 192.42L280.734 194.166C281.536 192.947 282.413 191.779 283.361 190.669L284.262 189.796C284.262 189.796 280.409 186.471 280.234 184.396C280.058 182.322 282.861 184.396 283.735 184.747C284.61 185.098 286.011 187.542 286.011 187.542C286.011 187.542 286.89 183.523 287.066 182.142L287.241 180.742C287.241 180.742 283.559 179.343 282.158 179.343C280.756 179.343 280.058 180.391 280.058 178.992C280.058 177.592 281.459 176.719 283.037 176.895C284.464 177.131 285.87 177.482 287.241 177.943C287.241 177.943 288.291 177.066 287.94 174.442C287.588 171.819 286.714 171.819 284.614 172.521C282.514 173.223 281.108 174.771 279.53 174.771C277.953 174.771 278.832 172.849 279.882 172.323C280.932 171.796 283.559 170.748 284.087 170.572C284.614 170.397 281.284 167.949 279.53 167.602C277.777 167.256 275.511 168.502 275.677 170.226C276.011 173.88 270.756 174.6 269.354 173.002Z" fill="white"/>
<path d="M280.63 191.011C280.684 191.538 280.721 192.069 280.739 192.595" stroke="#263238" stroke-linecap="round" stroke-linejoin="round"/>
<path d="M277.11 178.456C278.65 181.922 279.758 185.562 280.409 189.297" stroke="#263238" stroke-linecap="round" stroke-linejoin="round"/>
<path d="M276.479 177.052C275.614 175.189 274.961 174.055 274.961 174.055C275.908 173.599 276.694 172.867 277.214 171.954C277.624 171.127 278.225 170.408 278.967 169.857" stroke="#263238" stroke-linecap="round" stroke-linejoin="round"/>
<path d="M268.827 180C268.827 180 275.137 177.376 275.137 177.903" stroke="#263238" stroke-linecap="round" stroke-linejoin="round"/>
<path d="M278.638 176.679C278.638 176.679 281.441 175.279 283.893 175.279" stroke="#263238" stroke-linecap="round" stroke-linejoin="round"/>
<path d="M277.611 180.9C276.396 181.897 275.28 183.009 274.28 184.221C273.258 185.426 272.43 186.783 271.829 188.244" stroke="#263238" stroke-linecap="round" stroke-linejoin="round"/>
<path d="M279.512 181.575C279.512 181.575 283.194 180.526 285.119 182.272" stroke="#263238" stroke-linecap="round" stroke-linejoin="round"/>
<path d="M286.173 157.95C284.267 156.825 282.158 156.798 281.121 155.61C280.085 154.422 282.117 153.81 283.204 154.26C284.29 154.71 286.809 156.001 287.282 156.285C287.755 156.568 287.431 152.451 286.548 150.885C285.664 149.319 283.244 148.432 282.041 149.697C279.495 152.37 275.52 148.864 275.79 146.776C276.061 144.688 274.109 142.443 269.931 143.761C265.754 145.08 267.304 145.804 267.304 145.804C267.304 145.804 270.278 147.627 272.189 148.756C274.1 149.886 277.255 150.849 276.574 151.668C275.894 152.487 274.069 151.987 272.541 150.768C271.013 149.548 266.628 146.632 266.177 147.717C265.727 148.801 264.149 151.767 264.149 151.767C266.091 152.064 268.01 152.49 269.895 153.04C272.446 153.837 272.969 155.236 270.977 155.344C268.985 155.452 265.362 153.958 264.217 155.862C263.072 157.765 263.861 162.657 263.861 162.657C263.861 162.657 267.511 160.186 269.373 160.195C271.234 160.204 270.044 161.235 267.962 162.576C267.06 163.128 266.189 163.729 265.353 164.376L267.246 169.222C268.693 169.027 270.152 168.923 271.612 168.912L272.847 168.997C272.847 168.997 272.847 163.912 274.307 162.405C275.768 160.897 276.029 164.385 276.34 165.276C276.651 166.167 275.718 168.826 275.718 168.826C275.718 168.826 279.323 166.851 280.504 166.068L281.68 165.28C281.68 165.28 280.328 161.59 279.427 160.533C278.526 159.475 277.259 159.633 278.314 158.733C279.368 157.833 280.955 158.283 281.856 159.601C282.611 160.833 283.266 162.123 283.816 163.458C283.816 163.458 285.168 163.678 286.922 161.694C288.675 159.709 288.084 159.07 286.173 157.95ZM269.598 163.548C268.196 162.85 271.522 161.451 271.522 161.451C272.753 161.266 271 164.25 269.602 163.539L269.598 163.548ZM271.955 157.018C271.36 156.721 273.149 156.118 273.149 156.118C275.745 156.6 272.559 157.311 271.959 157.009L271.955 157.018Z" fill="white"/>
<path d="M269.562 167.103C269.198 167.49 268.824 167.863 268.44 168.223" stroke="#263238" stroke-linecap="round" stroke-linejoin="round"/>
<path d="M276.75 156.217C275.14 159.651 273.114 162.873 270.716 165.811" stroke="#263238" stroke-linecap="round" stroke-linejoin="round"/>
<path d="M277.399 154.822C278.242 152.946 278.67 151.708 278.67 151.708C279.638 152.135 280.714 152.255 281.752 152.051C282.647 151.817 283.585 151.799 284.488 151.996" stroke="#263238" stroke-linecap="round" stroke-linejoin="round"/>
<path d="M275.876 154.35C276.272 154.008 270.157 150.97 270.157 150.97" stroke="#263238" stroke-linecap="round" stroke-linejoin="round"/>
<path d="M279.098 156.204C279.098 156.204 281.996 157.401 283.605 159.25" stroke="#263238" stroke-linecap="round" stroke-linejoin="round"/>
<path d="M275.236 158.161C273.684 157.902 272.112 157.792 270.54 157.833C268.959 157.85 267.391 158.116 265.893 158.62" stroke="#263238" stroke-linecap="round" stroke-linejoin="round"/>
<path d="M275.97 160.074C275.97 160.074 279.174 162.162 279.125 164.758" stroke="#263238" stroke-linecap="round" stroke-linejoin="round"/>
<path d="M258.958 182.178C257.425 181.278 255.726 181.251 254.902 180.292C254.077 179.334 255.699 178.852 256.574 179.217C257.448 179.581 259.471 180.616 259.859 180.841C260.247 181.066 259.976 177.759 259.264 176.512C258.552 175.266 256.605 174.537 255.659 175.558C253.608 177.705 250.408 174.888 250.629 173.205C250.85 171.522 249.277 169.717 245.902 170.779C242.526 171.841 243.788 172.426 243.788 172.426C243.788 172.426 246.181 173.893 247.718 174.798C249.255 175.702 251.774 176.481 251.247 177.142C250.719 177.804 249.232 177.399 248.002 176.413C246.772 175.428 243.243 173.083 242.878 173.956C242.513 174.829 241.251 177.237 241.251 177.237C242.813 177.475 244.358 177.816 245.875 178.258C247.925 178.902 248.344 180.031 246.74 180.117C245.136 180.202 242.233 179.001 241.332 180.531C240.431 182.061 241.048 185.998 241.048 185.998C241.048 185.998 243.986 184.014 245.483 184.018C246.979 184.023 246.023 184.855 244.352 185.935C243.624 186.378 242.921 186.86 242.247 187.38L243.77 191.281C244.935 191.123 246.109 191.039 247.285 191.029L248.281 191.101C248.281 191.101 248.281 187.006 249.458 185.796C250.634 184.585 250.841 187.389 251.089 188.104C251.337 188.82 250.589 190.962 250.589 190.962C250.589 190.962 253.5 189.373 254.442 188.739L255.388 188.109C255.388 188.109 254.298 185.139 253.559 184.288C252.82 183.438 251.81 183.564 252.657 182.826C253.505 182.088 254.78 182.479 255.506 183.528C256.114 184.52 256.643 185.558 257.087 186.633C257.087 186.633 258.173 186.808 259.584 185.211C260.995 183.613 260.485 183.082 258.958 182.178ZM245.618 186.678C244.491 186.115 247.168 184.99 247.168 184.99C248.155 184.851 246.745 187.245 245.613 186.682L245.618 186.678ZM247.52 181.422C247.037 181.183 248.48 180.702 248.48 180.702C250.571 181.107 247.997 181.669 247.52 181.426V181.422Z" fill="white"/>
<path d="M245.613 189.549C245.32 189.859 245.018 190.161 244.712 190.449" stroke="#263238" stroke-linecap="round" stroke-linejoin="round"/>
<path d="M251.373 180.792C250.075 183.553 248.444 186.145 246.515 188.509" stroke="#263238" stroke-linecap="round" stroke-linejoin="round"/>
<path d="M251.896 179.667C252.572 178.159 252.919 177.16 252.919 177.16C253.697 177.504 254.562 177.599 255.397 177.435C256.117 177.248 256.87 177.232 257.597 177.39" stroke="#263238" stroke-linecap="round" stroke-linejoin="round"/>
<path d="M246.064 176.58C246.064 176.58 250.99 179.023 250.67 179.28" stroke="#263238" stroke-linecap="round" stroke-linejoin="round"/>
<path d="M253.275 180.778C253.275 180.778 255.605 181.741 256.88 183.226" stroke="#263238" stroke-linecap="round" stroke-linejoin="round"/>
<path d="M250.152 182.353C248.904 182.143 247.64 182.054 246.375 182.088C245.103 182.103 243.84 182.317 242.635 182.722" stroke="#263238" stroke-linecap="round" stroke-linejoin="round"/>
<path d="M250.742 183.892C250.742 183.892 253.324 185.571 253.275 187.663" stroke="#263238" stroke-linecap="round" stroke-linejoin="round"/>
<path d="M252.702 153.297C252.702 153.297 250.773 154.696 249.548 153.297C248.322 151.897 250.075 149.098 248.317 148.05C246.56 147.001 243.766 148.923 243.766 148.923C243.766 148.923 246.041 149.449 246.041 150.673C246.041 151.897 244.991 152.419 244.816 151.897C244.64 151.375 243.414 148.747 241.661 149.971C241.155 150.312 240.724 150.751 240.394 151.262C240.063 151.773 239.839 152.346 239.737 152.946C239.737 152.946 243.937 152.244 244.288 153.819C244.64 155.394 242.535 153.643 240.787 153.643C239.038 153.643 237.456 153.994 237.632 155.043C237.728 155.974 237.728 156.911 237.632 157.842C238.539 156.994 239.721 156.497 240.962 156.442C242.887 156.442 242.887 157.666 241.138 157.666C239.39 157.666 237.984 159.417 237.984 159.417C237.984 159.417 239.737 162.04 241.837 163.264C243.937 164.488 244.64 163.966 244.816 162.913C244.991 161.86 244.288 159.241 245.514 159.241C246.74 159.241 243.766 163.966 245.338 164.137C246.911 164.308 248.142 163.791 248.493 162.738L248.845 161.689C248.845 161.689 248.142 159.066 248.317 158.017C248.493 156.969 248.845 158.017 249.192 159.241C249.539 160.465 249.895 163.44 250.417 163.264C250.94 163.089 252.522 160.816 252.874 159.943C253.225 159.07 250.417 156.618 250.417 156.096C250.417 155.574 252.522 156.442 252.874 156.969C253.127 157.365 253.36 157.773 253.572 158.193C253.572 158.193 254.798 157.32 254.622 154.867C254.446 152.415 252.702 153.297 252.702 153.297Z" fill="white"/>
<path d="M242.909 159.638C244.122 157.95 245.915 155.655 247.47 154.521" stroke="#263238" stroke-linecap="round" stroke-linejoin="round"/>
<path d="M241.49 161.689C241.49 161.689 241.801 161.203 242.301 160.474" stroke="#263238" stroke-linecap="round" stroke-linejoin="round"/>
<path d="M248.317 154.867C248.317 154.867 250.418 157.491 250.945 160.29" stroke="#263238" stroke-linecap="round" stroke-linejoin="round"/>
<path d="M246.222 156.6C246.222 156.6 246.744 156.249 246.744 159.75" stroke="#263238" stroke-linecap="round" stroke-linejoin="round"/>
<path d="M247.448 153.297C247.448 153.297 248.497 152.244 247.794 150.322" stroke="#263238" stroke-linecap="round" stroke-linejoin="round"/>
<path d="M246.046 155.043L245.167 153.643" stroke="#263238" stroke-linecap="round" stroke-linejoin="round"/>
<path d="M244.469 156.6C244.469 156.6 241.841 154.849 240.264 154.849" stroke="#263238" stroke-linecap="round" stroke-linejoin="round"/>
<path d="M270.391 192.478H256.848V211.941H270.391V192.478Z" fill="#263238" stroke="#263238" stroke-width="2" stroke-linecap="round" stroke-linejoin="round"/>
<path d="M148.414 42.921C148.414 42.921 148.577 37.17 148.373 32.2245C148.17 27.279 148.581 16.677 148.581 16.677" stroke="#263238" stroke-miterlimit="10"/>
<path d="M148.486 22.914L146.237 21.1455" stroke="#263238" stroke-miterlimit="10"/>
<path d="M148.459 24.129L149.261 22.8375" stroke="#263238" stroke-miterlimit="10"/>
<path d="M148.278 29.2455L150.275 27.594" stroke="#263238" stroke-miterlimit="10"/>
<path d="M148.58 18.8505L147.526 17.892" stroke="#263238" stroke-miterlimit="10"/>
<path d="M148.26 30.141L146.94 28.728" stroke="#263238" stroke-miterlimit="10"/>
<path d="M148.373 35.694L145.628 33.192" stroke="#263238" stroke-miterlimit="10"/>
<path d="M148.445 38.7765C149.144 38.5057 149.825 38.1885 150.482 37.827" stroke="#263238" stroke-miterlimit="10"/>
<path d="M146.917 23.8005C145.813 22.95 142.109 23.0985 141.397 24.867C140.685 26.6355 142.951 29.52 145.115 29.3175C145.966 29.2365 146.336 29.178 146.669 28.701L143.627 25.731L146.922 28.377C147.014 28.2047 147.09 28.0239 147.147 27.837C147.183 27.7065 147.219 27.5625 147.246 27.414C147.476 26.3565 147.958 24.597 146.917 23.8005Z" fill="white"/>
<path d="M154.087 21.7485V21.8115C153.79 23.13 152.285 23.877 151.009 23.7645C150.833 23.7496 150.658 23.7179 150.487 23.67C150.189 24.1412 150.004 24.675 149.948 25.2294C149.892 25.7838 149.965 26.3437 150.162 26.865C150.215 27.0141 150.287 27.1561 150.374 27.288C150.748 26.982 154.75 23.571 154.75 23.571L150.595 27.567C151.848 28.917 154.786 28.7235 155.809 26.244C156.832 23.7645 155.53 22.104 154.087 21.7485Z" fill="white"/>
<path d="M152.05 17.136C149.896 16.686 147.967 17.64 147.994 19.8855C148.006 20.3805 148.12 20.8679 148.327 21.3175C148.535 21.7672 148.833 22.1696 149.202 22.5L151.424 19.476L149.558 22.7745C149.976 23.0592 150.46 23.2327 150.964 23.2785C152.235 23.3865 153.745 22.6395 154.042 21.321C154.353 19.8495 154.205 17.6085 152.05 17.136Z" fill="white"/>
<path d="M149.536 9.32849C149.536 9.32849 149.315 9.39599 147.936 10.0665C147.129 10.511 146.53 11.2566 146.272 12.1403C146.013 13.0241 146.116 13.974 146.557 14.7825C146.939 15.5378 147.6 16.1155 148.4 16.3935L148.955 11.043L148.72 16.4655C148.825 16.4763 148.931 16.4763 149.036 16.4655C149.937 16.3755 151.348 15.3045 151.483 13.113C151.618 10.9215 149.536 9.32849 149.536 9.32849Z" fill="white"/>
<path d="M143.24 14.1929L147.4 17.5139C147.441 17.3677 147.454 17.2152 147.44 17.0639C147.246 15.1649 145.349 14.0624 144.096 13.6664C142.843 13.2704 141.974 13.9769 142.78 15.7949C143.587 17.6129 145.701 18.4949 146.643 18.2204C146.866 18.1654 147.068 18.0428 147.219 17.8694L143.24 14.1929Z" fill="white"/>
<path d="M146.102 18.45C145.464 18.4041 144.845 18.2142 144.292 17.8946C143.738 17.5749 143.264 17.134 142.907 16.605C142.465 16.5631 142.024 16.6955 141.679 16.9739C141.333 17.2522 141.111 17.6545 141.059 18.0945C140.635 20.0745 142.068 22.1445 144.137 21.8925C144.786 21.8587 145.403 21.5955 145.876 21.15L142.181 17.7795L146.138 20.79C146.215 20.6511 146.264 20.4981 146.282 20.34C146.41 19.706 146.347 19.0485 146.102 18.45Z" fill="white"/>
<path d="M146.079 29.4615C145.743 29.6052 145.385 29.6905 145.02 29.7135C143.668 29.8395 142.289 28.782 141.604 27.54C141.202 27.5672 140.82 27.7283 140.52 27.9975C140.221 28.2667 140.02 28.6285 139.95 29.025C139.54 31.3425 141.69 34.398 143.862 33.912C144.427 33.8023 144.949 33.5373 145.372 33.147L140.631 28.593L145.647 32.85C145.933 32.4828 146.118 32.0467 146.183 31.5855C146.42 30.8902 146.383 30.1305 146.079 29.4615Z" fill="white"/>
<path d="M155.62 34.2C154.024 32.355 152.127 34.0065 152.127 34.0065C152.127 34.0065 150.964 34.389 150.523 36.036C150.387 36.5357 150.408 37.0647 150.581 37.5525L155.376 34.7625L150.698 37.8135C151.149 38.6415 152.086 39.1635 153.402 38.781C155.503 38.205 157.211 36.0585 155.62 34.2Z" fill="white"/>
<path d="M151.645 41.184H145.007V50.9985H151.645V41.184Z" fill="#263238"/>
<path d="M224.914 50.9175H137.359V212.571H224.914V50.9175Z" fill="white" stroke="#263238" stroke-miterlimit="10"/>
<path d="M212.566 52.9651H139.179V210.11H212.566V52.9651Z" fill="#263238" stroke="#263238" stroke-linecap="round" stroke-linejoin="round"/>
<path d="M212.566 77.337H139.179V79.6545H212.566V77.337Z" fill="white" stroke="#263238" stroke-miterlimit="10"/>
<path d="M212.566 104.13H139.179V106.448H212.566V104.13Z" fill="white" stroke="#263238" stroke-miterlimit="10"/>
<path d="M188.915 52.9921H187.356V77.3326H188.915V52.9921Z" fill="white" stroke="#263238" stroke-miterlimit="10"/>
<path d="M163.966 52.9921H162.407V77.3326H163.966V52.9921Z" fill="white" stroke="#263238" stroke-miterlimit="10"/>
<path d="M188.915 106.475H187.356V130.815H188.915V106.475Z" fill="white" stroke="#263238" stroke-miterlimit="10"/>
<path d="M163.966 106.475H162.407V130.815H163.966V106.475Z" fill="white" stroke="#263238" stroke-miterlimit="10"/>
<path d="M176.319 79.785H174.76V104.126H176.319V79.785Z" fill="white" stroke="#263238" stroke-miterlimit="10"/>
<path d="M212.566 130.82H139.179V133.137H212.566V130.82Z" fill="white" stroke="#263238" stroke-miterlimit="10"/>
<path d="M212.566 157.523H139.179V210.929H212.566V157.523Z" fill="white" stroke="#263238" stroke-miterlimit="10"/>
<path d="M176.319 133.178H174.76V157.518H176.319V133.178Z" fill="white" stroke="#263238" stroke-miterlimit="10"/>
<path d="M214.364 50.9041V212.535L224.919 212.571V50.9041H214.364Z" fill="#263238" stroke="#263238" stroke-linecap="round" stroke-linejoin="round"/>
<path d="M193.764 54.8821H189.997V77.2786H193.764V54.8821Z" fill="white" stroke="#263238" stroke-miterlimit="10"/>
<path d="M193.764 72.468H189.997V74.304H193.764V72.468Z" fill="white" stroke="#263238" stroke-miterlimit="10"/>
<path d="M193.764 57.1545H189.997V58.9905H193.764V57.1545Z" fill="white" stroke="#263238" stroke-miterlimit="10"/>
<path d="M197.617 54.8821H193.85V77.2786H197.617V54.8821Z" fill="white" stroke="#263238" stroke-miterlimit="10"/>
<path d="M197.617 72.468H193.85V74.304H197.617V72.468Z" fill="white" stroke="#263238" stroke-miterlimit="10"/>
<path d="M197.617 57.1545H193.85V58.9905H197.617V57.1545Z" fill="white" stroke="#263238" stroke-miterlimit="10"/>
<path d="M201.475 54.8821H197.708V77.2786H201.475V54.8821Z" fill="white" stroke="#263238" stroke-miterlimit="10"/>
<path d="M201.475 72.468H197.708V74.304H201.475V72.468Z" fill="white" stroke="#263238" stroke-miterlimit="10"/>
<path d="M201.475 57.1545H197.708V58.9905H201.475V57.1545Z" fill="white" stroke="#263238" stroke-miterlimit="10"/>
<path d="M205.328 54.8821H201.561V77.2786H205.328V54.8821Z" fill="white" stroke="#263238" stroke-miterlimit="10"/>
<path d="M211.606 54.8821H205.297V77.2786H211.606V54.8821Z" fill="white" stroke="#263238" stroke-miterlimit="10"/>
<path d="M205.328 72.468H201.561V74.304H205.328V72.468Z" fill="white" stroke="#263238" stroke-miterlimit="10"/>
<path d="M205.328 57.1545H201.561V58.9905H205.328V57.1545Z" fill="white" stroke="#263238" stroke-miterlimit="10"/>
<path d="M168.558 54.8821H164.791V77.2786H168.558V54.8821Z" fill="white" stroke="#263238" stroke-miterlimit="10"/>
<path d="M168.558 72.468H164.791V74.304H168.558V72.468Z" fill="white" stroke="#263238" stroke-miterlimit="10"/>
<path d="M168.558 57.1545H164.791V58.9905H168.558V57.1545Z" fill="white" stroke="#263238" stroke-miterlimit="10"/>
<path d="M172.412 54.8821H168.644V77.2786H172.412V54.8821Z" fill="white" stroke="#263238" stroke-miterlimit="10"/>
<path d="M172.412 72.468H168.644V74.304H172.412V72.468Z" fill="white" stroke="#263238" stroke-miterlimit="10"/>
<path d="M172.412 57.1545H168.644V58.9905H172.412V57.1545Z" fill="white" stroke="#263238" stroke-miterlimit="10"/>
<path d="M176.269 54.8821H172.502V77.2786H176.269V54.8821Z" fill="white" stroke="#263238" stroke-miterlimit="10"/>
<path d="M176.269 72.468H172.502V74.304H176.269V72.468Z" fill="white" stroke="#263238" stroke-miterlimit="10"/>
<path d="M176.269 57.1545H172.502V58.9905H176.269V57.1545Z" fill="white" stroke="#263238" stroke-miterlimit="10"/>
<path d="M180.123 54.8821H176.355V77.2786H180.123V54.8821Z" fill="white" stroke="#263238" stroke-miterlimit="10"/>
<path d="M186.4 54.8821H180.091V77.2786H186.4V54.8821Z" fill="white" stroke="#263238" stroke-miterlimit="10"/>
<path d="M180.123 72.468H176.355V74.304H180.123V72.468Z" fill="white" stroke="#263238" stroke-miterlimit="10"/>
<path d="M180.123 57.1545H176.355V58.9905H180.123V57.1545Z" fill="white" stroke="#263238" stroke-miterlimit="10"/>
<path d="M168.558 108.446H164.791V130.842H168.558V108.446Z" fill="white" stroke="#263238" stroke-miterlimit="10"/>
<path d="M168.558 126.031H164.791V127.867H168.558V126.031Z" fill="white" stroke="#263238" stroke-miterlimit="10"/>
<path d="M168.558 110.723H164.791V112.559H168.558V110.723Z" fill="white" stroke="#263238" stroke-miterlimit="10"/>
<path d="M172.412 108.446H168.644V130.842H172.412V108.446Z" fill="white" stroke="#263238" stroke-miterlimit="10"/>
<path d="M172.412 126.031H168.644V127.867H172.412V126.031Z" fill="white" stroke="#263238" stroke-miterlimit="10"/>
<path d="M172.412 110.723H168.644V112.559H172.412V110.723Z" fill="white" stroke="#263238" stroke-miterlimit="10"/>
<path d="M176.269 108.446H172.502V130.842H176.269V108.446Z" fill="white" stroke="#263238" stroke-miterlimit="10"/>
<path d="M176.269 126.031H172.502V127.867H176.269V126.031Z" fill="white" stroke="#263238" stroke-miterlimit="10"/>
<path d="M176.269 110.723H172.502V112.559H176.269V110.723Z" fill="white" stroke="#263238" stroke-miterlimit="10"/>
<path d="M180.123 108.446H176.355V130.842H180.123V108.446Z" fill="white" stroke="#263238" stroke-miterlimit="10"/>
<path d="M186.4 108.446H180.091V130.842H186.4V108.446Z" fill="white" stroke="#263238" stroke-miterlimit="10"/>
<path d="M180.123 126.031H176.355V127.867H180.123V126.031Z" fill="white" stroke="#263238" stroke-miterlimit="10"/>
<path d="M180.123 110.723H176.355V112.559H180.123V110.723Z" fill="white" stroke="#263238" stroke-miterlimit="10"/>
<path d="M193.44 108.446H189.672V130.842H193.44V108.446Z" fill="white" stroke="#263238" stroke-miterlimit="10"/>
<path d="M193.44 126.031H189.672V127.867H193.44V126.031Z" fill="white" stroke="#263238" stroke-miterlimit="10"/>
<path d="M193.44 110.723H189.672V112.559H193.44V110.723Z" fill="white" stroke="#263238" stroke-miterlimit="10"/>
<path d="M197.297 108.446H193.53V130.842H197.297V108.446Z" fill="white" stroke="#263238" stroke-miterlimit="10"/>
<path d="M197.297 126.031H193.53V127.867H197.297V126.031Z" fill="white" stroke="#263238" stroke-miterlimit="10"/>
<path d="M197.297 110.723H193.53V112.559H197.297V110.723Z" fill="white" stroke="#263238" stroke-miterlimit="10"/>
<path d="M201.151 108.446H197.383V130.842H201.151V108.446Z" fill="white" stroke="#263238" stroke-miterlimit="10"/>
<path d="M201.151 126.031H197.383V127.867H201.151V126.031Z" fill="white" stroke="#263238" stroke-miterlimit="10"/>
<path d="M201.151 110.723H197.383V112.559H201.151V110.723Z" fill="white" stroke="#263238" stroke-miterlimit="10"/>
<path d="M205.008 108.446H201.241V130.842H205.008V108.446Z" fill="white" stroke="#263238" stroke-miterlimit="10"/>
<path d="M211.282 108.446H204.972V130.842H211.282V108.446Z" fill="white" stroke="#263238" stroke-miterlimit="10"/>
<path d="M205.008 126.031H201.241V127.867H205.008V126.031Z" fill="white" stroke="#263238" stroke-miterlimit="10"/>
<path d="M205.008 110.723H201.241V112.559H205.008V110.723Z" fill="white" stroke="#263238" stroke-miterlimit="10"/>
<path d="M143.835 108.446H140.067V130.842H143.835V108.446Z" fill="white" stroke="#263238" stroke-miterlimit="10"/>
<path d="M143.835 126.031H140.067V127.867H143.835V126.031Z" fill="white" stroke="#263238" stroke-miterlimit="10"/>
<path d="M143.835 110.723H140.067V112.559H143.835V110.723Z" fill="white" stroke="#263238" stroke-miterlimit="10"/>
<path d="M147.692 108.446H143.925V130.842H147.692V108.446Z" fill="white" stroke="#263238" stroke-miterlimit="10"/>
<path d="M147.692 126.031H143.925V127.867H147.692V126.031Z" fill="white" stroke="#263238" stroke-miterlimit="10"/>
<path d="M147.692 110.723H143.925V112.559H147.692V110.723Z" fill="white" stroke="#263238" stroke-miterlimit="10"/>
<path d="M151.546 108.446H147.778V130.842H151.546V108.446Z" fill="white" stroke="#263238" stroke-miterlimit="10"/>
<path d="M151.546 126.031H147.778V127.867H151.546V126.031Z" fill="white" stroke="#263238" stroke-miterlimit="10"/>
<path d="M151.546 110.723H147.778V112.559H151.546V110.723Z" fill="white" stroke="#263238" stroke-miterlimit="10"/>
<path d="M155.403 108.446H151.636V130.842H155.403V108.446Z" fill="white" stroke="#263238" stroke-miterlimit="10"/>
<path d="M161.677 108.446H155.367V130.842H161.677V108.446Z" fill="white" stroke="#263238" stroke-miterlimit="10"/>
<path d="M155.403 126.031H151.636V127.867H155.403V126.031Z" fill="white" stroke="#263238" stroke-miterlimit="10"/>
<path d="M155.403 110.723H151.636V112.559H155.403V110.723Z" fill="white" stroke="#263238" stroke-miterlimit="10"/>
<path d="M143.353 54.8821H139.585V77.2786H143.353V54.8821Z" fill="white" stroke="#263238" stroke-miterlimit="10"/>
<path d="M143.353 72.468H139.585V74.304H143.353V72.468Z" fill="white" stroke="#263238" stroke-miterlimit="10"/>
<path d="M143.353 57.1545H139.585V58.9905H143.353V57.1545Z" fill="white" stroke="#263238" stroke-miterlimit="10"/>
<path d="M147.206 54.8821H143.438V77.2786H147.206V54.8821Z" fill="white" stroke="#263238" stroke-miterlimit="10"/>
<path d="M147.206 72.468H143.438V74.304H147.206V72.468Z" fill="white" stroke="#263238" stroke-miterlimit="10"/>
<path d="M147.206 57.1545H143.438V58.9905H147.206V57.1545Z" fill="white" stroke="#263238" stroke-miterlimit="10"/>
<path d="M151.063 54.8821H147.296V77.2786H151.063V54.8821Z" fill="white" stroke="#263238" stroke-miterlimit="10"/>
<path d="M151.063 72.468H147.296V74.304H151.063V72.468Z" fill="white" stroke="#263238" stroke-miterlimit="10"/>
<path d="M151.063 57.1545H147.296V58.9905H151.063V57.1545Z" fill="white" stroke="#263238" stroke-miterlimit="10"/>
<path d="M154.917 54.8821H151.149V77.2786H154.917V54.8821Z" fill="white" stroke="#263238" stroke-miterlimit="10"/>
<path d="M161.194 54.8821H154.885V77.2786H161.194V54.8821Z" fill="white" stroke="#263238" stroke-miterlimit="10"/>
<path d="M154.917 72.468H151.149V74.304H154.917V72.468Z" fill="white" stroke="#263238" stroke-miterlimit="10"/>
<path d="M154.917 57.1545H151.149V58.9905H154.917V57.1545Z" fill="white" stroke="#263238" stroke-miterlimit="10"/>
<path d="M154.502 81.5715H150.734V103.968H154.502V81.5715Z" fill="white" stroke="#263238" stroke-miterlimit="10"/>
<path d="M154.502 99.1576H150.734V100.994H154.502V99.1576Z" fill="white" stroke="#263238" stroke-miterlimit="10"/>
<path d="M154.502 83.8485H150.734V85.6845H154.502V83.8485Z" fill="white" stroke="#263238" stroke-miterlimit="10"/>
<path d="M150.784 81.5715H147.016V103.968H150.784V81.5715Z" fill="white" stroke="#263238" stroke-miterlimit="10"/>
<path d="M150.784 99.1576H147.016V100.994H150.784V99.1576Z" fill="white" stroke="#263238" stroke-miterlimit="10"/>
<path d="M150.784 83.8485H147.016V85.6845H150.784V83.8485Z" fill="white" stroke="#263238" stroke-miterlimit="10"/>
<path d="M147.066 81.5715H143.298V103.968H147.066V81.5715Z" fill="white" stroke="#263238" stroke-miterlimit="10"/>
<path d="M147.066 99.1576H143.298V100.994H147.066V99.1576Z" fill="white" stroke="#263238" stroke-miterlimit="10"/>
<path d="M147.066 83.8485H143.298V85.6845H147.066V83.8485Z" fill="white" stroke="#263238" stroke-miterlimit="10"/>
<path d="M143.353 81.5715H139.585V103.968H143.353V81.5715Z" fill="white" stroke="#263238" stroke-miterlimit="10"/>
<path d="M143.353 99.1576H139.585V100.994H143.353V99.1576Z" fill="white" stroke="#263238" stroke-miterlimit="10"/>
<path d="M143.353 83.8485H139.585V85.6845H143.353V83.8485Z" fill="white" stroke="#263238" stroke-miterlimit="10"/>
<path d="M158.355 81.5715H154.588V103.968H158.355V81.5715Z" fill="white" stroke="#263238" stroke-miterlimit="10"/>
<path d="M158.355 99.1576H154.588V100.994H158.355V99.1576Z" fill="white" stroke="#263238" stroke-miterlimit="10"/>
<path d="M158.355 83.8485H154.588V85.6845H158.355V83.8485Z" fill="white" stroke="#263238" stroke-miterlimit="10"/>
<path d="M162.208 81.5715H158.441V103.968H162.208V81.5715Z" fill="white" stroke="#263238" stroke-miterlimit="10"/>
<path d="M162.208 99.1576H158.441V100.994H162.208V99.1576Z" fill="white" stroke="#263238" stroke-miterlimit="10"/>
<path d="M162.208 83.8485H158.441V85.6845H162.208V83.8485Z" fill="white" stroke="#263238" stroke-miterlimit="10"/>
<path d="M166.066 81.5715H162.299V103.968H166.066V81.5715Z" fill="white" stroke="#263238" stroke-miterlimit="10"/>
<path d="M172.344 81.5715H166.035V103.968H172.344V81.5715Z" fill="white" stroke="#263238" stroke-miterlimit="10"/>
<path d="M166.066 99.1576H162.299V100.994H166.066V99.1576Z" fill="white" stroke="#263238" stroke-miterlimit="10"/>
<path d="M166.066 83.8485H162.299V85.6845H166.066V83.8485Z" fill="white" stroke="#263238" stroke-miterlimit="10"/>
<path d="M181.29 81.5715H177.522V103.968H181.29V81.5715Z" fill="white" stroke="#263238" stroke-miterlimit="10"/>
<path d="M181.29 99.1576H177.522V100.994H181.29V99.1576Z" fill="white" stroke="#263238" stroke-miterlimit="10"/>
<path d="M181.29 83.8485H177.522V85.6845H181.29V83.8485Z" fill="white" stroke="#263238" stroke-miterlimit="10"/>
<path d="M185.147 81.5715H181.38V103.968H185.147V81.5715Z" fill="white" stroke="#263238" stroke-miterlimit="10"/>
<path d="M185.147 99.1576H181.38V100.994H185.147V99.1576Z" fill="white" stroke="#263238" stroke-miterlimit="10"/>
<path d="M185.147 83.8485H181.38V85.6845H185.147V83.8485Z" fill="white" stroke="#263238" stroke-miterlimit="10"/>
<path d="M192.861 81.5661L189.349 83.0469L198.182 103.937L201.694 102.456L192.861 81.5661Z" fill="white" stroke="#263238" stroke-miterlimit="10"/>
<path d="M199.798 97.9672L196.285 99.448L197.009 101.16L200.522 99.6794L199.798 97.9672Z" fill="white" stroke="#263238" stroke-miterlimit="10"/>
<path d="M193.76 83.689L190.248 85.1698L190.972 86.8819L194.484 85.4012L193.76 83.689Z" fill="white" stroke="#263238" stroke-miterlimit="10"/>
<path d="M198.185 103.928H206.049L209.587 102.456L201.696 102.447L198.185 103.928Z" fill="white" stroke="#263238" stroke-miterlimit="10"/>
<path d="M192.863 81.5581H200.249L209.587 102.456L201.696 102.447L192.863 81.5581Z" fill="white" stroke="#263238" stroke-miterlimit="10"/>
<path d="M188.865 81.5715H185.098V103.968H188.865V81.5715Z" fill="white" stroke="#263238" stroke-miterlimit="10"/>
<path d="M188.865 99.1576H185.098V100.994H188.865V99.1576Z" fill="white" stroke="#263238" stroke-miterlimit="10"/>
<path d="M188.865 83.8485H185.098V85.6845H188.865V83.8485Z" fill="white" stroke="#263238" stroke-miterlimit="10"/>
<path d="M188.865 81.5715H192.863L189.347 83.0385L198.185 103.928H188.865V81.5715Z" fill="white" stroke="#263238" stroke-miterlimit="10"/>
<path d="M154.502 135.041H150.734V157.437H154.502V135.041Z" fill="white" stroke="#263238" stroke-miterlimit="10"/>
<path d="M154.502 152.627H150.734V154.463H154.502V152.627Z" fill="white" stroke="#263238" stroke-miterlimit="10"/>
<path d="M154.502 137.313H150.734V139.149H154.502V137.313Z" fill="white" stroke="#263238" stroke-miterlimit="10"/>
<path d="M150.784 135.041H147.016V157.437H150.784V135.041Z" fill="white" stroke="#263238" stroke-miterlimit="10"/>
<path d="M150.784 152.627H147.016V154.463H150.784V152.627Z" fill="white" stroke="#263238" stroke-miterlimit="10"/>
<path d="M150.784 137.313H147.016V139.149H150.784V137.313Z" fill="white" stroke="#263238" stroke-miterlimit="10"/>
<path d="M147.066 135.041H143.298V157.437H147.066V135.041Z" fill="white" stroke="#263238" stroke-miterlimit="10"/>
<path d="M147.066 152.627H143.298V154.463H147.066V152.627Z" fill="white" stroke="#263238" stroke-miterlimit="10"/>
<path d="M147.066 137.313H143.298V139.149H147.066V137.313Z" fill="white" stroke="#263238" stroke-miterlimit="10"/>
<path d="M143.353 135.041H139.585V157.437H143.353V135.041Z" fill="white" stroke="#263238" stroke-miterlimit="10"/>
<path d="M143.353 152.627H139.585V154.463H143.353V152.627Z" fill="white" stroke="#263238" stroke-miterlimit="10"/>
<path d="M143.353 137.313H139.585V139.149H143.353V137.313Z" fill="white" stroke="#263238" stroke-miterlimit="10"/>
<path d="M158.355 135.041H154.588V157.437H158.355V135.041Z" fill="white" stroke="#263238" stroke-miterlimit="10"/>
<path d="M158.355 152.627H154.588V154.463H158.355V152.627Z" fill="white" stroke="#263238" stroke-miterlimit="10"/>
<path d="M158.355 137.313H154.588V139.149H158.355V137.313Z" fill="white" stroke="#263238" stroke-miterlimit="10"/>
<path d="M162.208 135.041H158.441V157.437H162.208V135.041Z" fill="white" stroke="#263238" stroke-miterlimit="10"/>
<path d="M162.208 152.627H158.441V154.463H162.208V152.627Z" fill="white" stroke="#263238" stroke-miterlimit="10"/>
<path d="M162.208 137.313H158.441V139.149H162.208V137.313Z" fill="white" stroke="#263238" stroke-miterlimit="10"/>
<path d="M166.066 135.041H162.299V157.437H166.066V135.041Z" fill="white" stroke="#263238" stroke-miterlimit="10"/>
<path d="M172.344 135.041H166.035V157.437H172.344V135.041Z" fill="white" stroke="#263238" stroke-miterlimit="10"/>
<path d="M166.066 152.627H162.299V154.463H166.066V152.627Z" fill="white" stroke="#263238" stroke-miterlimit="10"/>
<path d="M166.066 137.313H162.299V139.149H166.066V137.313Z" fill="white" stroke="#263238" stroke-miterlimit="10"/>
<path d="M181.29 135.041H177.522V157.437H181.29V135.041Z" fill="white" stroke="#263238" stroke-miterlimit="10"/>
<path d="M181.29 152.627H177.522V154.463H181.29V152.627Z" fill="white" stroke="#263238" stroke-miterlimit="10"/>
<path d="M181.29 137.313H177.522V139.149H181.29V137.313Z" fill="white" stroke="#263238" stroke-miterlimit="10"/>
<path d="M185.147 135.041H181.38V157.437H185.147V135.041Z" fill="white" stroke="#263238" stroke-miterlimit="10"/>
<path d="M185.147 152.627H181.38V154.463H185.147V152.627Z" fill="white" stroke="#263238" stroke-miterlimit="10"/>
<path d="M185.147 137.313H181.38V139.149H185.147V137.313Z" fill="white" stroke="#263238" stroke-miterlimit="10"/>
<path d="M192.858 135.032L189.345 136.513L198.178 157.403L201.691 155.922L192.858 135.032Z" fill="white" stroke="#263238" stroke-miterlimit="10"/>
<path d="M199.706 151.036L196.198 152.52L196.924 154.23L200.432 152.745L199.706 151.036Z" fill="white" stroke="#263238" stroke-width="0.99925" stroke-miterlimit="10"/>
<path d="M193.757 137.155L190.244 138.636L190.968 140.348L194.481 138.867L193.757 137.155Z" fill="white" stroke="#263238" stroke-miterlimit="10"/>
<path d="M198.185 157.397H206.049L209.587 155.925L201.696 155.912L198.185 157.397Z" fill="white" stroke="#263238" stroke-miterlimit="10"/>
<path d="M192.863 135.023H200.249L209.587 155.925L201.696 155.912L192.863 135.023Z" fill="white" stroke="#263238" stroke-miterlimit="10"/>
<path d="M188.865 135.041H185.098V157.437H188.865V135.041Z" fill="white" stroke="#263238" stroke-miterlimit="10"/>
<path d="M188.865 152.627H185.098V154.463H188.865V152.627Z" fill="white" stroke="#263238" stroke-miterlimit="10"/>
<path d="M188.865 137.313H185.098V139.149H188.865V137.313Z" fill="white" stroke="#263238" stroke-miterlimit="10"/>
<path d="M188.865 135.041H192.863L189.347 136.503L198.185 157.397H188.865V135.041Z" fill="white" stroke="#263238" stroke-miterlimit="10"/>
<path d="M174.76 157.518V210.033" stroke="#263238" stroke-miterlimit="10"/>
<path d="M139.774 164.021H212.548" stroke="#263238" stroke-miterlimit="10"/>
<path d="M154.709 168.462V177.984" stroke="#263238" stroke-width="2" stroke-miterlimit="10"/>
<path d="M157.886 168.462V177.984" stroke="#263238" stroke-width="2" stroke-miterlimit="10"/>
<path d="M191.258 168.462V177.984" stroke="#263238" stroke-width="2" stroke-miterlimit="10"/>
<path d="M194.436 168.462V177.984" stroke="#263238" stroke-width="2" stroke-miterlimit="10"/>
<path d="M232.833 51.7545V35.6085H256.348" stroke="#263238" stroke-miterlimit="10"/>
<path d="M258.079 35.6085H267.985V75.6585H232.833V54.2025" stroke="#263238" stroke-miterlimit="10"/>
<path d="M255.195 70.2585H237.569V41.0085H263.244V70.2585H257.214" stroke="#263238" stroke-miterlimit="10"/>
<path d="M255.343 50.0085H245.469V61.2585H255.343V50.0085Z" stroke="#263238" stroke-miterlimit="10"/>
<path d="M271.108 70.4205V60.3495H285.777" stroke="#263238" stroke-miterlimit="10"/>
<path d="M286.854 60.3495H293.033V85.329H271.108V71.946" stroke="#263238" stroke-miterlimit="10"/>
<path d="M285.056 81.9631H274.064V63.7156H290.076V81.9631H286.313" stroke="#263238" stroke-miterlimit="10"/>
<path d="M285.15 69.3315H278.99V76.347H285.15V69.3315Z" stroke="#263238" stroke-miterlimit="10"/>
<path d="M38.6672 212.571H292.843" stroke="#263238" stroke-linecap="round" stroke-linejoin="round"/>
<path d="M56.6939 149.571C56.6939 149.571 53.9899 113.571 55.3419 109.521C56.6939 105.471 65.0313 105.696 66.6086 105.696C68.1859 105.696 101.085 105.696 105.817 107.946C110.549 110.196 111.225 165.546 111.225 165.546H58.9473L56.6939 149.571Z" fill="#263238" stroke="#263238" stroke-miterlimit="10"/>
<path d="M113.023 146.646C113.023 146.646 107.615 146.646 106.533 152.046C105.452 157.446 109.71 179.721 110.026 186.021C110.341 192.321 111.45 201.096 111.45 201.096H130.603L134.885 146.646H113.023Z" fill="#263238" stroke="#263238" stroke-miterlimit="10"/>
<path d="M134.885 146.646C134.885 146.646 129.477 146.646 128.125 152.046C126.773 157.446 129.927 179.721 129.927 186.021C129.927 192.321 130.603 201.096 130.603 201.096H137.363C137.363 201.096 138.039 184.896 138.039 182.646C138.039 180.396 140.743 156.996 139.391 152.271C138.039 147.546 136.913 147.096 134.885 146.646Z" fill="#636363" stroke="#263238" stroke-miterlimit="10"/>
<path d="M77.7626 108.058C77.7626 108.058 59.8486 115.371 59.8486 116.158C59.8486 116.946 65.9326 138.096 68.186 141.358C70.4393 144.621 72.0166 148.221 72.6926 149.571C73.3686 150.921 76.298 154.296 78.664 154.296C81.03 154.296 83.8466 151.483 91.3953 150.358C98.944 149.233 105.704 149.346 107.056 148.333C108.408 147.321 106.718 144.621 106.493 144.058C106.267 143.496 105.366 141.471 105.366 141.471C105.366 141.471 112.689 147.546 115.619 147.771C118.548 147.996 120.689 146.533 121.139 144.621C121.59 142.708 119.9 138.096 118.773 135.621C117.647 133.146 112.351 129.208 109.985 126.171C107.619 123.133 104.577 119.533 102.437 117.058C100.571 114.88 98.2681 113.117 95.6766 111.883C93.6486 110.983 88.466 108.733 85.1986 108.396C81.9313 108.058 77.7626 108.058 77.7626 108.058Z" fill="white" stroke="#263238" stroke-miterlimit="10"/>
<path d="M112.874 134.419C112.874 134.419 110.323 141.471 111.225 143.271C112.126 145.071 114.528 145.669 114.528 145.669" stroke="#263238" stroke-miterlimit="10"/>
<path d="M75.0586 110.421L89.9306 124.821L92.1839 114.021" stroke="#263238" stroke-miterlimit="10"/>
<path d="M113.591 135.283C113.591 135.283 117.196 137.871 118.435 136.971C119.675 136.071 119.337 134.383 118.548 132.583C117.759 130.783 115.168 129.771 114.154 130.558C113.14 131.346 112.802 134.496 113.591 135.283Z" fill="white" stroke="#263238" stroke-miterlimit="10"/>
<path d="M76.636 103.333L77.1993 110.083L89.142 121.783L90.9446 113.458L91.7333 109.971C91.7333 109.971 83.9593 108.621 81.4807 106.933C79.002 105.246 76.636 103.333 76.636 103.333Z" fill="white" stroke="#263238" stroke-miterlimit="10"/>
<path d="M91.7333 109.971C91.7333 109.971 83.9593 108.621 81.4807 106.933C79.002 105.246 76.636 103.333 76.636 103.333L77.1993 110.083L80.2188 113.04C82.5668 113.701 84.9057 114.021 86.4966 113.409C88.2618 112.768 89.949 111.93 91.526 110.911L91.7333 109.971Z" fill="#263238" stroke="#263238" stroke-miterlimit="10"/>
<path d="M73.0668 98.1224C73.0668 98.1224 70.9622 88.5194 70.9622 86.8724C70.9622 85.2254 76.6721 76.8194 84.4822 78.1694C92.2922 79.5194 96.6502 84.0194 96.9521 85.3694C97.2541 86.7194 96.0508 89.4194 96.0508 89.4194C96.2885 90.2016 96.4397 91.0074 96.5014 91.8224C96.5014 92.7224 95.1494 96.6194 95.1494 96.6194L94.6988 92.5694C94.6988 92.5694 90.9447 93.6224 88.8401 93.6224C86.7355 93.6224 83.1302 92.2724 83.1302 92.2724C83.1302 92.2724 83.8828 94.6709 83.1302 95.8724C82.3775 97.0739 80.1287 98.1224 80.1287 98.1224C80.1287 98.1224 79.8268 100.521 78.9254 100.521C77.8135 100.465 76.7084 100.314 75.6221 100.071C75.0182 99.9224 73.0668 98.1224 73.0668 98.1224Z" fill="#263238" stroke="#263238" stroke-miterlimit="10"/>
<path d="M76.5232 99.171C76.5232 99.171 76.2213 95.571 73.2153 96.471C70.2094 97.371 72.1653 100.67 73.8192 102.321C75.4732 103.973 75.9193 102.771 75.9193 102.771C75.9193 102.771 76.37 106.223 78.6233 108.171C80.8767 110.12 84.3333 113.72 87.9386 113.27C91.5439 112.82 94.0992 108.32 94.5499 105.021C95.0005 101.723 95.298 93.9195 95.298 93.0195C95.1894 92.0045 94.9888 91.0013 94.6986 90.0225C94.6986 90.0225 91.5439 92.2725 88.6912 91.6695C85.8385 91.0665 82.8325 89.8695 81.4805 89.8695C80.1285 89.8695 80.426 91.8225 80.8767 92.421C81.3273 93.0195 82.5306 94.221 81.1786 94.9725C79.8266 95.724 78.0239 96.471 78.0239 96.471V99.621L76.5232 99.171Z" fill="white" stroke="#263238" stroke-miterlimit="10"/>
<path d="M90.8951 97.533L90.156 105.664L86.4561 104.593" stroke="#263238" stroke-miterlimit="10"/>
<path d="M87.772 105.25C87.772 105.25 85.9693 105.25 84.9779 105.336C84.3823 105.434 83.7772 105.462 83.1752 105.417C82.7651 105.336 82.2739 105.007 83.0941 105.826C83.9143 106.645 86.3839 107.626 87.6999 107.797C89.0158 107.968 89.9217 107.55 90.9041 106.897C91.8866 106.245 92.7068 105.583 92.2201 105.421C91.5419 105.301 90.8538 105.245 90.165 105.255V105.669L87.772 105.25Z" fill="#263238" stroke="#263238" stroke-miterlimit="10"/>
<path d="M85.1806 100.323C85.4768 100.323 85.7169 99.8273 85.7169 99.2159C85.7169 98.6045 85.4768 98.1089 85.1806 98.1089C84.8844 98.1089 84.6443 98.6045 84.6443 99.2159C84.6443 99.8273 84.8844 100.323 85.1806 100.323Z" fill="#263238"/>
<path d="M93.198 99.0539C93.198 99.6659 92.9591 100.161 92.6662 100.161C92.3732 100.161 92.1299 99.6659 92.1299 99.0539C92.1299 98.4419 92.3687 97.9424 92.6662 97.9424C92.9636 97.9424 93.198 98.4419 93.198 99.0539Z" fill="#263238"/>
<path d="M83.166 97.5329C83.166 97.5329 85.3878 95.9714 87.195 96.6329" stroke="#263238" stroke-miterlimit="10"/>
<path d="M91.3096 96.7139C91.3096 96.7139 93.6125 95.6429 94.5994 96.6284" stroke="#263238" stroke-miterlimit="10"/>
<path d="M86.6226 101.25C86.6226 101.25 86.1269 101.826 84.4819 102.317" stroke="#263238" stroke-miterlimit="10"/>
<path d="M91.1428 100.899C91.6295 101.234 92.1545 101.511 92.7066 101.722" stroke="#263238" stroke-miterlimit="10"/>
<path d="M98.1553 122.233L98.9439 120.208C98.9439 120.208 99.9579 121.221 102.662 121.221C105.366 121.221 109.76 123.134 109.76 123.134L110.098 123.696C110.098 123.696 110.887 121.333 112.351 120.883C113.816 120.433 116.182 118.858 116.52 118.408L116.858 117.958L118.435 119.308L111.45 128.534L98.3806 123.471L98.1553 122.233Z" fill="white" stroke="#263238" stroke-miterlimit="10"/>
<path d="M98.2679 121.446L94.8879 139.333L106.605 142.033L110.887 124.708L98.2679 121.446Z" fill="white" stroke="#263238" stroke-miterlimit="10"/>
<path d="M110.887 124.708L118.435 119.308L113.929 136.633L106.605 142.033L110.887 124.708Z" fill="white" stroke="#263238" stroke-miterlimit="10"/>
<path d="M83.7339 136.071L88.8399 133.969C88.8399 133.969 93.3466 129.172 93.7973 128.722C94.2479 128.272 98.7546 127.822 98.7546 127.822L103.712 131.121C103.712 131.121 104.613 131.872 103.712 132.169C102.811 132.466 100.859 131.571 100.859 131.571L98.9033 130.369L97.7046 130.972L100.255 133.069C100.255 133.069 101.008 135.022 101.008 136.071C100.994 136.745 100.841 137.408 100.557 138.019L99.0566 140.121L94.5499 137.871C94.5499 137.871 91.8459 139.819 91.242 140.121C90.6381 140.422 84.9327 139.972 84.9327 139.972L83.7339 136.071Z" fill="white" stroke="#263238" stroke-miterlimit="10"/>
<path d="M94.5093 130.815L96.1046 130.513L97.4747 130.891" stroke="#263238" stroke-miterlimit="10"/>
<path d="M92.9907 133.776C92.9907 133.776 96.56 132.786 96.7898 132.786C97.0197 132.786 99.6786 135.517 99.6786 135.517L99.9806 138.478" stroke="#263238" stroke-miterlimit="10"/>
<path d="M93.1438 135.67L96.0281 135.747L98.687 137.493C98.9567 138.342 99.0817 139.23 99.0565 140.121" stroke="#263238" stroke-miterlimit="10"/>
<path d="M63.0033 114.021C63.0033 114.021 59.6954 114.471 59.2447 117.319C58.7941 120.168 55.7926 144.171 56.694 146.871C57.5953 149.571 74.27 144.922 74.8693 144.621C75.4687 144.319 84.9327 141.471 85.086 140.872C85.2392 140.274 85.5366 135.319 84.1846 135.022C82.8326 134.725 69.912 135.171 69.912 135.171L68.1093 119.569" fill="white"/>
<path d="M63.0033 114.021C63.0033 114.021 59.6954 114.471 59.2447 117.319C58.7941 120.168 55.7926 144.171 56.694 146.871C57.5953 149.571 74.27 144.922 74.8693 144.621C75.4687 144.319 84.9327 141.471 85.086 140.872C85.2392 140.274 85.5366 135.319 84.1846 135.022C82.8326 134.725 69.912 135.171 69.912 135.171L68.1093 119.569" stroke="#263238" stroke-miterlimit="10"/>
<path d="M69.912 135.171L61.9487 136.521" stroke="#263238" stroke-miterlimit="10"/>
<path d="M60.448 134.721L67.3567 135.621" stroke="#263238" stroke-miterlimit="10"/>
<path d="M116.407 126.733C116.407 126.733 113.365 129.883 113.478 130.671C113.591 131.458 115.168 130.221 115.506 129.883C115.844 129.546 117.421 128.646 117.421 127.746C117.421 126.846 117.083 125.833 116.407 126.733Z" fill="white" stroke="#263238" stroke-miterlimit="10"/>
<path d="M116.745 128.646C116.745 128.646 117.647 129.546 117.647 130.333C117.647 131.121 115.731 133.709 114.83 133.709C113.929 133.709 114.605 131.909 115.055 131.121C115.506 130.333 116.745 128.646 116.745 128.646Z" fill="white" stroke="#263238" stroke-miterlimit="10"/>
<path d="M117.647 130.333C117.647 130.333 118.773 130.671 118.773 131.684C118.773 132.696 116.633 134.384 116.069 134.496C115.506 134.609 115.619 133.596 116.069 132.809C116.52 132.021 117.647 130.333 117.647 130.333Z" fill="white" stroke="#263238" stroke-miterlimit="10"/>
<path d="M118.773 131.683C119.004 132.254 119.082 132.874 118.999 133.483C118.886 134.608 117.196 135.283 116.633 135.283C116.069 135.283 116.069 134.496 116.069 134.496C117.023 133.61 117.926 132.671 118.773 131.683Z" fill="white" stroke="#263238" stroke-miterlimit="10"/>
<path d="M83.3374 212.571H81.1967L80.1287 198.396H84.41L83.3374 212.571Z" fill="white" stroke="#263238" stroke-miterlimit="10"/>
<path d="M63.7334 212.571H61.5927L60.5247 198.396H64.806L63.7334 212.571Z" fill="white" stroke="#263238" stroke-miterlimit="10"/>
<path d="M134.488 212.571H132.347L131.279 198.396H135.561L134.488 212.571Z" fill="white" stroke="#263238" stroke-miterlimit="10"/>
<path d="M114.884 212.571H112.743L111.675 198.396H115.957L114.884 212.571Z" fill="white" stroke="#263238" stroke-miterlimit="10"/>
<path d="M131.505 171.274H80.354V200.974H131.505V171.274Z" fill="#263238" stroke="#263238" stroke-miterlimit="10"/>
<path d="M168.608 166.522C168.608 166.522 174.016 164.272 175.219 163.372C176.423 162.472 178.072 164.421 177.319 166.522C176.567 168.624 174.615 172.372 171.614 174.172C168.612 175.972 166.206 177.471 165.602 178.069C164.998 178.668 165.151 180.922 162.601 181.822C160.05 182.722 156.891 180.922 155.088 178.069C153.285 175.216 152.082 173.272 152.082 173.272C152.082 173.272 152.235 171.171 155.237 170.122C158.238 169.074 163.349 168.619 163.349 168.619L168.608 166.522Z" fill="white" stroke="#263238" stroke-miterlimit="10"/>
<path d="M107.056 148.333C107.056 148.333 110.621 147.469 111.522 147.919C112.423 148.369 115.429 151.222 115.429 151.222C115.429 151.222 133.605 151.519 134.957 152.122C136.309 152.725 150.279 163.372 153.285 164.871C156.291 166.369 158.842 167.719 158.842 167.719L156.589 177.619V178.519L156.742 180.022C156.742 180.022 148.927 177.619 146.976 177.169C145.025 176.719 136.913 172.521 136.16 172.521C135.407 172.521 129.251 170.721 129.251 170.721C129.251 170.721 128.35 170.122 118.584 169.222C108.818 168.322 97.8534 167.269 93.9461 167.121C90.0388 166.972 84.9328 166.671 82.9814 165.919C81.03 165.168 77.5734 159.921 76.974 156.771C76.3746 153.621 82.6795 150.921 85.3835 149.719C88.0875 148.518 98.1553 147.019 99.958 147.019C101.761 147.019 107.056 148.333 107.056 148.333Z" fill="white" stroke="#263238" stroke-miterlimit="10"/>
<path d="M110.472 152.721L107.466 157.072L111.522 154.372" fill="white"/>
<path d="M110.472 152.721L107.466 157.072L111.522 154.372" stroke="#263238" stroke-miterlimit="10"/>
<path d="M156.589 165.771C156.589 165.771 160.947 162.319 161.848 161.271C162.749 160.222 165.755 154.521 166.355 152.721C166.954 150.921 168.459 150.021 169.509 151.371C170.559 152.721 171.312 155.421 171.911 156.622C172.511 157.824 171.614 163.669 169.811 165.622C168.009 167.575 165.516 172.305 165.003 173.272C163.651 175.819 161.546 176.121 160.194 176.269C158.842 176.418 155.539 172.822 155.539 172.822L156.589 165.771Z" fill="white" stroke="#263238" stroke-miterlimit="10"/>
<path d="M89.7412 155.722C89.7412 155.722 94.2479 154.822 98.3039 155.272C102.36 155.722 110.621 158.269 114.077 159.169C117.534 160.069 123.69 160.519 126.547 161.572C129.404 162.625 136.913 163.971 142.618 163.971C148.323 163.971 157.039 164.722 157.039 164.722C157.039 164.722 155.841 173.421 156.138 175.072C156.434 176.401 156.837 177.705 157.341 178.969C157.341 178.969 145.773 179.869 142.469 180.319C139.166 180.769 125.795 178.672 123.541 178.069C121.288 177.466 117.985 176.571 115.88 176.571C113.775 176.571 109.719 177.471 103.861 178.069C98.002 178.668 89.7412 176.121 88.6912 175.972C87.6411 175.824 83.8826 174.469 82.9812 173.871C82.0799 173.272 76.8206 163.971 78.6233 160.069C80.426 156.168 82.6793 155.569 82.6793 155.569" fill="white"/>
<path d="M89.7412 155.722C89.7412 155.722 94.2479 154.822 98.3039 155.272C102.36 155.722 110.621 158.269 114.077 159.169C117.534 160.069 123.69 160.519 126.547 161.572C129.404 162.625 136.913 163.971 142.618 163.971C148.323 163.971 157.039 164.722 157.039 164.722C157.039 164.722 155.841 173.421 156.138 175.072C156.434 176.401 156.837 177.705 157.341 178.969C157.341 178.969 145.773 179.869 142.469 180.319C139.166 180.769 125.795 178.672 123.541 178.069C121.288 177.466 117.985 176.571 115.88 176.571C113.775 176.571 109.719 177.471 103.861 178.069C98.002 178.668 89.7412 176.121 88.6912 175.972C87.6411 175.824 83.8826 174.469 82.9812 173.871C82.0799 173.272 76.8206 163.971 78.6233 160.069C80.426 156.168 82.6793 155.569 82.6793 155.569" stroke="#263238" stroke-miterlimit="10"/>
<path d="M117.376 170.856C120.274 171.432 123.343 173.187 127.494 174.811C133.032 176.976 144.119 176.778 145.547 176.976C146.976 177.174 150.604 176.976 150.604 176.976" fill="white"/>
<path d="M117.376 170.856C120.274 171.432 123.343 173.187 127.494 174.811C133.032 176.976 144.119 176.778 145.547 176.976C146.976 177.174 150.604 176.976 150.604 176.976" stroke="#263238" stroke-miterlimit="10"/>
<path d="M95.0322 172.89L96.6862 173.128C101.499 173.848 110.657 171.207 114.497 170.725" fill="white"/>
<path d="M95.0322 172.89L96.6862 173.128C101.499 173.848 110.657 171.207 114.497 170.725" stroke="#263238" stroke-miterlimit="10"/>
<path d="M90.1875 172.408C90.1875 172.408 91.0528 172.408 93.3106 172.674L90.1875 172.408Z" fill="white"/>
<path d="M90.1875 172.408C90.1875 172.408 91.0528 172.408 93.3106 172.674" stroke="#263238" stroke-miterlimit="10"/>
<path d="M60.9708 146.646C60.9708 146.646 55.5628 146.646 54.4812 152.046C53.3996 157.446 57.6358 179.721 57.9738 186.021C58.3118 192.321 59.398 201.096 59.398 201.096H78.5513L82.8326 146.646H60.9708Z" fill="#263238" stroke="#263238" stroke-miterlimit="10"/>
<path d="M82.8327 146.646C82.8327 146.646 77.4247 146.646 76.0727 152.046C74.7207 157.446 77.8753 179.721 77.8753 186.021C77.8753 192.321 78.5513 201.096 78.5513 201.096H85.3113C85.3113 201.096 85.9873 184.896 85.9873 182.646C85.9873 180.396 88.6913 156.996 87.3393 152.271C85.9873 147.546 84.8607 147.096 82.8327 146.646Z" fill="#636363" stroke="#263238" stroke-miterlimit="10"/>
<path d="M126.827 212.571H124.686L123.618 198.396H127.899L126.827 212.571Z" fill="white" stroke="#263238" stroke-miterlimit="10"/>
<path d="M145.079 212.571H142.938L141.87 198.396H146.151L145.079 212.571Z" fill="white" stroke="#263238" stroke-miterlimit="10"/>
<path d="M153.641 212.571H151.501L150.433 198.396H154.714L153.641 212.571Z" fill="white" stroke="#263238" stroke-miterlimit="10"/>
<path d="M171.668 212.571H169.527L168.459 198.396H172.741L171.668 212.571Z" fill="white" stroke="#263238" stroke-miterlimit="10"/>
<path d="M124.181 179.946H171.253C172.12 179.946 172.951 180.29 173.564 180.902C174.176 181.513 174.521 182.343 174.521 183.208V206.271H120.891V183.208C120.891 182.778 120.977 182.352 121.142 181.955C121.308 181.557 121.55 181.197 121.856 180.894C122.162 180.59 122.525 180.35 122.924 180.188C123.323 180.025 123.75 179.943 124.181 179.946Z" fill="#263238" stroke="#263238" stroke-miterlimit="10"/>
<path d="M171.276 179.946H154.151C153.284 179.946 152.453 180.29 151.84 180.901C151.228 181.513 150.883 182.343 150.883 183.208V206.271H174.543V183.208C174.542 182.344 174.198 181.514 173.585 180.903C172.973 180.291 172.142 179.947 171.276 179.946Z" fill="#636363" stroke="#263238" stroke-miterlimit="10"/>
</svg>
