<svg width="106" height="54" viewBox="0 0 106 54" fill="none" xmlns="http://www.w3.org/2000/svg">
<path d="M15.336 27.076C16.248 27.22 17.076 27.592 17.82 28.192C18.588 28.792 19.188 29.536 19.62 30.424C20.076 31.312 20.304 32.26 20.304 33.268C20.304 34.54 19.98 35.692 19.332 36.724C18.684 37.732 17.736 38.536 16.488 39.136C15.264 39.712 13.812 40 12.132 40H2.772V14.908H11.772C13.476 14.908 14.928 15.196 16.128 15.772C17.328 16.324 18.228 17.08 18.828 18.04C19.428 19 19.728 20.08 19.728 21.28C19.728 22.768 19.32 24.004 18.504 24.988C17.712 25.948 16.656 26.644 15.336 27.076ZM6.048 25.744H11.556C13.092 25.744 14.28 25.384 15.12 24.664C15.96 23.944 16.38 22.948 16.38 21.676C16.38 20.404 15.96 19.408 15.12 18.688C14.28 17.968 13.068 17.608 11.484 17.608H6.048V25.744ZM11.844 37.3C13.476 37.3 14.748 36.916 15.66 36.148C16.572 35.38 17.028 34.312 17.028 32.944C17.028 31.552 16.548 30.46 15.588 29.668C14.628 28.852 13.344 28.444 11.736 28.444H6.048V37.3H11.844ZM28.1261 23.476C28.7021 22.348 29.5181 21.472 30.5741 20.848C31.6541 20.224 32.9621 19.912 34.4981 19.912V23.296H33.6341C29.9621 23.296 28.1261 25.288 28.1261 29.272V40H24.8501V20.272H28.1261V23.476ZM39.9718 17.068C39.3478 17.068 38.8198 16.852 38.3878 16.42C37.9558 15.988 37.7398 15.46 37.7398 14.836C37.7398 14.212 37.9558 13.684 38.3878 13.252C38.8198 12.82 39.3478 12.604 39.9718 12.604C40.5718 12.604 41.0758 12.82 41.4838 13.252C41.9158 13.684 42.1318 14.212 42.1318 14.836C42.1318 15.46 41.9158 15.988 41.4838 16.42C41.0758 16.852 40.5718 17.068 39.9718 17.068ZM41.5558 20.272V40H38.2798V20.272H41.5558ZM51.1352 22.972V34.6C51.1352 35.56 51.3392 36.244 51.7472 36.652C52.1552 37.036 52.8632 37.228 53.8712 37.228H56.2832V40H53.3312C51.5072 40 50.1392 39.58 49.2272 38.74C48.3152 37.9 47.8592 36.52 47.8592 34.6V22.972H45.3032V20.272H47.8592V15.304H51.1352V20.272H56.2832V22.972H51.1352Z" fill="black"/>
<path d="M63.5285 13.36V40H60.2525V13.36H63.5285ZM87.1118 29.38C87.1118 30.004 87.0758 30.664 87.0038 31.36H71.2358C71.3558 33.304 72.0158 34.828 73.2158 35.932C74.4398 37.012 75.9158 37.552 77.6438 37.552C79.0598 37.552 80.2358 37.228 81.1718 36.58C82.1318 35.908 82.8038 35.02 83.1878 33.916H86.7158C86.1878 35.812 85.1318 37.36 83.5478 38.56C81.9638 39.736 79.9958 40.324 77.6438 40.324C75.7718 40.324 74.0918 39.904 72.6038 39.064C71.1398 38.224 69.9878 37.036 69.1478 35.5C68.3078 33.94 67.8878 32.14 67.8878 30.1C67.8878 28.06 68.2958 26.272 69.1118 24.736C69.9278 23.2 71.0678 22.024 72.5318 21.208C74.0198 20.368 75.7238 19.948 77.6438 19.948C79.5158 19.948 81.1718 20.356 82.6118 21.172C84.0518 21.988 85.1558 23.116 85.9238 24.556C86.7158 25.972 87.1118 27.58 87.1118 29.38ZM83.7278 28.696C83.7278 27.448 83.4518 26.38 82.8998 25.492C82.3478 24.58 81.5918 23.896 80.6318 23.44C79.6958 22.96 78.6518 22.72 77.4998 22.72C75.8438 22.72 74.4278 23.248 73.2518 24.304C72.0998 25.36 71.4398 26.824 71.2718 28.696H83.7278ZM101.732 40L97.0521 32.656L92.5521 40H89.1321L95.5041 30.208L89.1321 20.272H92.8401L97.5201 27.58L101.984 20.272H105.404L99.0681 30.028L105.44 40H101.732Z" fill="#939393"/>
</svg>
