<svg width="384" height="257" viewBox="0 0 384 257" fill="none" xmlns="http://www.w3.org/2000/svg">
<path d="M205.824 111.065C201.132 107.905 195.509 106.439 189.879 106.909C184.248 107.379 178.943 109.756 174.836 113.651C170.728 117.546 168.061 122.727 167.272 128.344C166.484 133.961 167.621 139.68 170.496 144.563" stroke="#263238" stroke-width="0.969642" stroke-linecap="round" stroke-linejoin="round"/>
<path d="M214.681 121.674C214.196 120.579 213.635 119.519 213.002 118.503" stroke="#263238" stroke-width="0.969642" stroke-linecap="round" stroke-linejoin="round"/>
<path d="M212.557 145.781C214.414 143.007 215.7 139.888 216.34 136.608C216.98 133.328 216.961 129.953 216.284 126.68" stroke="#263238" stroke-width="0.969642" stroke-linecap="round" stroke-linejoin="round"/>
<path d="M167.173 106.974C165.479 108.68 163.961 110.554 162.642 112.566" stroke="#263238" stroke-width="0.969642" stroke-linecap="round" stroke-linejoin="round"/>
<path d="M219.556 153.29C224.569 146.785 227.148 138.72 226.844 130.501C226.54 122.283 223.371 114.432 217.891 108.319C212.411 102.205 204.967 98.2171 196.857 97.0498C188.748 95.8825 180.488 97.6101 173.517 101.931" stroke="#263238" stroke-width="0.969642" stroke-linecap="round" stroke-linejoin="round"/>
<path d="M164.188 153.29C160.73 148.797 158.406 143.53 157.414 137.94C156.423 132.349 156.794 126.601 158.494 121.186" stroke="#263238" stroke-width="0.969642" stroke-linecap="round" stroke-linejoin="round"/>
<path d="M153.226 162.167C155.402 164.957 157.87 167.504 160.589 169.764" stroke="#263238" stroke-width="0.969642" stroke-linecap="round" stroke-linejoin="round"/>
<path d="M219.679 91.1476C210.914 85.1218 200.438 82.1114 189.825 82.568C179.211 83.0246 169.031 86.9235 160.811 93.68C152.592 100.436 146.776 109.686 144.236 120.042C141.696 130.397 142.569 141.301 146.724 151.116" stroke="#263238" stroke-width="0.969642" stroke-linecap="round" stroke-linejoin="round"/>
<path d="M237.701 113.995C236.382 110.58 234.687 107.323 232.648 104.285" stroke="#263238" stroke-width="0.969642" stroke-linecap="round" stroke-linejoin="round"/>
<path d="M225.843 167.415C230.642 162.819 234.46 157.292 237.066 151.17C239.672 145.048 241.012 138.458 241.004 131.8" stroke="#263238" stroke-width="0.969642" stroke-linecap="round" stroke-linejoin="round"/>
<path d="M123.29 131.8C123.29 148.156 129.059 163.984 139.574 176.478C150.089 188.972 164.672 197.324 180.736 200.054" stroke="#263238" stroke-width="0.969642" stroke-linecap="round" stroke-linejoin="round"/>
<path d="M247.296 172.987C255.695 161.577 260.4 147.852 260.775 133.67C261.15 119.487 257.176 105.532 249.391 93.6911C241.606 81.8504 230.385 72.6963 217.248 67.4674C204.111 62.2385 189.69 61.1871 175.938 64.4556" stroke="#263238" stroke-width="0.969642" stroke-linecap="round" stroke-linejoin="round"/>
<path d="M123.29 131.8C123.29 116.284 128.483 101.217 138.034 89.018C147.585 76.8189 160.941 68.1941 175.959 64.5276" stroke="#263238" stroke-width="0.969642" stroke-linecap="round" stroke-linejoin="round"/>
<path d="M232.648 187.61C234.399 186.318 236.083 184.947 237.701 183.498" stroke="#263238" stroke-width="0.969642" stroke-linecap="round" stroke-linejoin="round"/>
<path d="M203.372 200.054C211.212 198.736 218.764 196.058 225.69 192.138" stroke="#263238" stroke-width="0.969642" stroke-linecap="round" stroke-linejoin="round"/>
<path d="M191.903 193.855C184.92 193.847 178.226 191.059 173.288 186.102C168.351 181.145 165.574 174.425 165.565 167.415V158.513C165.565 158.131 165.716 157.765 165.985 157.495C166.254 157.225 166.619 157.073 166.999 157.073H170.583C170.963 157.073 171.328 157.225 171.597 157.495C171.866 157.765 172.017 158.131 172.017 158.513C172.017 158.894 171.866 159.26 171.597 159.53C171.328 159.8 170.963 159.952 170.583 159.952H168.448V167.415C168.448 173.664 170.921 179.657 175.322 184.076C179.724 188.494 185.693 190.977 191.918 190.977C198.143 190.977 204.112 188.494 208.514 184.076C212.915 179.657 215.388 173.664 215.388 167.415V159.952H213.238C212.858 159.952 212.493 159.8 212.224 159.53C211.955 159.26 211.804 158.894 211.804 158.513C211.804 158.131 211.955 157.765 212.224 157.495C212.493 157.225 212.858 157.073 213.238 157.073H216.822C217.202 157.073 217.567 157.225 217.835 157.495C218.104 157.765 218.255 158.131 218.255 158.513V167.415C218.247 174.427 215.468 181.15 210.527 186.107C205.586 191.065 198.888 193.851 191.903 193.855Z" fill="#263238"/>
<path d="M219.673 215.978V213.099C219.674 212.721 219.6 212.347 219.456 211.997C219.313 211.648 219.101 211.33 218.835 211.063C218.569 210.795 218.252 210.583 217.904 210.439C217.556 210.294 217.183 210.22 216.806 210.221H166.999C166.622 210.22 166.249 210.294 165.901 210.439C165.553 210.583 165.236 210.795 164.97 211.063C164.703 211.33 164.492 211.648 164.348 211.997C164.205 212.347 164.131 212.721 164.132 213.099V215.978H219.673Z" fill="#263238"/>
<path d="M194.698 213.726C194.746 213.521 194.77 213.31 194.77 213.099V192.416H189.035V213.099C189.036 213.31 189.06 213.521 189.107 213.726H194.698Z" fill="#263238"/>
<path d="M209.638 131.8C209.678 129.436 209.249 127.088 208.376 124.892C207.502 122.696 206.202 120.697 204.551 119.011C202.9 117.325 200.931 115.986 198.759 115.072C196.587 114.158 194.255 113.687 191.9 113.687C189.545 113.687 187.214 114.158 185.042 115.072C182.87 115.986 180.901 117.325 179.249 119.011C177.598 120.697 176.298 122.696 175.425 124.892C174.551 127.088 174.122 129.436 174.162 131.8V167.415C174.241 172.085 176.145 176.538 179.463 179.813C182.781 183.087 187.247 184.922 191.9 184.922C196.553 184.922 201.02 183.087 204.338 179.813C207.656 176.538 209.559 172.085 209.638 167.415V131.8Z" stroke="#263238" stroke-width="0.969642" stroke-linecap="round" stroke-linejoin="round"/>
<path d="M209.638 131.8C209.678 129.436 209.249 127.088 208.376 124.892C207.502 122.696 206.202 120.697 204.551 119.011C202.9 117.325 200.931 115.986 198.759 115.072C196.587 114.158 194.255 113.687 191.9 113.687C189.545 113.687 187.214 114.158 185.042 115.072C182.87 115.986 180.901 117.325 179.249 119.011C177.598 120.697 176.298 122.696 175.425 124.892C174.551 127.088 174.122 129.436 174.162 131.8V167.415C174.241 172.085 176.145 176.538 179.463 179.813C182.781 183.087 187.247 184.922 191.9 184.922C196.553 184.922 201.02 183.087 204.338 179.813C207.656 176.538 209.559 172.085 209.638 167.415V131.8Z" fill="#E8E8E8"/>
<path d="M184.555 133.676H174.162V137.994H184.555C185.126 137.994 185.673 137.766 186.076 137.361C186.479 136.956 186.706 136.407 186.706 135.835C186.706 135.262 186.479 134.713 186.076 134.308C185.673 133.903 185.126 133.676 184.555 133.676Z" fill="white"/>
<path d="M209.639 133.676H199.25C198.68 133.676 198.133 133.903 197.729 134.308C197.326 134.713 197.1 135.262 197.1 135.835C197.1 136.407 197.326 136.956 197.729 137.361C198.133 137.766 198.68 137.994 199.25 137.994H209.639V133.676Z" fill="white"/>
<path d="M191.903 133.676C191.477 133.676 191.062 133.803 190.708 134.04C190.354 134.277 190.079 134.614 189.916 135.009C189.753 135.403 189.711 135.837 189.794 136.256C189.876 136.675 190.081 137.059 190.382 137.361C190.683 137.663 191.066 137.869 191.483 137.952C191.9 138.035 192.333 137.993 192.726 137.829C193.118 137.666 193.454 137.389 193.691 137.034C193.927 136.679 194.053 136.262 194.053 135.835C194.053 135.262 193.826 134.713 193.423 134.308C193.02 133.903 192.473 133.676 191.903 133.676Z" fill="white"/>
<path d="M191.903 142.404C191.477 142.404 191.062 142.53 190.708 142.768C190.354 143.005 190.079 143.342 189.916 143.736C189.753 144.131 189.711 144.565 189.794 144.984C189.876 145.402 190.081 145.787 190.382 146.089C190.683 146.391 191.066 146.597 191.483 146.68C191.9 146.763 192.333 146.72 192.726 146.557C193.118 146.394 193.454 146.117 193.691 145.762C193.927 145.407 194.053 144.989 194.053 144.563C194.053 143.99 193.826 143.441 193.423 143.036C193.02 142.631 192.473 142.404 191.903 142.404Z" fill="white"/>
<path d="M191.903 151.116C191.477 151.116 191.062 151.243 190.708 151.48C190.354 151.717 190.079 152.054 189.916 152.449C189.753 152.843 189.711 153.277 189.794 153.696C189.876 154.115 190.081 154.499 190.382 154.801C190.683 155.103 191.066 155.309 191.483 155.392C191.9 155.475 192.333 155.433 192.726 155.269C193.118 155.106 193.454 154.829 193.691 154.474C193.927 154.119 194.053 153.702 194.053 153.275C194.053 152.702 193.826 152.153 193.423 151.748C193.02 151.343 192.473 151.116 191.903 151.116Z" fill="white"/>
<path d="M184.555 142.404H174.162V146.721H184.555C185.126 146.721 185.673 146.494 186.076 146.089C186.479 145.684 186.706 145.135 186.706 144.563C186.706 143.99 186.479 143.441 186.076 143.036C185.673 142.631 185.126 142.404 184.555 142.404Z" fill="white"/>
<path d="M209.639 142.404H199.25C198.68 142.404 198.133 142.631 197.729 143.036C197.326 143.441 197.1 143.99 197.1 144.562C197.1 145.135 197.326 145.684 197.729 146.089C198.133 146.494 198.68 146.721 199.25 146.721H209.639V142.404Z" fill="white"/>
<path d="M184.555 151.116H174.162V155.434H184.555C185.126 155.434 185.673 155.206 186.076 154.801C186.479 154.396 186.706 153.847 186.706 153.275C186.706 152.702 186.479 152.153 186.076 151.748C185.673 151.343 185.126 151.116 184.555 151.116Z" fill="white"/>
<path d="M209.639 151.116H199.25C198.68 151.116 198.133 151.343 197.729 151.748C197.326 152.153 197.1 152.702 197.1 153.275C197.1 153.847 197.326 154.396 197.729 154.801C198.133 155.206 198.68 155.434 199.25 155.434H209.639V151.116Z" fill="white"/>
<path d="M209.638 131.8C209.678 129.436 209.249 127.088 208.376 124.892C207.502 122.696 206.202 120.697 204.551 119.011C202.9 117.325 200.931 115.986 198.759 115.072C196.587 114.158 194.255 113.687 191.9 113.687C189.545 113.687 187.214 114.158 185.042 115.072C182.87 115.986 180.901 117.325 179.249 119.011C177.598 120.697 176.298 122.696 175.425 124.892C174.551 127.088 174.122 129.436 174.162 131.8V167.415C174.241 172.085 176.145 176.538 179.463 179.813C182.781 183.087 187.247 184.922 191.9 184.922C196.553 184.922 201.02 183.087 204.338 179.813C207.656 176.538 209.559 172.085 209.638 167.415V131.8Z" stroke="#263238" stroke-width="0.969642" stroke-miterlimit="10"/>
<path d="M174.162 167.415C174.241 172.085 176.145 176.538 179.462 179.813C182.78 183.087 187.247 184.923 191.9 184.923C196.553 184.923 201.02 183.087 204.338 179.813C207.656 176.538 209.559 172.085 209.638 167.415H174.162Z" fill="#263238" stroke="#263238" stroke-width="0.969642" stroke-miterlimit="10"/>
<path d="M342.364 158.445C364.514 136.208 364.514 100.155 342.364 77.9179C320.213 55.6811 284.301 55.6811 262.15 77.9179C240 100.155 240 136.208 262.15 158.445C284.301 180.681 320.213 180.681 342.364 158.445Z" fill="#E8E8E8"/>
<path d="M294.124 94.6222H254.5C252.504 94.6222 250.885 96.2469 250.885 98.2511V138.03C250.885 140.034 252.504 141.658 254.5 141.658H294.124C296.12 141.658 297.738 140.034 297.738 138.03V98.2511C297.738 96.2469 296.12 94.6222 294.124 94.6222Z" fill="white"/>
<g opacity="0.1">
<path opacity="0.1" d="M255.304 141.663H270.94L280.904 94.6222H264.632L254.684 141.612C254.889 141.645 255.096 141.662 255.304 141.663Z" fill="black"/>
<path opacity="0.1" d="M287.529 94.6222H283.617L273.659 141.663H277.571L287.529 94.6222Z" fill="black"/>
</g>
<path d="M293.319 142.836H255.303C253.825 142.833 252.407 142.243 251.36 141.194C250.314 140.145 249.723 138.723 249.718 137.238V99.0581C249.72 97.5717 250.31 96.1469 251.357 95.0959C252.404 94.0448 253.823 93.4531 255.303 93.4504H293.319C294.801 93.4517 296.222 94.0428 297.27 95.094C298.318 96.1453 298.908 97.5708 298.911 99.0581V137.238C298.905 138.724 298.314 140.146 297.266 141.195C296.218 142.244 294.799 142.834 293.319 142.836ZM255.303 95.7994C254.442 95.7994 253.616 96.1425 253.006 96.7535C252.397 97.3645 252.054 98.1934 252.052 99.0581V137.238C252.052 138.104 252.395 138.935 253.004 139.548C253.614 140.161 254.441 140.506 255.303 140.507H293.319C293.747 140.507 294.17 140.422 294.565 140.258C294.96 140.094 295.318 139.853 295.62 139.549C295.922 139.246 296.162 138.885 296.325 138.489C296.488 138.092 296.571 137.667 296.571 137.238V99.0581C296.571 98.6297 296.487 98.2056 296.323 97.8099C296.16 97.4142 295.92 97.0547 295.618 96.752C295.316 96.4493 294.958 96.2094 294.563 96.0459C294.169 95.8825 293.746 95.7987 293.319 95.7994H255.303Z" fill="white" stroke="#263238" stroke-width="0.932567" stroke-miterlimit="10"/>
<path d="M349.23 94.6223H309.606C307.61 94.6223 305.992 96.2469 305.992 98.2511V138.03C305.992 140.034 307.61 141.658 309.606 141.658H349.23C351.226 141.658 352.845 140.034 352.845 138.03V98.2511C352.845 96.2469 351.226 94.6223 349.23 94.6223Z" fill="white"/>
<g opacity="0.1">
<path opacity="0.1" d="M314.501 141.663H330.138L340.096 94.6222H323.83L313.856 141.612C314.069 141.646 314.285 141.663 314.501 141.663Z" fill="black"/>
<path opacity="0.1" d="M346.726 94.6222H342.814L332.851 141.663H336.768L346.726 94.6222Z" fill="black"/>
</g>
<path d="M348.426 142.836H310.41C308.932 142.833 307.514 142.243 306.467 141.194C305.42 140.145 304.83 138.723 304.824 137.238V99.0581C304.827 97.5717 305.417 96.1469 306.464 95.0959C307.511 94.0448 308.93 93.4531 310.41 93.4504H348.426C349.908 93.4517 351.328 94.0428 352.377 95.094C353.425 96.1453 354.015 97.5708 354.017 99.0581V137.238C354.012 138.724 353.421 140.146 352.373 141.195C351.325 142.244 349.906 142.834 348.426 142.836ZM310.41 95.7994C309.549 95.7994 308.723 96.1425 308.113 96.7535C307.504 97.3645 307.161 98.1934 307.159 99.0581V137.238C307.159 138.104 307.502 138.935 308.111 139.548C308.721 140.161 309.548 140.506 310.41 140.507H348.426C348.854 140.507 349.277 140.422 349.672 140.258C350.067 140.094 350.425 139.853 350.727 139.549C351.029 139.246 351.269 138.885 351.432 138.489C351.595 138.092 351.678 137.667 351.678 137.238V99.0581C351.678 98.6297 351.593 98.2056 351.43 97.8099C351.267 97.4142 351.027 97.0547 350.725 96.752C350.423 96.4493 350.065 96.2094 349.67 96.0459C349.276 95.8825 348.853 95.7987 348.426 95.7994H310.41Z" fill="white" stroke="#263238" stroke-width="0.932567" stroke-miterlimit="10"/>
<path d="M303.79 227.944C317.88 227.944 329.303 226.257 329.303 224.176C329.303 222.095 317.88 220.408 303.79 220.408C289.7 220.408 278.277 222.095 278.277 224.176C278.277 226.257 289.7 227.944 303.79 227.944Z" fill="#E8E8E8"/>
<path d="M315.064 202.228C315.064 202.228 314.998 212.781 313.887 214.518C312.561 216.574 311.619 219.447 315.131 220.228C318.643 221.01 320.732 224.901 324.915 225.158C329.098 225.415 329.523 223.616 327.7 222.171C325.878 220.727 321.249 216.723 320.64 214.775C320.031 212.827 321.213 202.228 321.213 202.228H315.064Z" fill="white"/>
<path opacity="0.1" d="M320.655 208.355C320.881 205.245 321.213 202.228 321.213 202.228H315.069C315.069 202.228 315.069 204.927 314.89 207.821C316.794 208.159 318.722 208.338 320.655 208.355Z" fill="black"/>
<path d="M315.064 202.228C315.064 202.228 314.998 212.781 313.887 214.518C312.561 216.574 311.619 219.447 315.131 220.228C318.643 221.01 320.732 224.901 324.915 225.158C329.098 225.415 329.523 223.616 327.7 222.171C325.878 220.727 321.249 216.723 320.64 214.775C320.031 212.827 321.213 202.228 321.213 202.228H315.064Z" stroke="#263238" stroke-width="0.932567" stroke-linecap="round" stroke-linejoin="round"/>
<path d="M327.68 222.171C325.973 220.813 324.351 219.349 322.826 217.787C321.367 218.897 317.092 217.849 315.833 216.851C314.297 215.638 314.619 215.016 313.892 214.472L313.866 214.518C312.54 216.574 311.598 219.447 315.111 220.228C318.623 221.01 320.712 224.901 324.895 225.158C329.078 225.415 329.513 223.59 327.68 222.171Z" fill="#BFBFBF" stroke="#263238" stroke-width="0.932567" stroke-miterlimit="10"/>
<path d="M291.446 198.404C291.446 198.404 286.838 208.057 285.097 209.234C282.993 210.642 280.904 212.909 283.786 214.929C286.669 216.949 286.925 221.298 290.647 223.091C294.369 224.885 295.531 223.369 294.482 221.39C293.432 219.411 290.898 213.994 291.179 211.979C291.461 209.964 297.129 200.46 297.129 200.46L291.446 198.404Z" fill="white"/>
<path opacity="0.1" d="M291.446 198.404C291.446 198.404 289.797 201.868 288.103 204.896C289.471 206.258 291.047 207.391 292.772 208.252C294.538 204.819 297.129 200.475 297.129 200.475L291.446 198.404Z" fill="black"/>
<path d="M291.446 198.404C291.446 198.404 286.838 208.057 285.097 209.234C282.993 210.642 280.904 212.909 283.786 214.929C286.669 216.949 286.925 221.298 290.647 223.091C294.369 224.885 295.531 223.369 294.482 221.39C293.432 219.411 290.898 213.994 291.179 211.979C291.461 209.964 297.129 200.46 297.129 200.46L291.446 198.404Z" stroke="#263238" stroke-width="0.932567" stroke-linecap="round" stroke-linejoin="round"/>
<path d="M294.482 221.364C293.501 219.481 292.645 217.533 291.922 215.536C290.104 216.014 286.326 213.572 285.911 212.082C285.107 209.208 285.583 209.948 285.148 209.177L285.107 209.208C283.003 210.617 280.914 212.883 283.796 214.903C286.679 216.923 286.935 221.272 290.657 223.066C294.38 224.86 295.532 223.343 294.482 221.364Z" fill="#BFBFBF" stroke="#263238" stroke-width="0.932567" stroke-miterlimit="10"/>
<path d="M315.807 130.099C315.807 130.099 322.857 164.023 323.328 175.089C323.799 186.155 321.966 205.893 321.966 205.893L314.138 205.379C314.138 205.379 314.087 199.545 313.303 191.424C312.837 186.597 311.373 180.964 311.537 175.269C311.537 175.269 304.097 153.121 304.369 143.401C304.64 133.681 304.369 130.885 304.369 130.885L315.807 130.099Z" fill="#263238" stroke="#263238" stroke-width="0.932567" stroke-linecap="round" stroke-linejoin="round"/>
<path d="M296.96 130.099C296.96 130.099 289.649 136.164 293.888 148.392C295.557 153.244 301.998 175.438 301.998 175.438C300.229 177.47 298.731 179.725 297.544 182.146C294.605 187.975 292.465 197.052 288.84 202.259L294.206 205.893C294.206 205.893 311.532 184.089 312.638 177.165C313.744 170.242 308.542 142.558 308.542 142.558L306.878 131.306L296.96 130.099Z" fill="#263238" stroke="#263238" stroke-width="0.932567" stroke-linecap="round" stroke-linejoin="round"/>
<path d="M329.385 107.107C329.289 105.958 328.903 104.853 328.264 103.895C328.801 103.186 329.265 102.425 329.651 101.623C330.041 100.682 329.523 99.3511 328.443 100.944C327.363 102.538 326.175 103.7 326.605 105.689C326.831 106.973 326.599 108.296 325.95 109.425L328.443 111.384L333.415 107.426L329.385 107.107Z" fill="white" stroke="#263238" stroke-width="0.932567" stroke-linecap="round" stroke-linejoin="round"/>
<path d="M331.727 96.9399L327.547 98.0807C327.163 98.1857 326.936 98.5839 327.04 98.9702L329.422 107.764C329.526 108.15 329.923 108.378 330.308 108.273L334.488 107.133C334.872 107.028 335.1 106.629 334.995 106.243L332.613 97.4491C332.509 97.0628 332.112 96.8348 331.727 96.9399Z" fill="#263238" stroke="#263238" stroke-width="0.932567" stroke-linecap="round" stroke-linejoin="round"/>
<path d="M332.643 97.5583L327.07 99.0794L329.394 107.66L334.967 106.139L332.643 97.5583Z" fill="#E8E8E8" stroke="#263238" stroke-width="0.932567" stroke-linecap="round" stroke-linejoin="round"/>
<path d="M331.525 100.528C331.457 100.264 331.287 100.037 331.053 99.8983C330.819 99.7595 330.539 99.7198 330.276 99.788C330.012 99.8561 329.787 100.027 329.648 100.262C329.51 100.497 329.471 100.778 329.539 101.042C329.605 101.299 329.938 102.507 330.051 102.934L332.037 102.394C331.924 101.998 331.587 100.744 331.525 100.528Z" fill="#263238"/>
<path d="M331.341 103.787C331.587 103.72 331.8 103.564 331.937 103.348C332.074 103.132 332.126 102.872 332.083 102.62L330.112 103.134C330.197 103.378 330.371 103.581 330.599 103.702C330.827 103.823 331.092 103.853 331.341 103.787Z" fill="#263238"/>
<path d="M333.194 104.856L331.904 105.211L331.638 104.234C332.005 104.091 332.306 103.816 332.484 103.463C332.662 103.11 332.703 102.704 332.6 102.322L332.457 101.808C332.455 101.797 332.45 101.787 332.444 101.777C332.437 101.768 332.429 101.761 332.419 101.755C332.41 101.749 332.399 101.745 332.388 101.744C332.377 101.742 332.365 101.743 332.355 101.746L332.14 101.803C332.129 101.806 332.118 101.811 332.109 101.818C332.1 101.825 332.093 101.834 332.088 101.844C332.082 101.854 332.079 101.866 332.078 101.877C332.078 101.889 332.079 101.9 332.083 101.911C332.086 101.922 332.09 101.932 332.097 101.941C332.103 101.95 332.112 101.958 332.121 101.964C332.131 101.97 332.142 101.973 332.153 101.975C332.164 101.976 332.175 101.976 332.186 101.972L332.314 101.936L332.432 102.373C332.481 102.555 332.494 102.744 332.47 102.93C332.446 103.116 332.386 103.296 332.293 103.459C332.2 103.622 332.076 103.765 331.928 103.88C331.78 103.995 331.611 104.079 331.431 104.129C331.25 104.178 331.062 104.191 330.876 104.167C330.69 104.143 330.511 104.083 330.349 103.99C330.187 103.896 330.044 103.772 329.93 103.623C329.815 103.475 329.731 103.305 329.682 103.124L329.559 102.687L329.687 102.656C329.709 102.649 329.727 102.634 329.739 102.614C329.75 102.594 329.753 102.571 329.749 102.548C329.746 102.537 329.74 102.526 329.733 102.517C329.726 102.508 329.718 102.5 329.708 102.495C329.698 102.489 329.687 102.485 329.675 102.484C329.664 102.482 329.652 102.483 329.641 102.486L329.431 102.543C329.42 102.546 329.41 102.551 329.4 102.558C329.391 102.565 329.384 102.574 329.378 102.584C329.372 102.594 329.369 102.605 329.367 102.617C329.366 102.628 329.367 102.64 329.37 102.651L329.513 103.165C329.617 103.546 329.857 103.876 330.188 104.09C330.518 104.304 330.916 104.389 331.305 104.327L331.566 105.303L330.276 105.653C330.254 105.659 330.233 105.669 330.215 105.683C330.196 105.697 330.181 105.715 330.17 105.735C330.158 105.755 330.151 105.777 330.148 105.8C330.145 105.823 330.147 105.846 330.153 105.869L330.199 106.038L333.456 105.149L333.409 104.979C333.404 104.957 333.393 104.936 333.379 104.918C333.365 104.899 333.348 104.884 333.328 104.873C333.308 104.861 333.286 104.854 333.263 104.851C333.24 104.848 333.217 104.85 333.194 104.856Z" fill="#263238"/>
<path d="M333.722 99.5618C333.21 99.6183 332.785 100.425 332.943 101.561C333.102 102.697 334.141 101.464 334.203 101.104C334.264 100.744 334.7 99.4641 333.722 99.5618Z" fill="white" stroke="#263238" stroke-width="0.932567" stroke-linecap="round" stroke-linejoin="round"/>
<path d="M334.848 101.258C334.711 101.256 334.576 101.285 334.452 101.342C334.328 101.399 334.219 101.484 334.132 101.59C334.045 101.695 333.983 101.819 333.95 101.952C333.917 102.085 333.914 102.224 333.942 102.358C334.039 103.463 334.254 103.206 334.254 103.206C334.259 103.661 334.351 104.112 334.525 104.532C334.781 105.02 335.457 104.28 335.457 103.838C335.457 103.396 335.386 101.073 334.848 101.258Z" fill="white" stroke="#263238" stroke-width="0.932567" stroke-linecap="round" stroke-linejoin="round"/>
<path d="M334.259 103.185C334.259 103.185 335.145 102.923 335.355 102.276L334.259 103.185Z" fill="white"/>
<path d="M334.259 103.185C334.259 103.185 335.145 102.923 335.355 102.276" stroke="#263238" stroke-width="0.932567" stroke-linecap="round" stroke-linejoin="round"/>
<path d="M326.564 107.858C326.736 107.146 326.75 106.406 326.605 105.689C326.175 103.699 327.357 102.533 328.443 100.944C329.528 99.3562 330.04 100.682 329.651 101.623C329.265 102.425 328.8 103.186 328.264 103.895C328.956 104.825 329.347 105.947 329.385 107.107C329.385 107.483 329.385 108.603 329.385 108.603" fill="white"/>
<path d="M326.564 107.858C326.736 107.146 326.75 106.406 326.605 105.689C326.175 103.699 327.357 102.533 328.443 100.944C329.528 99.3562 330.04 100.682 329.651 101.623C329.265 102.425 328.8 103.186 328.264 103.895C328.956 104.825 329.347 105.947 329.385 107.107C329.385 107.483 329.385 108.603 329.385 108.603" stroke="#263238" stroke-width="0.932567" stroke-linecap="round" stroke-linejoin="round"/>
<path d="M312.832 95.4344C314.614 95.0592 315.162 94.6017 315.162 94.6017C313.826 89.1996 318.618 71.0296 303.514 70.1918C288.41 69.354 296.858 95.1003 296.858 95.1003L298.501 95.311L297.657 90.135L299.623 95.4395C305.439 96.0717 309.166 95.9535 311.511 95.6554C311.193 93.3209 311.16 90.9561 311.414 88.6136C311.709 90.9207 312.184 93.2012 312.832 95.4344Z" fill="#263238"/>
<path d="M303.508 70.5157C302.922 69.9309 302.156 69.562 301.334 69.4687C300.513 69.3755 299.684 69.5632 298.982 70.0017" stroke="#263238" stroke-width="0.932567" stroke-linecap="round" stroke-linejoin="round"/>
<path d="M315.013 98.7291V98.5646C314.982 98.6366 314.951 98.688 315.013 98.7291Z" fill="white" stroke="#263238" stroke-width="0.932567" stroke-linecap="round" stroke-linejoin="round"/>
<path d="M325.95 109.426L318.782 116.108L318.915 106.095C318.939 104.583 318.581 103.089 317.876 101.753C317.171 100.416 316.14 99.2808 314.88 98.4516L315.152 124.804C322.192 125.252 328.464 111.384 328.464 111.384C328.208 110.896 327.852 110.469 327.418 110.131C326.984 109.794 326.484 109.553 325.95 109.426Z" fill="white"/>
<path opacity="0.1" d="M317.681 121.571C316.616 121.669 316.375 119.623 316.391 117.634C316.093 118.382 315.895 119.167 315.802 119.968C315.71 122.234 315.71 124.481 315.745 126.403C323.763 122.753 323.861 119.5 325.919 116.179C324.608 117.85 319.734 121.381 317.681 121.571Z" fill="black"/>
<path d="M325.95 109.426L318.782 116.108L318.915 106.095C318.939 104.583 318.581 103.089 317.876 101.753C317.171 100.416 316.14 99.2808 314.88 98.4516L315.152 124.804C322.192 125.252 328.464 111.384 328.464 111.384C328.208 110.896 327.852 110.469 327.418 110.131C326.984 109.794 326.484 109.553 325.95 109.426V109.426Z" stroke="#263238" stroke-width="0.932567" stroke-linecap="round" stroke-linejoin="round"/>
<path d="M324.429 110.289L326.001 108.793L329.447 111.168L328.443 112.843L324.429 110.289Z" fill="#E8E8E8" stroke="#263238" stroke-width="0.932567" stroke-linecap="round" stroke-linejoin="round"/>
<path d="M317.711 111.024C314.824 123.874 316.257 132.319 316.257 132.319C316.257 132.319 309.289 137.279 294.641 133.075C294.641 133.075 297.303 126.429 296.586 121.361C296.151 118.241 293.233 107.025 293.233 107.025C293.233 107.025 291.85 102.122 292.485 98.1637C293.709 97.367 296.33 96.4058 300.964 96.0666C301.041 95.8064 301.094 95.5398 301.123 95.2699C301.27 93.9629 301.302 92.6454 301.22 91.3327C301.153 89.7907 301.025 88.5622 301.025 88.5622H306.616C306.616 88.5622 306.688 89.9808 306.867 91.6462C306.964 92.6279 307.103 93.7022 307.277 94.6274C307.363 95.0905 307.474 95.5486 307.61 95.9998C313.19 96.8427 315.29 98.3025 315.694 99.5721C317.594 105.298 318.326 108.279 317.711 111.024Z" fill="white" stroke="#263238" stroke-width="0.932567" stroke-linecap="round" stroke-linejoin="round"/>
<path d="M306.882 92.5509C306.427 93.5789 305.858 94.391 303.887 94.3807C302.423 94.3807 301.102 93.0803 300.954 92.5817C301.112 91.456 300.954 91.0397 300.887 89.765C302.77 89.7116 304.655 89.8217 306.519 90.0939C306.598 90.9186 306.72 91.7386 306.882 92.5509Z" fill="#263238"/>
<path d="M310.6 81.5461C310.6 80.7854 310.6 80.3177 310.6 80.3177C310.185 78.3233 307.727 78.2205 306.596 78.2257C305.402 78.2644 304.214 78.0562 303.104 77.614C303.467 78.4867 304.069 79.2386 304.84 79.7831C300.631 78.8425 300.303 76.6117 300.462 75.409C298.967 80.6569 297.026 80.8779 297.026 80.8779C297.026 80.8779 297.026 81.3457 297.113 82.1012C296.611 82.217 296.167 82.5112 295.863 82.9295C295.559 83.3479 295.416 83.8624 295.46 84.3783C295.454 84.9339 295.665 85.4698 296.048 85.8713C296.431 86.2727 296.954 86.508 297.508 86.5268C297.618 86.5218 297.728 86.5064 297.835 86.4805C298.726 89.9552 300.554 93.7331 304.297 93.584C308.04 93.4349 309.565 89.5183 310.169 85.9819C310.28 85.9922 310.392 85.9922 310.502 85.9819C311.057 85.926 311.567 85.6519 311.921 85.2194C312.275 84.7869 312.444 84.2313 312.392 83.6741C312.393 83.1635 312.214 82.6689 311.886 82.2789C311.557 81.889 311.101 81.6292 310.6 81.5461Z" fill="white" stroke="#263238" stroke-width="0.932567" stroke-linecap="round" stroke-linejoin="round"/>
<path d="M303.104 87.4314L303.749 87.8991C303.83 87.96 303.929 87.9929 304.031 87.9929C304.132 87.9929 304.231 87.96 304.312 87.8991L304.906 87.4417" stroke="#263238" stroke-width="0.932567" stroke-linecap="round" stroke-linejoin="round"/>
<path d="M305.562 84.5067C305.562 84.5067 306.36 83.4479 307.953 84.1932" stroke="#263238" stroke-width="0.932567" stroke-linecap="round" stroke-linejoin="round"/>
<path d="M302.08 84.5068C302.08 84.5068 301.286 83.4479 299.689 84.1932" stroke="#263238" stroke-width="0.932567" stroke-linecap="round" stroke-linejoin="round"/>
<path d="M305.592 89.2972C305.148 89.6501 304.604 89.8526 304.039 89.8757C303.473 89.8988 302.914 89.7413 302.443 89.4257" stroke="#263238" stroke-width="0.932567" stroke-linecap="round" stroke-linejoin="round"/>
<path d="M312.356 178.291C312.173 178.855 311.962 179.409 311.721 179.951" stroke="white" stroke-width="0.932567" stroke-linecap="round" stroke-linejoin="round"/>
<path d="M304.881 140.836L306.55 142.337C308.04 143.676 309.019 145.493 309.32 147.477C310.748 156.6 313.042 165.981 312.761 175.891" stroke="white" stroke-width="0.932567" stroke-linecap="round" stroke-linejoin="round"/>
<path d="M311.199 141.103L308.552 144.902L308.885 144.434" stroke="white" stroke-width="0.932567" stroke-linecap="round" stroke-linejoin="round"/>
<path d="M300.739 125.863L301.497 126.644" stroke="#263238" stroke-width="0.932567" stroke-linecap="round" stroke-linejoin="round"/>
<path d="M295.255 115.095C296.052 118.374 297.471 121.468 299.433 124.208" stroke="#263238" stroke-width="0.932567" stroke-linecap="round" stroke-linejoin="round"/>
<path d="M295.402 80.3364L294.834 80.3593L294.916 82.3879L295.484 82.365L295.402 80.3364Z" fill="white" stroke="#263238" stroke-width="0.932567" stroke-linecap="round" stroke-linejoin="round"/>
<path d="M312.734 79.6041L312.166 79.6271L312.248 81.6558L312.815 81.6328L312.734 79.6041Z" fill="white" stroke="#263238" stroke-width="0.932567" stroke-linecap="round" stroke-linejoin="round"/>
<path d="M303.426 71.1273C301.015 71.2257 298.735 72.2584 297.066 74.0086C295.398 75.7588 294.469 78.0901 294.477 80.5129C294.477 80.5584 294.487 80.6032 294.505 80.6448C294.523 80.6864 294.55 80.7239 294.583 80.7551C294.616 80.7862 294.655 80.8104 294.697 80.8262C294.739 80.842 294.785 80.8491 294.83 80.847H295.429C295.517 80.843 295.6 80.8048 295.66 80.7405C295.72 80.6762 295.753 80.5909 295.751 80.5027C295.766 78.4241 296.577 76.431 298.016 74.937C299.456 73.443 301.413 72.563 303.482 72.4796C305.551 72.3963 307.572 73.116 309.126 74.4894C310.681 75.8628 311.648 77.7843 311.828 79.855C311.834 79.9427 311.873 80.0248 311.938 80.0835C312.003 80.1422 312.089 80.1728 312.176 80.1686H312.775C312.821 80.1673 312.865 80.1569 312.906 80.1379C312.947 80.1189 312.983 80.0917 313.014 80.0581C313.044 80.0244 313.067 79.985 313.081 79.9421C313.096 79.8993 313.102 79.8539 313.098 79.8088C312.926 77.3837 311.82 75.1212 310.014 73.5007C308.209 71.8802 305.846 71.029 303.426 71.1273Z" fill="#E8E8E8" stroke="#263238" stroke-width="0.932567" stroke-linecap="round" stroke-linejoin="round"/>
<path d="M296.448 81.5769H296.315C295.929 81.5928 295.55 81.6848 295.199 81.8477C294.849 82.0107 294.534 82.2413 294.272 82.5265C293.743 83.1024 293.464 83.8656 293.496 84.6481C293.528 85.4306 293.869 86.1683 294.442 86.6989C295.016 87.2296 295.776 87.5097 296.556 87.4776H296.684L296.448 81.5769Z" fill="#E8E8E8" stroke="#263238" stroke-width="0.932567" stroke-linecap="round" stroke-linejoin="round"/>
<path d="M297.242 84.4913C297.329 86.6809 297.482 88.0893 296.73 88.1355C295.977 88.1818 295.659 86.7529 295.572 84.5375C295.485 82.3222 295.685 80.9396 296.438 80.8882C297.19 80.8368 297.155 82.3017 297.242 84.4913Z" fill="white" stroke="#263238" stroke-width="0.932567" stroke-linecap="round" stroke-linejoin="round"/>
<path d="M311.245 80.9807H311.378C311.764 80.9652 312.149 81.0261 312.511 81.16C312.874 81.294 313.206 81.4983 313.49 81.7612C313.774 82.0242 314.004 82.3408 314.166 82.6928C314.328 83.0448 314.419 83.4254 314.434 83.8128C314.45 84.2003 314.389 84.587 314.256 84.9509C314.122 85.3148 313.919 85.6487 313.657 85.9337C313.395 86.2186 313.08 86.449 312.729 86.6116C312.378 86.7742 311.999 86.8659 311.613 86.8814H311.48L311.245 80.9807Z" fill="#E8E8E8" stroke="#263238" stroke-width="0.932567" stroke-linecap="round" stroke-linejoin="round"/>
<path d="M310.661 83.9516C310.748 86.1412 310.712 87.5496 311.465 87.5496C312.218 87.5496 312.417 86.0847 312.33 83.8951C312.243 81.7054 311.926 80.2971 311.178 80.3228C310.431 80.3485 310.574 81.762 310.661 83.9516Z" fill="white" stroke="#263238" stroke-width="0.932567" stroke-linecap="round" stroke-linejoin="round"/>
<path d="M298.583 82.5638C298.583 82.5638 300.534 80.9447 302.382 82.4096" stroke="#263238" stroke-width="0.932567" stroke-linecap="round" stroke-linejoin="round"/>
<path d="M309.289 82.24C309.289 82.24 307.241 80.7854 305.49 82.3942" stroke="#263238" stroke-width="0.932567" stroke-linecap="round" stroke-linejoin="round"/>
<path d="M300.227 95.3521C300.227 95.3521 301.394 98.2922 305.726 98.9501C305.726 98.9501 303.995 102.548 301.63 101.135C298.798 99.4487 298.256 95.9484 298.256 95.9484L300.227 95.3521Z" fill="#E8E8E8" stroke="#263238" stroke-width="0.932567" stroke-linecap="round" stroke-linejoin="round"/>
<path d="M308.163 95.7171C308.179 96.4998 307.92 97.2631 307.431 97.8731C306.942 98.4832 306.255 98.9009 305.49 99.0529C305.49 99.0529 307.594 102.517 309.32 100.595C311.045 98.6726 309.704 96.0563 309.704 96.0563L308.163 95.7171Z" fill="#E8E8E8" stroke="#263238" stroke-width="0.932567" stroke-linecap="round" stroke-linejoin="round"/>
<path d="M307.2 105.92C307.2 106.022 307.17 106.121 307.114 106.206C307.058 106.29 306.978 106.356 306.884 106.395C306.791 106.434 306.688 106.444 306.588 106.424C306.489 106.404 306.398 106.355 306.326 106.283C306.255 106.212 306.206 106.12 306.186 106.02C306.166 105.921 306.176 105.817 306.215 105.723C306.254 105.629 306.32 105.549 306.404 105.493C306.488 105.436 306.587 105.406 306.688 105.406C306.824 105.406 306.954 105.46 307.05 105.557C307.146 105.653 307.2 105.784 307.2 105.92Z" fill="#E8E8E8" stroke="#263238" stroke-width="0.932567" stroke-linecap="round" stroke-linejoin="round"/>
<path d="M307.896 116.041C307.896 116.142 307.866 116.242 307.81 116.326C307.754 116.411 307.674 116.477 307.58 116.515C307.487 116.554 307.384 116.565 307.284 116.545C307.185 116.525 307.094 116.476 307.022 116.404C306.951 116.332 306.902 116.241 306.882 116.141C306.862 116.041 306.873 115.938 306.911 115.844C306.95 115.75 307.016 115.67 307.1 115.613C307.184 115.557 307.283 115.527 307.384 115.527C307.52 115.527 307.65 115.581 307.746 115.677C307.842 115.774 307.896 115.904 307.896 116.041Z" fill="#E8E8E8" stroke="#263238" stroke-width="0.932567" stroke-linecap="round" stroke-linejoin="round"/>
<path d="M308.552 126.403C308.552 126.505 308.522 126.604 308.465 126.688C308.409 126.773 308.329 126.839 308.236 126.878C308.142 126.917 308.039 126.927 307.94 126.907C307.84 126.887 307.749 126.838 307.678 126.766C307.606 126.694 307.557 126.603 307.537 126.503C307.518 126.403 307.528 126.3 307.567 126.206C307.605 126.112 307.671 126.032 307.755 125.975C307.839 125.919 307.938 125.889 308.04 125.889C308.175 125.889 308.306 125.943 308.402 126.039C308.498 126.136 308.552 126.267 308.552 126.403Z" fill="#E8E8E8" stroke="#263238" stroke-width="0.932567" stroke-linecap="round" stroke-linejoin="round"/>
<path d="M353.669 57.4908H249.928C249.447 57.4908 249.057 57.8821 249.057 58.3646V60.2407C249.057 60.7233 249.447 61.1146 249.928 61.1146H353.669C354.15 61.1146 354.54 60.7233 354.54 60.2407V58.3646C354.54 57.8821 354.15 57.4908 353.669 57.4908Z" fill="white"/>
<path d="M353.495 61.1146H250.102" stroke="#263238" stroke-width="0.932567" stroke-linecap="round" stroke-linejoin="round"/>
<path d="M250.102 57.4908H353.495" stroke="#263238" stroke-width="0.932567" stroke-linecap="round" stroke-linejoin="round"/>
<path d="M282.286 81.875C282.286 81.875 278.011 81.2737 277.781 82.425C277.55 83.5764 277.678 85.4217 278.416 86.023C279.808 87.1641 279.552 89.2972 279.552 89.2972L283.136 88.9477L283.228 87.1487C283.413 86.5618 283.742 86.0313 284.186 85.6067C285.476 84.3885 284.964 83.0367 284.744 81.4073C284.524 79.7779 283.454 80.5027 283.367 81.3456C283.341 82.0973 283.403 82.8494 283.551 83.5867L282.286 81.875Z" fill="white" stroke="#263238" stroke-width="0.932567" stroke-linecap="round" stroke-linejoin="round"/>
<path d="M283.29 83.4582C283.29 83.4582 282.266 83.6689 281.457 85.1235L283.29 83.4582Z" fill="white"/>
<path d="M283.29 83.4582C283.29 83.4582 282.266 83.6689 281.457 85.1235" stroke="#263238" stroke-width="0.932567" stroke-linecap="round" stroke-linejoin="round"/>
<path d="M283.29 83.8385H278.108C277.749 83.8495 277.392 83.774 277.068 83.6184C276.744 83.4628 276.462 83.2316 276.244 82.9442C276.059 82.683 275.96 82.3704 275.96 82.0498C275.96 81.7292 276.059 81.4166 276.244 81.1554L278.835 77.3364C279.059 77.0528 279.344 76.8237 279.668 76.6662C279.993 76.5087 280.349 76.4269 280.709 76.4269C281.07 76.4269 281.425 76.5087 281.75 76.6662C282.074 76.8237 282.359 77.0528 282.583 77.3364L285.179 81.1554C285.364 81.4166 285.464 81.7292 285.464 82.0498C285.464 82.3704 285.364 82.683 285.179 82.9442C284.96 83.2359 284.673 83.4698 284.344 83.6256C284.015 83.7815 283.653 83.8545 283.29 83.8385ZM277.146 81.5769C277.048 81.7132 276.996 81.8768 276.996 82.0447C276.996 82.2125 277.048 82.3761 277.146 82.5124C277.259 82.6612 277.405 82.7808 277.574 82.8612C277.742 82.9417 277.927 82.9807 278.113 82.975H283.29C283.476 82.9811 283.661 82.9423 283.829 82.8618C283.998 82.7813 284.145 82.6615 284.257 82.5124C284.356 82.3764 284.408 82.2127 284.408 82.0447C284.408 81.8766 284.356 81.7129 284.257 81.5769L281.667 77.763C281.554 77.6106 281.406 77.4879 281.236 77.4056C281.065 77.3232 280.878 77.2836 280.689 77.2902C280.5 77.2831 280.313 77.3225 280.144 77.405C279.974 77.4874 279.827 77.6104 279.716 77.763L277.12 81.5821L277.146 81.5769Z" fill="#263238"/>
<path d="M279.147 81.9264C279.414 83.2834 279.25 83.7665 278.635 83.6946C278.021 83.6226 277.401 81.9573 278.251 81.5769C279.101 81.1965 279.787 80.9035 279.787 80.9035C280.06 80.7558 280.362 80.6738 280.672 80.664C280.981 80.6542 281.288 80.7168 281.569 80.847C282.788 80.4204 283.003 81.3096 283.003 81.3096C283.003 81.3096 283.883 83.8796 283.151 83.967C282.419 84.0544 281.815 81.8236 281.815 81.8236C281.815 81.8236 282.731 84.2702 281.892 84.3114C281.052 84.3525 280.566 81.9367 280.566 81.9367C280.566 81.9367 281.113 84.0595 280.32 84.1315C279.526 84.2034 279.147 81.9264 279.147 81.9264Z" fill="white" stroke="#263238" stroke-width="0.932567" stroke-linecap="round" stroke-linejoin="round"/>
<path d="M281.083 60.1431H280.243V77.0177H281.083V60.1431Z" fill="white" stroke="#263238" stroke-width="0.932567" stroke-linecap="round" stroke-linejoin="round"/>
<path d="M281.549 76.7556L281.001 77.5626C280.965 77.6085 280.919 77.6457 280.867 77.6713C280.814 77.6968 280.757 77.7101 280.699 77.7101C280.641 77.7101 280.583 77.6968 280.531 77.6713C280.478 77.6457 280.433 77.6085 280.397 77.5626L279.854 76.7556C279.721 76.5654 279.89 76.329 280.151 76.329H281.247C281.513 76.329 281.677 76.586 281.549 76.7556Z" fill="white" stroke="#263238" stroke-width="0.932567" stroke-linecap="round" stroke-linejoin="round"/>
<path d="M281.15 71.0913H280.254C280.008 71.0913 279.808 71.2915 279.808 71.5385V75.2804C279.808 75.5274 280.008 75.7276 280.254 75.7276H281.15C281.396 75.7276 281.595 75.5274 281.595 75.2804V71.5385C281.595 71.2915 281.396 71.0913 281.15 71.0913Z" fill="white" stroke="#263238" stroke-width="0.932567" stroke-linecap="round" stroke-linejoin="round"/>
<path d="M281.15 56.91H280.254C280.008 56.91 279.808 57.1102 279.808 57.3572V61.0991C279.808 61.3461 280.008 61.5463 280.254 61.5463H281.15C281.396 61.5463 281.595 61.3461 281.595 61.0991V57.3572C281.595 57.1102 281.396 56.91 281.15 56.91Z" fill="white" stroke="#263238" stroke-width="0.932567" stroke-linecap="round" stroke-linejoin="round"/>
<path d="M271.109 83.8385H265.927C265.568 83.8494 265.212 83.774 264.888 83.6184C264.563 83.4628 264.281 83.2316 264.064 82.9441C263.879 82.683 263.779 82.3703 263.779 82.0498C263.779 81.7292 263.879 81.4166 264.064 81.1554L266.655 77.3364C266.879 77.0527 267.164 76.8236 267.489 76.6661C267.814 76.5086 268.17 76.4268 268.531 76.4268C268.892 76.4268 269.248 76.5086 269.573 76.6661C269.898 76.8236 270.183 77.0527 270.407 77.3364L272.998 81.1554C273.183 81.4166 273.283 81.7292 273.283 82.0498C273.283 82.3703 273.183 82.683 272.998 82.9441C272.779 83.2359 272.493 83.4698 272.164 83.6256C271.834 83.7814 271.472 83.8545 271.109 83.8385ZM264.965 81.5769C264.867 81.7132 264.815 81.8768 264.815 82.0446C264.815 82.2124 264.867 82.376 264.965 82.5124C265.078 82.6611 265.225 82.7807 265.393 82.8612C265.561 82.9416 265.746 82.9806 265.933 82.975H271.114C271.301 82.9806 271.487 82.9416 271.656 82.8612C271.825 82.7808 271.973 82.6612 272.087 82.5124C272.184 82.376 272.237 82.2124 272.237 82.0446C272.237 81.8768 272.184 81.7132 272.087 81.5769L269.496 77.763C269.383 77.6106 269.236 77.4879 269.065 77.4055C268.895 77.3231 268.707 77.2835 268.518 77.2901C268.33 77.2831 268.143 77.3225 267.973 77.4049C267.804 77.4874 267.657 77.6103 267.545 77.763L264.95 81.582L264.965 81.5769Z" fill="#263238"/>
<path d="M268.902 60.1431H268.063V77.0177H268.902V60.1431Z" fill="white" stroke="#263238" stroke-width="0.932567" stroke-linecap="round" stroke-linejoin="round"/>
<path d="M269.368 76.7556L268.8 77.5626C268.764 77.6085 268.718 77.6457 268.666 77.6713C268.614 77.6968 268.556 77.7101 268.498 77.7101C268.44 77.7101 268.382 77.6968 268.33 77.6713C268.278 77.6457 268.232 77.6085 268.196 77.5626L267.653 76.7556C267.52 76.5654 267.689 76.329 267.95 76.329H269.046C269.312 76.329 269.496 76.586 269.368 76.7556Z" fill="white" stroke="#263238" stroke-width="0.932567" stroke-linecap="round" stroke-linejoin="round"/>
<path d="M268.969 71.0913H268.073C267.827 71.0913 267.628 71.2915 267.628 71.5385V75.2804C267.628 75.5274 267.827 75.7276 268.073 75.7276H268.969C269.215 75.7276 269.415 75.5274 269.415 75.2804V71.5385C269.415 71.2915 269.215 71.0913 268.969 71.0913Z" fill="white" stroke="#263238" stroke-width="0.932567" stroke-linecap="round" stroke-linejoin="round"/>
<path d="M268.969 56.91H268.073C267.827 56.91 267.628 57.1102 267.628 57.3572V61.0991C267.628 61.3461 267.827 61.5463 268.073 61.5463H268.969C269.215 61.5463 269.415 61.3461 269.415 61.0991V57.3572C269.415 57.1102 269.215 56.91 268.969 56.91Z" fill="white" stroke="#263238" stroke-width="0.932567" stroke-linecap="round" stroke-linejoin="round"/>
<path d="M323.896 83.8385H318.715C318.355 83.8503 317.998 83.7752 317.674 83.6196C317.35 83.4639 317.067 83.2323 316.851 82.9441C316.666 82.683 316.566 82.3704 316.566 82.0498C316.566 81.7292 316.666 81.4166 316.851 81.1554L319.442 77.3364C319.666 77.0528 319.95 76.8237 320.275 76.6662C320.599 76.5087 320.955 76.4269 321.316 76.4269C321.676 76.4269 322.032 76.5087 322.356 76.6662C322.681 76.8237 322.966 77.0528 323.189 77.3364L325.78 81.1554C325.965 81.4166 326.065 81.7292 326.065 82.0498C326.065 82.3704 325.965 82.683 325.78 82.9441C325.562 83.2352 325.276 83.4686 324.948 83.6244C324.62 83.7802 324.259 83.8537 323.896 83.8385ZM317.752 81.5769C317.654 81.7129 317.601 81.8766 317.601 82.0446C317.601 82.2127 317.654 82.3764 317.752 82.5124C317.865 82.6615 318.012 82.7813 318.18 82.8618C318.348 82.9423 318.533 82.9811 318.72 82.975H323.901C324.088 82.9811 324.273 82.9423 324.441 82.8618C324.609 82.7813 324.756 82.6615 324.869 82.5124C324.967 82.3764 325.02 82.2127 325.02 82.0446C325.02 81.8766 324.967 81.7129 324.869 81.5769L322.278 77.763C322.161 77.6153 322.012 77.496 321.843 77.4139C321.674 77.3319 321.488 77.2893 321.3 77.2893C321.112 77.2893 320.927 77.3319 320.757 77.4139C320.588 77.496 320.439 77.6153 320.322 77.763L317.732 81.582L317.752 81.5769Z" fill="#263238"/>
<path d="M321.684 60.1431H320.845V77.0177H321.684V60.1431Z" fill="white" stroke="#263238" stroke-width="0.932567" stroke-linecap="round" stroke-linejoin="round"/>
<path d="M322.151 76.7556L321.608 77.5626C321.572 77.6085 321.526 77.6457 321.474 77.6713C321.422 77.6968 321.364 77.7101 321.306 77.7101C321.248 77.7101 321.19 77.6968 321.138 77.6713C321.086 77.6457 321.04 77.6085 321.004 77.5626L320.461 76.7556C320.328 76.5654 320.497 76.329 320.758 76.329H321.854C322.115 76.329 322.284 76.586 322.151 76.7556Z" fill="white" stroke="#263238" stroke-width="0.932567" stroke-linecap="round" stroke-linejoin="round"/>
<path d="M321.756 71.0913H320.86C320.614 71.0913 320.415 71.2915 320.415 71.5385V75.2804C320.415 75.5274 320.614 75.7276 320.86 75.7276H321.756C322.002 75.7276 322.202 75.5274 322.202 75.2804V71.5385C322.202 71.2915 322.002 71.0913 321.756 71.0913Z" fill="white" stroke="#263238" stroke-width="0.932567" stroke-linecap="round" stroke-linejoin="round"/>
<path d="M321.756 56.91H320.86C320.614 56.91 320.415 57.1102 320.415 57.3572V61.0991C320.415 61.3461 320.614 61.5463 320.86 61.5463H321.756C322.002 61.5463 322.202 61.3461 322.202 61.0991V57.3572C322.202 57.1102 322.002 56.91 321.756 56.91Z" fill="white" stroke="#263238" stroke-width="0.932567" stroke-linecap="round" stroke-linejoin="round"/>
<path d="M335.503 83.8385H330.322C329.963 83.8495 329.606 83.774 329.282 83.6184C328.958 83.4628 328.675 83.2316 328.458 82.9441C328.273 82.683 328.174 82.3704 328.174 82.0498C328.174 81.7292 328.273 81.4166 328.458 81.1554L331.049 77.3364C331.273 77.0528 331.559 76.8236 331.884 76.6661C332.209 76.5086 332.565 76.4268 332.926 76.4268C333.286 76.4268 333.642 76.5086 333.967 76.6661C334.292 76.8236 334.578 77.0528 334.802 77.3364L337.393 81.1554C337.578 81.4166 337.677 81.7292 337.677 82.0498C337.677 82.3704 337.578 82.683 337.393 82.9441C337.174 83.2359 336.887 83.4698 336.558 83.6256C336.229 83.7814 335.867 83.8545 335.503 83.8385ZM329.359 81.5769C329.262 81.7132 329.209 81.8768 329.209 82.0446C329.209 82.2125 329.262 82.3761 329.359 82.5124C329.473 82.6612 329.619 82.7807 329.788 82.8612C329.956 82.9416 330.141 82.9806 330.327 82.975H335.509C335.696 82.9806 335.881 82.9416 336.05 82.8612C336.22 82.7808 336.367 82.6613 336.481 82.5124C336.579 82.3761 336.631 82.2125 336.631 82.0446C336.631 81.8768 336.579 81.7132 336.481 81.5769L333.891 77.763C333.778 77.6106 333.63 77.4879 333.46 77.4055C333.289 77.3232 333.102 77.2836 332.913 77.2902C332.724 77.2831 332.537 77.3225 332.368 77.405C332.198 77.4874 332.051 77.6103 331.94 77.763L329.344 81.5821L329.359 81.5769Z" fill="#263238"/>
<path d="M333.297 60.1431H332.457V77.0177H333.297V60.1431Z" fill="white" stroke="#263238" stroke-width="0.932567" stroke-linecap="round" stroke-linejoin="round"/>
<path d="M333.763 76.7556L333.215 77.5626C333.179 77.6085 333.133 77.6457 333.081 77.6713C333.028 77.6968 332.971 77.7101 332.913 77.7101C332.854 77.7101 332.797 77.6968 332.745 77.6713C332.692 77.6457 332.646 77.6085 332.611 77.5626L332.068 76.7556C331.935 76.5654 332.104 76.329 332.365 76.329H333.46C333.727 76.329 333.891 76.586 333.763 76.7556Z" fill="white" stroke="#263238" stroke-width="0.932567" stroke-linecap="round" stroke-linejoin="round"/>
<path d="M333.363 71.0913H332.467C332.221 71.0913 332.022 71.2915 332.022 71.5385V75.2804C332.022 75.5274 332.221 75.7276 332.467 75.7276H333.363C333.609 75.7276 333.809 75.5274 333.809 75.2804V71.5385C333.809 71.2915 333.609 71.0913 333.363 71.0913Z" fill="white" stroke="#263238" stroke-width="0.932567" stroke-linecap="round" stroke-linejoin="round"/>
<path d="M333.363 56.91H332.467C332.221 56.91 332.022 57.1102 332.022 57.3572V61.0991C332.022 61.3461 332.221 61.5463 332.467 61.5463H333.363C333.609 61.5463 333.809 61.3461 333.809 61.0991V57.3572C333.809 57.1102 333.609 56.91 333.363 56.91Z" fill="white" stroke="#263238" stroke-width="0.932567" stroke-linecap="round" stroke-linejoin="round"/>
<path d="M283.689 88.1356L283.961 90.3304L278.39 90.5925L278.856 88.3926L283.689 88.1356Z" fill="#E8E8E8" stroke="#263238" stroke-width="0.932567" stroke-linecap="round" stroke-linejoin="round"/>
<path d="M293.135 106.583C293.135 106.583 283.464 115.511 281.231 115.65C280.683 115.686 280.207 116.03 279.746 115.717C278.722 115.018 277.243 113.537 277.458 107.524C277.57 104.234 279.552 90.5257 279.552 90.5257L283.136 90.3663L284.006 105.786C287.078 102.589 292.419 98.1586 292.424 98.1586C294.093 103.514 293.135 106.583 293.135 106.583Z" fill="white" stroke="#263238" stroke-width="0.932567" stroke-linecap="round" stroke-linejoin="round"/>
<path d="M317.527 118.996C317.768 117.93 318.227 116.925 318.873 116.046L317.527 118.996Z" fill="white"/>
<path d="M317.527 118.996C317.768 117.93 318.227 116.925 318.873 116.046" stroke="#263238" stroke-width="0.932567" stroke-linecap="round" stroke-linejoin="round"/>
<path d="M282.911 109.415C283.285 109.245 284.176 107.575 283.991 104.722" stroke="#263238" stroke-width="0.932567" stroke-linecap="round" stroke-linejoin="round"/>
<path d="M286.346 72.7978V66.6555C286.348 66.3587 286.466 66.0745 286.675 65.8647C286.884 65.6548 287.167 65.5363 287.463 65.535H297.068C297.363 65.5363 297.646 65.6548 297.855 65.8647C298.064 66.0745 298.182 66.3587 298.184 66.6555V72.7978C298.184 73.095 298.066 73.38 297.857 73.5901C297.648 73.8003 297.364 73.9183 297.068 73.9183H293.724L293.991 76.257H292.265V78.4672L290.217 74.8692H291.891L291.717 73.9235H287.457C287.311 73.9228 287.166 73.8931 287.031 73.8362C286.896 73.7793 286.773 73.6962 286.67 73.5916C286.567 73.4871 286.485 73.3632 286.429 73.227C286.374 73.0908 286.346 72.9449 286.346 72.7978Z" fill="white" stroke="#263238" stroke-width="0.932567" stroke-linecap="round" stroke-linejoin="round"/>
<path d="M294.671 67.6372H288.179" stroke="#263238" stroke-width="0.932567" stroke-linecap="round" stroke-linejoin="round"/>
<path d="M296.351 69.3797H288.179" stroke="#263238" stroke-width="0.932567" stroke-linecap="round" stroke-linejoin="round"/>
<path d="M295.091 71.117H288.179" stroke="#263238" stroke-width="0.932567" stroke-linecap="round" stroke-linejoin="round"/>
<path d="M72.7244 224.824C85.9269 224.824 96.6296 223.243 96.6296 221.292C96.6296 219.342 85.9269 217.761 72.7244 217.761C59.5218 217.761 48.8191 219.342 48.8191 221.292C48.8191 223.243 59.5218 224.824 72.7244 224.824Z" fill="#E8E8E8"/>
<path d="M70.6305 165.02C93.6225 165.02 112.261 146.308 112.261 123.226C112.261 100.145 93.6225 81.433 70.6305 81.433C47.6385 81.433 28.9998 100.145 28.9998 123.226C28.9998 146.308 47.6385 165.02 70.6305 165.02Z" fill="#E8E8E8"/>
<path d="M51.4299 150.556C51.4299 150.556 52.4898 156.724 48.9109 163.658H93.6648C93.6648 163.658 91.6168 160.425 89.4715 150.556H51.4299Z" fill="white" stroke="#263238" stroke-width="0.87381" stroke-linecap="round" stroke-linejoin="round"/>
<path d="M61.6342 151.98C59.1845 152.177 56.8365 153.049 54.849 154.5C52.8615 155.951 51.3117 157.925 50.3702 160.204C49.889 161.376 49.3872 162.563 48.911 163.673C46.1872 170 48.7626 179.206 55.7258 179.206H87.6541C93.967 179.206 95.6925 171.183 94.1821 165.138C93.2093 161.252 91.2483 157.351 87.8998 154.616C83.4249 150.941 70.3485 151.281 61.6342 151.98Z" fill="#263238" stroke="#263238" stroke-width="0.87381" stroke-linecap="round" stroke-linejoin="round"/>
<path d="M31.1499 145.19C31.1499 145.19 25.4258 148.664 25.2363 150.556H32.2558L35.0462 148.546L34.1042 150.566H36.2392C36.2392 150.566 38.5074 148.798 38.6302 146.84L38.3998 145.19L34.3038 143.36L31.1499 145.19Z" fill="white" stroke="#263238" stroke-width="0.87381" stroke-linecap="round" stroke-linejoin="round"/>
<path d="M98.2017 132.427C98.2017 132.427 97.2852 126.377 95.273 117.665C93.2609 108.953 89.3287 108.269 89.3287 108.269H89.2929C84.1729 106.059 70.8609 104.866 70.8609 104.866H70.2465C70.2465 104.866 56.9038 106.059 51.8145 108.269H51.7786C51.7786 108.269 47.8106 108.968 45.7985 117.665C43.7863 126.362 42.8647 132.427 42.8647 132.427C42.8647 132.427 39.2295 133.414 32.6862 141.679C31.6588 142.99 30.7844 144.414 30.0801 145.925C30.0801 145.925 35.1079 144.264 38.6305 146.809C38.6305 146.809 50.171 141.895 50.7495 136.714C50.7495 136.529 50.7956 136.323 50.8212 136.102C51.1489 143.966 51.4305 150.535 51.4305 150.535H89.6359C89.6359 150.535 89.9226 143.966 90.2503 136.102C90.2503 136.323 90.2964 136.529 90.3169 136.714C90.9006 141.895 103.675 147.703 103.675 147.703C107.177 142.296 112.261 145.282 112.261 145.282L98.2017 132.427Z" fill="white"/>
<path opacity="0.3" d="M50.7494 136.724C50.7494 136.57 50.7904 136.395 50.8109 136.21L49.9763 118.009C49.9763 118.009 47.6723 118.482 48.3328 124.069C48.9933 129.657 50.3808 128.695 49.6077 130.849C48.8345 133.003 45.8342 130.536 44.8409 132.391C43.8477 134.247 50.391 133.851 47.6877 138.631C44.9843 143.411 38.6304 146.855 38.6304 146.855C38.6304 146.855 50.176 141.915 50.7494 136.724Z" fill="black"/>
<g opacity="0.3">
<path opacity="0.3" d="M90.4961 136.724C90.4961 136.57 92.0014 136.837 90.4961 136.724L90.9518 121.145C90.9518 121.145 90.8391 128.68 91.643 130.849C92.4468 133.018 95.4164 130.535 96.4046 132.391C97.3927 134.247 90.8545 133.851 93.563 138.631C96.2715 143.411 102.615 146.855 102.615 146.855C102.615 146.855 91.0798 141.915 90.4961 136.724Z" fill="black"/>
</g>
<path opacity="0.3" d="M89.9125 140.271C89.6616 146.166 89.4722 150.551 89.4722 150.551H55.1221C78.1621 150.551 89.9381 140.271 89.9381 140.271H89.9125Z" fill="black"/>
<path d="M98.2017 132.427C98.2017 132.427 97.2852 126.377 95.273 117.665C93.2609 108.953 89.3287 108.269 89.3287 108.269H89.2929C84.1729 106.059 70.8609 104.866 70.8609 104.866H70.2465C70.2465 104.866 56.9038 106.059 51.8145 108.269H51.7786C51.7786 108.269 47.8106 108.968 45.7985 117.665C43.7863 126.362 42.8647 132.427 42.8647 132.427C42.8647 132.427 39.2295 133.414 32.6862 141.679C31.6588 142.99 30.7844 144.414 30.0801 145.925V145.925C30.0801 145.925 35.1079 144.264 38.6305 146.809C38.6305 146.809 50.171 141.895 50.7495 136.714C50.7495 136.529 50.7956 136.323 50.8212 136.102C51.1489 143.966 51.4305 150.535 51.4305 150.535H89.6359C89.6359 150.535 89.9226 143.966 90.2503 136.102C90.2503 136.323 90.2964 136.529 90.3169 136.714C90.9006 141.895 103.675 147.703 103.675 147.703C107.177 142.296 112.261 145.282 112.261 145.282L98.2017 132.427Z" stroke="#263238" stroke-width="0.87381" stroke-linecap="round" stroke-linejoin="round"/>
<path d="M44.0879 132.391C45.9303 132.298 47.736 132.931 49.1209 134.154" stroke="#263238" stroke-width="0.87381" stroke-linecap="round" stroke-linejoin="round"/>
<path d="M47.6873 118.554C47.6873 118.554 50.0527 119.068 50.5954 130.613L49.8837 115.46" stroke="#263238" stroke-width="0.87381" stroke-linecap="round" stroke-linejoin="round"/>
<path d="M50.6265 132.216L50.7343 134.555" stroke="#263238" stroke-width="0.87381" stroke-linecap="round" stroke-linejoin="round"/>
<path d="M96.9832 132.391C95.1443 132.291 93.339 132.914 91.9502 134.128" stroke="#263238" stroke-width="0.87381" stroke-linecap="round" stroke-linejoin="round"/>
<path d="M91.0435 118.554C91.088 117.526 91.1359 116.498 91.1872 115.47" stroke="#263238" stroke-width="0.87381" stroke-linecap="round" stroke-linejoin="round"/>
<path d="M77.7062 105.699C77.0867 108.814 74.0863 109.939 70.4716 109.939C66.8569 109.939 63.8668 108.819 63.2371 105.714H63.3804C63.7549 105.663 64.105 105.499 64.3847 105.244C64.6644 104.989 64.8605 104.655 64.9471 104.285C64.9973 104.138 65.0232 103.984 65.0239 103.828V100.173H76.0831V103.828C76.0818 104.057 76.1235 104.283 76.206 104.496C76.3253 104.814 76.5275 105.093 76.7915 105.304C77.0555 105.516 77.3715 105.652 77.7062 105.699Z" fill="white"/>
<path d="M75.9906 102.908C74.1576 104.717 72.1147 105.843 70.1436 105.93C68.0956 106.023 65.7199 104.337 64.7522 102.682C64.7922 102.538 64.8112 102.389 64.8085 102.24V101.119L75.8677 101.238V102.24C75.8677 102.476 76.1493 102.754 75.9906 102.908Z" fill="#263238"/>
<path d="M77.7062 105.699C77.0867 108.814 74.0863 109.939 70.4716 109.939C66.8569 109.939 63.8668 108.819 63.2371 105.714H63.3804C63.7549 105.663 64.105 105.499 64.3847 105.244C64.6644 104.989 64.8605 104.655 64.9471 104.285C64.9973 104.138 65.0232 103.984 65.0239 103.828V100.173H76.0831V103.828C76.0818 104.057 76.1235 104.283 76.206 104.496C76.3253 104.814 76.5275 105.093 76.7915 105.304C77.0555 105.516 77.3715 105.652 77.7062 105.699V105.699Z" stroke="#263238" stroke-width="0.87381" stroke-linecap="round" stroke-linejoin="round"/>
<path d="M62.3923 92.3248C62.3923 92.3248 58.5574 87.9712 59.0592 81.9728C59.5609 75.9744 64.4659 75.9744 64.4659 75.9744C64.4659 75.9744 70.3795 70.7368 76.9792 74.0161C83.5789 77.2954 83.1232 88.6651 78.2387 91.4921L62.3923 92.3248Z" fill="#263238"/>
<path d="M79.2984 89.395C79.3496 88.3978 79.3445 87.781 79.3445 87.781C78.9042 85.1288 75.6734 84.8615 74.1886 84.8152C67.9678 84.6045 66.3294 80.7752 66.3294 80.7752C62.556 79.6392 61.4859 87.781 61.4859 87.781C61.4859 87.781 61.4859 88.3978 61.5371 89.395C60.8706 89.5227 60.272 89.8869 59.8509 90.421C59.4298 90.9552 59.2141 91.6236 59.2433 92.3042C59.2433 93.9284 60.4107 95.2391 61.8546 95.2391C62.0005 95.2384 62.1462 95.2247 62.2898 95.198L62.9656 99.0222C63.0936 99.8805 63.8974 101.911 64.6194 102.394C66.1554 103.422 68.5874 104.887 70.4152 104.887C71.9922 104.887 74.204 103.581 75.8373 102.692C76.7486 102.178 77.7522 100.21 77.8392 99.1764L78.2642 95.3111C78.5042 95.2996 78.7434 95.2756 78.981 95.2391C80.4197 95.2391 81.5922 93.9284 81.5922 92.3042C81.6214 91.6236 81.4057 90.9552 80.9846 90.421C80.5635 89.8869 79.9649 89.5227 79.2984 89.395Z" fill="white" stroke="#263238" stroke-width="0.87381" stroke-linecap="round" stroke-linejoin="round"/>
<path d="M60.2469 86.9278H59.571V89.3436H60.2469V86.9278Z" fill="white" stroke="#263238" stroke-width="0.87381" stroke-linecap="round" stroke-linejoin="round"/>
<path d="M80.8958 86.9278H80.22V89.3436H80.8958V86.9278Z" fill="white" stroke="#263238" stroke-width="0.87381" stroke-linecap="round" stroke-linejoin="round"/>
<path d="M70.2311 76.3754C67.3568 76.3748 64.5943 77.4935 62.525 79.4962C60.4556 81.4988 59.2408 84.2292 59.136 87.1129C59.134 87.1665 59.1428 87.2201 59.162 87.2703C59.1812 87.3204 59.2103 87.3661 59.2477 87.4046C59.2851 87.4431 59.3299 87.4735 59.3793 87.494C59.4288 87.5146 59.4819 87.5248 59.5354 87.5241H60.2522C60.3564 87.5241 60.4564 87.4833 60.531 87.4103C60.6056 87.3373 60.6489 87.238 60.6516 87.1334C60.7655 84.6598 61.8246 82.3253 63.6086 80.6152C65.3926 78.9052 67.7644 77.951 70.2311 77.951C72.6977 77.951 75.0696 78.9052 76.8536 80.6152C78.6376 82.3253 79.6967 84.6598 79.8106 87.1334C79.8146 87.2384 79.8589 87.3378 79.9344 87.4106C80.0098 87.4835 80.1104 87.5241 80.2151 87.5241H80.9268C80.9805 87.5248 81.0338 87.5146 81.0836 87.4941C81.1333 87.4736 81.1784 87.4433 81.2162 87.4049C81.254 87.3665 81.2836 87.3208 81.3034 87.2706C81.3232 87.2205 81.3326 87.1668 81.3313 87.1129C81.2252 84.2288 80.0093 81.4984 77.9391 79.4959C75.8689 77.4933 73.1059 76.3748 70.2311 76.3754Z" fill="white" stroke="#263238" stroke-width="0.87381" stroke-linecap="round" stroke-linejoin="round"/>
<path d="M61.3991 88.4749H61.2455C60.3392 88.5097 59.4816 88.8956 58.8526 89.5516C58.2237 90.2076 57.8723 91.0827 57.8723 91.9932C57.8723 92.9038 58.2237 93.7789 58.8526 94.4349C59.4816 95.0909 60.3392 95.4768 61.2455 95.5116H61.3991V88.4749Z" fill="#263238" stroke="#263238" stroke-width="0.87381" stroke-miterlimit="10"/>
<path d="M62.2334 92.0061C62.2334 94.6121 62.346 96.3083 61.45 96.3083C60.554 96.3083 60.2468 94.6121 60.2468 92.0061C60.2468 89.4001 60.554 87.6988 61.45 87.6988C62.346 87.6988 62.2334 89.3744 62.2334 92.0061Z" fill="white" stroke="#263238" stroke-width="0.87381" stroke-linecap="round" stroke-linejoin="round"/>
<path d="M79.0679 88.4749H79.2215C80.1278 88.5097 80.9854 88.8956 81.6144 89.5516C82.2434 90.2076 82.5947 91.0827 82.5947 91.9932C82.5947 92.9037 82.2434 93.7788 81.6144 94.4348C80.9854 95.0909 80.1278 95.4768 79.2215 95.5115H79.0679V88.4749Z" fill="#263238" stroke="#263238" stroke-width="0.87381" stroke-miterlimit="10"/>
<path d="M78.2284 92.0061C78.2284 94.6121 78.1209 96.3083 79.0169 96.3083C79.9129 96.3083 80.2201 94.6121 80.2201 92.0061C80.2201 89.4001 79.9129 87.6988 79.0169 87.6988C78.1209 87.6988 78.2284 89.3744 78.2284 92.0061Z" fill="white" stroke="#263238" stroke-width="0.87381" stroke-linecap="round" stroke-linejoin="round"/>
<path d="M64.2402 92.6383C64.2402 92.6383 65.6994 94.4425 68.4335 93.0187" stroke="#263238" stroke-width="0.87381" stroke-linecap="round" stroke-linejoin="round"/>
<path d="M68.4336 99.6544C69.0371 100.095 69.7639 100.332 70.5098 100.332C71.2557 100.332 71.9824 100.095 72.5859 99.6544" stroke="#263238" stroke-width="0.75" stroke-linecap="round" stroke-linejoin="round"/>
<path d="M63.8359 90.2174C63.8359 90.2174 66.483 88.1922 68.8382 90.2174" stroke="#263238" stroke-width="0.87381" stroke-linecap="round" stroke-linejoin="round"/>
<path d="M76.8357 90.2842C76.8357 90.2842 74.1887 88.2282 71.8335 90.2842" stroke="#263238" stroke-width="0.87381" stroke-linecap="round" stroke-linejoin="round"/>
<path d="M72.4325 96.8171C72.4325 96.8171 72.668 98.133 70.2668 98.1021C69.678 98.1021 68.6079 97.6806 68.572 96.8171" stroke="#263238" stroke-width="0.75" stroke-linecap="round" stroke-linejoin="round"/>
<path d="M64.8142 93.1163C65.0344 93.5532 65.531 94.0569 66.642 94.0826C67.7531 94.1083 67.9476 93.6662 67.9681 93.2345C67.473 93.4757 66.9264 93.5911 66.3765 93.5704C65.8265 93.5498 65.29 93.3939 64.8142 93.1163Z" fill="#263238"/>
<path d="M76.4514 92.6383C76.4514 92.6383 74.9921 94.4425 72.2581 93.0187" stroke="#263238" stroke-width="0.87381" stroke-linecap="round" stroke-linejoin="round"/>
<path d="M75.8783 93.1163C75.6581 93.5532 75.1615 94.0569 74.0504 94.0826C72.9394 94.1083 72.7448 93.6662 72.7244 93.2345C73.2194 93.4761 73.766 93.5917 74.316 93.5711C74.8661 93.5505 75.4026 93.3943 75.8783 93.1163Z" fill="#263238"/>
<path d="M65.7254 73.4713C65.7254 73.4713 64.3788 74.2268 64.5273 76.3754C64.5273 76.3754 64.0562 74.9259 62.3257 75.5581" stroke="#263238" stroke-width="0.87381" stroke-linecap="round" stroke-linejoin="round"/>
<path d="M70.533 111.538C72.2977 111.538 74.0192 110.99 75.4618 109.969C76.9044 108.949 77.9977 107.506 78.5919 105.838C78.126 105.766 77.6652 105.704 77.2197 105.643C76.5181 106.79 75.5352 107.737 74.3651 108.394C73.1949 109.051 71.8764 109.396 70.5356 109.396C69.1947 109.396 67.8763 109.051 66.7061 108.394C65.5359 107.737 64.5531 106.79 63.8514 105.643C63.406 105.704 62.9452 105.766 62.4792 105.838C63.0732 107.505 64.1656 108.948 65.6072 109.968C67.0488 110.988 68.7692 111.537 70.533 111.538Z" fill="#263238" stroke="#263238" stroke-width="0.87381" stroke-linecap="round" stroke-linejoin="round"/>
<path d="M90.2498 136.123C90.475 131.113 90.702 126.101 90.9307 121.088" stroke="#263238" stroke-width="0.87381" stroke-linecap="round" stroke-linejoin="round"/>
<path d="M90.4188 84.9181V79.3823C90.4188 79.1096 90.3109 78.8482 90.1189 78.6554C89.9269 78.4626 89.6664 78.3543 89.3948 78.3543H80.7625C80.4909 78.3543 80.2305 78.4626 80.0384 78.6554C79.8464 78.8482 79.7385 79.1096 79.7385 79.3823V84.9181C79.7385 85.1907 79.8464 85.4522 80.0384 85.645C80.2305 85.8377 80.4909 85.9461 80.7625 85.9461H83.7731L83.5324 88.0535H85.0684V90.0426L86.9065 86.7993H85.3961L85.5548 85.9461H89.3897C89.5246 85.9467 89.6583 85.9206 89.7832 85.8693C89.908 85.8179 90.0215 85.7423 90.1171 85.6468C90.2127 85.5513 90.2886 85.4377 90.3404 85.3126C90.3922 85.1876 90.4188 85.0535 90.4188 84.9181Z" fill="white" stroke="#263238" stroke-width="0.87381" stroke-linecap="round" stroke-linejoin="round"/>
<path d="M81.4077 80.2715H87.2599" stroke="#263238" stroke-width="0.87381" stroke-linecap="round" stroke-linejoin="round"/>
<path d="M81.4077 81.8391H88.7652" stroke="#263238" stroke-width="0.87381" stroke-linecap="round" stroke-linejoin="round"/>
<path d="M81.4077 83.4069H87.6336" stroke="#263238" stroke-width="0.87381" stroke-linecap="round" stroke-linejoin="round"/>
<path d="M116.94 147.878C116.94 149.512 114.38 150.535 111.237 150.535C108.093 150.535 105.533 149.507 105.533 147.878C105.533 146.248 108.093 144.912 111.237 144.912C114.38 144.912 116.94 146.238 116.94 147.878Z" fill="white" stroke="#263238" stroke-width="0.87381" stroke-linecap="round" stroke-linejoin="round"/>
<path d="M107.545 149.944C107.699 149.908 107.822 149.045 106.434 148.402C105.472 147.96 105.446 147.492 105.999 146.917C106.552 146.341 107.494 145.858 108.221 146.069C109.404 146.408 110.187 148.88 110.714 148.346C111.508 148.14 110.551 145.873 109.132 145.128C111.692 145.765 111.815 148.726 112.993 148.49C113.894 148.315 112.338 145.375 110.991 144.506C111.854 144.91 112.609 145.514 113.193 146.269C114.048 147.518 114.145 147.94 114.729 147.76C115.486 147.518 113.679 144.773 113.454 144.475C114.59 144.927 114.805 145.884 115.154 146.269C115.502 146.655 115.666 147.297 116.147 147.045C116.628 146.793 116.183 145.899 115.86 145.375C114.324 142.882 111.764 142.465 109.327 142.774C107.402 143.021 105.19 143.833 104.018 145.375C103.719 145.759 103.544 146.225 103.515 146.711C103.485 147.198 103.604 147.681 103.854 148.099C104.263 148.968 105.728 150.355 107.545 149.944Z" fill="white" stroke="#263238" stroke-width="0.87381" stroke-linecap="round" stroke-linejoin="round"/>
<path d="M118.436 150.556H24.2122C23.9323 150.556 23.7053 150.784 23.7053 151.065V151.882C23.7053 152.163 23.9323 152.391 24.2122 152.391H118.436C118.716 152.391 118.942 152.163 118.942 151.882V151.065C118.942 150.784 118.716 150.556 118.436 150.556Z" fill="#BFBFBF" stroke="#263238" stroke-width="0.87381" stroke-miterlimit="10"/>
<path d="M26.9771 150.556L20.0446 129.405C20.0185 129.322 20.0117 129.235 20.0248 129.15C20.0379 129.064 20.0705 128.983 20.1201 128.912C20.1697 128.841 20.2349 128.783 20.3106 128.742C20.3864 128.701 20.4705 128.678 20.5566 128.675H42.4549L50.2526 150.556H26.9771Z" fill="#263238"/>
<path d="M43.0539 128.675L50.2219 149.327H69.4219V150.052C69.4219 150.188 69.368 150.319 69.272 150.416C69.176 150.512 69.0457 150.566 68.9099 150.566H48.9931L42.0965 129.528C42.0659 129.434 42.0579 129.333 42.0732 129.235C42.0885 129.137 42.1266 129.044 42.1845 128.963C42.2423 128.883 42.3183 128.817 42.4062 128.771C42.4941 128.726 42.5915 128.701 42.6904 128.701L43.0539 128.675Z" fill="white" stroke="#263238" stroke-width="0.87381" stroke-linecap="round" stroke-linejoin="round"/>
<path d="M32.8853 139.618C32.8177 139.259 32.6509 138.926 32.4041 138.657C32.5112 138.53 32.6456 138.428 32.7973 138.361C32.9489 138.293 33.1137 138.261 33.2796 138.266C33.6666 138.283 34.0376 138.426 34.3361 138.673C34.6347 138.921 34.8444 139.26 34.9333 139.638C34.9807 139.802 34.9884 139.975 34.956 140.143C34.9235 140.31 34.8518 140.468 34.7467 140.602C34.6416 140.736 34.5062 140.843 34.3517 140.914C34.1971 140.985 34.028 141.018 33.8581 141.011C33.4655 141.002 33.0885 140.854 32.7932 140.594C32.9408 140.291 32.9736 139.944 32.8853 139.618Z" fill="white"/>
<path d="M77.2505 150.556H84.2495C85.1819 149.871 85.9375 148.971 86.4532 147.933C86.9689 146.895 87.2298 145.748 87.214 144.588V141.283C87.214 141.158 87.1894 141.033 87.1415 140.917C87.0937 140.801 87.0235 140.696 86.9351 140.607C86.8467 140.518 86.7417 140.448 86.6261 140.4C86.5106 140.352 86.3868 140.327 86.2617 140.327H75.2639C75.1391 140.327 75.0155 140.352 74.9003 140.4C74.785 140.448 74.6804 140.519 74.5923 140.608C74.5043 140.696 74.4347 140.802 74.3874 140.918C74.3401 141.034 74.3161 141.158 74.3167 141.283V144.588C74.297 145.746 74.553 146.891 75.0633 147.929C75.5736 148.967 76.3235 149.867 77.2505 150.556Z" fill="white" stroke="#263238" stroke-width="0.87381" stroke-linecap="round" stroke-linejoin="round"/>
<path d="M89.2003 141.736C88.9054 141.549 88.5673 141.443 88.2192 141.426C87.871 141.41 87.5246 141.485 87.2138 141.643V142.836C87.5171 142.785 87.8285 142.847 88.0893 143.01C89.0775 143.586 88.8675 144.763 88.1763 145.961C87.8602 146.639 87.3165 147.185 86.6403 147.503C86.4383 147.997 86.1824 148.468 85.8774 148.906C87.1933 149.194 88.3965 148.073 89.3386 146.439C90.4445 144.516 90.7773 142.651 89.2003 141.736Z" fill="white" stroke="#263238" stroke-width="0.87381" stroke-linecap="round" stroke-linejoin="round"/>
<path d="M80.8957 135.12C81.1501 134.288 81.2762 133.421 81.2695 132.55C81.2695 127.719 76.7434 127.148 76.7434 121.659" stroke="#263238" stroke-width="0.87381" stroke-linecap="round" stroke-linejoin="round"/>
<path d="M77.6853 139.381C78.5051 138.869 79.2138 138.196 79.7691 137.403" stroke="#263238" stroke-width="0.87381" stroke-linecap="round" stroke-linejoin="round"/>
<path d="M80.5024 126.264C80.2488 125.792 80.1433 125.255 80.1996 124.722" stroke="#263238" stroke-width="0.87381" stroke-linecap="round" stroke-linejoin="round"/>
<path d="M84.0291 133.049C83.7987 131.538 82.9334 130.119 82.0784 128.829" stroke="#263238" stroke-width="0.87381" stroke-linecap="round" stroke-linejoin="round"/>
<path d="M81.4077 139.438C81.4077 139.438 82.9028 138.806 83.722 135.953" stroke="#263238" stroke-width="0.87381" stroke-linecap="round" stroke-linejoin="round"/>
<path d="M90.5524 179.191H52.2138C49.4144 179.191 47.145 181.469 47.145 184.279V209.722C47.145 212.533 49.4144 214.811 52.2138 214.811H90.5524C93.3518 214.811 95.6212 212.533 95.6212 209.722V184.279C95.6212 181.469 93.3518 179.191 90.5524 179.191Z" fill="white" stroke="#263238" stroke-width="0.87381" stroke-miterlimit="10"/>
<path d="M59.2639 203.698L59.8425 213.86L59.909 213.947C60.3672 214.565 60.9642 215.065 61.6514 215.406C62.3386 215.748 63.0966 215.921 63.8633 215.913C64.6301 215.904 65.384 215.714 66.0635 215.357C66.7431 215 67.3289 214.487 67.7734 213.86L67.9884 203.698H59.2639Z" fill="white" stroke="#263238" stroke-width="0.87381" stroke-linecap="round" stroke-linejoin="round"/>
<path d="M69.9032 223.791C66.0194 224.474 62.0468 224.474 58.163 223.791C57.8004 223.431 57.4886 223.022 57.2363 222.577C56.8437 221.876 56.6219 221.091 56.589 220.287C56.5561 219.483 56.713 218.683 57.0468 217.951L59.3867 213.762L68.659 213.865L70.7479 217.689C71.2492 218.597 71.4652 219.635 71.3674 220.668C71.2696 221.701 70.8627 222.681 70.2001 223.477C70.1066 223.587 70.0075 223.691 69.9032 223.791Z" fill="#BFBFBF" stroke="#263238" stroke-width="0.87381" stroke-miterlimit="10"/>
<path d="M67.6248 218.517C68.1983 218.77 68.7454 219.08 69.258 219.442L67.6248 218.517Z" fill="#BFBFBF"/>
<path d="M67.6248 218.517C68.1983 218.77 68.7454 219.08 69.258 219.442" stroke="#263238" stroke-width="0.87381" stroke-miterlimit="10"/>
<path d="M58.8799 219.442C59.8976 218.743 61.0434 218.253 62.251 218.002C63.4586 217.75 64.704 217.742 65.9148 217.977" fill="#BFBFBF"/>
<path d="M58.8799 219.442C59.8976 218.743 61.0434 218.253 62.251 218.002C63.4586 217.75 64.704 217.742 65.9148 217.977" stroke="#263238" stroke-width="0.87381" stroke-miterlimit="10"/>
<path d="M54.2719 161.761L58.3679 208.885H68.9612C68.9612 208.885 70.0108 180.1 70.6764 161.411C70.7199 160.303 70.5395 159.197 70.1461 158.16C69.7526 157.123 69.1543 156.177 68.387 155.378C67.6197 154.58 66.6994 153.945 65.6815 153.513C64.6636 153.081 63.5691 152.86 62.4639 152.864C61.3293 152.86 60.2062 153.093 59.1659 153.547C58.1256 154.002 57.1908 154.669 56.4206 155.505C55.6504 156.342 55.0618 157.33 54.6919 158.407C54.322 159.483 54.179 160.626 54.2719 161.761Z" fill="#263238"/>
<path d="M64.814 153.198C64.0426 152.97 63.2422 152.858 62.4383 152.864V152.864C61.3058 152.863 60.1856 153.099 59.1483 153.555C58.1111 154.012 57.1793 154.679 56.4119 155.515C55.6445 156.351 55.0582 157.338 54.6898 158.413C54.3215 159.488 54.1792 160.628 54.2719 161.761L55.726 179.191" stroke="white" stroke-width="0.87381" stroke-linecap="round" stroke-linejoin="round"/>
<path d="M69.2375 156.41C68.8179 155.812 68.3241 155.27 67.768 154.796C67.768 154.796 67.128 154.282 66.8413 154.118" stroke="white" stroke-width="0.87381" stroke-linecap="round" stroke-linejoin="round"/>
<path d="M69.9749 179.191C70.1848 173.357 70.5125 166.531 70.6917 161.412C70.7406 160.141 70.4953 158.876 69.9749 157.716" stroke="white" stroke-width="0.87381" stroke-linecap="round" stroke-linejoin="round"/>
<path d="M76.4976 203.698L77.0761 213.86L77.1427 213.947C77.6008 214.565 78.1978 215.065 78.8851 215.406C79.5723 215.748 80.3302 215.921 81.097 215.913C81.8638 215.904 82.6177 215.714 83.2972 215.357C83.9767 215 84.5626 214.487 85.007 213.86L85.222 203.698H76.4976Z" fill="white" stroke="#263238" stroke-width="0.87381" stroke-linecap="round" stroke-linejoin="round"/>
<path d="M87.1371 223.791C83.2533 224.474 79.2807 224.474 75.3969 223.791C75.0352 223.431 74.725 223.023 74.4753 222.577C74.0808 221.877 73.8574 221.092 73.8236 220.288C73.7898 219.484 73.9465 218.683 74.2808 217.951L76.6257 213.762L85.8929 213.865L87.9819 217.689C88.4832 218.597 88.6992 219.635 88.6014 220.668C88.5036 221.701 88.0967 222.681 87.4341 223.477C87.3406 223.587 87.2415 223.691 87.1371 223.791Z" fill="#BFBFBF" stroke="#263238" stroke-width="0.87381" stroke-miterlimit="10"/>
<path d="M84.8584 218.517C85.4325 218.769 85.9797 219.079 86.4917 219.442L84.8584 218.517Z" fill="#BFBFBF"/>
<path d="M84.8584 218.517C85.4325 218.769 85.9797 219.079 86.4917 219.442" stroke="#263238" stroke-width="0.87381" stroke-miterlimit="10"/>
<path d="M76.124 219.442C77.1418 218.743 78.2877 218.253 79.4953 218.002C80.7028 217.751 81.9481 217.742 83.1589 217.977" fill="#BFBFBF"/>
<path d="M76.124 219.442C77.1418 218.743 78.2877 218.253 79.4953 218.002C80.7028 217.751 81.9481 217.742 83.1589 217.977" stroke="#263238" stroke-width="0.87381" stroke-miterlimit="10"/>
<path d="M71.5209 161.761L75.6169 208.885H86.2102C86.2102 208.885 87.2598 180.101 87.9305 161.412C87.9706 160.3 87.7864 159.192 87.3892 158.154C86.9919 157.116 86.3897 156.17 85.6188 155.371C84.8479 154.573 83.9241 153.939 82.9031 153.508C81.882 153.077 80.7847 152.858 79.6771 152.864C78.5455 152.865 77.4264 153.101 76.3903 153.558C75.3543 154.015 74.4238 154.683 73.6575 155.519C72.8912 156.355 72.3057 157.341 71.938 158.415C71.5703 159.49 71.4283 160.629 71.5209 161.761Z" fill="#263238"/>
<path d="M83.0563 153.573C81.9929 153.098 80.8409 152.857 79.6771 152.864C78.5455 152.865 77.4264 153.101 76.3903 153.558C75.3543 154.015 74.4238 154.683 73.6575 155.519C72.8912 156.355 72.3057 157.341 71.938 158.415C71.5703 159.49 71.4283 160.629 71.5209 161.761L73.0569 179.191" stroke="white" stroke-width="0.87381" stroke-linecap="round" stroke-linejoin="round"/>
<path d="M86.4716 156.41C86.0547 155.81 85.5607 155.267 85.0022 154.796" stroke="white" stroke-width="0.87381" stroke-linecap="round" stroke-linejoin="round"/>
<path d="M87.6544 179.191C87.8643 173.357 87.7466 166.531 87.9309 161.411C87.9724 160.287 87.7842 159.166 87.3779 158.117" stroke="white" stroke-width="0.87381" stroke-linecap="round" stroke-linejoin="round"/>
<path d="M213.12 81.5564V59.624C213.12 58.5634 212.7 57.5463 211.953 56.7963C211.206 56.0464 210.193 55.6251 209.137 55.6251H174.863C173.807 55.6251 172.794 56.0464 172.047 56.7963C171.3 57.5463 170.88 58.5634 170.88 59.624V81.5564C170.88 82.6169 171.3 83.6341 172.047 84.384C172.794 85.134 173.807 85.5553 174.863 85.5553H186.798L185.856 93.9026H192V101.772L199.291 88.922H193.311L193.941 85.5501H209.137C210.192 85.5501 211.205 85.1295 211.952 84.3807C212.699 83.6319 213.119 82.616 213.12 81.5564Z" fill="white" stroke="#263238" stroke-width="1.02547" stroke-linecap="round" stroke-linejoin="round"/>
<path d="M177.424 63.1295H200.597" stroke="#263238" stroke-width="1.02547" stroke-linecap="round" stroke-linejoin="round"/>
<path d="M177.424 69.3438H206.577" stroke="#263238" stroke-width="1.02547" stroke-linecap="round" stroke-linejoin="round"/>
<path d="M177.424 75.558H202.092" stroke="#263238" stroke-width="1.02547" stroke-linecap="round" stroke-linejoin="round"/>
<path d="M239.299 175.469L260.004 182.398L254.869 187.559L264.453 197.181L243.748 190.252L248.883 185.091L239.299 175.469Z" fill="#E8E8E8" stroke="#263238" stroke-width="1.02547" stroke-linecap="round" stroke-linejoin="round"/>
<path d="M144.701 175.469L123.996 182.398L129.132 187.559L119.547 197.181L140.252 190.252L135.117 185.091L144.701 175.469Z" fill="#E8E8E8" stroke="#263238" stroke-width="1.02547" stroke-linecap="round" stroke-linejoin="round"/>
<path d="M191.421 16.52L181.657 36.1239H188.928V49.7346L198.687 30.1307H191.421V16.52Z" fill="#E8E8E8" stroke="#263238" stroke-width="1.02547" stroke-linecap="round" stroke-linejoin="round"/>
</svg>
