<svg width="354" height="354" viewBox="0 0 354 354" fill="none" xmlns="http://www.w3.org/2000/svg">
<path d="M310.337 118.484H247.099V261.939H310.337V118.484Z" stroke="#263238" stroke-width="0.75" stroke-linecap="round" stroke-linejoin="round"/>
<path d="M304.787 124.035H252.65V256.388H304.787V124.035Z" stroke="#263238" stroke-width="0.75" stroke-linecap="round" stroke-linejoin="round"/>
<path d="M258.576 182.473L257.153 184.944" stroke="#263238" stroke-width="0.75" stroke-linecap="round" stroke-linejoin="round"/>
<path d="M273.543 156.56L260.218 179.641" stroke="#263238" stroke-width="0.75" stroke-linecap="round" stroke-linejoin="round"/>
<path d="M285.77 135.377L275.674 152.864" stroke="#263238" stroke-width="0.75" stroke-linecap="round" stroke-linejoin="round"/>
<path d="M287.908 131.681L286.832 133.536" stroke="#263238" stroke-width="0.75" stroke-linecap="round" stroke-linejoin="round"/>
<path d="M262.817 245.379L261.606 247.474" stroke="#263238" stroke-width="0.75" stroke-linecap="round" stroke-linejoin="round"/>
<path d="M265.62 240.522L264.339 242.752" stroke="#263238" stroke-width="0.75" stroke-linecap="round" stroke-linejoin="round"/>
<path d="M282.719 210.906L268.368 235.771" stroke="#263238" stroke-width="0.75" stroke-linecap="round" stroke-linejoin="round"/>
<path d="M295.427 188.894L284.191 208.364" stroke="#263238" stroke-width="0.75" stroke-linecap="round" stroke-linejoin="round"/>
<path d="M298.21 184.08L297.098 186.006" stroke="#263238" stroke-width="0.75" stroke-linecap="round" stroke-linejoin="round"/>
<path d="M278.719 229.541L268.368 247.474" stroke="#263238" stroke-width="0.75" stroke-linecap="round" stroke-linejoin="round"/>
<path d="M291.958 206.609L280.227 226.928" stroke="#263238" stroke-width="0.75" stroke-linecap="round" stroke-linejoin="round"/>
<path d="M294.712 201.844L293.324 204.244" stroke="#263238" stroke-width="0.75" stroke-linecap="round" stroke-linejoin="round"/>
<path d="M257.153 201.037L255.581 203.762" stroke="#263238" stroke-width="0.75" stroke-linecap="round" stroke-linejoin="round"/>
<path d="M270.909 177.212L258.413 198.856" stroke="#263238" stroke-width="0.75" stroke-linecap="round" stroke-linejoin="round"/>
<path d="M288.078 147.476L272.382 174.656" stroke="#263238" stroke-width="0.75" stroke-linecap="round" stroke-linejoin="round"/>
<path d="M298.394 129.606L289.289 145.381" stroke="#263238" stroke-width="0.75" stroke-linecap="round" stroke-linejoin="round"/>
<path d="M106.901 118.484H43.6624V261.939H106.901V118.484Z" stroke="#263238" stroke-width="0.75" stroke-linecap="round" stroke-linejoin="round"/>
<path d="M101.35 124.034H49.2131V256.388H101.35V124.034Z" stroke="#263238" stroke-width="0.75" stroke-linecap="round" stroke-linejoin="round"/>
<path d="M55.1391 182.473L53.7161 184.944" stroke="#263238" stroke-width="0.75" stroke-linecap="round" stroke-linejoin="round"/>
<path d="M70.0992 156.56L56.7747 179.641" stroke="#263238" stroke-width="0.75" stroke-linecap="round" stroke-linejoin="round"/>
<path d="M82.3334 135.377L72.2373 152.864" stroke="#263238" stroke-width="0.75" stroke-linecap="round" stroke-linejoin="round"/>
<path d="M84.4643 131.681L83.3953 133.536" stroke="#263238" stroke-width="0.75" stroke-linecap="round" stroke-linejoin="round"/>
<path d="M59.3801 245.379L58.1694 247.474" stroke="#263238" stroke-width="0.75" stroke-linecap="round" stroke-linejoin="round"/>
<path d="M62.1838 240.522L60.8953 242.752" stroke="#263238" stroke-width="0.75" stroke-linecap="round" stroke-linejoin="round"/>
<path d="M79.2818 210.906L64.9236 235.771" stroke="#263238" stroke-width="0.75" stroke-linecap="round" stroke-linejoin="round"/>
<path d="M91.9903 188.894L80.7473 208.364" stroke="#263238" stroke-width="0.75" stroke-linecap="round" stroke-linejoin="round"/>
<path d="M94.7727 184.08L93.6541 186.006" stroke="#263238" stroke-width="0.75" stroke-linecap="round" stroke-linejoin="round"/>
<path d="M75.2816 229.541L64.9236 247.474" stroke="#263238" stroke-width="0.75" stroke-linecap="round" stroke-linejoin="round"/>
<path d="M88.5211 206.609L76.7896 226.928" stroke="#263238" stroke-width="0.75" stroke-linecap="round" stroke-linejoin="round"/>
<path d="M91.2683 201.844L89.8877 204.244" stroke="#263238" stroke-width="0.75" stroke-linecap="round" stroke-linejoin="round"/>
<path d="M53.7158 201.037L52.137 203.762" stroke="#263238" stroke-width="0.75" stroke-linecap="round" stroke-linejoin="round"/>
<path d="M67.4652 177.212L54.969 198.856" stroke="#263238" stroke-width="0.75" stroke-linecap="round" stroke-linejoin="round"/>
<path d="M84.6346 147.476L68.9453 174.657" stroke="#263238" stroke-width="0.75" stroke-linecap="round" stroke-linejoin="round"/>
<path d="M94.9496 129.606L85.8447 145.381" stroke="#263238" stroke-width="0.75" stroke-linecap="round" stroke-linejoin="round"/>
<path d="M20.886 321.736H333.114" stroke="#263238" stroke-linecap="round" stroke-linejoin="round"/>
<path d="M129.344 265.649H123.928V284.064H129.344V265.649Z" fill="white"/>
<path opacity="0.2" d="M129.344 265.649H123.928V284.064H129.344V265.649Z" fill="black"/>
<path d="M134.768 267.674H129.351V284.064H134.768V267.674Z" fill="white"/>
<path d="M141.529 267.674H137.706V284.064H141.529V267.674Z" fill="white"/>
<path opacity="0.9" d="M141.529 267.674H137.706V284.064H141.529V267.674Z" fill="white"/>
<path d="M137.713 265.946H134.244V284.071H137.713V265.946Z" fill="white"/>
<path opacity="0.1" d="M137.713 265.946H134.244V284.071H137.713V265.946Z" fill="black"/>
<path d="M146.952 265.649H141.536V284.064H146.952V265.649Z" fill="white"/>
<path d="M152.368 267.674H146.952V284.064H152.368V267.674Z" fill="white"/>
<path opacity="0.2" d="M152.368 267.674H146.952V284.064H152.368V267.674Z" fill="#263238"/>
<path d="M159.137 267.674H155.314V284.064H159.137V267.674Z" fill="white"/>
<path opacity="0.8" d="M159.137 267.674H155.314V284.064H159.137V267.674Z" fill="white"/>
<path d="M155.314 265.946H151.845V284.071H155.314V265.946Z" fill="white"/>
<path opacity="0.1" d="M155.314 265.946H151.845V284.071H155.314V265.946Z" fill="black"/>
<path d="M184.979 284.071H190.395V265.656H184.979V284.071Z" fill="white"/>
<path opacity="0.2" d="M184.979 284.071H190.395V265.656H184.979V284.071Z" fill="black"/>
<path d="M179.556 284.071H184.972V267.681H179.556V284.071Z" fill="white"/>
<path d="M172.794 284.071H176.617V267.681H172.794V284.071Z" fill="white"/>
<path opacity="0.9" d="M172.794 284.071H176.617V267.681H172.794V284.071Z" fill="white"/>
<path d="M176.61 284.064H180.079V265.939H176.61V284.064Z" fill="white"/>
<path opacity="0.1" d="M176.61 284.064H180.079V265.939H176.61V284.064Z" fill="black"/>
<path d="M167.371 284.071H172.787V265.656H167.371V284.071Z" fill="white"/>
<path d="M161.955 284.071H167.371V267.681H161.955V284.071Z" fill="white"/>
<path opacity="0.2" d="M161.955 284.071H167.371V267.681H161.955V284.071Z" fill="#263238"/>
<path d="M159.01 284.064H162.479V265.939H159.01V284.064Z" fill="white"/>
<path opacity="0.1" d="M159.01 284.064H162.479V265.939H159.01V284.064Z" fill="black"/>
<path d="M216.202 284.071H221.618V265.656H216.202V284.071Z" fill="white"/>
<path opacity="0.2" d="M216.202 284.071H221.618V265.656H216.202V284.071Z" fill="black"/>
<path d="M210.779 284.071H216.195V267.681H210.779V284.071Z" fill="white"/>
<path d="M204.017 284.071H207.84V267.681H204.017V284.071Z" fill="white"/>
<path opacity="0.9" d="M204.017 284.071H207.84V267.681H204.017V284.071Z" fill="white"/>
<path d="M207.833 284.064H211.302V265.939H207.833V284.064Z" fill="white"/>
<path opacity="0.1" d="M207.833 284.064H211.302V265.939H207.833V284.064Z" fill="black"/>
<path d="M198.594 284.071H204.01V265.656H198.594V284.071Z" fill="white"/>
<path d="M225.144 283.42L228.701 282.467L223.913 264.604L220.356 265.558L225.144 283.42Z" fill="white"/>
<path d="M193.178 284.071H198.594V267.681H193.178V284.071Z" fill="white"/>
<path opacity="0.2" d="M193.178 284.071H198.594V267.681H193.178V284.071Z" fill="#263238"/>
<path d="M190.232 284.064H193.701V265.939H190.232V284.064Z" fill="white"/>
<path opacity="0.1" d="M190.232 284.064H193.701V265.939H190.232V284.064Z" fill="black"/>
<path d="M226.957 307.992L230.595 307.017L225.829 289.229L222.191 290.204L226.957 307.992Z" fill="white"/>
<path opacity="0.2" d="M226.957 307.992L230.595 307.017L225.829 289.229L222.191 290.204L226.957 307.992Z" fill="black"/>
<path d="M217.611 307.81H223.027V291.42H217.611V307.81Z" fill="white"/>
<path d="M210.835 307.81H214.658V291.42H210.835V307.81Z" fill="white"/>
<path opacity="0.9" d="M210.835 307.81H214.658V291.42H210.835V307.81Z" fill="white"/>
<path d="M214.658 307.817H218.127V289.692H214.658V307.817Z" fill="white"/>
<path opacity="0.1" d="M214.658 307.817H218.127V289.692H214.658V307.817Z" fill="black"/>
<path d="M205.426 307.817H210.842V289.402H205.426V307.817Z" fill="white"/>
<path d="M200.003 307.81H205.419V291.42H200.003V307.81Z" fill="white"/>
<path opacity="0.2" d="M200.003 307.81H205.419V291.42H200.003V307.81Z" fill="#263238"/>
<path d="M193.241 307.81H197.064V291.42H193.241V307.81Z" fill="white"/>
<path opacity="0.8" d="M193.241 307.81H197.064V291.42H193.241V307.81Z" fill="white"/>
<path d="M197.058 307.817H200.527V289.692H197.058V307.817Z" fill="white"/>
<path opacity="0.1" d="M197.058 307.817H200.527V289.692H197.058V307.817Z" fill="black"/>
<path d="M167.399 289.402H161.983V307.817H167.399V289.402Z" fill="white"/>
<path opacity="0.2" d="M167.399 289.402H161.983V307.817H167.399V289.402Z" fill="black"/>
<path d="M172.815 291.427H167.399V307.817H172.815V291.427Z" fill="white"/>
<path d="M179.584 291.427H175.761V307.817H179.584V291.427Z" fill="white"/>
<path opacity="0.9" d="M179.584 291.427H175.761V307.817H179.584V291.427Z" fill="white"/>
<path d="M175.761 289.692H172.292V307.817H175.761V289.692Z" fill="white"/>
<path opacity="0.1" d="M175.761 289.692H172.292V307.817H175.761V289.692Z" fill="black"/>
<path d="M185 289.402H179.584V307.817H185V289.402Z" fill="white"/>
<path d="M190.416 291.427H185V307.817H190.416V291.427Z" fill="white"/>
<path opacity="0.2" d="M190.416 291.427H185V307.817H190.416V291.427Z" fill="#263238"/>
<path d="M193.362 289.692H189.893V307.817H193.362V289.692Z" fill="white"/>
<path opacity="0.1" d="M193.362 289.692H189.893V307.817H193.362V289.692Z" fill="black"/>
<path d="M136.176 289.402H130.76V307.817H136.176V289.402Z" fill="white"/>
<path opacity="0.2" d="M136.176 289.402H130.76V307.817H136.176V289.402Z" fill="black"/>
<path d="M141.593 291.427H136.177V307.817H141.593V291.427Z" fill="white"/>
<path d="M148.361 291.427H144.538V307.817H148.361V291.427Z" fill="white"/>
<path opacity="0.9" d="M148.361 291.427H144.538V307.817H148.361V291.427Z" fill="white"/>
<path d="M144.538 289.692H141.069V307.817H144.538V289.692Z" fill="white"/>
<path opacity="0.1" d="M144.538 289.692H141.069V307.817H144.538V289.692Z" fill="black"/>
<path d="M153.778 289.402H148.361V307.817H153.778V289.402Z" fill="white"/>
<path d="M130.749 290.189L127.207 289.24L122.441 307.027L125.983 307.977L130.749 290.189Z" fill="white"/>
<path d="M159.194 291.427H153.778V307.817H159.194V291.427Z" fill="white"/>
<path opacity="0.2" d="M159.194 291.427H153.778V307.817H159.194V291.427Z" fill="#263238"/>
<path d="M162.139 289.692H158.67V307.817H162.139V289.692Z" fill="white"/>
<path opacity="0.1" d="M162.139 289.692H158.67V307.817H162.139V289.692Z" fill="black"/>
<path d="M128.091 321.736H122.675L121.932 311.258H128.835L128.091 321.736Z" fill="#263238"/>
<path d="M231.324 321.736H225.908L225.165 311.258H232.068L231.324 321.736Z" fill="#263238"/>
<path d="M237.293 258.696H116.707C116.017 258.696 115.356 258.97 114.869 259.457C114.382 259.944 114.108 260.605 114.108 261.294V310.557C114.108 311.246 114.382 311.907 114.869 312.394C115.356 312.882 116.017 313.155 116.707 313.155H237.293C237.982 313.155 238.643 312.882 239.13 312.394C239.618 311.907 239.891 311.246 239.891 310.557V261.294C239.891 260.605 239.618 259.944 239.13 259.457C238.643 258.97 237.982 258.696 237.293 258.696ZM234.688 263.9V284.071H119.284V263.9H234.688ZM119.312 307.98V287.788H234.716V307.98H119.312Z" fill="white" stroke="#263238" stroke-width="0.75" stroke-linecap="round" stroke-linejoin="round"/>
<path d="M219.466 155.222H136.028C133.345 155.222 131.171 157.397 131.171 160.079V177.991C131.171 180.674 133.345 182.848 136.028 182.848H219.466C222.148 182.848 224.322 180.674 224.322 177.991V160.079C224.322 157.397 222.148 155.222 219.466 155.222Z" fill="#263238" stroke="#263238" stroke-linecap="round" stroke-linejoin="round"/>
<path d="M217.979 153.735H134.541C131.859 153.735 129.684 155.91 129.684 158.592V176.504C129.684 179.187 131.859 181.361 134.541 181.361H217.979C220.661 181.361 222.836 179.187 222.836 176.504V158.592C222.836 155.91 220.661 153.735 217.979 153.735Z" fill="white" stroke="#263238" stroke-linecap="round" stroke-linejoin="round"/>
<path d="M217.979 153.735H134.541C131.859 153.735 129.684 155.91 129.684 158.592V176.504C129.684 179.187 131.859 181.361 134.541 181.361H217.979C220.661 181.361 222.836 179.187 222.836 176.504V158.592C222.836 155.91 220.661 153.735 217.979 153.735Z" stroke="#263238" stroke-linecap="round" stroke-linejoin="round"/>
<path d="M150.308 175.704H138.039V160.185H146.216L150.308 164.277V175.704Z" fill="white"/>
<path opacity="0.5" d="M150.308 175.704H138.039V160.185H146.216L150.308 164.277V175.704Z" fill="white"/>
<path d="M150.308 175.704H138.039V160.185H146.216L150.308 164.277V175.704Z" stroke="#263238" stroke-linecap="round" stroke-linejoin="round"/>
<path d="M146.216 164.277H150.308L146.216 160.185V164.277Z" fill="white" stroke="#263238" stroke-linecap="round" stroke-linejoin="round"/>
<path d="M140.764 168.419C140.572 168.401 140.393 168.311 140.262 168.168C140.132 168.024 140.06 167.838 140.06 167.644C140.06 167.45 140.132 167.263 140.262 167.12C140.393 166.977 140.572 166.887 140.764 166.869H147.582C147.775 166.887 147.954 166.977 148.085 167.12C148.215 167.263 148.287 167.45 148.287 167.644C148.287 167.838 148.215 168.024 148.085 168.168C147.954 168.311 147.775 168.401 147.582 168.419H140.764Z" fill="#858585" stroke="#263238" stroke-width="0.75" stroke-linecap="round" stroke-linejoin="round"/>
<path d="M140.764 171.683C140.572 171.665 140.393 171.575 140.262 171.432C140.132 171.288 140.06 171.101 140.06 170.908C140.06 170.714 140.132 170.527 140.262 170.384C140.393 170.241 140.572 170.151 140.764 170.132H146.096C146.289 170.151 146.468 170.241 146.598 170.384C146.728 170.527 146.8 170.714 146.8 170.908C146.8 171.101 146.728 171.288 146.598 171.432C146.468 171.575 146.289 171.665 146.096 171.683H140.764Z" fill="#858585" stroke="#263238" stroke-width="0.75" stroke-linecap="round" stroke-linejoin="round"/>
<path d="M181.326 169.311H158.493C158.086 169.338 157.704 169.519 157.426 169.817C157.147 170.115 156.992 170.507 156.992 170.915C156.992 171.323 157.147 171.715 157.426 172.013C157.704 172.311 158.086 172.491 158.493 172.518H181.326V169.311Z" fill="white"/>
<path d="M158.493 172.518C158.086 172.491 157.704 172.311 157.426 172.013C157.147 171.715 156.992 171.323 156.992 170.915C156.992 170.507 157.147 170.115 157.426 169.817C157.704 169.519 158.086 169.338 158.493 169.311H212.867C213.087 169.297 213.307 169.327 213.514 169.401C213.721 169.475 213.911 169.591 214.072 169.741C214.233 169.892 214.361 170.073 214.448 170.275C214.536 170.477 214.581 170.695 214.581 170.915C214.581 171.135 214.536 171.353 214.448 171.554C214.361 171.756 214.233 171.938 214.072 172.088C213.911 172.239 213.721 172.354 213.514 172.428C213.307 172.502 213.087 172.533 212.867 172.518H158.493Z" stroke="#263238" stroke-linecap="round" stroke-linejoin="round"/>
<path d="M181.843 164.964H180.122V164.15L181.758 160.277H182.742V164.15H183.166V164.964H182.742V166.005H181.843V164.964ZM181.843 164.15V161.92L180.958 164.157L181.843 164.15Z" fill="#263238"/>
<path d="M183.584 164.653V164.206H184.434V164.716C184.434 165.127 184.611 165.276 184.901 165.276C185.191 165.276 185.368 165.127 185.368 164.716V163.435C185.368 163.024 185.184 162.868 184.901 162.868C184.618 162.868 184.434 163.024 184.434 163.435V163.484H183.584L183.747 160.284H186.119V161.105H184.547L184.476 162.472C184.555 162.338 184.67 162.227 184.807 162.154C184.944 162.08 185.099 162.046 185.255 162.054C185.914 162.054 186.253 162.521 186.253 163.364V164.653C186.253 165.573 185.793 166.069 184.908 166.069C184.023 166.069 183.584 165.573 183.584 164.653Z" fill="#263238"/>
<path d="M186.827 162.55V161.134C186.816 161.013 186.83 160.892 186.869 160.777C186.907 160.663 186.97 160.557 187.051 160.468C187.133 160.379 187.232 160.307 187.343 160.259C187.453 160.21 187.573 160.185 187.694 160.185C187.815 160.185 187.935 160.21 188.045 160.259C188.156 160.307 188.255 160.379 188.337 160.468C188.419 160.557 188.481 160.663 188.519 160.777C188.558 160.892 188.572 161.013 188.561 161.134V162.55C188.572 162.67 188.558 162.792 188.519 162.906C188.481 163.021 188.419 163.126 188.337 163.216C188.255 163.305 188.156 163.376 188.045 163.425C187.935 163.474 187.815 163.499 187.694 163.499C187.573 163.499 187.453 163.474 187.343 163.425C187.232 163.376 187.133 163.305 187.051 163.216C186.97 163.126 186.907 163.021 186.869 162.906C186.83 162.792 186.816 162.67 186.827 162.55ZM187.988 162.592V161.077C187.988 160.829 187.875 160.723 187.698 160.723C187.521 160.723 187.4 160.829 187.4 161.077V162.592C187.4 162.847 187.506 162.953 187.698 162.953C187.889 162.953 187.988 162.84 187.988 162.592ZM189.772 160.284H190.346L188.129 166.012H187.556L189.772 160.284ZM189.34 165.176V163.76C189.329 163.64 189.344 163.519 189.382 163.404C189.421 163.289 189.483 163.184 189.565 163.095C189.646 163.005 189.745 162.934 189.856 162.885C189.967 162.836 190.086 162.811 190.207 162.811C190.328 162.811 190.448 162.836 190.559 162.885C190.669 162.934 190.769 163.005 190.85 163.095C190.932 163.184 190.994 163.289 191.033 163.404C191.071 163.519 191.086 163.64 191.075 163.76V165.176C191.086 165.297 191.071 165.418 191.033 165.533C190.994 165.648 190.932 165.753 190.85 165.842C190.769 165.932 190.669 166.003 190.559 166.052C190.448 166.101 190.328 166.126 190.207 166.126C190.086 166.126 189.967 166.101 189.856 166.052C189.745 166.003 189.646 165.932 189.565 165.842C189.483 165.753 189.421 165.648 189.382 165.533C189.344 165.418 189.329 165.297 189.34 165.176ZM190.501 165.219V163.704C190.501 163.449 190.388 163.343 190.204 163.343C190.02 163.343 189.914 163.449 189.914 163.704V165.219C189.914 165.474 190.02 165.58 190.204 165.58C190.388 165.58 190.501 165.474 190.501 165.219Z" fill="#263238"/>
<path d="M219.466 187.28H136.028C133.345 187.28 131.171 189.455 131.171 192.137V210.05C131.171 212.732 133.345 214.906 136.028 214.906H219.466C222.148 214.906 224.322 212.732 224.322 210.05V192.137C224.322 189.455 222.148 187.28 219.466 187.28Z" fill="#263238" stroke="#263238" stroke-linecap="round" stroke-linejoin="round"/>
<path d="M217.979 185.793H134.541C131.859 185.793 129.684 187.968 129.684 190.65V208.563C129.684 211.245 131.859 213.42 134.541 213.42H217.979C220.661 213.42 222.836 211.245 222.836 208.563V190.65C222.836 187.968 220.661 185.793 217.979 185.793Z" fill="white" stroke="#263238" stroke-linecap="round" stroke-linejoin="round"/>
<path d="M199.337 201.171H158.493C158.086 201.198 157.704 201.379 157.426 201.677C157.147 201.974 156.992 202.367 156.992 202.775C156.992 203.183 157.147 203.575 157.426 203.873C157.704 204.171 158.086 204.351 158.493 204.378H199.337V201.171Z" fill="white"/>
<path d="M158.493 204.378C158.086 204.351 157.704 204.171 157.426 203.873C157.147 203.575 156.992 203.183 156.992 202.775C156.992 202.367 157.147 201.974 157.426 201.677C157.704 201.379 158.086 201.198 158.493 201.171H212.867C213.087 201.157 213.307 201.187 213.514 201.261C213.721 201.335 213.911 201.451 214.072 201.601C214.233 201.752 214.361 201.933 214.448 202.135C214.536 202.337 214.581 202.555 214.581 202.775C214.581 202.995 214.536 203.213 214.448 203.414C214.361 203.616 214.233 203.798 214.072 203.948C213.911 204.099 213.721 204.214 213.514 204.288C213.307 204.362 213.087 204.393 212.867 204.378H158.493Z" stroke="#263238" stroke-linecap="round" stroke-linejoin="round"/>
<path d="M180.228 196.541V196.031C180.2 195.8 180.241 195.566 180.346 195.358C180.45 195.151 180.614 194.978 180.816 194.863C180.623 194.75 180.468 194.584 180.37 194.383C180.272 194.183 180.235 193.958 180.264 193.737V193.504C180.264 193.139 180.408 192.79 180.666 192.532C180.924 192.275 181.273 192.13 181.637 192.13C182.001 192.13 182.351 192.275 182.608 192.532C182.866 192.79 183.011 193.139 183.011 193.504V193.737C183.036 193.959 182.997 194.183 182.898 194.383C182.798 194.583 182.643 194.749 182.451 194.863C182.655 194.977 182.82 195.149 182.925 195.357C183.031 195.565 183.073 195.799 183.046 196.031V196.541C183.046 196.916 182.897 197.277 182.631 197.542C182.366 197.808 182.006 197.957 181.63 197.957C181.255 197.957 180.894 197.808 180.629 197.542C180.363 197.277 180.214 196.916 180.214 196.541H180.228ZM182.147 196.491V195.939C182.147 195.507 181.97 195.295 181.637 195.295C181.304 195.295 181.127 195.507 181.127 195.939V196.491C181.127 196.923 181.304 197.136 181.637 197.136C181.97 197.136 182.147 196.923 182.147 196.491ZM182.147 193.907V193.454C182.147 193.079 181.984 192.88 181.673 192.88C181.361 192.88 181.198 193.079 181.198 193.454V193.907C181.198 194.282 181.361 194.481 181.673 194.481C181.984 194.481 182.112 194.282 182.112 193.907H182.147Z" fill="#263238"/>
<path d="M183.584 196.513V196.067H184.434V196.576C184.434 196.987 184.611 197.136 184.901 197.136C185.192 197.136 185.369 196.987 185.369 196.576V195.295C185.369 194.884 185.184 194.728 184.901 194.728C184.618 194.728 184.434 194.884 184.434 195.295V195.344H183.584L183.747 192.144H186.119V192.965H184.547L184.476 194.332C184.555 194.198 184.67 194.088 184.807 194.014C184.945 193.94 185.1 193.906 185.255 193.914C185.914 193.914 186.254 194.381 186.254 195.224V196.513C186.267 196.697 186.242 196.882 186.181 197.057C186.119 197.231 186.023 197.391 185.897 197.526C185.771 197.662 185.619 197.77 185.449 197.843C185.28 197.917 185.097 197.955 184.912 197.955C184.727 197.955 184.544 197.917 184.375 197.843C184.205 197.77 184.053 197.662 183.927 197.526C183.801 197.391 183.704 197.231 183.643 197.057C183.582 196.882 183.557 196.697 183.57 196.513H183.584Z" fill="#263238"/>
<path d="M186.827 194.41V192.994C186.816 192.873 186.83 192.752 186.869 192.637C186.907 192.523 186.97 192.417 187.051 192.328C187.133 192.239 187.232 192.167 187.343 192.118C187.453 192.07 187.573 192.044 187.694 192.044C187.815 192.044 187.935 192.07 188.045 192.118C188.156 192.167 188.255 192.239 188.337 192.328C188.419 192.417 188.481 192.523 188.519 192.637C188.558 192.752 188.572 192.873 188.561 192.994V194.41C188.572 194.53 188.558 194.652 188.519 194.766C188.481 194.881 188.419 194.986 188.337 195.076C188.255 195.165 188.156 195.236 188.045 195.285C187.935 195.334 187.815 195.359 187.694 195.359C187.573 195.359 187.453 195.334 187.343 195.285C187.232 195.236 187.133 195.165 187.051 195.076C186.97 194.986 186.907 194.881 186.869 194.766C186.83 194.652 186.816 194.53 186.827 194.41ZM187.988 194.452V192.937C187.988 192.689 187.875 192.576 187.698 192.576C187.521 192.576 187.4 192.689 187.4 192.937V194.452C187.4 194.707 187.506 194.813 187.698 194.813C187.889 194.813 187.988 194.7 187.988 194.452ZM189.772 192.144H190.346L188.129 197.872H187.556L189.772 192.144ZM189.34 197.036V195.62C189.329 195.5 189.344 195.379 189.382 195.264C189.421 195.149 189.483 195.044 189.565 194.955C189.646 194.865 189.745 194.794 189.856 194.745C189.967 194.696 190.086 194.671 190.207 194.671C190.328 194.671 190.448 194.696 190.559 194.745C190.669 194.794 190.769 194.865 190.85 194.955C190.932 195.044 190.994 195.149 191.033 195.264C191.071 195.379 191.086 195.5 191.075 195.62V197.036C191.086 197.157 191.071 197.278 191.033 197.393C190.994 197.508 190.932 197.613 190.85 197.702C190.769 197.792 190.669 197.863 190.559 197.912C190.448 197.961 190.328 197.986 190.207 197.986C190.086 197.986 189.967 197.961 189.856 197.912C189.745 197.863 189.646 197.792 189.565 197.702C189.483 197.613 189.421 197.508 189.382 197.393C189.344 197.278 189.329 197.157 189.34 197.036ZM190.501 197.079V195.564C190.501 195.309 190.388 195.203 190.204 195.203C190.02 195.203 189.914 195.309 189.914 195.564V197.079C189.914 197.334 190.02 197.44 190.204 197.44C190.388 197.44 190.501 197.334 190.501 197.079Z" fill="#263238"/>
<path d="M150.308 207.564H138.039V192.045H146.216L150.308 196.137V207.564Z" fill="white"/>
<path opacity="0.5" d="M150.308 207.564H138.039V192.045H146.216L150.308 196.137V207.564Z" fill="white" stroke="#263238" stroke-linecap="round" stroke-linejoin="round"/>
<path d="M150.308 207.564H138.039V192.045H146.216L150.308 196.137V207.564Z" stroke="#263238" stroke-linecap="round" stroke-linejoin="round"/>
<path d="M140.764 200.279C140.572 200.261 140.393 200.171 140.262 200.028C140.132 199.884 140.06 199.698 140.06 199.504C140.06 199.31 140.132 199.123 140.262 198.98C140.393 198.837 140.572 198.747 140.764 198.729H147.582C147.775 198.747 147.954 198.837 148.085 198.98C148.215 199.123 148.287 199.31 148.287 199.504C148.287 199.698 148.215 199.884 148.085 200.028C147.954 200.171 147.775 200.261 147.582 200.279H140.764Z" fill="#858585" stroke="#263238" stroke-width="0.75" stroke-linecap="round" stroke-linejoin="round"/>
<path d="M140.764 203.543C140.572 203.525 140.393 203.435 140.262 203.292C140.132 203.148 140.06 202.961 140.06 202.768C140.06 202.574 140.132 202.387 140.262 202.244C140.393 202.101 140.572 202.011 140.764 201.992H146.096C146.289 202.011 146.468 202.101 146.598 202.244C146.728 202.387 146.8 202.574 146.8 202.768C146.8 202.961 146.728 203.148 146.598 203.292C146.468 203.435 146.289 203.525 146.096 203.543H140.764Z" fill="#858585" stroke="#263238" stroke-width="0.75" stroke-linecap="round" stroke-linejoin="round"/>
<path d="M146.216 196.137H150.308L146.216 192.045V196.137Z" fill="white" stroke="#263238" stroke-linecap="round" stroke-linejoin="round"/>
<path d="M230.872 112.416H124.615C121.933 112.416 119.758 114.591 119.758 117.273V141.961C119.758 144.644 121.933 146.818 124.615 146.818H230.872C233.554 146.818 235.729 144.644 235.729 141.961V117.273C235.729 114.591 233.554 112.416 230.872 112.416Z" fill="#263238" stroke="#263238" stroke-linecap="round" stroke-linejoin="round"/>
<path d="M229.385 110.93H123.128C120.446 110.93 118.271 113.104 118.271 115.786V140.474C118.271 143.157 120.446 145.331 123.128 145.331H229.385C232.067 145.331 234.242 143.157 234.242 140.474V115.786C234.242 113.104 232.067 110.93 229.385 110.93Z" fill="white" stroke="#263238" stroke-linecap="round" stroke-linejoin="round"/>
<path d="M158.748 142.499H136.028V113.762H151.172L158.748 121.33V142.499Z" fill="white"/>
<path opacity="0.7" d="M158.748 142.499H136.028V113.762H151.172L158.748 121.33V142.499Z" fill="white"/>
<path d="M158.748 142.499H136.028V113.762H151.172L158.748 121.33V142.499Z" stroke="#263238" stroke-linecap="round" stroke-linejoin="round"/>
<path d="M151.172 121.33H158.748L151.172 113.762V121.33Z" fill="white" stroke="#263238" stroke-linecap="round" stroke-linejoin="round"/>
<path d="M142.733 124.87H138.272V129.33H142.733V124.87Z" stroke="white" stroke-width="0.75" stroke-linecap="round" stroke-linejoin="round"/>
<path d="M147.321 124.87H142.86V129.33H147.321V124.87Z" stroke="white" stroke-width="0.75" stroke-linecap="round" stroke-linejoin="round"/>
<path d="M151.915 124.87H147.455V129.33H151.915V124.87Z" stroke="white" stroke-width="0.75" stroke-linecap="round" stroke-linejoin="round"/>
<path d="M156.503 124.87H152.043V129.33H156.503V124.87Z" stroke="white" stroke-width="0.75" stroke-linecap="round" stroke-linejoin="round"/>
<path d="M142.733 129.33H138.272V133.791H142.733V129.33Z" stroke="white" stroke-width="0.75" stroke-linecap="round" stroke-linejoin="round"/>
<path d="M147.321 129.33H142.86V133.791H147.321V129.33Z" stroke="white" stroke-width="0.75" stroke-linecap="round" stroke-linejoin="round"/>
<path d="M151.915 129.33H147.455V133.791H151.915V129.33Z" stroke="white" stroke-width="0.75" stroke-linecap="round" stroke-linejoin="round"/>
<path d="M156.503 129.33H152.043V133.791H156.503V129.33Z" stroke="white" stroke-width="0.75" stroke-linecap="round" stroke-linejoin="round"/>
<path d="M142.733 133.791H138.272V138.251H142.733V133.791Z" stroke="white" stroke-width="0.75" stroke-linecap="round" stroke-linejoin="round"/>
<path d="M147.321 133.791H142.86V138.251H147.321V133.791Z" stroke="white" stroke-width="0.75" stroke-linecap="round" stroke-linejoin="round"/>
<path d="M151.915 133.791H147.455V138.251H151.915V133.791Z" stroke="white" stroke-width="0.75" stroke-linecap="round" stroke-linejoin="round"/>
<path d="M156.503 133.791H152.043V138.251H156.503V133.791Z" stroke="white" stroke-width="0.75" stroke-linecap="round" stroke-linejoin="round"/>
<path d="M138.357 137.819L142.86 133.685L145.09 133.791L147.526 129.394L149.685 131.561L152.106 129.019L154.273 124.87" stroke="white" stroke-width="2" stroke-linecap="round" stroke-linejoin="round"/>
<path d="M151.717 126.166L154.273 124.87L154.79 127.66" stroke="white" stroke-width="2" stroke-linecap="round" stroke-linejoin="round"/>
<path d="M167.683 127.214H166.38V126.35C167.414 126.35 167.796 126.123 168.065 125.366H168.886V133.154H167.661L167.683 127.214Z" fill="#263238"/>
<path d="M170.338 131.32V127.214C170.338 126.72 170.534 126.246 170.883 125.897C171.232 125.548 171.706 125.352 172.2 125.352C172.694 125.352 173.167 125.548 173.516 125.897C173.866 126.246 174.062 126.72 174.062 127.214V131.32C174.062 131.814 173.866 132.287 173.516 132.637C173.167 132.986 172.694 133.182 172.2 133.182C171.706 133.182 171.232 132.986 170.883 132.637C170.534 132.287 170.338 131.814 170.338 131.32ZM172.837 131.398V127.15C172.837 126.598 172.589 126.385 172.2 126.385C171.81 126.385 171.563 126.598 171.563 127.15V131.398C171.563 131.957 171.81 132.17 172.2 132.17C172.589 132.17 172.837 131.957 172.837 131.398Z" fill="#263238"/>
<path d="M174.798 131.32V127.214C174.798 126.72 174.994 126.246 175.343 125.897C175.693 125.548 176.166 125.352 176.66 125.352C177.154 125.352 177.628 125.548 177.977 125.897C178.326 126.246 178.522 126.72 178.522 127.214V131.32C178.522 131.814 178.326 132.287 177.977 132.637C177.628 132.986 177.154 133.182 176.66 133.182C176.166 133.182 175.693 132.986 175.343 132.637C174.994 132.287 174.798 131.814 174.798 131.32ZM177.297 131.398V127.15C177.297 126.598 177.05 126.385 176.66 126.385C176.271 126.385 176.023 126.598 176.023 127.15V131.398C176.023 131.957 176.271 132.17 176.66 132.17C177.05 132.17 177.297 131.957 177.297 131.398Z" fill="#263238"/>
<path d="M179.279 128.453V126.506C179.279 126.192 179.404 125.891 179.626 125.669C179.847 125.448 180.148 125.323 180.462 125.323C180.775 125.323 181.076 125.448 181.298 125.669C181.519 125.891 181.644 126.192 181.644 126.506V128.453C181.644 128.766 181.519 129.067 181.298 129.289C181.076 129.51 180.775 129.635 180.462 129.635C180.148 129.635 179.847 129.51 179.626 129.289C179.404 129.067 179.279 128.766 179.279 128.453ZM180.865 128.509V126.449C180.865 126.102 180.709 125.953 180.462 125.953C180.214 125.953 180.058 126.102 180.058 126.449V128.509C180.058 128.856 180.207 128.998 180.462 128.998C180.717 128.998 180.865 128.856 180.865 128.509ZM183.294 125.366H184.08L181.056 133.154H180.278L183.294 125.366ZM182.699 132.035V130.081C182.699 129.926 182.73 129.772 182.789 129.628C182.848 129.485 182.935 129.355 183.045 129.245C183.155 129.135 183.285 129.048 183.429 128.989C183.572 128.929 183.726 128.899 183.881 128.899C184.037 128.899 184.19 128.929 184.334 128.989C184.477 129.048 184.608 129.135 184.717 129.245C184.827 129.355 184.914 129.485 184.974 129.628C185.033 129.772 185.064 129.926 185.064 130.081V132.035C185.064 132.19 185.033 132.344 184.974 132.487C184.914 132.631 184.827 132.761 184.717 132.871C184.608 132.981 184.477 133.068 184.334 133.127C184.19 133.187 184.037 133.217 183.881 133.217C183.726 133.217 183.572 133.187 183.429 133.127C183.285 133.068 183.155 132.981 183.045 132.871C182.935 132.761 182.848 132.631 182.789 132.487C182.73 132.344 182.699 132.19 182.699 132.035ZM184.285 132.092V130.024C184.285 129.677 184.129 129.536 183.881 129.536C183.633 129.536 183.485 129.677 183.485 130.024V132.092C183.485 132.432 183.626 132.58 183.881 132.58C184.136 132.58 184.285 132.432 184.285 132.092Z" fill="#263238"/>
<path d="M187.046 130.732V127.652C187.046 127.301 187.186 126.965 187.434 126.716C187.682 126.468 188.019 126.328 188.37 126.328C188.721 126.328 189.058 126.468 189.306 126.716C189.555 126.965 189.694 127.301 189.694 127.652V128.261H188.844V127.596C188.844 127.221 188.66 127.065 188.391 127.065C188.122 127.065 187.945 127.221 187.945 127.596V130.796C187.945 131.171 188.122 131.32 188.391 131.32C188.66 131.32 188.844 131.171 188.844 130.796V129.918H189.694V130.732C189.694 131.083 189.555 131.42 189.306 131.668C189.058 131.917 188.721 132.056 188.37 132.056C188.019 132.056 187.682 131.917 187.434 131.668C187.186 131.42 187.046 131.083 187.046 130.732Z" fill="#263238"/>
<path d="M190.183 130.697V127.688C190.183 127.325 190.327 126.978 190.583 126.722C190.839 126.465 191.187 126.321 191.549 126.321C191.912 126.321 192.259 126.465 192.516 126.722C192.772 126.978 192.916 127.325 192.916 127.688V130.697C192.916 131.059 192.772 131.407 192.516 131.663C192.259 131.919 191.912 132.063 191.549 132.063C191.187 132.063 190.839 131.919 190.583 131.663C190.327 131.407 190.183 131.059 190.183 130.697ZM192.017 130.753V127.631C192.017 127.221 191.84 127.065 191.549 127.065C191.259 127.065 191.082 127.221 191.082 127.631V130.753C191.082 131.164 191.266 131.32 191.549 131.32C191.832 131.32 192.017 131.164 192.017 130.753Z" fill="#263238"/>
<path d="M193.518 126.328H194.806L195.38 130.428L195.953 126.328H197.235V132.056H196.385V127.723L195.727 132.056H194.976L194.325 127.723V132.056H193.539L193.518 126.328Z" fill="#263238"/>
<path d="M197.921 126.328H199.245C200.144 126.328 200.583 126.831 200.583 127.744V128.311C200.583 129.224 200.144 129.727 199.245 129.727H198.82V132.056H197.921V126.328ZM199.245 128.906C199.528 128.906 199.684 128.778 199.684 128.368V127.66C199.684 127.249 199.528 127.121 199.245 127.121H198.82V128.877L199.245 128.906Z" fill="#263238"/>
<path d="M201.072 126.328H201.971V131.235H203.451V132.056H201.072V126.328Z" fill="#263238"/>
<path d="M203.904 126.328H206.353V127.15H204.803V128.658H206.028V129.479H204.796V131.235H206.346V132.056H203.904V126.328Z" fill="#263238"/>
<path d="M207.557 127.15H206.623V126.328H209.398V127.15H208.457V132.056H207.557V127.15Z" fill="#263238"/>
<path d="M209.837 126.328H212.287V127.15H210.736V128.658H211.968V129.479H210.736V131.235H212.287V132.056H209.837V126.328Z" fill="#263238"/>
<path d="M212.803 126.328H214.177C215.076 126.328 215.515 126.831 215.515 127.744V130.64C215.515 131.554 215.076 132.056 214.177 132.056H212.803V126.328ZM214.156 131.235C214.446 131.235 214.616 131.086 214.616 130.683V127.702C214.616 127.298 214.446 127.15 214.156 127.15H213.702V131.235H214.156Z" fill="#263238"/>
<path d="M219.466 219.346H136.028C133.345 219.346 131.171 221.52 131.171 224.202V242.115C131.171 244.797 133.345 246.972 136.028 246.972H219.466C222.148 246.972 224.322 244.797 224.322 242.115V224.202C224.322 221.52 222.148 219.346 219.466 219.346Z" fill="#263238" stroke="#263238" stroke-linecap="round" stroke-linejoin="round"/>
<path d="M217.979 217.859H134.541C131.859 217.859 129.684 220.033 129.684 222.716V240.628C129.684 243.311 131.859 245.485 134.541 245.485H217.979C220.661 245.485 222.836 243.311 222.836 240.628V222.716C222.836 220.033 220.661 217.859 217.979 217.859Z" fill="white" stroke="#263238" stroke-linecap="round" stroke-linejoin="round"/>
<path d="M196.456 233.038H158.493C158.068 233.038 157.661 233.207 157.361 233.507C157.061 233.807 156.893 234.214 156.893 234.638C156.893 235.063 157.061 235.47 157.361 235.77C157.661 236.07 158.068 236.238 158.493 236.238H196.456V233.038Z" fill="white"/>
<path d="M158.493 236.238C158.068 236.238 157.661 236.07 157.361 235.77C157.061 235.47 156.893 235.063 156.893 234.638C156.893 234.214 157.061 233.807 157.361 233.507C157.661 233.207 158.068 233.038 158.493 233.038H212.867C213.077 233.038 213.285 233.08 213.479 233.16C213.674 233.24 213.85 233.358 213.998 233.507C214.147 233.656 214.265 233.832 214.345 234.026C214.426 234.22 214.467 234.428 214.467 234.638C214.467 234.848 214.426 235.057 214.345 235.251C214.265 235.445 214.147 235.621 213.998 235.77C213.85 235.918 213.674 236.036 213.479 236.117C213.285 236.197 213.077 236.238 212.867 236.238H158.493Z" stroke="#263238" stroke-linecap="round" stroke-linejoin="round"/>
<path d="M150.308 239.432H138.039V223.912H146.216L150.308 227.997V239.432Z" fill="white"/>
<path opacity="0.5" d="M150.308 239.432H138.039V223.912H146.216L150.308 227.997V239.432Z" fill="white"/>
<path d="M150.308 239.432H138.039V223.912H146.216L150.308 227.997V239.432Z" stroke="#263238" stroke-linecap="round" stroke-linejoin="round"/>
<path d="M140.764 232.146C140.572 232.128 140.393 232.038 140.262 231.895C140.132 231.751 140.06 231.565 140.06 231.371C140.06 231.177 140.132 230.99 140.262 230.847C140.393 230.704 140.572 230.614 140.764 230.596H147.582C147.775 230.614 147.954 230.704 148.085 230.847C148.215 230.99 148.287 231.177 148.287 231.371C148.287 231.565 148.215 231.751 148.085 231.895C147.954 232.038 147.775 232.128 147.582 232.146H140.764Z" fill="#858585" stroke="#263238" stroke-width="0.75" stroke-linecap="round" stroke-linejoin="round"/>
<path d="M140.764 235.403C140.559 235.403 140.363 235.322 140.218 235.177C140.074 235.032 139.992 234.836 139.992 234.631C139.992 234.427 140.074 234.23 140.218 234.086C140.363 233.941 140.559 233.86 140.764 233.86H146.095C146.3 233.86 146.496 233.941 146.641 234.086C146.786 234.23 146.867 234.427 146.867 234.631C146.867 234.836 146.786 235.032 146.641 235.177C146.496 235.322 146.3 235.403 146.095 235.403H140.764Z" fill="#858585" stroke="#263238" stroke-width="0.75" stroke-linecap="round" stroke-linejoin="round"/>
<path d="M146.216 227.997H150.308L146.216 223.912V227.997Z" fill="white" stroke="#263238" stroke-linecap="round" stroke-linejoin="round"/>
<path d="M182.097 224.825H180.278V224.011H182.975V224.797L181.559 229.753H180.639L182.097 224.825Z" fill="#263238"/>
<path d="M183.542 228.38V225.371C183.542 225.008 183.686 224.661 183.942 224.404C184.198 224.148 184.546 224.004 184.908 224.004C185.271 224.004 185.618 224.148 185.874 224.404C186.131 224.661 186.275 225.008 186.275 225.371V228.38C186.275 228.742 186.131 229.09 185.874 229.346C185.618 229.602 185.271 229.746 184.908 229.746C184.546 229.746 184.198 229.602 183.942 229.346C183.686 229.09 183.542 228.742 183.542 228.38ZM185.375 228.436V225.314C185.375 224.903 185.191 224.748 184.908 224.748C184.625 224.748 184.441 224.903 184.441 225.314V228.436C184.441 228.847 184.625 228.996 184.908 228.996C185.191 228.996 185.375 228.847 185.375 228.436Z" fill="#263238"/>
<path d="M186.827 226.277V224.861C186.816 224.74 186.83 224.619 186.869 224.504C186.907 224.39 186.97 224.284 187.051 224.195C187.133 224.106 187.232 224.034 187.343 223.986C187.453 223.937 187.573 223.912 187.694 223.912C187.815 223.912 187.935 223.937 188.045 223.986C188.156 224.034 188.255 224.106 188.337 224.195C188.419 224.284 188.481 224.39 188.519 224.504C188.558 224.619 188.572 224.74 188.561 224.861V226.277C188.572 226.397 188.558 226.519 188.519 226.633C188.481 226.748 188.419 226.853 188.337 226.943C188.255 227.032 188.156 227.103 188.045 227.152C187.935 227.201 187.815 227.226 187.694 227.226C187.573 227.226 187.453 227.201 187.343 227.152C187.232 227.103 187.133 227.032 187.051 226.943C186.97 226.853 186.907 226.748 186.869 226.633C186.83 226.519 186.816 226.397 186.827 226.277ZM187.988 226.319V224.804C187.988 224.549 187.875 224.443 187.698 224.443C187.521 224.443 187.4 224.549 187.4 224.804V226.319C187.4 226.567 187.506 226.673 187.698 226.673C187.889 226.673 187.988 226.56 187.988 226.319ZM189.744 224.011H190.317L188.101 229.732H187.528L189.744 224.011ZM189.312 228.904V227.488C189.301 227.367 189.315 227.246 189.354 227.131C189.393 227.016 189.455 226.911 189.536 226.822C189.618 226.732 189.717 226.661 189.828 226.612C189.939 226.563 190.058 226.538 190.179 226.538C190.3 226.538 190.42 226.563 190.53 226.612C190.641 226.661 190.74 226.732 190.822 226.822C190.904 226.911 190.966 227.016 191.004 227.131C191.043 227.246 191.057 227.367 191.046 227.488V228.904C191.057 229.024 191.043 229.145 191.004 229.26C190.966 229.375 190.904 229.48 190.822 229.569C190.74 229.659 190.641 229.73 190.53 229.779C190.42 229.828 190.3 229.853 190.179 229.853C190.058 229.853 189.939 229.828 189.828 229.779C189.717 229.73 189.618 229.659 189.536 229.569C189.455 229.48 189.393 229.375 189.354 229.26C189.315 229.145 189.301 229.024 189.312 228.904ZM190.473 228.939V227.431C190.473 227.176 190.36 227.07 190.176 227.07C189.992 227.07 189.885 227.176 189.885 227.431V228.939C189.885 229.194 189.992 229.3 190.176 229.3C190.36 229.3 190.501 229.194 190.501 228.939H190.473Z" fill="#263238"/>
<path d="M83.8555 78.0216L102.54 63.5784L121.224 78.0216H83.8555Z" fill="#263238" stroke="#263238" stroke-linecap="round" stroke-linejoin="round"/>
<path d="M107.425 62.4456H97.6543V70.8H107.425V62.4456Z" fill="#263238" stroke="#263238" stroke-linecap="round" stroke-linejoin="round"/>
<path d="M102.539 41.687V70.8" stroke="#263238" stroke-width="0.75" stroke-linecap="round" stroke-linejoin="round"/>
<path d="M232.769 78.0216L251.46 63.5784L270.144 78.0216H232.769Z" fill="#263238" stroke="#263238" stroke-linecap="round" stroke-linejoin="round"/>
<path d="M256.346 62.4456H246.575V70.8H256.346V62.4456Z" fill="#263238" stroke="#263238" stroke-linecap="round" stroke-linejoin="round"/>
<path d="M251.46 40.271V70.8" stroke="#263238" stroke-width="0.75" stroke-linecap="round" stroke-linejoin="round"/>
<path d="M258.753 303.442L258.356 315.124L264.403 315.414L266.605 303.442H258.753Z" fill="white" stroke="#263238" stroke-linecap="round" stroke-linejoin="round"/>
<path d="M246.922 318.706C248.961 317.998 252.487 316.795 253.811 315.966C254.873 315.301 256.352 313.134 257.45 312.525C257.68 312.426 257.928 312.374 258.179 312.374C258.43 312.374 258.678 312.426 258.908 312.525C259.087 312.723 259.202 312.97 259.241 313.233C259.271 313.348 259.335 313.45 259.423 313.529C259.512 313.607 259.621 313.658 259.738 313.675C259.855 313.691 259.975 313.673 260.081 313.622C260.188 313.572 260.278 313.49 260.339 313.389C260.508 313.056 260.75 312.766 261.047 312.54C261.981 312.016 264.509 311.867 265.337 312.54C266.711 313.665 267.206 317.545 267.461 319.294C267.525 319.676 267.461 321.8 267.461 321.8H245.4V320.83C245.397 320.361 245.542 319.903 245.816 319.521C246.089 319.139 246.476 318.854 246.922 318.706Z" fill="white" stroke="#263238" stroke-linecap="round" stroke-linejoin="round"/>
<path d="M267.475 321.786H245.4V320.816C245.399 320.575 245.44 320.335 245.52 320.108H267.503C267.503 320.851 267.475 321.786 267.475 321.786Z" fill="#858585" stroke="#263238" stroke-linecap="round" stroke-linejoin="round"/>
<path d="M262.569 212.874L257.931 307.888L266.427 309.304C266.427 309.304 271.78 281.805 272.431 272.799C272.587 270.675 272.431 264.268 272.431 264.268L278.442 234.681C278.442 234.681 282.4 231.027 282.86 213.632L262.569 212.874Z" fill="#263238" stroke="#263238" stroke-linecap="round" stroke-linejoin="round"/>
<path opacity="0.7" d="M275.143 249.648C275.469 248.274 275.851 246.922 276.311 245.577C276.382 245.386 276.467 245.209 276.552 245.032C276.763 243.021 277.087 241.024 277.522 239.049C277.672 238.312 278.069 237.647 278.647 237.166C278.813 236.792 279.059 236.461 279.369 236.195C279.679 235.929 280.045 235.736 280.439 235.629C280.178 233.801 279.781 231.996 279.249 230.227C278.711 228.372 277.833 226.595 277.571 224.677C277.5 224.181 277.217 223.664 277.309 223.608C276.701 223.371 276.105 223.101 275.525 222.801L275.419 222.716C274.876 231.683 274.784 240.671 275.143 249.648Z" fill="black"/>
<path d="M262.165 267.22C263.669 266.872 265.05 266.121 266.158 265.047" stroke="#7F7F7F" stroke-width="0.75" stroke-linecap="round" stroke-linejoin="round"/>
<path d="M256.813 309.693L267.086 310.536L267.85 307.208L256.813 306.344V309.693Z" fill="white" stroke="#263238" stroke-linecap="round" stroke-linejoin="round"/>
<path d="M286.478 302.004L288.666 315.662L294.259 315.223L294.075 301.24L286.478 302.004Z" fill="white" stroke="#263238" stroke-linecap="round" stroke-linejoin="round"/>
<path d="M277.111 318.706C279.157 317.998 282.683 316.795 284 315.966C285.062 315.301 286.549 313.134 287.639 312.525C287.87 312.425 288.12 312.374 288.372 312.374C288.624 312.374 288.873 312.425 289.105 312.525C289.233 312.657 289.323 312.821 289.367 313C289.405 313.135 289.482 313.256 289.589 313.348C289.696 313.439 289.828 313.496 289.968 313.512C290.108 313.528 290.249 313.502 290.374 313.437C290.499 313.372 290.602 313.272 290.669 313.148C290.813 312.904 291.006 312.692 291.236 312.525C292.17 312.002 294.698 311.853 295.526 312.525C296.9 313.651 297.395 317.531 297.65 319.28C297.707 319.662 297.65 321.786 297.65 321.786H275.596V320.816C275.595 320.35 275.741 319.895 276.013 319.517C276.285 319.138 276.669 318.855 277.111 318.706Z" fill="white" stroke="#263238" stroke-linecap="round" stroke-linejoin="round"/>
<path d="M297.672 321.786H275.596V320.816C275.593 320.575 275.632 320.336 275.709 320.108H297.693C297.693 320.851 297.672 321.786 297.672 321.786Z" fill="#858585" stroke="#263238" stroke-linecap="round" stroke-linejoin="round"/>
<path d="M274.393 215.742C274.393 215.742 276.517 228.04 278.471 238.355C279.802 245.35 279.887 266.017 279.887 266.017L286.669 308.688L295.031 307.562C295.031 307.562 295.13 281.296 294.188 272.87C293.976 270.994 293.629 265.422 293.629 265.422C293.629 265.422 293.948 243.134 295.668 235.686C296.9 230.376 299.35 224.797 296.376 213.915L274.393 215.742Z" fill="#263238" stroke="#263238" stroke-linecap="round" stroke-linejoin="round"/>
<path d="M281.72 267.22C282.571 268.398 283.836 269.209 285.26 269.493" stroke="#7F7F7F" stroke-width="0.75" stroke-linecap="round" stroke-linejoin="round"/>
<path d="M285.267 306.769L285.749 309.899L296.114 308.787L296.043 305.417L285.267 306.769Z" fill="white" stroke="#263238" stroke-linecap="round" stroke-linejoin="round"/>
<path d="M234.936 158.854L232.649 155.01C232.649 155.01 232.097 148.73 230.822 147.505C229.548 146.28 226.716 142.676 226.312 143.384C225.675 144.517 228.033 146.535 228.033 146.535L228.464 148.871C228.464 148.871 224.648 146.124 223.572 146.124C223.572 146.124 220.528 142.52 219.452 142.513C218.375 142.506 219.891 145.005 219.891 145.005C219.891 145.005 218.864 144.22 218.666 144.708C218.468 145.197 219.99 146.868 219.99 146.868C219.99 146.868 219.402 147.505 220.287 148.871C220.165 149.313 220.166 149.779 220.291 150.22C220.416 150.661 220.659 151.059 220.995 151.37C222.17 152.305 228.486 155.88 228.486 155.88L230.61 160.879L234.936 158.854Z" fill="#858585" stroke="#263238" stroke-linecap="round" stroke-linejoin="round"/>
<path d="M220.825 146.967C220.825 146.967 221.66 147.306 221.313 148.531C221.647 149.005 221.834 149.566 221.852 150.146C221.937 151.222 227.388 150.691 228.861 152.978" stroke="#263238" stroke-width="0.75" stroke-linecap="round" stroke-linejoin="round"/>
<path d="M220.825 145.643L223.048 147.993" stroke="#263238" stroke-width="0.75" stroke-linecap="round" stroke-linejoin="round"/>
<path d="M258.54 157.884L243.948 169.254L233.951 155.633L228.861 158.181C228.861 158.181 236.861 180.285 242.915 180.285C249.35 180.285 261.585 169.948 261.585 169.948C261.585 169.948 262.356 167.973 258.54 157.884Z" fill="white" stroke="#263238" stroke-linecap="round" stroke-linejoin="round"/>
<path d="M244.501 170.338C244.842 171.063 245.096 171.826 245.258 172.61" stroke="#263238" stroke-width="0.75" stroke-linecap="round" stroke-linejoin="round"/>
<path d="M258.54 157.884L261.648 199.026V216.117C261.648 216.117 279.554 218.241 297.218 215.664L296.609 198.07L298.401 158.854C298.401 158.854 290.202 152.928 277.614 152.928C265.026 152.928 258.54 157.884 258.54 157.884Z" fill="white" stroke="#263238" stroke-linecap="round" stroke-linejoin="round"/>
<path opacity="0.2" d="M297.218 215.664L296.652 199.897C296.348 207.494 287.965 204.64 286.067 204.286C284.035 203.904 281.699 210.602 281.699 210.602C281.699 210.602 273.911 211.94 267.815 211.465C261.719 210.991 261.627 205.426 261.627 205.426V216.117C261.627 216.117 279.554 218.269 297.218 215.664Z" fill="black"/>
<path d="M270.038 198.629C277.547 197.822 284.752 195.227 291.051 191.061L270.038 198.629Z" fill="white"/>
<path d="M270.038 198.629C277.547 197.822 284.752 195.227 291.051 191.061" stroke="#263238" stroke-width="0.75" stroke-linecap="round" stroke-linejoin="round"/>
<path d="M266.916 198.842C266.916 198.842 267.518 198.842 268.58 198.764L266.916 198.842Z" fill="white"/>
<path d="M266.916 198.842C266.916 198.842 267.518 198.842 268.58 198.764" stroke="#263238" stroke-width="0.75" stroke-linecap="round" stroke-linejoin="round"/>
<path d="M272.976 159.866L269.875 158.741L266.916 161.601L269.082 152.751L271.695 150.698L273.026 151.54L278.973 151.314L283.596 151.689L285.798 151.009L288.149 153.36L282.917 163.364L280.722 159.576L275.879 160.178L272.976 159.866Z" fill="white"/>
<path opacity="0.5" d="M272.976 159.866L269.875 158.741L266.916 161.601L269.082 152.751L271.695 150.698L273.026 151.54L278.973 151.314L283.596 151.689L285.798 151.009L288.149 153.36L282.917 163.364L280.722 159.576L275.879 160.178L272.976 159.866Z" fill="white"/>
<path d="M272.976 159.866L269.875 158.741L266.916 161.601L269.082 152.751L271.695 150.698L273.026 151.54L278.973 151.314L283.596 151.689L285.798 151.009L288.149 153.36L282.917 163.364L280.722 159.576L275.879 160.178L272.976 159.866Z" stroke="#263238" stroke-linecap="round" stroke-linejoin="round"/>
<path d="M283.278 153.331L282.57 142.513L275.731 143.724L274.315 148.807L272.899 153.211L272.226 153.282L274.088 163.392L283.958 153.48L283.278 153.331Z" fill="#858585"/>
<path d="M266.463 143.264C266.463 146.011 266.887 152.156 270.661 152.871C274.569 153.615 279.051 149.169 280.658 147.391C281.061 146.95 281.375 146.436 281.586 145.876L282.442 143.604C283.002 143.646 283.562 143.529 284.056 143.264H266.463Z" fill="#263238" stroke="#263238" stroke-width="0.5" stroke-linecap="round" stroke-linejoin="round"/>
<path d="M283.278 153.331L282.57 142.513L275.731 143.724L274.315 148.807L272.899 153.211L272.226 153.282L274.088 163.392L283.958 153.48L283.278 153.331Z" stroke="#263238" stroke-linecap="round" stroke-linejoin="round"/>
<path d="M271.022 129.373C271.022 129.373 267.787 126.909 269.373 124.969C270.201 123.964 271.277 125.288 271.277 125.288C271.277 125.288 270.704 122.201 273.005 121.748C275.129 121.351 275.044 123.787 275.044 123.787C275.044 123.787 276.141 121.698 278.06 122.165C279.589 122.534 279.002 124.7 279.002 124.7C279.002 124.7 281.041 122.165 283.15 123.284C284.97 124.24 283.469 126.534 283.469 126.534C283.469 126.534 285.636 125.769 286.846 126.987C288.057 128.205 286.846 129.819 286.846 129.819C286.846 129.819 289.232 129.819 289.338 131.603C289.445 133.387 287.491 133.727 287.491 133.727C287.491 133.727 290.252 134.619 290.273 136.786C290.294 138.952 288.446 138.258 288.446 138.258C288.446 138.258 289.593 140.297 288.637 141.381C288.53 141.525 288.39 141.643 288.229 141.724C288.068 141.806 287.89 141.848 287.71 141.848C287.53 141.848 287.352 141.806 287.191 141.724C287.03 141.643 286.89 141.525 286.783 141.381C286.783 141.381 287.979 143.951 286.464 144.701C285.381 145.232 284.743 143.929 284.743 143.929C284.743 143.929 283.83 146.152 282.726 144.793C281.621 143.434 276.141 132.962 276.141 132.962L271.022 129.373Z" fill="#263238" stroke="#263238" stroke-width="0.75" stroke-linecap="round" stroke-linejoin="round"/>
<path d="M270.088 129.472L268.049 133.72C267.84 134.163 267.731 134.646 267.73 135.136V136.467L266.604 139.299C266.547 139.447 266.499 139.598 266.463 139.752C266.102 141.26 264.381 149.36 268.587 151.009C272.297 152.468 277.522 148.949 279.44 147.505C279.919 147.145 280.323 146.695 280.63 146.181L281.904 144.113C282.445 144.275 283.024 144.261 283.556 144.075C284.089 143.888 284.549 143.537 284.871 143.073C286.011 141.437 287.328 140.552 285.763 139.08C284.198 137.607 282.754 139.965 282.754 139.965L282.966 135.809L281.154 132.623L281.062 130.619C281.062 130.619 275.129 129.96 271.15 127.787L270.088 129.472Z" fill="white" stroke="#263238" stroke-width="0.75" stroke-linecap="round" stroke-linejoin="round"/>
<path d="M270.088 129.472L268.049 133.72C267.84 134.163 267.731 134.646 267.73 135.136V136.467L266.604 139.299C266.547 139.447 266.499 139.598 266.463 139.752C266.102 141.26 264.381 149.36 268.587 151.009C272.297 152.468 277.522 148.949 279.44 147.505C279.919 147.145 280.323 146.695 280.63 146.181L281.904 144.113C282.445 144.275 283.024 144.261 283.556 144.075C284.089 143.888 284.549 143.537 284.871 143.073C286.011 141.437 287.328 140.552 285.763 139.08C284.198 137.607 282.754 139.965 282.754 139.965L282.966 135.809L281.154 132.623L281.062 130.619C281.062 130.619 275.129 129.96 271.15 127.787L270.088 129.472Z" fill="#858585" stroke="#263238" stroke-linecap="round" stroke-linejoin="round"/>
<path d="M273.698 143.979C272.551 146.195 270.994 145.827 270.017 145.274" stroke="#263238" stroke-width="0.75" stroke-linecap="round" stroke-linejoin="round"/>
<path d="M273.72 138.945C273.564 139.448 273.245 139.795 273.012 139.724C272.778 139.653 272.7 139.179 272.856 138.676C273.012 138.173 273.33 137.819 273.564 137.897C273.798 137.975 273.875 138.442 273.72 138.945Z" fill="#263238"/>
<path d="M268.99 137.479C268.834 137.989 268.516 138.336 268.282 138.258C268.049 138.18 267.971 137.713 268.126 137.21C268.282 136.708 268.608 136.361 268.834 136.439C269.061 136.517 269.146 136.977 268.99 137.479Z" fill="#263238"/>
<path d="M268.65 134.209C268.838 134.156 269.034 134.143 269.227 134.169C269.42 134.196 269.605 134.263 269.772 134.364C269.938 134.466 270.081 134.601 270.193 134.76C270.304 134.92 270.382 135.101 270.42 135.292" stroke="#263238" stroke-width="0.75" stroke-linecap="round" stroke-linejoin="round"/>
<path d="M272.722 136.141C272.722 136.141 274.371 134.407 275.483 136.247" stroke="#263238" stroke-width="0.75" stroke-linecap="round" stroke-linejoin="round"/>
<path d="M270.456 137.925C270.308 138.602 269.989 139.229 269.531 139.748C269.072 140.268 268.489 140.661 267.836 140.892L269.125 142.938" stroke="#263238" stroke-width="0.75" stroke-linecap="round" stroke-linejoin="round"/>
<path d="M278.676 219.098L278.315 221.285C278.263 221.647 278.352 222.014 278.565 222.311C278.777 222.608 279.096 222.811 279.455 222.878L302.16 226.602C302.521 226.654 302.889 226.565 303.186 226.352C303.482 226.14 303.686 225.821 303.753 225.463L304.107 223.275L278.676 219.098Z" fill="white" stroke="#263238" stroke-width="0.75" stroke-linecap="round" stroke-linejoin="round"/>
<path d="M305.124 209.489L282.159 205.72C281.477 205.608 280.832 206.071 280.72 206.754L278.444 220.622C278.332 221.305 278.795 221.95 279.478 222.062L302.442 225.831C303.125 225.943 303.77 225.48 303.882 224.797L306.158 210.929C306.27 210.246 305.807 209.601 305.124 209.489Z" fill="white"/>
<path opacity="0.5" d="M305.124 209.489L282.159 205.72C281.477 205.608 280.832 206.071 280.72 206.754L278.444 220.622C278.332 221.305 278.795 221.95 279.478 222.062L302.442 225.831C303.125 225.943 303.77 225.48 303.882 224.797L306.158 210.929C306.27 210.246 305.807 209.601 305.124 209.489Z" fill="white"/>
<path d="M305.124 209.489L282.159 205.72C281.477 205.608 280.832 206.071 280.72 206.754L278.444 220.622C278.332 221.305 278.795 221.95 279.478 222.062L302.442 225.831C303.125 225.943 303.77 225.48 303.882 224.797L306.158 210.929C306.27 210.246 305.807 209.601 305.124 209.489Z" stroke="#263238" stroke-linecap="round" stroke-linejoin="round"/>
<path d="M296.262 212.074L295.009 216.322L290.761 219.36C290.16 221.219 289.451 223.042 288.637 224.818C288.583 224.917 288.555 225.028 288.556 225.141C288.556 225.254 288.586 225.365 288.641 225.463C288.696 225.562 288.775 225.645 288.871 225.704C288.967 225.763 289.077 225.797 289.19 225.802C289.777 225.802 290.464 225.526 290.839 224.386C290.839 224.386 291.002 226.624 292.383 225.257C292.383 225.257 293.225 227.424 294.542 225.717C294.542 225.717 297.593 226.171 298.082 223.969C298.57 221.767 299.293 217.887 299.293 217.887L301.233 213.335L296.262 212.074Z" fill="#858585" stroke="#263238" stroke-linecap="round" stroke-linejoin="round"/>
<path d="M290.811 223.516L291.292 220.238" stroke="#263238" stroke-width="0.75" stroke-linecap="round" stroke-linejoin="round"/>
<path d="M291.569 223.728C291.569 223.728 291.901 224.811 292.652 224.634C293.402 224.457 294.471 225.293 296.808 224.309" stroke="#263238" stroke-width="0.75" stroke-linecap="round" stroke-linejoin="round"/>
<path d="M298.401 158.854C298.401 158.854 309.021 188.363 308.822 192.675C308.624 196.987 301.07 215.742 301.07 215.742L295.236 213.887L299.13 191.889L295.639 176.604C295.639 176.604 294.846 165.396 298.401 158.854Z" fill="white" stroke="#263238" stroke-linecap="round" stroke-linejoin="round"/>
<path d="M300.439 191.401C300.831 191.101 301.285 190.892 301.768 190.791C302.25 190.689 302.75 190.697 303.229 190.813" stroke="#263238" stroke-width="0.75" stroke-linecap="round" stroke-linejoin="round"/>
<path d="M293.537 214.354C293.326 214.074 293.167 213.757 293.07 213.419C292.661 213.412 292.265 213.559 291.961 213.831C291.657 214.104 291.468 214.481 291.431 214.888C291.394 215.295 291.513 215.7 291.763 216.023C292.013 216.345 292.376 216.561 292.779 216.627C293.203 216.696 293.636 216.595 293.985 216.346C294.334 216.096 294.57 215.719 294.641 215.296C294.186 215.102 293.8 214.773 293.537 214.354Z" fill="white"/>
<path d="M86.3336 152.071L87.6222 158.422L73.3064 159.024L75.7915 141.423L85.4344 142.542L86.3336 152.071Z" fill="white"/>
<path d="M92.7482 142.435L80.7759 145.975C80.9253 147.348 81.2099 148.702 81.6255 150.018C82.3335 152.057 86.6452 155.682 89.4135 155.64C92.1818 155.597 92.4933 146.775 92.4933 146.775L94.1642 145.848C94.2598 145.794 94.3429 145.719 94.4078 145.63C94.4727 145.542 94.518 145.44 94.5407 145.332C94.5635 145.224 94.5631 145.113 94.5397 145.006C94.5163 144.898 94.4703 144.797 94.4049 144.708L92.7482 142.435Z" fill="#263238" stroke="#263238" stroke-width="0.75" stroke-linecap="round" stroke-linejoin="round"/>
<path d="M86.3336 152.071L87.6222 158.422L73.3064 159.024L75.7915 141.423L85.4344 142.542L86.3336 152.071Z" stroke="#263238" stroke-linecap="round" stroke-linejoin="round"/>
<path d="M86.9921 129.699C86.9921 129.699 90.4683 130.407 90.1143 126.633C89.7603 122.859 83.2821 125.167 79.905 125.592C76.5278 126.017 65.6246 130.088 69.4832 136.517C69.4832 136.517 67.2105 140.142 75.395 146.223C75.395 146.223 79.2819 144.397 81.413 147.066L83.0768 143.823L87.3248 136.361L86.9921 129.699Z" fill="#263238" stroke="#263238" stroke-linecap="round" stroke-linejoin="round"/>
<path d="M86.7371 129.132C86.7371 129.132 90.0647 130.987 91.9763 128.665C91.9763 128.665 92.1887 133.621 86.7371 129.132Z" fill="#263238" stroke="#263238" stroke-linecap="round" stroke-linejoin="round"/>
<path d="M87.0837 128.615C87.0837 128.615 92.0397 133.833 91.8698 137.409V140.673L94.4894 143.618C94.5627 143.693 94.6182 143.784 94.652 143.884C94.6857 143.983 94.6969 144.089 94.6847 144.193C94.6725 144.298 94.6372 144.398 94.5814 144.487C94.5256 144.576 94.4506 144.652 94.362 144.708L92.8398 145.763C92.8398 145.763 93.2858 154.117 90.6662 154.415C88.0466 154.712 83.6853 151.583 82.8145 149.742C82.1586 148.053 81.6839 146.299 81.3985 144.51C80.636 144.303 79.9528 143.873 79.4368 143.275C78.9207 142.677 78.5954 141.938 78.5028 141.154C78.1983 138.407 80.9666 138.485 81.6817 140.283L82.2623 141.749L84.0606 141.685C84.0606 141.685 83.034 139.094 83.6429 138.329C84.2517 137.564 86.6448 135.702 85.5474 133.925C84.45 132.148 84.8181 129.125 87.0837 128.615Z" fill="white" stroke="#263238" stroke-linecap="round" stroke-linejoin="round"/>
<path d="M89.916 147.398C90.1222 147.764 90.4382 148.056 90.8193 148.233C91.2005 148.41 91.6275 148.462 92.04 148.383" stroke="#263238" stroke-width="0.75" stroke-linecap="round" stroke-linejoin="round"/>
<path d="M88.613 137.43C88.613 137.43 89.7388 135.865 90.8078 137.295" stroke="#263238" stroke-linecap="round" stroke-linejoin="round"/>
<path d="M90.3903 140.694C90.3903 141.182 90.1992 141.586 89.9372 141.593C89.6752 141.6 89.4487 141.211 89.4345 140.722C89.4204 140.234 89.6257 139.83 89.8877 139.823C90.1496 139.816 90.3762 140.184 90.3903 140.694Z" fill="#263238"/>
<path d="M67.6845 297.53L65.6172 315.322L71.7697 316.271L75.161 298.684L67.6845 297.53Z" fill="white" stroke="#263238" stroke-linecap="round" stroke-linejoin="round"/>
<path d="M64.7888 218.914C64.7888 218.914 65.0366 229.222 68.6757 236.472L69.5041 263.829L65.3057 307.909L74.6442 308.801L83.1402 262.696L85.9722 220.924L64.7888 218.914Z" fill="white" stroke="#263238" stroke-linecap="round" stroke-linejoin="round"/>
<path opacity="0.2" d="M84.6553 241.01L83.8765 236.104L80.3365 220.662L79.6851 220.33L64.8171 218.914C64.8171 218.914 64.8171 220.606 65.1499 223.105L72.4919 227.268C72.665 229.882 73.2554 232.452 74.2406 234.879C74.3289 235.091 74.3611 235.322 74.3342 235.55C74.3073 235.778 74.2222 235.995 74.0871 236.181C73.952 236.366 73.7714 236.514 73.5627 236.61C73.354 236.705 73.1242 236.746 72.8954 236.727C72.1379 236.67 71.4794 236.727 71.4794 237.222C71.4794 238.369 77.016 242.072 77.016 242.072C77.016 242.072 82.6021 260.126 82.4039 266.796L83.1614 262.689L84.6553 241.01Z" fill="black"/>
<path d="M86.4609 298.698L87.1335 316.596H93.3569L94.0224 298.698H86.4609Z" fill="white" stroke="#263238" stroke-linecap="round" stroke-linejoin="round"/>
<path d="M103.269 319.117C101.214 318.491 99.2158 317.695 97.2933 316.738C96.3729 316.164 95.0844 314.288 94.1357 313.757C93.9367 313.672 93.7222 313.627 93.5056 313.627C93.2889 313.627 93.0744 313.672 92.8754 313.757C92.4223 314.125 92.4011 316.044 92.4011 316.044C92.4011 316.044 91.601 314.09 91.0205 313.757C90.2133 313.304 88.0185 313.17 87.3035 313.757C86.114 314.727 85.6822 318.097 85.4485 319.612C85.3919 319.945 85.4485 321.786 85.4485 321.786H104.565V320.943C104.566 320.542 104.442 320.15 104.209 319.822C103.977 319.495 103.648 319.248 103.269 319.117Z" fill="#263238" stroke="#263238" stroke-linecap="round" stroke-linejoin="round"/>
<path d="M99.4813 219.763L97.952 261.118L95.3961 308.334H85.6682C85.6682 308.334 83.6292 272.092 84.1389 261.606L79.0343 237.357C79.0343 237.357 73.6747 230.206 74.9491 221.533L99.4813 219.763Z" fill="white" stroke="#263238" stroke-linecap="round" stroke-linejoin="round"/>
<path d="M84.8042 304.822L85.1228 310.501H95.7782L96.6066 304.822H84.8042Z" fill="white" stroke="#263238" stroke-linecap="round" stroke-linejoin="round"/>
<path d="M64.5271 304.334L64.3076 310.012L74.9135 311.024L76.2799 305.452L64.5271 304.334Z" fill="white" stroke="#263238" stroke-linecap="round" stroke-linejoin="round"/>
<path d="M115.609 192.541L100.89 183.181L116.402 167.669L131.129 177.028L115.609 192.541Z" fill="white" stroke="#263238" stroke-linecap="round" stroke-linejoin="round"/>
<path d="M116.452 189.34L104.614 181.814L117.089 169.339L128.927 176.865L116.452 189.34Z" fill="white" stroke="#263238" stroke-width="0.75" stroke-linecap="round" stroke-linejoin="round"/>
<path d="M117.316 176.419L119.383 174.352L116.728 172.667L114.661 174.727L117.316 176.419Z" stroke="#263238" stroke-width="0.75" stroke-linecap="round" stroke-linejoin="round"/>
<path d="M114.108 179.634L116.176 177.566L113.514 175.874L111.453 177.942L114.108 179.634Z" stroke="#263238" stroke-width="0.75" stroke-linecap="round" stroke-linejoin="round"/>
<path d="M110.788 182.954L112.848 180.887L110.193 179.195L108.126 181.262L110.788 182.954Z" stroke="#263238" stroke-width="0.75" stroke-linecap="round" stroke-linejoin="round"/>
<path d="M122.378 170.083L120.424 172.044C120.331 172.136 120.261 172.248 120.217 172.371C120.174 172.495 120.159 172.626 120.173 172.756C120.187 172.886 120.231 173.011 120.3 173.122C120.369 173.232 120.462 173.326 120.572 173.396L123.404 175.216C123.717 175.415 124.087 175.502 124.455 175.462C124.823 175.422 125.167 175.258 125.429 174.996L127.235 173.184L122.378 170.083Z" fill="#858585" stroke="#263238" stroke-linecap="round" stroke-linejoin="round"/>
<path d="M70 157.997L72.5559 152.383C72.5559 152.383 87.3602 150.726 91.3108 163.102L70 157.997Z" fill="#858585" stroke="#263238" stroke-linecap="round" stroke-linejoin="round"/>
<path d="M61.5959 162.783C61.5959 162.783 57.9427 190.771 58.9126 200.69C59.6773 208.534 64.8457 215.175 64.8457 215.175L72.5062 212.173L68.6122 200.69C68.6122 200.69 69.8229 180.016 70.9699 175.202L61.5959 162.783Z" fill="#858585" stroke="#263238" stroke-linecap="round" stroke-linejoin="round"/>
<path d="M62.6294 213.802L64.7888 216.386L73.6388 212.938L72.4918 209.49L62.6294 213.802Z" fill="#858585" stroke="#263238" stroke-linecap="round" stroke-linejoin="round"/>
<path d="M61.5957 162.783C61.5957 162.783 60.4417 178.862 63.7197 190.162C66.9977 201.461 63.7197 220.018 63.7197 220.018C63.7197 220.018 78.8072 229.781 101.952 222.312C101.952 222.312 99.0843 167.371 95.254 164.313C91.4237 161.254 69.8085 149.579 61.5957 162.783Z" fill="#858585" stroke="#263238" stroke-linecap="round" stroke-linejoin="round"/>
<path opacity="0.2" d="M101.952 222.312C101.952 222.312 100.968 203.479 99.3893 187.252C96.0404 179.124 90.5676 168.299 90.2773 183.499C89.8525 205.483 103.382 204.187 92.6633 208.017C90.2665 208.925 87.6989 209.293 85.1436 209.095C82.5884 208.897 80.1083 208.137 77.8802 206.871C77.702 206.779 77.498 206.752 77.302 206.792C77.106 206.833 76.9297 206.939 76.8024 207.094C76.6752 207.248 76.6046 207.442 76.6023 207.642C76.6 207.842 76.6662 208.037 76.7899 208.194C79.4803 211.614 83.5654 213.745 86.7019 214.97C86.9851 215.078 87.2246 215.277 87.3829 215.536C87.5413 215.794 87.6096 216.098 87.5773 216.4C87.5449 216.701 87.4138 216.983 87.2042 217.202C86.9946 217.422 86.7184 217.565 86.4187 217.611C76.3226 219.105 68.4072 213.738 64.7751 210.616C64.3503 216.025 63.6494 220.018 63.6494 220.018C63.6494 220.018 78.8077 229.781 101.952 222.312Z" fill="black"/>
<path d="M95.2685 164.32C96.6487 164.953 97.8463 165.925 98.7499 167.146C99.6536 168.366 100.234 169.796 100.437 171.301C101.202 176.568 106.101 192.746 106.101 192.746L107.729 191.691C109.089 192.302 110.209 193.344 110.915 194.656C111.622 195.968 111.876 197.477 111.637 198.948C111.637 198.948 107.658 206.736 103.311 205.27C98.8439 203.755 96.3447 200.102 94.1074 194.127C92.925 190.941 89.5125 181.34 89.5125 181.34" fill="#858585"/>
<path d="M95.2685 164.32C96.6487 164.953 97.8463 165.925 98.7499 167.146C99.6536 168.366 100.234 169.796 100.437 171.301C101.202 176.568 106.101 192.746 106.101 192.746L107.729 191.691C109.089 192.302 110.209 193.344 110.915 194.656C111.622 195.968 111.876 197.477 111.637 198.948C111.637 198.948 107.658 206.736 103.311 205.27C98.8439 203.755 96.3447 200.102 94.1074 194.127C92.925 190.941 89.5125 181.34 89.5125 181.34" stroke="#263238" stroke-linecap="round" stroke-linejoin="round"/>
<path d="M108.055 197.433C108.081 197.849 108.062 198.267 107.998 198.679" stroke="#263238" stroke-width="0.75" stroke-linecap="round" stroke-linejoin="round"/>
<path d="M105.131 200.69C105.131 200.69 106.469 198.566 106.278 193.985C106.921 194.472 107.413 195.133 107.694 195.889" stroke="#263238" stroke-width="0.75" stroke-linecap="round" stroke-linejoin="round"/>
<path d="M108.798 191.245L113.903 187.606C114.158 186.474 114.713 185.433 115.511 184.59C116.308 183.748 117.318 183.136 118.434 182.82C118.434 182.82 120.792 178.926 122.13 179.379C123.468 179.832 120.537 181.418 120.282 183.457L121.365 184.908C121.365 184.908 124.905 184.285 125.769 183.138C125.769 183.138 125.578 185.567 124.176 185.97C124.176 185.97 124.176 187.818 123.22 187.755L116.197 189.737L112.112 197.362L108.798 191.245Z" fill="white" stroke="#263238" stroke-linecap="round" stroke-linejoin="round"/>
<path d="M87.8982 208.945C88.7053 208.871 89.5055 208.733 90.2912 208.534" stroke="#263238" stroke-width="0.75" stroke-linecap="round" stroke-linejoin="round"/>
<path d="M67.8333 197.341C67.8333 197.341 75.3593 208.853 86.2413 209.009" stroke="#263238" stroke-width="0.75" stroke-linecap="round" stroke-linejoin="round"/>
<path d="M106.596 191.372C106.596 191.372 111.92 195.394 111.411 200.244L113.329 196.569C113.329 196.569 113.266 193.475 108.862 190.197L106.596 191.372Z" fill="#858585" stroke="#263238" stroke-linecap="round" stroke-linejoin="round"/>
<path d="M85.4485 321.786H104.564V320.943C104.564 320.736 104.531 320.531 104.465 320.335H85.4202C85.4202 320.979 85.4485 321.786 85.4485 321.786Z" fill="white" stroke="#263238" stroke-width="0.75" stroke-linecap="round" stroke-linejoin="round"/>
<path d="M81.42 319.117C79.3656 318.491 77.3669 317.695 75.4445 316.738C74.5241 316.164 73.2355 314.288 72.2939 313.757C72.0937 313.671 71.8781 313.627 71.6602 313.627C71.4423 313.627 71.2268 313.671 71.0266 313.757C70.5734 314.125 70.5522 316.044 70.5522 316.044C70.5522 316.044 69.7592 314.09 69.1716 313.757C68.3645 313.304 66.1697 313.17 65.4546 313.757C64.2652 314.727 63.8333 318.097 63.5996 319.612C63.543 319.945 63.5996 321.786 63.5996 321.786H82.7156V320.943C82.7171 320.542 82.5929 320.15 82.3606 319.822C82.1283 319.495 81.7994 319.248 81.42 319.117Z" fill="#263238" stroke="#263238" stroke-linecap="round" stroke-linejoin="round"/>
<path d="M63.5854 321.786H82.7014V320.943C82.7013 320.736 82.6679 320.531 82.6023 320.335H63.5571C63.5571 320.979 63.5854 321.786 63.5854 321.786Z" fill="white" stroke="#263238" stroke-width="0.75" stroke-linecap="round" stroke-linejoin="round"/>
<path d="M91.7851 261.882C91.7851 261.882 89.7531 265.387 86.4609 264.049" stroke="#263238" stroke-width="0.75" stroke-linecap="round" stroke-linejoin="round"/>
<path d="M77.6181 263.114C77.6181 263.114 73.9719 266.229 70.9558 264.049" stroke="#263238" stroke-width="0.75" stroke-linecap="round" stroke-linejoin="round"/>
<path d="M115.666 172.419L116.176 174.954H120.693L117.018 174.097L117.195 172.37L115.666 172.419Z" fill="white"/>
</svg>
