<svg width="225" height="225" viewBox="0 0 225 225" fill="none" xmlns="http://www.w3.org/2000/svg">
<path d="M192.123 145.669L191.772 148.819L197.896 141.66C198.629 141.737 199.365 141.776 200.101 141.777" stroke="#263238" stroke-linecap="round" stroke-linejoin="round"/>
<path d="M184.45 123.943C183.646 125.158 183.141 126.546 182.979 127.993C182.398 133.227 186.502 138.177 192.703 140.467L192.388 143.28" stroke="#263238" stroke-linecap="round" stroke-linejoin="round"/>
<path d="M186.831 121.338C186.432 121.661 186.053 122.008 185.697 122.377" stroke="#263238" stroke-linecap="round" stroke-linejoin="round"/>
<path d="M209.799 121.338C207.003 119.422 203.771 118.24 200.398 117.9C196.834 117.463 193.219 117.995 189.931 119.439" stroke="#263238" stroke-linecap="round" stroke-linejoin="round"/>
<path d="M204.363 141.354C210.213 140.143 214.646 136.404 215.163 131.553C215.541 128.16 213.953 124.888 211.113 122.377" stroke="#263238" stroke-linecap="round" stroke-linejoin="round"/>
<path d="M189.936 124.816C190.431 124.909 190.94 124.902 191.433 124.797C191.925 124.692 192.392 124.491 192.807 124.204L194.994 125.901C194.841 125.95 194.855 125.626 195.017 125.617C195.179 125.608 195.3 125.757 195.413 125.874C195.926 126.418 196.79 126.436 197.523 126.279C198.257 126.121 198.972 125.829 199.719 125.856C200.163 125.902 200.6 126.004 201.02 126.157C204.026 127.089 207.153 127.557 210.267 128.016" stroke="#263238" stroke-linecap="round" stroke-linejoin="round"/>
<path d="M187.353 128.016C187.803 127.989 190.31 128.016 190.67 127.714L191.282 128.781L191.957 128.128C192.074 128.578 192.191 129.028 192.303 129.451C192.812 129.573 192.753 128.592 193.203 128.299C193.341 128.232 193.5 128.218 193.648 128.263C193.796 128.307 193.921 128.405 194 128.538C194.147 128.814 194.218 129.125 194.207 129.438L197.285 129.69L197.883 129.739C198.097 129.413 198.414 129.168 198.783 129.042C198.671 129.753 199.566 130.158 200.277 130.302C203.778 131.016 207.297 131.632 210.834 132.151" stroke="#263238" stroke-linecap="round" stroke-linejoin="round"/>
<path d="M188.721 132.903C189.004 133.101 189.351 132.732 189.697 132.687C190.044 132.642 190.327 132.903 190.633 133.061C190.939 133.218 191.443 133.151 191.461 132.809C191.533 133.259 192.091 133.421 192.546 133.484L204.363 135.144" stroke="#263238" stroke-linecap="round" stroke-linejoin="round"/>
<path d="M30.5999 117.531L35.3339 123.903L34.3844 115.564C35.5162 115.015 36.5987 114.369 37.6199 113.634C42.4709 110.124 44.4239 104.476 42.6464 99.927C41.3999 96.75 38.4794 94.59 34.7894 93.6945" stroke="#263238" stroke-linecap="round" stroke-linejoin="round"/>
<path d="M11.9025 107.478C11.7549 108.921 11.9524 110.379 12.4785 111.731C14.3955 116.636 20.3265 119.111 26.8785 118.256" stroke="#263238" stroke-linecap="round" stroke-linejoin="round"/>
<path d="M12.798 104.062C12.597 104.535 12.4242 105.019 12.2805 105.512" stroke="#263238" stroke-linecap="round" stroke-linejoin="round"/>
<path d="M33.1379 93.3885C29.771 92.986 26.3571 93.4379 23.2109 94.7025C19.8529 95.9723 16.8993 98.1237 14.6609 100.93" stroke="#263238" stroke-linecap="round" stroke-linejoin="round"/>
<path d="M17.1628 105.696C18.1309 105.394 18.9399 104.721 19.4128 103.824L22.1128 104.31C21.9958 104.422 21.8608 104.13 22.0003 104.044C22.1398 103.959 22.3153 104.044 22.4503 104.089C23.1613 104.332 23.9308 103.95 24.5068 103.468C25.0828 102.987 25.5778 102.388 26.2573 102.073C26.6724 101.908 27.1061 101.793 27.5488 101.731C30.6448 101.164 33.6283 100.12 36.6028 99.0809" stroke="#263238" stroke-linecap="round" stroke-linejoin="round"/>
<path d="M16.3621 109.733C16.7626 109.494 18.9811 108.356 19.1611 107.933L20.2006 108.594C20.2996 108.297 20.3986 107.996 20.4931 107.694L21.4156 108.707C21.9241 108.581 21.4156 107.739 21.6586 107.28C21.7491 107.155 21.8835 107.07 22.0347 107.041C22.186 107.011 22.3426 107.041 22.4731 107.123C22.73 107.295 22.9366 107.533 23.0716 107.811L25.9111 106.605L26.4691 106.371C26.501 105.985 26.6591 105.619 26.9191 105.332C27.1531 106.02 28.1341 105.957 28.8271 105.755C32.2621 104.765 35.6656 103.676 39.0376 102.488" stroke="#263238" stroke-linecap="round" stroke-linejoin="round"/>
<path d="M19.845 113.423C20.1915 113.468 20.3265 112.973 20.61 112.775C20.8935 112.577 21.2715 112.68 21.6135 112.671C21.9555 112.662 22.374 112.379 22.23 112.068C22.5045 112.433 23.076 112.316 23.5035 112.163L34.7535 108.135" stroke="#263238" stroke-linecap="round" stroke-linejoin="round"/>
<path d="M167.818 40.329H55.6154C53.4308 40.329 51.6599 42.0999 51.6599 44.2845V145.363C51.6599 147.548 53.4308 149.319 55.6154 149.319H167.818C170.003 149.319 171.774 147.548 171.774 145.363V44.2845C171.774 42.0999 170.003 40.329 167.818 40.329Z" fill="white"/>
<path opacity="0.2" d="M171.774 100.031V145.481C171.774 146.498 171.37 147.473 170.651 148.193C169.932 148.913 168.957 149.318 167.94 149.319H55.4984C54.4804 149.319 53.504 148.915 52.7842 148.195C52.0643 147.475 51.6599 146.499 51.6599 145.481V136.481H51.8984V142.547C51.8984 143.123 52.012 143.694 52.2328 144.227C52.4536 144.759 52.7772 145.243 53.1851 145.651C53.593 146.058 54.0772 146.381 54.61 146.601C55.1428 146.822 55.7139 146.935 56.2904 146.934H164.916C165.492 146.935 166.063 146.822 166.596 146.601C167.129 146.381 167.613 146.058 168.021 145.651C168.429 145.243 168.753 144.759 168.973 144.227C169.194 143.694 169.308 143.123 169.308 142.547V106.772C169.308 105.961 168.986 105.184 168.413 104.611C167.84 104.038 167.063 103.716 166.252 103.716H51.6599V100.031H171.774Z" fill="black"/>
<path d="M167.818 40.329H55.6154C53.4308 40.329 51.6599 42.0999 51.6599 44.2845V145.363C51.6599 147.548 53.4308 149.319 55.6154 149.319H167.818C170.003 149.319 171.774 147.548 171.774 145.363V44.2845C171.774 42.0999 170.003 40.329 167.818 40.329Z" stroke="#263238" stroke-linecap="round" stroke-linejoin="round"/>
<path d="M161.316 112.972V107.766C161.317 107.513 161.267 107.262 161.171 107.028C161.074 106.794 160.932 106.582 160.753 106.403C160.574 106.224 160.362 106.082 160.128 105.985C159.894 105.889 159.643 105.839 159.39 105.84H64.044C63.5332 105.84 63.0433 106.043 62.6821 106.404C62.3209 106.765 62.118 107.255 62.118 107.766V112.972C62.118 113.483 61.9151 113.973 61.5539 114.334C61.1927 114.696 60.7028 114.898 60.192 114.898C59.68 114.898 59.1889 115.102 58.8269 115.464C58.4649 115.826 58.2615 116.317 58.2615 116.829V127.102C58.2615 129.472 59.2026 131.744 60.8777 133.419C62.5529 135.094 64.8249 136.035 67.194 136.035C67.5747 136.035 67.9398 136.186 68.209 136.455C68.4782 136.725 68.6295 137.09 68.6295 137.47V140.548C68.6295 141.685 69.0808 142.774 69.8842 143.578C70.6876 144.381 71.7773 144.833 72.9135 144.833H150.52C151.657 144.833 152.746 144.381 153.55 143.578C154.353 142.774 154.804 141.685 154.804 140.548V137.47C154.804 137.09 154.956 136.725 155.225 136.455C155.494 136.186 155.859 136.035 156.24 136.035C157.413 136.035 158.575 135.804 159.658 135.355C160.742 134.906 161.727 134.248 162.556 133.419C163.386 132.589 164.044 131.605 164.493 130.521C164.941 129.437 165.172 128.276 165.172 127.102V116.829C165.172 116.318 164.97 115.827 164.609 115.465C164.248 115.104 163.758 114.9 163.246 114.898C162.735 114.898 162.245 114.696 161.883 114.335C161.521 113.974 161.317 113.484 161.316 112.972Z" fill="#263238"/>
<path d="M69.4214 108.787H66.0869C65.6787 108.787 65.2872 108.95 64.9986 109.238C64.71 109.527 64.5479 109.918 64.5479 110.326V111.181C64.5479 112.954 65.9834 115.204 67.7564 115.204C69.5294 115.204 70.9648 112.954 70.9648 111.181V110.326C70.9637 109.918 70.8005 109.526 70.5112 109.238C70.2218 108.949 69.8299 108.787 69.4214 108.787Z" fill="white" stroke="#263238" stroke-linecap="round" stroke-linejoin="round"/>
<path d="M77.4 108.787H74.0655C73.6569 108.787 73.265 108.949 72.9756 109.238C72.6863 109.526 72.5232 109.918 72.522 110.326V111.181C72.522 112.954 73.9575 115.204 75.7305 115.204C77.5035 115.204 78.939 112.954 78.939 111.181V110.326C78.939 109.918 78.7768 109.527 78.4882 109.238C78.1996 108.95 77.8081 108.787 77.4 108.787Z" fill="white" stroke="#263238" stroke-linecap="round" stroke-linejoin="round"/>
<path d="M85.4099 108.787H82.0754C81.6672 108.787 81.2758 108.95 80.9871 109.238C80.6985 109.527 80.5364 109.918 80.5364 110.326V111.181C80.5364 112.954 81.9719 115.204 83.7404 115.204C85.5089 115.204 86.9489 112.954 86.9489 111.181V110.326C86.9489 109.918 86.7867 109.527 86.4981 109.238C86.2095 108.95 85.818 108.787 85.4099 108.787Z" fill="white" stroke="#263238" stroke-linecap="round" stroke-linejoin="round"/>
<path d="M93.4018 108.787H90.0673C89.6592 108.787 89.2677 108.95 88.9791 109.238C88.6905 109.527 88.5283 109.918 88.5283 110.326V111.181C88.5283 112.954 89.9638 115.204 91.7368 115.204C93.5098 115.204 94.9408 112.954 94.9408 111.181V110.326C94.9408 110.124 94.901 109.924 94.8237 109.738C94.7463 109.551 94.633 109.381 94.4901 109.238C94.3471 109.095 94.1775 108.982 93.9908 108.905C93.804 108.827 93.6039 108.787 93.4018 108.787Z" fill="white" stroke="#263238" stroke-linecap="round" stroke-linejoin="round"/>
<path d="M101.394 108.787H98.0595C97.6513 108.787 97.2599 108.95 96.9713 109.238C96.6827 109.527 96.5205 109.918 96.5205 110.326V111.181C96.5205 112.954 97.956 115.204 99.729 115.204C101.502 115.204 102.938 112.954 102.938 111.181V110.326C102.936 109.918 102.773 109.526 102.484 109.238C102.195 108.949 101.803 108.787 101.394 108.787Z" fill="white" stroke="#263238" stroke-linecap="round" stroke-linejoin="round"/>
<path d="M109.39 108.787H106.056C105.647 108.787 105.255 108.949 104.966 109.238C104.677 109.526 104.514 109.918 104.512 110.326V111.181C104.512 112.954 105.948 115.204 107.721 115.204C109.494 115.204 110.929 112.954 110.929 111.181V110.326C110.929 109.918 110.767 109.527 110.479 109.238C110.19 108.95 109.799 108.787 109.39 108.787Z" fill="white" stroke="#263238" stroke-linecap="round" stroke-linejoin="round"/>
<path d="M117.382 108.787H114.048C113.64 108.787 113.248 108.95 112.96 109.238C112.671 109.527 112.509 109.918 112.509 110.326V111.181C112.509 112.954 113.944 115.204 115.713 115.204C117.481 115.204 118.921 112.954 118.921 111.181V110.326C118.921 109.918 118.759 109.527 118.471 109.238C118.182 108.95 117.79 108.787 117.382 108.787Z" fill="white" stroke="#263238" stroke-linecap="round" stroke-linejoin="round"/>
<path d="M125.374 108.787H122.04C121.632 108.787 121.24 108.95 120.952 109.238C120.663 109.527 120.501 109.918 120.501 110.326V111.181C120.501 112.954 121.936 115.204 123.709 115.204C125.482 115.204 126.913 112.954 126.913 111.181V110.326C126.913 109.918 126.751 109.527 126.463 109.238C126.174 108.95 125.783 108.787 125.374 108.787Z" fill="white" stroke="#263238" stroke-linecap="round" stroke-linejoin="round"/>
<path d="M133.366 108.787H130.05C129.848 108.787 129.648 108.827 129.461 108.905C129.274 108.982 129.105 109.095 128.962 109.238C128.819 109.381 128.705 109.551 128.628 109.738C128.551 109.924 128.511 110.124 128.511 110.326V111.181C128.511 112.954 129.946 115.204 131.719 115.204C133.492 115.204 134.928 112.954 134.928 111.181V110.326C134.927 110.123 134.886 109.921 134.808 109.733C134.729 109.545 134.613 109.375 134.468 109.232C134.323 109.088 134.151 108.976 133.962 108.899C133.773 108.823 133.57 108.785 133.366 108.787Z" fill="white" stroke="#263238" stroke-linecap="round" stroke-linejoin="round"/>
<path d="M141.363 108.787H138.028C137.62 108.787 137.228 108.949 136.939 109.238C136.649 109.526 136.486 109.918 136.485 110.326V111.181C136.485 112.954 137.92 115.204 139.693 115.204C141.466 115.204 142.902 112.954 142.902 111.181V110.326C142.902 109.918 142.74 109.527 142.451 109.238C142.162 108.95 141.771 108.787 141.363 108.787Z" fill="white" stroke="#263238" stroke-linecap="round" stroke-linejoin="round"/>
<path d="M149.355 108.787H146.02C145.612 108.787 145.221 108.95 144.932 109.238C144.644 109.527 144.481 109.918 144.481 110.326V111.181C144.481 112.954 145.917 115.204 147.685 115.204C149.454 115.204 150.894 112.954 150.894 111.181V110.326C150.894 109.918 150.732 109.527 150.443 109.238C150.155 108.95 149.763 108.787 149.355 108.787Z" fill="white" stroke="#263238" stroke-linecap="round" stroke-linejoin="round"/>
<path d="M157.347 108.787H154.012C153.604 108.787 153.213 108.95 152.924 109.238C152.636 109.527 152.473 109.918 152.473 110.326V111.181C152.473 112.95 153.9 115.2 155.7 115.2C157.5 115.2 158.904 112.95 158.904 111.177V110.322C158.903 110.119 158.862 109.918 158.784 109.73C158.705 109.543 158.59 109.373 158.445 109.23C158.3 109.088 158.129 108.975 157.94 108.899C157.752 108.823 157.55 108.785 157.347 108.787Z" fill="white" stroke="#263238" stroke-linecap="round" stroke-linejoin="round"/>
<path d="M69.4214 125.725H66.0869C65.6787 125.725 65.2872 125.888 64.9986 126.176C64.71 126.465 64.5479 126.856 64.5479 127.264V128.119C64.5479 129.892 65.9834 132.142 67.7564 132.142C69.5294 132.142 70.9648 129.892 70.9648 128.119V127.264C70.9637 126.856 70.8005 126.464 70.5112 126.176C70.2218 125.887 69.8299 125.725 69.4214 125.725Z" fill="white" stroke="#263238" stroke-linecap="round" stroke-linejoin="round"/>
<path d="M77.4 125.725H74.0655C73.6569 125.725 73.265 125.887 72.9756 126.176C72.6863 126.464 72.5232 126.856 72.522 127.264V128.119C72.522 129.892 73.9575 132.142 75.7305 132.142C77.5035 132.142 78.939 129.892 78.939 128.119V127.264C78.939 126.856 78.7768 126.465 78.4882 126.176C78.1996 125.888 77.8081 125.725 77.4 125.725Z" fill="white" stroke="#263238" stroke-linecap="round" stroke-linejoin="round"/>
<path d="M85.4099 125.725H82.0754C81.6672 125.725 81.2758 125.888 80.9871 126.176C80.6985 126.465 80.5364 126.856 80.5364 127.264V128.119C80.5364 129.892 81.9719 132.142 83.7404 132.142C85.5089 132.142 86.9489 129.892 86.9489 128.119V127.264C86.9489 126.856 86.7867 126.465 86.4981 126.176C86.2095 125.888 85.818 125.725 85.4099 125.725Z" fill="white" stroke="#263238" stroke-linecap="round" stroke-linejoin="round"/>
<path d="M93.4018 125.725H90.0673C89.6592 125.725 89.2677 125.888 88.9791 126.176C88.6905 126.465 88.5283 126.856 88.5283 127.264V128.119C88.5283 129.892 89.9638 132.142 91.7368 132.142C93.5098 132.142 94.9408 129.892 94.9408 128.119V127.264C94.9408 127.062 94.901 126.862 94.8237 126.676C94.7463 126.489 94.633 126.319 94.4901 126.176C94.3471 126.033 94.1775 125.92 93.9908 125.843C93.804 125.765 93.6039 125.725 93.4018 125.725Z" fill="white" stroke="#263238" stroke-linecap="round" stroke-linejoin="round"/>
<path d="M101.394 125.725H98.0595C97.6513 125.725 97.2599 125.888 96.9713 126.176C96.6827 126.465 96.5205 126.856 96.5205 127.264V128.119C96.5205 129.892 97.956 132.142 99.729 132.142C101.502 132.142 102.938 129.892 102.938 128.119V127.264C102.936 126.856 102.773 126.464 102.484 126.176C102.195 125.887 101.803 125.725 101.394 125.725Z" fill="white" stroke="#263238" stroke-linecap="round" stroke-linejoin="round"/>
<path d="M109.39 125.725H106.056C105.647 125.725 105.255 125.887 104.966 126.176C104.677 126.464 104.514 126.856 104.512 127.264V128.119C104.512 129.892 105.948 132.142 107.721 132.142C109.494 132.142 110.929 129.892 110.929 128.119V127.264C110.929 126.856 110.767 126.465 110.479 126.176C110.19 125.888 109.799 125.725 109.39 125.725Z" fill="white" stroke="#263238" stroke-linecap="round" stroke-linejoin="round"/>
<path d="M117.382 125.725H114.048C113.64 125.725 113.248 125.888 112.96 126.176C112.671 126.465 112.509 126.856 112.509 127.264V128.119C112.509 129.892 113.944 132.142 115.713 132.142C117.481 132.142 118.921 129.892 118.921 128.119V127.264C118.921 126.856 118.759 126.465 118.471 126.176C118.182 125.888 117.79 125.725 117.382 125.725Z" fill="white" stroke="#263238" stroke-linecap="round" stroke-linejoin="round"/>
<path d="M125.374 125.725H122.04C121.632 125.725 121.24 125.888 120.952 126.176C120.663 126.465 120.501 126.856 120.501 127.264V128.119C120.501 129.892 121.936 132.142 123.709 132.142C125.482 132.142 126.913 129.892 126.913 128.119V127.264C126.913 126.856 126.751 126.465 126.463 126.176C126.174 125.888 125.783 125.725 125.374 125.725Z" fill="white" stroke="#263238" stroke-linecap="round" stroke-linejoin="round"/>
<path d="M133.366 125.725H130.05C129.848 125.725 129.648 125.765 129.461 125.843C129.274 125.92 129.105 126.033 128.962 126.176C128.819 126.319 128.705 126.489 128.628 126.675C128.551 126.862 128.511 127.062 128.511 127.264V128.119C128.511 129.892 129.946 132.142 131.719 132.142C133.492 132.142 134.928 129.892 134.928 128.119V127.264C134.927 127.061 134.886 126.859 134.808 126.671C134.729 126.483 134.613 126.313 134.468 126.17C134.323 126.026 134.151 125.914 133.962 125.837C133.773 125.761 133.57 125.723 133.366 125.725Z" fill="white" stroke="#263238" stroke-linecap="round" stroke-linejoin="round"/>
<path d="M141.363 125.725H138.028C137.62 125.725 137.228 125.887 136.939 126.176C136.649 126.464 136.486 126.856 136.485 127.264V128.119C136.485 129.892 137.92 132.142 139.693 132.142C141.466 132.142 142.902 129.892 142.902 128.119V127.264C142.902 126.856 142.74 126.465 142.451 126.176C142.162 125.888 141.771 125.725 141.363 125.725Z" fill="white" stroke="#263238" stroke-linecap="round" stroke-linejoin="round"/>
<path d="M149.355 125.725H146.02C145.612 125.725 145.221 125.888 144.932 126.176C144.644 126.465 144.481 126.856 144.481 127.264V128.119C144.481 129.892 145.917 132.142 147.685 132.142C149.454 132.142 150.894 129.892 150.894 128.119V127.264C150.894 126.856 150.732 126.465 150.443 126.176C150.155 125.888 149.763 125.725 149.355 125.725Z" fill="white" stroke="#263238" stroke-linecap="round" stroke-linejoin="round"/>
<path d="M157.347 125.725H154.012C153.604 125.725 153.213 125.888 152.924 126.176C152.636 126.465 152.473 126.856 152.473 127.264V128.119C152.473 129.892 153.909 132.142 155.682 132.142C157.455 132.142 158.886 129.892 158.886 128.119V127.264C158.886 126.856 158.724 126.465 158.435 126.176C158.146 125.888 157.755 125.725 157.347 125.725Z" fill="white" stroke="#263238" stroke-linecap="round" stroke-linejoin="round"/>
<path d="M65.4253 117.531H62.0998C61.6916 117.531 61.3002 117.693 61.0116 117.982C60.7229 118.27 60.5608 118.662 60.5608 119.07V119.925C60.5608 121.693 61.9963 123.948 63.7693 123.948C65.5423 123.948 66.9733 121.698 66.9733 119.925V119.07C66.9733 118.867 66.9332 118.666 66.8553 118.479C66.7774 118.292 66.6632 118.122 66.5193 117.978C66.3755 117.835 66.2048 117.722 66.017 117.645C65.8292 117.569 65.6281 117.53 65.4253 117.531Z" fill="white" stroke="#263238" stroke-linecap="round" stroke-linejoin="round"/>
<path d="M73.4174 117.531H70.0829C69.6748 117.531 69.2833 117.693 68.9947 117.982C68.7061 118.27 68.5439 118.662 68.5439 119.07V119.925C68.5439 121.694 69.9794 123.948 71.7524 123.948C73.5254 123.948 74.9609 121.698 74.9609 119.925V119.07C74.9597 118.661 74.7966 118.27 74.5073 117.982C74.2179 117.693 73.826 117.531 73.4174 117.531Z" fill="white" stroke="#263238" stroke-linecap="round" stroke-linejoin="round"/>
<path d="M81.4139 117.531H78.0794C77.6708 117.531 77.2789 117.693 76.9896 117.982C76.7002 118.27 76.5371 118.661 76.5359 119.07V119.925C76.5359 121.694 77.9759 123.948 79.7444 123.948C81.5129 123.948 82.9529 121.698 82.9529 119.925V119.07C82.9529 118.662 82.7907 118.27 82.5021 117.982C82.2135 117.693 81.8221 117.531 81.4139 117.531Z" fill="white" stroke="#263238" stroke-linecap="round" stroke-linejoin="round"/>
<path d="M89.406 117.531H86.0715C85.6633 117.531 85.2719 117.693 84.9832 117.982C84.6946 118.27 84.5325 118.662 84.5325 119.07V119.925C84.5325 121.694 85.968 123.948 87.7365 123.948C89.505 123.948 90.945 121.698 90.945 119.925V119.07C90.945 118.868 90.9052 118.668 90.8278 118.481C90.7505 118.294 90.6371 118.125 90.4942 117.982C90.3513 117.839 90.1816 117.726 89.9949 117.648C89.8082 117.571 89.6081 117.531 89.406 117.531Z" fill="white" stroke="#263238" stroke-linecap="round" stroke-linejoin="round"/>
<path d="M97.398 117.531H94.05C93.6418 117.531 93.2504 117.693 92.9617 117.982C92.6731 118.27 92.511 118.662 92.511 119.07V119.925C92.511 121.694 93.9465 123.948 95.7195 123.948C97.4925 123.948 98.9235 121.698 98.9235 119.925V119.07C98.9235 118.664 98.7632 118.275 98.4775 117.987C98.1918 117.698 97.8038 117.535 97.398 117.531Z" fill="white" stroke="#263238" stroke-linecap="round" stroke-linejoin="round"/>
<path d="M105.39 117.531H102.055C101.647 117.531 101.256 117.693 100.967 117.982C100.679 118.27 100.516 118.662 100.516 119.07V119.925C100.516 121.694 101.952 123.948 103.725 123.948C105.498 123.948 106.933 121.698 106.933 119.925V119.07C106.932 118.661 106.769 118.27 106.48 117.982C106.19 117.693 105.798 117.531 105.39 117.531Z" fill="white" stroke="#263238" stroke-linecap="round" stroke-linejoin="round"/>
<path d="M113.4 117.531H110.065C109.657 117.531 109.265 117.693 108.976 117.982C108.686 118.27 108.523 118.661 108.522 119.07V119.925C108.522 121.694 109.962 123.948 111.73 123.948C113.499 123.948 114.939 121.698 114.939 119.925V119.07C114.939 118.662 114.777 118.27 114.488 117.982C114.2 117.693 113.808 117.531 113.4 117.531Z" fill="white" stroke="#263238" stroke-linecap="round" stroke-linejoin="round"/>
<path d="M121.378 117.531H118.044C117.636 117.531 117.244 117.693 116.956 117.982C116.667 118.27 116.505 118.662 116.505 119.07V119.925C116.505 121.694 117.94 123.948 119.709 123.948C121.477 123.948 122.917 121.698 122.917 119.925V119.07C122.917 118.662 122.755 118.27 122.467 117.982C122.178 117.693 121.787 117.531 121.378 117.531Z" fill="white" stroke="#263238" stroke-linecap="round" stroke-linejoin="round"/>
<path d="M129.37 117.531H126.036C125.628 117.531 125.236 117.693 124.948 117.982C124.659 118.27 124.497 118.662 124.497 119.07V119.925C124.497 121.694 125.932 123.948 127.705 123.948C129.478 123.948 130.909 121.698 130.909 119.925V119.07C130.909 118.662 130.747 118.27 130.459 117.982C130.17 117.693 129.779 117.531 129.37 117.531Z" fill="white" stroke="#263238" stroke-linecap="round" stroke-linejoin="round"/>
<path d="M137.362 117.531H134.028C133.62 117.531 133.228 117.693 132.94 117.982C132.651 118.27 132.489 118.662 132.489 119.07V119.925C132.489 121.694 133.924 123.948 135.697 123.948C137.47 123.948 138.906 121.698 138.906 119.925V119.07C138.905 118.661 138.741 118.27 138.452 117.982C138.163 117.693 137.771 117.531 137.362 117.531Z" fill="white" stroke="#263238" stroke-linecap="round" stroke-linejoin="round"/>
<path d="M145.35 117.531H142.015C141.607 117.531 141.215 117.693 140.926 117.982C140.636 118.27 140.473 118.661 140.472 119.07V119.925C140.472 121.694 141.912 123.948 143.68 123.948C145.449 123.948 146.889 121.698 146.889 119.925V119.07C146.889 118.662 146.727 118.27 146.438 117.982C146.15 117.693 145.758 117.531 145.35 117.531Z" fill="white" stroke="#263238" stroke-linecap="round" stroke-linejoin="round"/>
<path d="M153.351 117.531H150.016C149.612 117.537 149.227 117.702 148.943 117.99C148.659 118.278 148.5 118.666 148.5 119.07V119.925C148.5 121.693 149.935 123.948 151.704 123.948C153.472 123.948 154.912 121.698 154.912 119.925V119.07C154.913 118.866 154.872 118.664 154.793 118.476C154.714 118.288 154.599 118.117 154.454 117.974C154.308 117.83 154.136 117.718 153.947 117.642C153.758 117.566 153.555 117.528 153.351 117.531Z" fill="white" stroke="#263238" stroke-linecap="round" stroke-linejoin="round"/>
<path d="M161.343 117.531H158.008C157.6 117.531 157.209 117.693 156.92 117.982C156.632 118.27 156.469 118.662 156.469 119.07V119.925C156.469 121.694 157.905 123.948 159.678 123.948C161.451 123.948 162.882 121.698 162.882 119.925V119.07C162.882 118.662 162.72 118.27 162.431 117.982C162.143 117.693 161.751 117.531 161.343 117.531Z" fill="white" stroke="#263238" stroke-linecap="round" stroke-linejoin="round"/>
<path d="M142.245 134.257H81.1889C80.3911 134.257 79.7444 134.904 79.7444 135.702V140.085C79.7444 140.883 80.3911 141.529 81.1889 141.529H142.245C143.043 141.529 143.689 140.883 143.689 140.085V135.702C143.689 134.904 143.043 134.257 142.245 134.257Z" fill="white" stroke="#263238" stroke-linecap="round" stroke-linejoin="round"/>
<path d="M150.421 134.685H147.087C146.679 134.685 146.287 134.847 145.999 135.136C145.71 135.424 145.548 135.816 145.548 136.224V137.079C145.548 138.852 146.983 141.102 148.756 141.102C150.529 141.102 151.96 138.852 151.96 137.079V136.224C151.96 135.816 151.798 135.424 151.51 135.136C151.221 134.847 150.83 134.685 150.421 134.685Z" fill="white" stroke="#263238" stroke-linecap="round" stroke-linejoin="round"/>
<path d="M76.3469 134.685H73.0124C72.6042 134.685 72.2128 134.847 71.9242 135.136C71.6355 135.424 71.4734 135.816 71.4734 136.224V137.079C71.4734 138.852 72.9089 141.102 74.6819 141.102C76.4549 141.102 77.8904 138.852 77.8904 137.079V136.224C77.8892 135.815 77.7261 135.424 77.4367 135.135C77.1474 134.847 76.7555 134.685 76.3469 134.685Z" fill="white" stroke="#263238" stroke-linecap="round" stroke-linejoin="round"/>
<path opacity="0.2" d="M69.606 111.231C69.7675 111.232 69.9287 111.247 70.0875 111.276C70.0875 111.245 70.0875 111.213 70.0875 111.182V110.327C70.0863 110.149 70.0152 109.98 69.8895 109.855C69.7639 109.731 69.5941 109.661 69.417 109.661H66.0825C65.9062 109.662 65.7375 109.732 65.6129 109.857C65.4882 109.982 65.4177 110.15 65.4165 110.327V111.182C65.4165 112.41 66.3165 113.958 67.3785 114.268C67.05 112.905 67.788 111.231 69.606 111.231Z" fill="black"/>
<path opacity="0.2" d="M77.7778 111.001C77.8797 110.995 77.982 110.995 78.0838 111.001V110.308C78.0827 110.132 78.0121 109.963 77.8875 109.839C77.7628 109.714 77.5941 109.644 77.4178 109.642H74.0833C73.9063 109.642 73.7364 109.712 73.6108 109.837C73.4852 109.962 73.414 110.131 73.4128 110.308V111.163C73.4128 112.513 74.4793 114.201 75.6628 114.313C75.1183 112.918 75.8338 111.001 77.7778 111.001Z" fill="black"/>
<path opacity="0.2" d="M86.0083 110.885H86.0758V110.322C86.0758 110.145 86.0056 109.976 85.8807 109.851C85.7558 109.726 85.5864 109.656 85.4098 109.656H82.0753C81.8982 109.656 81.7284 109.726 81.6028 109.851C81.4771 109.976 81.406 110.145 81.4048 110.322V111.177C81.4048 112.549 82.5388 114.327 83.7403 114.327C83.7987 114.331 83.8574 114.331 83.9158 114.327C83.3128 112.905 84.0103 110.885 86.0083 110.885Z" fill="black"/>
<path opacity="0.2" d="M93.4918 110.655C93.6789 110.65 93.866 110.665 94.0498 110.7V110.308C94.0498 110.132 93.9796 109.962 93.8547 109.838C93.7298 109.713 93.5604 109.642 93.3838 109.642H90.0493C89.8727 109.642 89.7033 109.713 89.5784 109.838C89.4535 109.962 89.3833 110.132 89.3833 110.308V111.163C89.3833 112.45 90.3733 114.088 91.4893 114.313C90.7243 112.9 91.3858 110.655 93.4918 110.655Z" fill="black"/>
<path opacity="0.2" d="M101.893 110.655H102.064V110.317C102.063 110.14 101.992 109.971 101.866 109.846C101.741 109.722 101.571 109.651 101.394 109.651H98.0593C97.883 109.653 97.7143 109.723 97.5897 109.848C97.465 109.973 97.3945 110.141 97.3933 110.317V111.172C97.3933 112.545 98.5273 114.322 99.7288 114.322C99.7902 114.327 99.8519 114.327 99.9133 114.322C99.1258 112.905 99.7873 110.655 101.893 110.655Z" fill="black"/>
<path opacity="0.2" d="M109.953 110.7H110.056V110.308C110.055 110.132 109.985 109.963 109.86 109.839C109.735 109.714 109.567 109.644 109.39 109.642H106.056C105.879 109.642 105.709 109.712 105.583 109.837C105.458 109.962 105.387 110.131 105.385 110.308V111.163C105.385 112.536 106.519 114.313 107.721 114.313C107.794 114.32 107.868 114.32 107.941 114.313C107.203 112.896 107.874 110.7 109.953 110.7Z" fill="black"/>
<path opacity="0.2" d="M117.666 110.655C117.794 110.657 117.921 110.666 118.048 110.682V110.327C118.048 110.15 117.978 109.98 117.853 109.856C117.728 109.731 117.559 109.661 117.382 109.661H114.048C113.871 109.661 113.702 109.731 113.577 109.856C113.452 109.98 113.382 110.15 113.382 110.327V111.182C113.382 112.532 114.498 114.305 115.69 114.332C114.894 112.919 115.551 110.655 117.666 110.655Z" fill="black"/>
<path opacity="0.2" d="M126.04 110.772V110.322C126.04 110.145 125.97 109.976 125.845 109.851C125.72 109.726 125.551 109.656 125.374 109.656H122.04C121.863 109.656 121.694 109.726 121.569 109.851C121.444 109.976 121.374 110.145 121.374 110.322V111.177C121.374 112.55 122.503 114.327 123.709 114.327C123.83 114.325 123.95 114.305 124.065 114.269C123.417 112.883 124.078 110.835 126.04 110.772Z" fill="black"/>
<path opacity="0.2" d="M133.38 110.597C133.602 110.596 133.823 110.625 134.037 110.682V110.327C134.036 110.149 133.964 109.98 133.839 109.855C133.713 109.731 133.543 109.661 133.366 109.661H130.05C129.874 109.662 129.705 109.732 129.58 109.857C129.456 109.982 129.385 110.15 129.384 110.327V111.182C129.384 112.451 130.347 114.053 131.44 114.296C130.599 112.887 131.251 110.597 133.38 110.597Z" fill="black"/>
<path opacity="0.2" d="M141.552 110.597C141.712 110.597 141.872 110.612 142.029 110.642V110.327C142.028 110.15 141.957 109.982 141.833 109.857C141.708 109.732 141.539 109.662 141.363 109.661H138.028C137.851 109.661 137.681 109.731 137.556 109.855C137.43 109.98 137.359 110.149 137.358 110.327V111.182C137.358 112.532 138.438 114.246 139.608 114.332C138.762 112.919 139.41 110.597 141.552 110.597Z" fill="black"/>
<path opacity="0.2" d="M149.67 110.826C149.787 110.828 149.905 110.837 150.021 110.853V110.327C150.021 110.15 149.951 109.98 149.826 109.856C149.701 109.731 149.532 109.661 149.355 109.661H146.02C145.933 109.661 145.846 109.678 145.766 109.711C145.685 109.745 145.611 109.794 145.55 109.856C145.488 109.917 145.439 109.991 145.405 110.072C145.372 110.152 145.354 110.239 145.354 110.327V111.182C145.354 112.532 146.434 114.242 147.604 114.332C146.952 112.91 147.64 110.826 149.67 110.826Z" fill="black"/>
<path opacity="0.2" d="M158.013 110.723V110.327C158.013 110.15 157.943 109.98 157.818 109.856C157.693 109.731 157.524 109.661 157.347 109.661H154.012C153.836 109.661 153.666 109.731 153.542 109.856C153.417 109.98 153.346 110.15 153.346 110.327V111.182C153.346 112.554 154.476 114.332 155.682 114.332C155.855 114.329 156.027 114.292 156.186 114.224C155.547 112.865 156.15 110.876 158.013 110.723Z" fill="black"/>
<path opacity="0.2" d="M69.8354 127.35C69.9208 127.345 70.0065 127.345 70.0919 127.35V127.255C70.0907 127.078 70.0195 126.909 69.8939 126.784C69.7683 126.659 69.5984 126.589 69.4214 126.589H66.0869C65.9106 126.591 65.7419 126.661 65.6173 126.786C65.4926 126.91 65.4221 127.079 65.4209 127.255V128.11C65.4209 129.483 66.5549 131.26 67.7564 131.26C67.8395 131.258 67.9223 131.249 68.0039 131.233C66.9959 129.865 67.6079 127.35 69.8354 127.35Z" fill="black"/>
<path opacity="0.2" d="M77.6653 127.35C77.8056 127.35 77.9456 127.362 78.0838 127.386V127.269C78.0827 127.093 78.0121 126.924 77.8875 126.799C77.7628 126.675 77.5941 126.604 77.4178 126.603H74.0833C73.9063 126.603 73.7364 126.673 73.6108 126.798C73.4852 126.922 73.414 127.092 73.4128 127.269V128.124C73.4128 129.496 74.5468 131.274 75.7483 131.274H75.8473C74.8168 129.888 75.4243 127.35 77.6653 127.35Z" fill="black"/>
<path opacity="0.2" d="M85.608 127.463C85.7589 127.463 85.9094 127.476 86.058 127.503V127.265C86.058 127.177 86.0407 127.09 86.0073 127.01C85.9738 126.929 85.9247 126.855 85.8629 126.794C85.8011 126.732 85.7276 126.683 85.6468 126.649C85.566 126.616 85.4794 126.599 85.392 126.599H82.0575C81.8804 126.599 81.7105 126.669 81.5849 126.793C81.4593 126.918 81.3882 127.087 81.387 127.265V128.12C81.387 129.47 82.503 131.238 83.6955 131.27C82.8 129.87 83.4255 127.463 85.608 127.463Z" fill="black"/>
<path opacity="0.2" d="M93.7214 127.521C93.8372 127.521 93.9529 127.529 94.0679 127.544V127.265C94.0679 127.177 94.0506 127.09 94.0172 127.01C93.9837 126.929 93.9346 126.855 93.8728 126.794C93.811 126.732 93.7375 126.683 93.6567 126.649C93.5759 126.616 93.4893 126.599 93.4019 126.599H90.0674C89.9799 126.599 89.8933 126.616 89.8125 126.649C89.7317 126.683 89.6583 126.732 89.5964 126.794C89.5346 126.855 89.4855 126.929 89.4521 127.01C89.4186 127.09 89.4014 127.177 89.4014 127.265V128.12C89.4014 129.492 90.5309 131.27 91.7369 131.27H91.7909C90.9269 129.861 91.5704 127.521 93.7214 127.521Z" fill="black"/>
<path opacity="0.2" d="M101.551 127.35C101.723 127.35 101.895 127.367 102.064 127.399V127.269C102.063 127.092 101.992 126.922 101.866 126.798C101.741 126.673 101.571 126.603 101.394 126.603H98.0593C97.883 126.604 97.7143 126.675 97.5897 126.799C97.465 126.924 97.3945 127.093 97.3933 127.269V128.124C97.3933 129.496 98.5273 131.274 99.7288 131.274C98.7028 129.897 99.3058 127.35 101.551 127.35Z" fill="black"/>
<path opacity="0.2" d="M109.665 127.404C109.796 127.405 109.927 127.416 110.056 127.436V127.265C110.055 127.088 109.985 126.92 109.86 126.795C109.735 126.67 109.567 126.6 109.39 126.599H106.056C105.879 126.599 105.709 126.669 105.583 126.793C105.458 126.918 105.387 127.087 105.385 127.265V128.12C105.385 129.492 106.519 131.27 107.721 131.27H107.806C106.834 129.875 107.455 127.404 109.665 127.404Z" fill="black"/>
<path opacity="0.2" d="M117.954 127.575H118.048V127.26C118.048 127.083 117.978 126.914 117.853 126.789C117.728 126.664 117.559 126.594 117.382 126.594H114.048C113.871 126.594 113.702 126.664 113.577 126.789C113.452 126.914 113.382 127.083 113.382 127.26V128.115C113.382 129.487 114.511 131.265 115.713 131.265C115.801 131.264 115.888 131.253 115.974 131.233C115.2 129.829 115.843 127.575 117.954 127.575Z" fill="black"/>
<path opacity="0.2" d="M126 127.404H126.027V127.265C126.027 127.177 126.01 127.09 125.976 127.01C125.943 126.929 125.894 126.855 125.832 126.794C125.77 126.732 125.696 126.683 125.616 126.649C125.535 126.616 125.448 126.599 125.361 126.599H122.04C121.952 126.599 121.866 126.616 121.785 126.649C121.704 126.683 121.631 126.732 121.569 126.794C121.507 126.855 121.458 126.929 121.424 127.01C121.391 127.09 121.374 127.177 121.374 127.265V128.12C121.374 129.492 122.503 131.27 123.709 131.27C123.847 131.267 123.984 131.243 124.114 131.198C123.201 129.803 123.835 127.404 126 127.404Z" fill="black"/>
<path opacity="0.2" d="M133.78 127.233H134.032C134.025 127.061 133.952 126.898 133.828 126.778C133.704 126.658 133.539 126.59 133.366 126.589H130.05C129.874 126.591 129.705 126.661 129.58 126.786C129.456 126.91 129.385 127.079 129.384 127.255V128.11C129.384 129.483 130.518 131.26 131.719 131.26C131.829 131.257 131.938 131.241 132.043 131.211C130.914 129.87 131.499 127.233 133.78 127.233Z" fill="black"/>
<path opacity="0.2" d="M142.016 127.35V127.269C142.014 127.093 141.944 126.924 141.819 126.799C141.694 126.675 141.526 126.604 141.349 126.603H138.015C137.838 126.603 137.668 126.673 137.542 126.798C137.417 126.922 137.346 127.092 137.344 127.269V128.124C137.344 129.496 138.478 131.274 139.68 131.274C139.833 131.271 139.985 131.244 140.13 131.193C139.189 129.798 139.81 127.35 142.016 127.35Z" fill="black"/>
<path opacity="0.2" d="M149.85 127.35H150.03V127.26C150.03 127.173 150.013 127.086 149.979 127.005C149.946 126.924 149.897 126.851 149.835 126.789C149.773 126.727 149.699 126.678 149.619 126.645C149.538 126.611 149.451 126.594 149.364 126.594H146.029C145.853 126.594 145.683 126.664 145.558 126.789C145.433 126.914 145.363 127.083 145.363 127.26V128.115C145.363 129.487 146.493 131.265 147.694 131.265C147.801 131.264 147.907 131.248 148.009 131.22C147.006 129.843 147.622 127.35 149.85 127.35Z" fill="black"/>
<path opacity="0.2" d="M157.725 127.692C157.824 127.692 157.923 127.692 158.013 127.692V127.242C158.013 127.065 157.943 126.896 157.818 126.771C157.693 126.646 157.524 126.576 157.347 126.576H154.012C153.836 126.576 153.666 126.646 153.542 126.771C153.417 126.896 153.346 127.065 153.346 127.242V128.097C153.346 129.469 154.476 131.247 155.682 131.247C154.984 129.852 155.659 127.692 157.725 127.692Z" fill="black"/>
<path opacity="0.2" d="M66.0373 119.29H66.0958V119.07C66.0947 118.893 66.0235 118.723 65.8979 118.599C65.7723 118.474 65.6024 118.404 65.4253 118.404H62.0998C61.9232 118.404 61.7538 118.474 61.6289 118.599C61.504 118.724 61.4338 118.893 61.4338 119.07V119.925C61.4338 121.297 62.5633 123.075 63.7693 123.075C63.8852 123.072 64.0002 123.054 64.1113 123.021C63.2473 121.617 63.8998 119.29 66.0373 119.29Z" fill="black"/>
<path opacity="0.2" d="M73.863 119.291H74.088V119.061C74.0868 118.884 74.0156 118.715 73.89 118.59C73.7644 118.465 73.5945 118.395 73.4175 118.395H70.083C69.9067 118.396 69.738 118.467 69.6134 118.591C69.4887 118.716 69.4182 118.885 69.417 119.061V119.916C69.417 121.289 70.551 123.066 71.7525 123.066C71.8184 123.07 71.8846 123.07 71.9505 123.066C71.064 121.658 71.703 119.291 73.863 119.291Z" fill="black"/>
<path opacity="0.2" d="M82.0394 119.29H82.0799V119.07C82.0787 118.894 82.0082 118.725 81.8835 118.6C81.7589 118.476 81.5902 118.405 81.4139 118.404H78.0794C77.991 118.403 77.9032 118.419 77.8211 118.452C77.739 118.485 77.6642 118.534 77.6011 118.596C77.5379 118.657 77.4876 118.731 77.4531 118.813C77.4186 118.894 77.4005 118.982 77.3999 119.07V119.925C77.3999 121.297 78.5339 123.075 79.7354 123.075C79.8562 123.073 79.976 123.054 80.0909 123.016C79.2494 121.617 79.8929 119.29 82.0394 119.29Z" fill="black"/>
<path opacity="0.2" d="M89.8648 119.25H90.0718V119.079C90.0718 118.902 90.0016 118.733 89.8767 118.608C89.7518 118.483 89.5824 118.413 89.4058 118.413H86.0713C85.8946 118.413 85.7252 118.483 85.6003 118.608C85.4754 118.733 85.4053 118.902 85.4053 119.079V119.934C85.4053 121.306 86.5348 123.084 87.7363 123.084C87.8179 123.082 87.8992 123.073 87.9793 123.057C87.0478 121.657 87.6778 119.25 89.8648 119.25Z" fill="black"/>
<path opacity="0.2" d="M97.6498 119.29C97.793 119.29 97.936 119.303 98.0773 119.326V119.07C98.0773 118.893 98.0071 118.724 97.8822 118.599C97.7573 118.474 97.5879 118.404 97.4113 118.404H94.0498C93.8732 118.404 93.7038 118.474 93.5789 118.599C93.454 118.724 93.3838 118.893 93.3838 119.07V119.925C93.3838 121.297 94.5133 123.075 95.7193 123.075C94.8283 121.675 95.4628 119.29 97.6498 119.29Z" fill="black"/>
<path opacity="0.2" d="M105.696 119.002C105.816 119.003 105.936 119.01 106.056 119.025C106.043 118.857 105.968 118.699 105.844 118.584C105.721 118.469 105.559 118.405 105.39 118.404H102.055C101.879 118.405 101.71 118.476 101.586 118.6C101.461 118.725 101.391 118.894 101.389 119.07V119.925C101.389 121.297 102.523 123.075 103.725 123.075C103.811 123.073 103.897 123.063 103.981 123.043C102.811 121.707 103.383 119.002 105.696 119.002Z" fill="black"/>
<path opacity="0.2" d="M113.751 119.344C113.854 119.344 113.958 119.344 114.052 119.344V119.052C114.051 118.876 113.981 118.707 113.856 118.582C113.731 118.458 113.563 118.387 113.386 118.386H110.052C109.875 118.386 109.705 118.456 109.579 118.581C109.454 118.706 109.383 118.875 109.381 119.052V119.907C109.381 121.279 110.515 123.057 111.717 123.057H111.807C110.965 121.662 111.6 119.344 113.751 119.344Z" fill="black"/>
<path opacity="0.2" d="M122.044 119.07C122.044 118.893 121.974 118.724 121.849 118.599C121.724 118.474 121.555 118.404 121.378 118.404H118.044C117.956 118.404 117.87 118.421 117.789 118.455C117.708 118.488 117.635 118.537 117.573 118.599C117.511 118.661 117.462 118.734 117.429 118.815C117.395 118.896 117.378 118.982 117.378 119.07V119.925C117.378 121.297 118.507 123.075 119.709 123.075C119.949 123.069 120.184 123.004 120.393 122.886C119.484 121.545 120.033 119.25 122.044 119.07Z" fill="black"/>
<path opacity="0.2" d="M130.05 119.25V119.079C130.05 118.902 129.98 118.733 129.855 118.608C129.73 118.483 129.56 118.413 129.384 118.413H126.049C125.873 118.413 125.703 118.483 125.578 118.608C125.453 118.733 125.383 118.902 125.383 119.079V119.934C125.383 121.306 126.513 123.084 127.719 123.084C127.912 123.081 128.102 123.036 128.277 122.953C127.453 121.581 128.043 119.362 130.05 119.25Z" fill="black"/>
<path opacity="0.2" d="M137.754 119.115C137.848 119.115 137.943 119.115 138.033 119.115V119.057C138.032 118.879 137.96 118.71 137.835 118.585C137.709 118.461 137.539 118.39 137.362 118.391H134.028C133.852 118.392 133.683 118.462 133.558 118.587C133.434 118.712 133.363 118.88 133.362 119.057V119.912C133.362 121.284 134.496 123.062 135.697 123.062C135.782 123.06 135.867 123.05 135.949 123.03C134.905 121.676 135.504 119.115 137.754 119.115Z" fill="black"/>
<path opacity="0.2" d="M146.025 119.407V119.07C146.024 118.894 145.953 118.725 145.829 118.6C145.704 118.476 145.535 118.405 145.359 118.404H142.024C141.847 118.404 141.678 118.474 141.552 118.599C141.426 118.723 141.355 118.893 141.354 119.07V119.925C141.354 121.297 142.488 123.075 143.69 123.075C143.826 123.073 143.961 123.05 144.09 123.007C143.357 121.612 144 119.461 146.025 119.407Z" fill="black"/>
<path opacity="0.2" d="M153.639 119.173C153.765 119.175 153.891 119.184 154.017 119.2V119.07C154.017 118.893 153.947 118.724 153.822 118.599C153.697 118.474 153.527 118.404 153.351 118.404H150.016C149.929 118.404 149.842 118.421 149.761 118.455C149.681 118.488 149.607 118.537 149.545 118.599C149.484 118.661 149.434 118.734 149.401 118.815C149.368 118.896 149.35 118.982 149.35 119.07V119.925C149.35 121.297 150.48 123.075 151.681 123.075C151.723 123.077 151.765 123.077 151.807 123.075C150.799 121.684 151.411 119.173 153.639 119.173Z" fill="black"/>
<path opacity="0.2" d="M161.699 119.52C161.802 119.513 161.906 119.513 162.009 119.52V119.07C162.009 118.893 161.939 118.724 161.814 118.599C161.689 118.474 161.52 118.404 161.343 118.404H158.009C157.832 118.404 157.663 118.474 157.538 118.599C157.413 118.724 157.343 118.893 157.343 119.07V119.925C157.343 121.275 158.463 123.075 159.665 123.075C158.963 121.657 159.642 119.52 161.699 119.52Z" fill="black"/>
<path opacity="0.2" d="M142.816 140.112V135.675C142.816 135.374 142.573 135.13 142.272 135.13H81.1619C80.8612 135.13 80.6174 135.374 80.6174 135.675V140.112C80.6174 140.413 80.8612 140.656 81.1619 140.656H142.272C142.573 140.656 142.816 140.413 142.816 140.112Z" fill="black"/>
<path opacity="0.2" d="M151.087 136.669V136.219C151.087 136.132 151.07 136.045 151.037 135.965C151.003 135.884 150.954 135.81 150.892 135.749C150.831 135.687 150.757 135.638 150.676 135.604C150.595 135.571 150.509 135.553 150.421 135.553H147.087C146.999 135.553 146.913 135.571 146.832 135.604C146.751 135.638 146.678 135.687 146.616 135.749C146.554 135.81 146.505 135.884 146.472 135.965C146.438 136.045 146.421 136.132 146.421 136.219V137.074C146.421 138.447 147.55 140.224 148.756 140.224C148.857 140.222 148.956 140.208 149.053 140.184C148.387 138.78 149.067 136.683 151.087 136.669Z" fill="black"/>
<path opacity="0.2" d="M76.6259 136.381C76.757 136.382 76.8879 136.393 77.0174 136.413V136.224C77.0162 136.047 76.9451 135.878 76.8195 135.753C76.6939 135.628 76.524 135.558 76.3469 135.558H73.0124C72.8362 135.559 72.6674 135.63 72.5428 135.754C72.4182 135.879 72.3476 136.048 72.3464 136.224V137.079C72.3464 138.451 73.4804 140.229 74.6819 140.229H74.7584C73.7999 138.834 74.4299 136.381 76.6259 136.381Z" fill="black"/>
<path opacity="0.2" d="M56.5648 42.5249H166.869C167.627 42.5249 168.353 42.826 168.889 43.3618C169.425 43.8977 169.726 44.6245 169.726 45.3824V70.5824H53.7073V45.3824C53.7073 44.6245 54.0083 43.8977 54.5442 43.3618C55.0801 42.826 55.8069 42.5249 56.5648 42.5249Z" fill="black"/>
<path d="M157.851 47.277H65.6008C64.8315 40.8885 63.4758 34.5844 61.5508 28.4445H161.919C159.963 34.5774 158.601 40.8838 157.851 47.277Z" fill="white"/>
<path opacity="0.2" d="M158.76 41.2064C158.089 44.8694 157.86 47.2769 157.86 47.2769H65.61C65.61 47.2769 65.376 44.9144 64.6875 41.2064H158.76Z" fill="black"/>
<path d="M157.851 47.277H65.6008C64.8315 40.8885 63.4758 34.5844 61.5508 28.4445H161.919C159.963 34.5774 158.601 40.8838 157.851 47.277V47.277Z" stroke="#263238" stroke-linecap="round" stroke-linejoin="round"/>
<path d="M156.595 63.135H66.0959V100.368H156.595V63.135Z" fill="#263238"/>
<g opacity="0.4">
<path opacity="0.4" d="M109.089 97.074L109.566 97.0965C110.166 87.8115 110.766 78.5115 111.366 69.1965C110.601 78.5145 109.842 87.807 109.089 97.074Z" fill="white"/>
<path opacity="0.4" d="M107.55 96.9569L108.027 96.9974C109.068 87.7724 110.108 78.5069 111.146 69.2009C109.949 78.5129 108.75 87.7649 107.55 96.9569Z" fill="white"/>
<path opacity="0.4" d="M106.052 96.786C106.209 96.786 106.371 96.822 106.529 96.84C108.005 87.714 109.49 78.4995 110.984 69.1965C109.334 78.5085 107.69 87.705 106.052 96.786Z" fill="white"/>
<path opacity="0.4" d="M104.535 96.5565L105.016 96.633C106.93 87.633 108.859 78.483 110.803 69.183C108.703 78.492 106.614 87.6165 104.535 96.5565Z" fill="white"/>
<path opacity="0.4" d="M103.023 96.273L103.509 96.372C105.849 87.543 108.22 78.483 110.623 69.192C108.067 78.486 105.534 87.513 103.023 96.273Z" fill="white"/>
<path opacity="0.4" d="M101.52 95.931L102.006 96.0525C104.765 87.4215 107.6 78.471 110.444 69.1875C107.433 78.471 104.432 87.381 101.52 95.931Z" fill="white"/>
<path opacity="0.4" d="M100.021 95.526L100.512 95.67C103.662 87.282 106.96 78.453 110.263 69.1785C106.794 78.453 103.338 87.2325 100.021 95.526Z" fill="white"/>
<path opacity="0.4" d="M98.55 95.0669L99.0405 95.2244C102.6 87.1244 106.335 78.4349 110.097 69.174C106.151 78.4349 102.245 87.0614 98.55 95.0669Z" fill="white"/>
<path opacity="0.4" d="M97.0559 94.5404L97.5509 94.7204C101.493 86.9264 105.682 78.4124 109.903 69.1649C105.507 78.4124 101.142 86.8499 97.0559 94.5404Z" fill="white"/>
<path opacity="0.4" d="M95.5979 93.9465L96.0929 94.1535C100.395 86.7105 105.039 78.4035 109.723 69.156C104.85 78.3855 100.039 86.6475 95.5979 93.9465Z" fill="white"/>
<path opacity="0.4" d="M94.1536 93.2805L94.6486 93.519C99.2926 86.4765 104.391 78.354 109.544 69.147C104.207 78.354 98.9326 86.4 94.1536 93.2805Z" fill="white"/>
<path opacity="0.4" d="M92.7314 92.5424L93.2264 92.8124C98.1764 86.2109 103.743 78.3179 109.363 69.1334C104.237 77.2251 98.6855 85.039 92.7314 92.5424Z" fill="white"/>
<path opacity="0.4" d="M91.3499 91.7325C91.5119 91.836 91.6829 91.9305 91.8494 92.0295C98.0947 84.7552 103.89 77.106 109.201 69.1245C103.765 77.0528 97.8013 84.6059 91.3499 91.7325Z" fill="white"/>
<path opacity="0.4" d="M89.9685 90.837L90.459 91.1745C97.1981 84.3121 103.398 76.9402 109.004 69.1245C103.282 76.8854 96.9139 84.1487 89.9685 90.837Z" fill="white"/>
<path opacity="0.4" d="M108.823 69.0975C101.583 78.165 94.4999 85.0815 88.6499 89.8605L89.1314 90.234C96.3537 83.8319 102.948 76.7542 108.823 69.0975Z" fill="white"/>
<path opacity="0.4" d="M108.643 69.084C100.93 78.084 93.3929 84.663 87.3674 88.803L87.8444 89.2125C93.7889 84.8115 101.133 78.1065 108.643 69.084Z" fill="white"/>
<path opacity="0.4" d="M108.45 69.0704C100.273 78.0029 92.3084 84.1949 86.1479 87.6509C86.2964 87.8039 86.4449 87.9569 86.5979 88.1009C92.6999 84.3659 100.489 78.0254 108.45 69.0704Z" fill="white"/>
<path opacity="0.4" d="M108.283 69.0525C99.6614 77.895 91.2824 83.6775 85.0229 86.4225L85.4729 86.913C91.6694 83.8665 99.8594 77.922 108.283 69.0525Z" fill="white"/>
<path opacity="0.4" d="M83.988 85.1084C84.1185 85.2884 84.2535 85.4684 84.3885 85.6439C90.666 83.3264 99.2385 77.7959 108.108 69.0389C99.0585 77.7554 90.3015 83.1059 83.988 85.1084Z" fill="white"/>
<path opacity="0.4" d="M83.0701 83.7404C83.1871 83.9294 83.3086 84.1184 83.4301 84.3074C89.7301 82.7234 98.6761 77.6339 107.928 69.0074C98.4961 77.5844 89.3926 82.4849 83.0701 83.7404Z" fill="white"/>
<path opacity="0.4" d="M82.2869 82.35C82.3859 82.548 82.4894 82.7415 82.5929 82.9395C88.8929 82.0845 98.1449 77.445 107.748 69.012C97.9874 77.364 88.5869 81.81 82.2869 82.35Z" fill="white"/>
<path opacity="0.4" d="M81.6479 80.928C81.7289 81.126 81.8144 81.3285 81.8999 81.5265C88.164 81.3735 97.65 77.193 107.55 68.9805C97.5375 77.1075 87.903 81.0855 81.6479 80.928Z" fill="white"/>
<path opacity="0.4" d="M110.615 97.1369H111.087C111.231 87.8369 111.381 78.5249 111.537 69.2009C111.222 78.5189 110.914 87.8309 110.615 97.1369Z" fill="white"/>
<path opacity="0.4" d="M112.135 97.146H112.612C112.312 87.846 112.012 78.534 111.712 69.21L112.135 97.146Z" fill="white"/>
<path opacity="0.4" d="M113.657 97.1054H114.134C113.384 87.8354 112.634 78.5354 111.884 69.2054C112.475 78.5234 113.066 87.8234 113.657 97.1054Z" fill="white"/>
<path opacity="0.4" d="M115.2 97.0109L115.677 96.9749C114.477 87.7739 113.277 78.5159 112.077 69.2009C113.109 78.5159 114.15 87.7859 115.2 97.0109Z" fill="white"/>
<path opacity="0.4" d="M116.698 96.867L117.175 96.8085C115.543 87.7155 113.893 78.5115 112.225 69.1965C113.728 78.5115 115.219 87.735 116.698 96.867Z" fill="white"/>
<path opacity="0.4" d="M118.215 96.6645L118.696 96.5925C116.626 87.6375 114.534 78.5055 112.419 69.1965C114.363 78.5085 116.295 87.6645 118.215 96.6645Z" fill="white"/>
<path opacity="0.4" d="M119.727 96.408L120.208 96.318C117.709 87.54 115.173 78.498 112.599 69.192C114.993 78.498 117.369 87.57 119.727 96.408Z" fill="white"/>
<path opacity="0.4" d="M121.23 96.093L121.721 95.9805C118.805 87.4305 115.799 78.489 112.779 69.1875C115.632 78.4905 118.449 87.459 121.23 96.093Z" fill="white"/>
<path opacity="0.4" d="M122.733 95.724L123.219 95.5845C119.898 87.273 116.437 78.4845 112.959 69.1785C116.266 78.4755 119.56 87.3 122.733 95.724Z" fill="white"/>
<path opacity="0.4" d="M124.222 95.2874L124.717 95.1254C120.996 87.1064 117.067 78.4754 113.139 69.174C116.91 78.4574 120.654 87.1559 124.222 95.2874Z" fill="white"/>
<path opacity="0.4" d="M125.703 94.7879L126.198 94.6034C122.103 86.9129 117.729 78.4394 113.319 69.1649C117.553 78.4394 121.752 86.9714 125.703 94.7879Z" fill="white"/>
<path opacity="0.4" d="M127.17 94.2255C127.337 94.1535 127.508 94.0905 127.67 94.0185C123.215 86.7015 118.382 78.417 113.499 69.156C118.202 78.417 122.85 86.7645 127.17 94.2255Z" fill="white"/>
<path opacity="0.4" d="M128.623 93.6L129.123 93.3615C124.33 86.463 119.034 78.3945 113.679 69.1515C118.849 78.3855 123.961 86.535 128.623 93.6Z" fill="white"/>
<path opacity="0.4" d="M130.05 92.8934C130.216 92.8079 130.383 92.7134 130.545 92.6234C124.569 85.0938 118.996 77.2529 113.85 69.1334C119.502 78.3584 125.1 86.2739 130.05 92.8934Z" fill="white"/>
<path opacity="0.4" d="M131.463 92.115L131.967 91.818C125.488 84.6653 119.498 77.0836 114.039 69.1245C119.371 77.1374 125.19 84.8154 131.463 92.115Z" fill="white"/>
<path opacity="0.4" d="M114.219 69.111C119.847 76.9633 126.074 84.3684 132.844 91.26L133.344 90.9225C126.364 84.2057 119.966 76.909 114.219 69.111Z" fill="white"/>
<path opacity="0.4" d="M114.399 69.0975C120.302 76.7909 126.933 83.8978 134.199 90.3195C134.365 90.198 134.523 90.072 134.685 89.946C128.817 85.167 121.68 78.219 114.399 69.0975Z" fill="white"/>
<path opacity="0.4" d="M114.579 69.084C122.139 78.1605 129.528 84.8925 135.49 89.2935C135.652 89.1585 135.819 89.0235 135.976 88.884C129.928 84.753 122.341 78.156 114.579 69.084Z" fill="white"/>
<path opacity="0.4" d="M114.75 69.0704C122.783 78.0704 130.613 84.4559 136.733 88.1864C136.89 88.0379 137.039 87.8804 137.183 87.7364C131.018 84.2849 122.994 78.0704 114.75 69.0704Z" fill="white"/>
<path opacity="0.4" d="M114.939 69.0525C123.43 77.9895 131.683 83.961 137.889 86.985L138.339 86.49C132.079 83.7765 123.633 77.9715 114.939 69.0525Z" fill="white"/>
<path opacity="0.4" d="M139 85.7069C139.14 85.5269 139.27 85.3469 139.405 85.1624C133.083 83.2049 124.245 77.8364 115.105 69.0389C124.051 77.8724 132.709 83.4209 139 85.7069Z" fill="white"/>
<path opacity="0.4" d="M139.977 84.3525L140.346 83.7765C134.014 82.584 124.825 77.67 115.294 69.021C124.65 77.7195 133.65 82.8225 139.977 84.3525Z" fill="white"/>
<path opacity="0.4" d="M140.85 82.9529C140.958 82.7549 141.061 82.5569 141.165 82.3544C134.865 81.9044 125.365 77.4539 115.515 69.0029C125.181 77.5259 134.55 82.1744 140.85 82.9529Z" fill="white"/>
<path opacity="0.4" d="M115.65 68.9805C125.658 77.2875 135.27 81.468 141.525 81.531C141.615 81.3285 141.7 81.126 141.786 80.9235C135.54 81.18 125.802 77.1975 115.65 68.9805Z" fill="white"/>
</g>
<path opacity="0.2" d="M98.5498 69.8714C96.8443 74.2454 98.6893 86.9714 110.997 86.9714C123.304 86.9714 127.773 78.0299 127.273 72.5039L143.703 69.8579C143.703 69.8579 148.738 83.7719 138.046 93.5054C127.354 103.239 90.2923 102.609 82.4578 95.2109C74.6233 87.8129 78.9703 73.1969 78.9703 73.1969L98.5498 69.8714Z" fill="black"/>
<path d="M170.658 50.9985V47.9295C170.658 47.816 170.694 47.7053 170.761 47.6138C170.828 47.5222 170.923 47.4547 171.031 47.421L173.281 46.719V43.65C173.281 43.2824 173.427 42.9299 173.687 42.67C173.947 42.41 174.3 42.264 174.667 42.264H177.367C177.501 42.2615 177.629 42.3108 177.727 42.4015C177.824 42.4921 177.882 42.6171 177.889 42.75V43.74C177.889 43.8753 177.836 44.0051 177.741 44.1012C177.646 44.1973 177.516 44.2518 177.381 44.253H173.947V47.2545C173.946 47.345 173.922 47.4336 173.877 47.5123C173.832 47.5909 173.768 47.657 173.691 47.7045L171.774 48.8655V51.003L170.658 50.9985Z" fill="#999999" stroke="#263238" stroke-linecap="round" stroke-linejoin="round"/>
<path d="M173.619 50.9984H170.658V59.8544H173.619V50.9984Z" fill="#263238"/>
<path d="M177.322 50.2469H173.619V60.6059H177.322V50.2469Z" fill="#757575"/>
<path opacity="0.2" d="M177.313 56.5559H173.619V60.6059H177.313V56.5559Z" fill="black"/>
<path d="M177.322 50.2469H173.619V60.6059H177.322V50.2469Z" stroke="#263238" stroke-linecap="round" stroke-linejoin="round"/>
<path d="M49.8149 59.85H52.7759V50.994H49.8149V59.85Z" fill="#263238"/>
<path d="M46.1114 60.6014H49.8149V50.2424H46.1114V60.6014Z" fill="#757575"/>
<path opacity="0.2" d="M49.8195 56.5559H46.116V60.5069H49.8195V56.5559Z" fill="black"/>
<path d="M46.1114 60.6014H49.8149V50.2424H46.1114V60.6014Z" stroke="#263238" stroke-linecap="round" stroke-linejoin="round"/>
<path d="M52.3304 55.9529C52.5978 55.2514 52.6391 54.4839 52.4487 53.7577C52.2583 53.0315 51.8456 52.383 51.2684 51.9029L49.0904 50.1029C48.9518 49.9861 48.7907 49.8992 48.617 49.8474C48.4433 49.7957 48.2608 49.7804 48.0809 49.8023C47.901 49.8243 47.7276 49.8831 47.5714 49.9751C47.4153 50.067 47.2798 50.1902 47.1734 50.3369L38.5379 62.2484C38.3736 62.4713 38.2852 62.741 38.2859 63.0179V75.8114C38.2859 75.9832 38.32 76.1532 38.3862 76.3116C38.4525 76.47 38.5496 76.6137 38.6718 76.7343C38.7941 76.8548 38.9391 76.9499 39.0984 77.014C39.2577 77.0781 39.4282 77.1098 39.5999 77.1074C39.9436 77.1074 40.2733 76.9709 40.5163 76.7278C40.7593 76.4848 40.8959 76.1552 40.8959 75.8114V65.4209C40.8967 65.1645 40.9768 64.9145 41.1254 64.7054L47.5829 55.7054C47.6394 55.6264 47.7118 55.56 47.7953 55.5104C47.8788 55.4607 47.9718 55.429 48.0682 55.4172C48.1647 55.4053 48.2625 55.4136 48.3556 55.4416C48.4486 55.4695 48.5349 55.5164 48.6089 55.5794L49.7969 56.5874C50.091 56.837 50.4641 56.9742 50.8499 56.9744C51.1707 56.9725 51.4835 56.874 51.7476 56.6918C52.0116 56.5096 52.2147 56.2522 52.3304 55.9529Z" fill="white" stroke="#263238" stroke-linecap="round" stroke-linejoin="round"/>
<path d="M50.5484 54.7874C50.8889 54.7874 51.1649 54.5114 51.1649 54.1709C51.1649 53.8305 50.8889 53.5544 50.5484 53.5544C50.2079 53.5544 49.9319 53.8305 49.9319 54.1709C49.9319 54.5114 50.2079 54.7874 50.5484 54.7874Z" fill="#999999" stroke="#263238" stroke-linecap="round" stroke-linejoin="round"/>
<path d="M167.913 46.719H55.5254V64.125H167.913V46.719Z" fill="#263238"/>
<path opacity="0.2" d="M166.288 48.0284H57.1049C56.7619 48.0284 56.4839 48.3065 56.4839 48.6494V51.4664C56.4839 51.8094 56.7619 52.0874 57.1049 52.0874H166.288C166.631 52.0874 166.909 51.8094 166.909 51.4664V48.6494C166.909 48.3065 166.631 48.0284 166.288 48.0284Z" fill="white"/>
<path d="M157.851 67.626H65.6008C63.0011 61.6837 61.6238 55.2791 61.5508 48.7935H161.919C161.919 57.5145 157.851 67.626 157.851 67.626Z" fill="white"/>
<g opacity="0.7">
<path opacity="0.7" d="M73.0618 66.2129C73.0618 66.2129 75.0823 66.1049 76.2118 65.4254C77.3413 64.7459 77.2603 66.0374 77.9083 66.1229C78.5563 66.2084 80.0863 65.6729 80.8963 65.6729C81.7063 65.6729 81.0898 66.1679 82.0033 66.1229C82.9168 66.0779 82.4263 66.1679 82.9033 66.0779L86.8138 65.4254C86.8138 65.4254 88.7983 65.0429 89.1988 65.2364C89.5993 65.4299 90.1258 66.3839 90.7108 66.1364C91.2958 65.8889 90.9853 65.6864 91.8673 65.6864C92.4125 65.689 92.9548 65.7677 93.4783 65.9204C93.4783 65.9204 93.5593 65.6909 93.9643 65.6864H94.6888C94.6888 65.6864 96.2233 66.0914 96.4663 66.0914C96.7093 66.0914 98.5228 65.6909 98.5858 65.6864C98.6488 65.6819 100.386 65.2364 100.386 65.2364C100.754 65.6216 101.221 65.8986 101.736 66.0374C102.393 66.1229 103.086 65.9474 103.581 66.1679C104.076 66.3884 105.705 66.0779 105.705 66.0779C106.093 66.0804 106.481 66.1105 106.866 66.1679C107.37 66.283 107.895 66.2675 108.391 66.1229C109.304 65.8817 110.261 65.8662 111.181 66.0779C112.644 66.3434 113.989 65.6774 114.61 65.6729C115.231 65.6684 117.715 65.9474 118.57 65.9474C119.425 65.9474 121.689 66.2534 123.264 66.0779C124.839 65.9024 125.869 66.2984 126.927 66.2984C127.984 66.2984 129.114 66.2534 129.357 66.2534C129.6 66.2534 130.77 65.4884 132.444 65.6729C134.118 65.8574 132.628 65.4434 133.659 65.6729C134.689 65.9024 135.504 66.1229 135.94 66.1679C136.29 66.1883 136.642 66.1733 136.989 66.1229L138.789 65.9924H147.762" stroke="#263238" stroke-linecap="round" stroke-linejoin="round"/>
<path opacity="0.7" d="M71.1943 62.7389C71.1943 62.7389 76.7518 62.7389 77.7553 62.6489C78.7588 62.5589 79.2943 62.0459 79.8298 62.0459C80.3653 62.0459 83.0698 62.5589 83.0698 62.5589C83.1487 62.3911 83.2775 62.2518 83.4386 62.16C83.5997 62.0681 83.7852 62.0283 83.9698 62.0459C84.7033 62.0459 84.3298 62.1134 85.0048 62.3834C85.6798 62.6534 85.3288 62.3834 85.6843 62.6489C86.2143 62.8869 86.7746 63.0505 87.3493 63.1349C87.3493 63.1349 89.8558 63.2519 89.9503 62.6489C90.0448 62.0459 91.3003 63.1349 91.3003 63.1349C91.3003 63.1349 94.7023 62.6489 96.0163 62.6489C97.3303 62.6489 100.624 62.3834 100.624 62.3834C100.624 62.3834 103.324 62.7389 103.45 62.7389C103.576 62.7389 104.022 63.4454 104.503 63.1349C104.985 62.8244 105.448 62.4689 106.02 62.5589C106.551 62.6906 107.064 62.8839 107.55 63.1349L108.805 62.4689L110.245 62.5589C110.245 62.5589 111.712 63.5354 112.761 63.1349C113.559 62.8159 114.339 62.4523 115.096 62.0459L116.388 63.1349H117.234L119.74 62.6489C119.933 62.886 120.193 63.0593 120.486 63.146C120.779 63.2328 121.092 63.2289 121.383 63.1349C122.445 62.8289 132.592 63.1349 135.175 63.1349C137.758 63.1349 138.325 62.4689 138.325 62.4689L140.314 63.1349H150.214" stroke="#263238" stroke-linecap="round" stroke-linejoin="round"/>
</g>
<path opacity="0.2" d="M158.791 65.0249C158.247 66.6449 157.851 67.6259 157.851 67.6259H65.6009C65.6009 67.6259 65.1509 66.6809 64.5344 65.0249H158.791Z" fill="black"/>
<path opacity="0.2" d="M160.713 58.2119C160.402 59.5619 160.06 60.8804 159.723 62.0459H63.5308C63.1978 60.9029 62.8558 59.6114 62.5588 58.2119H160.713Z" fill="black"/>
<path d="M157.851 67.626H65.6008C63.0011 61.6837 61.6238 55.2791 61.5508 48.7935H161.919C161.919 57.5145 157.851 67.626 157.851 67.626Z" stroke="#263238" stroke-linecap="round" stroke-linejoin="round"/>
<path d="M55.5029 45.8235H52.7534V65.0295H55.5029V45.8235Z" fill="#757575"/>
<path opacity="0.2" d="M55.449 59.3324H52.7715V65.0294H55.449V59.3324Z" fill="black"/>
<path d="M55.5029 45.8235H52.7534V65.0295H55.5029V45.8235Z" stroke="#263238" stroke-linecap="round" stroke-linejoin="round"/>
<path d="M170.68 45.8235H167.931V65.0295H170.68V45.8235Z" fill="#757575"/>
<path opacity="0.2" d="M170.68 59.3324H167.908V65.0294H170.68V59.3324Z" fill="black"/>
<path d="M170.68 45.8235H167.931V65.0295H170.68V45.8235Z" stroke="#263238" stroke-linecap="round" stroke-linejoin="round"/>
<path d="M167.953 45.0179V59.0264H55.4804V45.0179H54.4004V59.9669H169.033V45.0179H167.953Z" fill="#999999" stroke="#263238" stroke-linecap="round" stroke-linejoin="round"/>
<path d="M174.6 68.616V100.03C174.6 100.56 174.389 101.069 174.015 101.443C173.64 101.818 173.132 102.028 172.602 102.028H50.8183C50.2884 102.028 49.7802 101.818 49.4055 101.443C49.0308 101.069 48.8203 100.56 48.8203 100.03V68.616C48.8203 68.0861 49.0308 67.5779 49.4055 67.2032C49.7802 66.8285 50.2884 66.618 50.8183 66.618H106.933V68.616C106.933 68.616 97.3528 76.9275 80.8333 79.992C83.2003 90.7065 96.1333 98.892 111.739 98.892C127.345 98.892 140.278 90.6975 142.65 79.992C126.108 76.9275 116.527 68.616 116.527 68.616V66.6H172.615C172.878 66.6017 173.138 66.6553 173.38 66.7576C173.622 66.86 173.841 67.009 174.026 67.1963C174.21 67.3836 174.356 67.6053 174.454 67.849C174.553 68.0926 174.602 68.3532 174.6 68.616Z" fill="white" stroke="#263238" stroke-linecap="round" stroke-linejoin="round"/>
<path d="M174.6 68.616V100.03C174.6 100.293 174.548 100.553 174.447 100.796C174.347 101.039 174.199 101.259 174.013 101.445C173.827 101.63 173.606 101.778 173.363 101.878C173.12 101.978 172.86 102.029 172.597 102.028H50.8184C50.5557 102.029 50.2954 101.978 50.0524 101.878C49.8095 101.778 49.5887 101.63 49.4027 101.445C49.2167 101.259 49.0691 101.039 48.9684 100.796C48.8677 100.553 48.8159 100.293 48.8159 100.03V68.616C48.8171 68.0852 49.0285 67.5766 49.4037 67.2013C49.779 66.826 50.2877 66.6147 50.8184 66.6135H106.933V68.616C106.933 68.616 97.3484 76.923 80.8334 79.992C83.2004 90.7065 96.1334 98.892 111.744 98.892C127.354 98.892 140.278 90.6975 142.65 79.992C126.108 76.923 116.527 68.616 116.527 68.616V66.6H172.615C173.146 66.6047 173.653 66.8197 174.025 67.1976C174.397 67.5756 174.604 68.0856 174.6 68.616Z" fill="white"/>
<path opacity="0.2" d="M171.9 69.0975V98.1C171.9 98.2928 171.862 98.4837 171.788 98.6617C171.714 98.8398 171.605 99.0014 171.468 99.1373C171.332 99.2732 171.169 99.3808 170.991 99.4537C170.812 99.5267 170.621 99.5637 170.428 99.5625H52.0155C51.8233 99.5631 51.6328 99.5256 51.4551 99.4524C51.2774 99.3791 51.1159 99.2714 50.98 99.1354C50.8441 98.9995 50.7364 98.8381 50.6631 98.6603C50.5898 98.4826 50.5524 98.2922 50.553 98.1V69.0975C50.5524 68.9048 50.5898 68.7139 50.6629 68.5357C50.7361 68.3575 50.8437 68.1955 50.9795 68.0588C51.1153 67.9222 51.2767 67.8136 51.4544 67.7394C51.6322 67.6651 51.8228 67.6266 52.0155 67.626H106.915V68.616C106.915 68.616 97.3305 76.923 80.8155 79.992C83.1825 90.7065 96.1155 98.892 111.726 98.892C127.336 98.892 140.26 90.6975 142.632 79.992C126.09 76.923 116.509 68.616 116.509 68.616V67.626H170.442C170.83 67.6295 171.201 67.7861 171.474 68.0617C171.747 68.3373 171.9 68.7095 171.9 69.0975Z" fill="white"/>
<path d="M174.6 68.616V100.03C174.6 100.293 174.548 100.553 174.447 100.796C174.347 101.039 174.199 101.259 174.013 101.445C173.827 101.63 173.606 101.778 173.363 101.878C173.12 101.978 172.86 102.029 172.597 102.028H50.8184C50.5557 102.029 50.2954 101.978 50.0524 101.878C49.8095 101.778 49.5887 101.63 49.4027 101.445C49.2167 101.259 49.0691 101.039 48.9684 100.796C48.8677 100.553 48.8159 100.293 48.8159 100.03V68.616C48.8171 68.0852 49.0285 67.5766 49.4037 67.2013C49.779 66.826 50.2877 66.6147 50.8184 66.6135H106.933V68.616C106.933 68.616 97.3484 76.923 80.8334 79.992C83.2004 90.7065 96.1334 98.892 111.744 98.892C127.354 98.892 140.278 90.6975 142.65 79.992C126.108 76.923 116.527 68.616 116.527 68.616V66.6H172.615C173.146 66.6047 173.653 66.8197 174.025 67.1976C174.397 67.5756 174.604 68.0856 174.6 68.616V68.616Z" stroke="#263238" stroke-linecap="round" stroke-linejoin="round"/>
<path opacity="0.2" d="M134.37 111.339L140.351 128.021C140.351 128.021 142.938 109.661 144.482 109.661C146.025 109.661 149.351 119.7 149.351 119.7C149.351 119.7 151.402 114.462 153.346 114.273C155.29 114.084 157.05 127.134 157.05 127.134L157.352 156.101L154.899 199.908C154.899 199.908 139.253 182.673 134.69 178.232C130.127 173.79 125.766 164.016 124.506 162.032C123.246 160.047 122.927 149.657 122.927 149.657C124.522 147.615 125.356 145.082 125.285 142.493C125.285 142.493 128.957 136.346 128.732 131.81C128.507 127.274 127.94 109.647 134.37 111.339Z" fill="black" fill-opacity="0.7"/>
<path d="M181.445 192.15L157.757 204.61C157.757 204.484 154.643 199.44 150.881 193.734C149.18 191.151 147.344 188.437 145.602 185.98C142.749 181.962 139.122 178.492 138.812 177.736C137.912 175.486 130.973 167.062 129.42 163.786C127.868 160.51 127.512 150.318 126.828 147.919C126.144 145.521 128.106 143.23 129.681 142.114C131.256 140.998 132.908 138.064 132.908 138.064C132.908 138.064 131.166 131.278 131.148 127.827C131.13 124.375 129.956 112.329 131.36 111.204C132.764 110.079 134.019 110.551 134.37 111.325C135.522 113.877 136.557 120.294 137.444 123.25C138.33 126.207 139.995 134.784 140.814 135.4C141.633 136.017 143.091 133.704 143.091 133.704C143.091 133.704 143.231 126.504 143.541 123.52L143.091 114.07C143.091 114.07 142.25 108.391 144.207 107.851C146.907 107.109 147.893 108.805 148.199 109.521C148.505 110.236 149.765 114.358 149.765 114.358L149.837 114.642C149.837 114.669 149.837 114.696 149.837 114.727V114.777C149.858 114.855 149.88 114.94 149.904 115.033C149.954 115.222 150.012 115.447 150.075 115.704C150.674 118.048 151.826 122.742 151.776 123.898C151.709 125.46 151.164 134.109 151.934 135.904L153.131 123.957C153.131 123.957 151.2 114.75 151.763 113.422C152.325 112.095 154.976 113.562 155.291 114.084C155.606 114.606 158.18 117.765 158.639 118.971L159.089 120.177C159.089 120.177 159.723 117.324 161.213 118.066C162.702 118.809 162.887 122.436 162.99 124.02C163.094 125.604 164.174 135.792 164.34 135.81C164.507 135.828 166.226 141.12 165.992 144.616C165.501 152.1 166.797 157.666 166.842 160.537C166.887 163.408 164.723 170.059 164.723 170.059C164.799 170.19 166.212 172.593 166.599 174.703C166.883 176.251 171.927 181.845 176.049 186.295C178.916 189.364 181.319 191.875 181.445 192.15Z" fill="white"/>
<path opacity="0.4" d="M150.885 193.743C149.184 191.16 147.348 188.446 145.606 185.989C142.753 181.971 139.126 178.501 138.816 177.745C137.916 175.495 130.977 167.071 129.424 163.795C127.872 160.519 127.516 150.327 126.832 147.928C126.148 145.53 128.11 143.239 129.685 142.123C131.26 141.007 132.912 138.073 132.912 138.073C132.912 138.073 131.17 131.287 131.152 127.836C131.134 124.384 129.96 112.338 131.364 111.213C132.768 110.088 134.023 110.56 134.374 111.334C135.526 113.886 136.561 120.303 137.448 123.259C138.334 126.216 139.999 134.793 140.818 135.409C141.637 136.026 143.095 133.713 143.095 133.713C143.095 133.713 143.235 126.513 143.545 123.529L143.095 114.079C143.095 114.079 142.254 108.4 144.211 107.86C146.911 107.118 147.897 108.814 148.203 109.53C148.509 110.245 149.769 114.367 149.769 114.367L149.841 114.651C149.841 114.678 149.841 114.705 149.841 114.736V114.786C149.859 114.864 149.881 114.949 149.908 115.042C149.958 115.231 150.016 115.456 150.079 115.713C149.382 114.61 148.423 113.67 147.141 113.422C143.541 112.72 144.319 116.725 144.661 119.128C144.855 120.723 144.817 122.337 144.549 123.921L145.449 123.403C144.801 124.56 143.874 134.172 143.874 136.309C143.874 138.447 142.182 139.158 140.665 138.532C139.149 137.907 138.609 128.097 137.457 126.337C136.305 124.578 133.101 127.939 132.957 131.013C132.813 134.086 135.679 143.253 135 145.413C134.32 147.573 134.329 155.763 134.329 155.763L133.501 153.652C133.555 153.94 133.501 154.908 131.769 157.756C131.118 158.787 130.697 159.947 130.535 161.155C130.373 162.363 130.473 163.592 130.828 164.758C131.886 167.094 137.25 173.25 138.15 173.884C138.15 173.884 138.802 171.211 140.85 171.922C140.153 173.031 139.645 174.247 139.347 175.522C138.924 177.484 143.194 178.74 144.531 180.607C145.35 181.746 145.899 185.215 150.885 193.743Z" fill="white"/>
<path opacity="0.4" d="M176.076 186.3C171.864 182.057 164.452 178.016 164.902 176.958C165.505 175.536 164.74 172.508 163.444 170.051C162.148 167.594 163.894 163.607 163.894 163.607L164.695 165.924C165.336 163.251 165.411 160.474 164.916 157.77C164.097 153.176 163.458 154.791 163.458 154.791C163.458 154.791 163.624 150.651 164.358 148.392C165.091 146.133 165.708 140.648 164.695 137.403C163.683 134.159 161.545 134.771 160.974 135.887C160.402 137.003 161.014 141.354 161.487 142.781C161.959 144.207 159.948 146.606 159.907 144.824C159.867 143.042 159.106 138.074 159.106 138.074L160.632 128.097L159.106 120.173C159.106 120.173 159.741 117.32 161.23 118.062C162.72 118.805 162.904 122.432 163.008 124.016C163.111 125.6 164.191 135.788 164.358 135.806C164.524 135.824 166.243 141.116 166.009 144.612C165.519 152.096 166.815 157.662 166.86 160.533C166.905 163.404 164.74 170.055 164.74 170.055C164.817 170.186 166.23 172.589 166.617 174.699C166.9 176.247 171.945 181.841 176.067 186.291L176.076 186.3Z" fill="white"/>
<path opacity="0.4" d="M158.638 118.971C158.724 119.196 158.796 119.38 158.85 119.529C157.419 116.203 154.98 117.234 154.548 118.179C154.116 119.124 155.569 124.987 155.898 125.896C156.226 126.805 154.593 134.064 154.354 136.467C154.116 138.87 153.481 139.361 153.481 139.361C151.866 139.482 151.681 135.023 151.681 134.411C151.713 134.923 151.813 135.428 151.978 135.913L153.175 123.966C153.175 123.966 151.2 114.75 151.762 113.422C152.325 112.095 154.975 113.562 155.29 114.084C155.605 114.606 158.179 117.765 158.638 118.971Z" fill="white"/>
<path d="M181.444 192.15C181.138 191.457 167.085 177.3 166.594 174.699C166.198 172.53 164.713 170.05 164.713 170.05C164.713 170.05 166.878 163.413 166.833 160.528C166.788 157.644 165.483 152.091 165.982 144.607C166.216 141.111 164.502 135.819 164.331 135.801C164.16 135.783 163.08 125.595 162.981 124.011C162.882 122.427 162.697 118.8 161.203 118.058C159.709 117.315 159.079 120.168 159.079 120.168L158.629 118.962C158.179 117.756 155.596 114.597 155.281 114.075C154.966 113.553 152.32 112.082 151.753 113.414C151.186 114.746 153.162 123.939 153.162 123.939L151.974 135.9C151.204 134.1 151.749 125.456 151.816 123.894C151.884 122.333 149.769 114.354 149.769 114.354C149.769 114.354 148.5 110.25 148.203 109.512C147.906 108.774 146.911 107.1 144.211 107.843C142.254 108.383 143.095 114.062 143.095 114.062L143.545 123.512C143.244 126.508 143.095 133.695 143.095 133.695C143.095 133.695 141.637 136.003 140.818 135.391C139.999 134.779 138.334 126.207 137.448 123.241C136.561 120.276 135.526 113.868 134.374 111.317C134.023 110.543 132.768 110.07 131.364 111.195C129.96 112.32 131.13 124.362 131.152 127.818C131.175 131.274 132.912 138.056 132.912 138.056C132.912 138.056 131.26 140.972 129.685 142.105C128.11 143.239 126.148 145.507 126.832 147.91C127.516 150.313 127.872 160.51 129.424 163.777C130.977 167.044 137.898 175.477 138.816 177.727C139.126 178.483 142.753 181.953 145.606 185.971C151.209 193.86 157.756 204.421 157.756 204.601" stroke="#263238" stroke-linecap="round" stroke-linejoin="round"/>
<path d="M132.908 138.078C132.908 138.078 134.024 143.609 133.983 144.536C133.983 144.536 133.007 148.806 132.998 151.573C132.314 152.616 131.701 153.703 131.162 154.827C130.784 155.826 130.109 158.283 130.388 159.651" stroke="#263238" stroke-linecap="round" stroke-linejoin="round"/>
<path d="M130.869 146.25C130.869 146.25 133.605 146.272 133.429 147.424" stroke="#263238" stroke-linecap="round" stroke-linejoin="round"/>
<path d="M132.997 151.573C132.997 151.573 131.242 150.813 130.626 151.835" stroke="#263238" stroke-linecap="round" stroke-linejoin="round"/>
<path d="M143.1 133.713C143.1 133.713 142.974 137.952 141.858 137.615" stroke="#263238" stroke-linecap="round" stroke-linejoin="round"/>
<path d="M151.974 135.9C151.974 135.9 151.65 138.218 152.523 138.933" stroke="#263238" stroke-linecap="round" stroke-linejoin="round"/>
<path d="M159.093 120.177C159.093 120.177 160.308 126.027 160.587 127.413C160.866 128.799 159.206 135.873 159.237 137.714C159.269 139.554 160.056 142.187 159.948 143.424" stroke="#263238" stroke-linecap="round" stroke-linejoin="round"/>
<path d="M163.944 164.605C163.944 164.605 163.552 168.426 164.727 170.059" stroke="#263238" stroke-linecap="round" stroke-linejoin="round"/>
<path d="M140.35 172.165C140.35 172.165 137.731 174.55 138.69 177.484" stroke="#263238" stroke-linecap="round" stroke-linejoin="round"/>
<path d="M157.563 142.43C157.603 144.113 156.618 146.074 156.514 148.401" stroke="#263238" stroke-linecap="round" stroke-linejoin="round"/>
<path d="M149.22 140.927C149.778 142.304 148.563 145.301 148.379 146.426C148.305 147.306 148.401 148.192 148.662 149.036" stroke="#263238" stroke-linecap="round" stroke-linejoin="round"/>
<path d="M164.903 145.669C164.678 147.132 163.643 148.176 163.445 152.676" stroke="#263238" stroke-linecap="round" stroke-linejoin="round"/>
<path d="M139.352 140.499C140.108 141.323 139.599 145.256 139.802 145.899" stroke="#263238" stroke-linecap="round" stroke-linejoin="round"/>
<path d="M153.45 117.842C153.45 117.842 156.024 115.956 158.238 118.179" stroke="#263238" stroke-linecap="round" stroke-linejoin="round"/>
<path d="M144.585 113.508C144.585 113.508 145.035 112.757 147.208 112.941C149.382 113.126 149.769 114.35 149.769 114.35" stroke="#263238" stroke-linecap="round" stroke-linejoin="round"/>
<path d="M138.236 126.356C138.236 126.356 137.507 125.28 135.585 125.636C133.664 125.991 132.809 128.709 132.809 128.709" fill="white"/>
<path d="M138.236 126.356C138.236 126.356 137.507 125.28 135.585 125.636C133.664 125.991 132.809 128.709 132.809 128.709" stroke="#263238" stroke-linecap="round" stroke-linejoin="round"/>
<path d="M164.344 135.81C164.344 135.81 162.742 133.488 160.816 134.483" stroke="#263238" stroke-linecap="round" stroke-linejoin="round"/>
<path opacity="0.2" d="M96.0977 118.8C98.7977 120.893 96.5207 133.736 96.5207 133.736L96.7592 137.916L101.39 135.9L103.5 144.833C103.5 144.833 103.446 148.104 105.161 149.333C105.161 149.333 105.584 156.672 105.161 162.036C104.738 167.4 96.1607 173.705 93.2042 179.334C90.2477 184.964 70.9652 201.51 70.9652 201.51L54.6392 193.743L66.4427 146.07L77.0177 132.476L83.2862 116.838C83.2862 116.838 84.3617 127.053 83.7362 133.938L96.0977 118.8Z" fill="black" fill-opacity="0.7"/>
<path d="M100.643 147.33C100.233 149.301 101.219 160.106 101.048 161.564C100.877 163.022 92.2817 172.814 91.8497 173.556C91.4177 174.299 85.6712 177.606 84.3347 179.186C78.0887 186.471 74.6777 193.181 71.9372 199.908C71.4107 201.204 70.9067 202.505 70.4117 203.81L45.6257 189.41C47.7092 186.827 49.6757 184.532 51.4757 182.444C55.0757 178.209 57.9422 174.821 59.3462 171.621C59.7771 170.804 60.2706 170.022 60.8222 169.281C61.3802 168.489 61.8797 167.837 61.8797 167.837C61.8797 167.837 60.0797 162.765 60.4982 161.172C60.9167 159.579 59.9807 146.484 59.9807 146.484C59.9807 146.484 58.7612 137.57 57.5597 135.32C57.2647 134.732 57.1311 134.077 57.1727 133.421C57.2312 131.364 58.4237 128.772 59.0087 125.771C59.7917 121.721 59.4137 119.718 61.8707 121.118C64.3277 122.517 63.1802 131.018 63.1802 131.018L66.8927 139.244C67.8692 137.255 66.8927 131.45 66.8432 130.077C66.8432 129.852 66.8432 129.479 66.8072 128.993C66.7307 126.626 66.5732 121.698 66.7757 119.754C66.7757 119.646 66.7757 119.547 66.8117 119.457C67.1132 117.45 68.1887 111.065 68.8727 110.354C69.8897 109.301 71.5052 108.414 73.0262 110.804C73.8767 112.154 73.5122 122.859 73.5122 122.859C73.5122 122.859 77.0402 118.602 78.1112 117.563C79.1822 116.523 82.4312 114.624 83.2997 116.825C84.1682 119.025 80.9642 125.825 80.9642 125.825C81.6347 127.4 81.7157 131.76 81.7157 131.76C81.7157 131.76 83.2322 137.21 84.1637 137.16H84.2042C84.4742 137.102 84.7712 136.112 85.0817 134.721C85.8467 131.315 86.6792 125.487 87.3317 124.979L87.7817 124.619C87.8023 124.593 87.8266 124.57 87.8537 124.551L88.0202 124.403C89.6132 122.985 92.9702 119.835 92.9702 119.835C92.9702 119.835 93.2087 118.328 96.1472 118.791C99.0857 119.255 94.8422 127.926 94.8422 127.926C94.2527 130.685 93.3482 137.781 93.3482 137.781C93.0737 140.733 93.2357 148.667 93.2357 148.667C93.2357 148.667 94.6262 144.05 94.5362 142.367C94.4462 140.684 97.2992 136.562 98.1362 135.5C98.9732 134.438 102.708 134.811 101.669 136.85C100.629 138.888 101.052 145.35 100.643 147.33Z" fill="white"/>
<path opacity="0.4" d="M59.3327 171.639C59.7635 170.822 60.257 170.04 60.8087 169.299C60.8087 169.299 59.3462 173.349 59.2022 175.504C59.1077 176.926 55.3637 179.388 51.4622 182.461C55.0847 178.227 57.9287 174.838 59.3327 171.639Z" fill="white"/>
<path opacity="0.4" d="M60.8086 169.299C61.3666 168.507 61.8661 167.854 61.8661 167.854C61.8661 167.854 60.0661 162.783 60.4846 161.19C60.9031 159.597 59.9671 146.502 59.9671 146.502C59.9671 146.502 58.7476 137.587 57.5461 135.337L60.3451 140.229C60.3451 140.229 60.0706 144.094 60.8671 146.214C61.6636 148.333 62.6671 154.8 62.6671 154.8C62.6671 154.8 61.4881 160.236 61.8886 162.193C62.2891 164.151 64.0936 163.44 64.0936 163.44C64.0936 163.44 64.9801 167.022 60.8086 169.299Z" fill="white"/>
<path opacity="0.4" d="M67.3382 132.475C69.2687 143.779 65.9432 140.652 64.7417 138.213C63.5402 135.774 60.7187 131.157 58.5947 132.142C57.9982 132.422 57.4985 132.874 57.1592 133.438C57.2177 131.382 58.4102 128.79 58.9952 125.788C59.7782 121.738 59.4002 119.736 61.8572 121.135C64.3142 122.535 63.1667 131.035 63.1667 131.035L66.8792 139.261C67.8557 137.272 66.8792 131.467 66.8297 130.095C66.8297 129.87 66.8297 129.496 66.7937 129.01C66.9422 130.05 67.1222 131.206 67.3382 132.475Z" fill="white"/>
<path opacity="0.4" d="M72.0632 121.307C72.0632 121.307 69.9797 118.58 68.1707 118.719C67.8601 118.736 67.5612 118.843 67.3109 119.028C67.0606 119.213 66.8698 119.467 66.7622 119.759C66.7622 119.651 66.7622 119.552 66.7982 119.462C67.0997 117.455 68.1752 111.069 68.8592 110.358C69.8762 109.305 71.4917 108.419 73.0127 110.808C73.8632 112.158 73.4987 122.864 73.4987 122.864C73.4987 122.864 77.0267 118.607 78.0977 117.567C79.1687 116.528 82.4177 114.629 83.2862 116.829C84.1547 119.03 80.9507 125.829 80.9507 125.829C81.6212 127.404 81.7022 131.765 81.7022 131.765C81.7022 131.765 83.2187 137.214 84.1502 137.165C82.0982 141.025 80.7302 132.489 80.7302 132.489C81.0362 130.725 79.9472 126.9 80.0552 125.892C80.1632 124.884 78.1652 121.32 74.7992 122.292C71.4332 123.264 73.8632 136.566 73.8632 136.566C73.1981 137.626 72.8111 138.836 72.7382 140.085C71.6987 138.802 72.7382 135.135 72.7382 135.135C71.8157 131.625 72.0632 121.307 72.0632 121.307Z" fill="white"/>
<path opacity="0.4" d="M87.75 124.605C86.3145 126.112 86.5125 129.924 85.05 134.707C85.815 131.301 86.6475 125.473 87.3 124.965L87.75 124.605Z" fill="white"/>
<path opacity="0.4" d="M100.643 147.33C100.233 149.301 101.219 160.106 101.048 161.564C100.877 163.022 92.2815 172.814 91.8495 173.556C91.4175 174.299 85.671 177.606 84.3345 179.186C78.0885 186.471 74.6775 193.181 71.937 199.908C72.9693 196.421 74.2152 193 75.6675 189.666C78.624 183.02 79.83 181.836 81.603 179.937C83.376 178.038 83.1825 174.002 83.1825 174.002C84.4911 173.686 85.8325 173.528 87.1785 173.529C89.4285 173.529 96.0885 164.034 98.379 162.369C100.67 160.704 101.079 160.704 98.379 157.032C95.679 153.36 96.444 157.622 95.634 157.482C94.824 157.343 94.383 159.116 94.383 159.116C94.0995 155.372 91.683 151.016 91.1745 149.927C90.666 148.838 92.4075 142.452 92.0475 140.675C91.6875 138.897 93.5955 128.075 93.5955 128.075C93.5955 128.075 93.357 123.921 89.595 123.908C89.0176 123.876 88.4474 124.048 87.984 124.394C89.577 122.976 92.934 119.826 92.934 119.826C92.934 119.826 93.1725 118.319 96.111 118.782C99.0495 119.246 94.806 127.917 94.806 127.917C94.2165 130.676 93.312 137.772 93.312 137.772C93.0375 140.724 93.1995 148.658 93.1995 148.658C93.1995 148.658 94.59 144.041 94.5 142.358C94.41 140.675 97.263 136.553 98.1 135.491C98.937 134.429 102.672 134.802 101.633 136.841C100.593 138.879 101.052 145.35 100.643 147.33Z" fill="white"/>
<path d="M70.4071 203.85C73.4626 195.781 76.8781 187.906 84.3346 179.208C85.6846 177.651 91.4131 174.343 91.8496 173.578C92.2861 172.813 100.881 163.039 101.048 161.586C101.214 160.132 100.233 149.323 100.643 147.352C101.052 145.381 100.575 138.883 101.61 136.858C102.645 134.833 98.9101 134.464 98.0776 135.508C97.2451 136.552 94.4011 140.71 94.4776 142.375C94.5541 144.04 93.1771 148.675 93.1771 148.675C93.1771 148.675 93.0151 140.742 93.2896 137.79C93.2896 137.79 94.1896 130.693 94.7836 127.935C94.7836 127.935 99.0226 119.259 96.0886 118.8C93.1546 118.341 92.9116 119.844 92.9116 119.844C92.9116 119.844 88.2271 124.245 87.3001 124.965C86.3731 125.685 85.1086 136.935 84.1771 137.146C83.2456 137.358 81.6886 131.746 81.6886 131.746C81.6886 131.746 81.6076 127.386 80.9371 125.811C80.9371 125.811 84.1366 119.029 83.2726 116.811C82.4086 114.592 79.1596 116.514 78.0841 117.549C77.0086 118.584 73.4851 122.845 73.4851 122.845C73.4851 122.845 73.8496 112.131 72.9991 110.79C71.4781 108.391 69.8491 109.278 68.8456 110.34C68.1616 111.051 67.0861 117.436 66.7846 119.443C66.4831 121.45 66.7846 128.686 66.8161 130.063C66.8476 131.44 67.8421 137.241 66.8656 139.23L63.1531 131.004C63.1531 131.004 64.3051 122.494 61.8436 121.104C59.3821 119.713 59.7646 121.72 58.9816 125.757C58.1986 129.793 56.3356 133.074 57.5326 135.328C58.7296 137.583 59.9536 146.493 59.9536 146.493C59.9536 146.493 60.8806 159.588 60.4711 161.181C60.0616 162.774 61.8661 167.85 61.8661 167.85C61.8661 167.85 59.7871 170.59 59.3326 171.634C57.2356 176.4 51.9301 181.611 45.6211 189.45" stroke="#263238" stroke-linecap="round" stroke-linejoin="round"/>
<path d="M73.4987 122.872C72.9761 123.645 72.7115 124.564 72.7427 125.496C72.7427 127.206 73.8632 136.566 73.8632 136.566C73.8632 136.566 73.0487 137.529 73.0082 138.366" stroke="#263238" stroke-linecap="round" stroke-linejoin="round"/>
<path d="M93.186 148.653C93.309 150.234 93.716 151.78 94.3875 153.216C95.4405 155.295 95.0985 156.442 94.7385 157.671C94.4973 158.748 94.3691 159.848 94.356 160.951" stroke="#263238" stroke-linecap="round" stroke-linejoin="round"/>
<path d="M67.275 137.398C67.275 137.398 68.058 139.882 66.6045 141.061" stroke="#263238" stroke-linecap="round" stroke-linejoin="round"/>
<path d="M84.1907 137.146C84.1907 137.146 84.3437 138.123 82.9622 138.213" stroke="#263238" stroke-linecap="round" stroke-linejoin="round"/>
<path d="M93.4695 125.896C93.4695 125.896 90.0045 122.116 87.3135 124.965" stroke="#263238" stroke-linecap="round" stroke-linejoin="round"/>
<path d="M79.4296 123.772C79.4296 123.772 77.8321 121.752 76.4461 121.873C75.0601 121.995 73.1881 122.841 72.9766 123.952" stroke="#263238" stroke-linecap="round" stroke-linejoin="round"/>
<path d="M95.0356 156.456C95.5945 157.255 96.0018 158.151 96.2371 159.097" stroke="#263238" stroke-linecap="round" stroke-linejoin="round"/>
<path d="M86.0357 141.093C84.9602 143.095 85.4731 146.493 85.0771 147.424" stroke="#263238" stroke-linecap="round" stroke-linejoin="round"/>
<path d="M74.6415 137.767C74.8935 138.919 74.097 140.796 73.9755 142.177C73.854 143.559 74.9835 145.692 74.7765 147.631" stroke="#263238" stroke-linecap="round" stroke-linejoin="round"/>
<path d="M67.338 142.483C67.338 142.483 66.3975 144.652 66.438 146.083C66.4785 147.514 66.987 150.651 66.987 150.651" stroke="#263238" stroke-linecap="round" stroke-linejoin="round"/>
<path d="M60.4216 142.38C60.4216 142.38 60.0796 144.63 60.8716 146.214C61.6636 147.798 62.4331 151.164 62.4331 151.164" stroke="#263238" stroke-linecap="round" stroke-linejoin="round"/>
<path d="M61.8662 167.85C62.281 167.735 62.6517 167.498 62.9302 167.17C63.2086 166.842 63.382 166.437 63.4277 166.009" stroke="#263238" stroke-linecap="round" stroke-linejoin="round"/>
<path d="M84.4877 174.708C84.4877 174.708 85.3472 177.889 83.7002 179.937" stroke="#263238" stroke-linecap="round" stroke-linejoin="round"/>
<path d="M57.1816 133.06C57.1816 133.06 59.6026 130.698 61.4341 132.691" stroke="#263238" stroke-linecap="round" stroke-linejoin="round"/>
<path d="M66.7981 119.462C66.7981 119.462 68.5981 117.576 70.7041 119.592" stroke="#263238" stroke-linecap="round" stroke-linejoin="round"/>
</svg>
