<svg width="310" height="310" viewBox="0 0 310 310" fill="none" xmlns="http://www.w3.org/2000/svg">
<path d="M296.156 143.121C292.907 127.23 287.203 111.718 280.42 97.4578C268.727 72.8562 249.569 52.4272 225.06 40.3C164.92 10.54 121.52 22.94 97.9603 47.12C74.4003 71.3 81.2203 112.84 55.8003 130.82C30.3803 148.8 12.4003 156.86 11.1603 189.72C9.92028 222.58 26.0403 247.38 52.0803 255.44C78.1203 263.5 117.18 289.54 195.3 274.66C273.42 259.78 292.64 218.24 297.6 188.48C300.08 173.507 299.225 158.143 296.156 143.121Z" fill="#CBCBCB"/>
<path opacity="0.7" d="M296.156 143.121C292.907 127.23 287.203 111.718 280.42 97.4578C268.727 72.8562 249.569 52.4272 225.06 40.3C164.92 10.54 121.52 22.94 97.9603 47.12C74.4003 71.3 81.2203 112.84 55.8003 130.82C30.3803 148.8 12.4003 156.86 11.1603 189.72C9.92028 222.58 26.0403 247.38 52.0803 255.44C78.1203 263.5 117.18 289.54 195.3 274.66C273.42 259.78 292.64 218.24 297.6 188.48C300.08 173.507 299.225 158.143 296.156 143.121Z" fill="white"/>
<path d="M113.039 52.4024H107.421V77.2954H113.039V52.4024Z" fill="#C9C9C9" stroke="#263238" stroke-linecap="round" stroke-linejoin="round"/>
<path d="M113.039 56.1472H107.421V58.5776H113.039V56.1472Z" fill="white" stroke="#263238" stroke-linecap="round" stroke-linejoin="round"/>
<path d="M113.039 71.5914H107.421V74.0218H113.039V71.5914Z" fill="white" stroke="#263238" stroke-linecap="round" stroke-linejoin="round"/>
<path d="M119.592 52.4024H111.73V77.2954H119.592V52.4024Z" fill="#878787" stroke="#263238" stroke-linecap="round" stroke-linejoin="round"/>
<path d="M119.034 52.4024H113.417V77.2954H119.034V52.4024Z" fill="#C9C9C9" stroke="#263238" stroke-linecap="round" stroke-linejoin="round"/>
<path d="M119.034 56.1472H113.417V58.5776H119.034V56.1472Z" fill="white" stroke="#263238" stroke-linecap="round" stroke-linejoin="round"/>
<path d="M119.034 71.5914H113.417V74.0218H119.034V71.5914Z" fill="white" stroke="#263238" stroke-linecap="round" stroke-linejoin="round"/>
<path d="M125.581 52.4024H117.72V77.2954H125.581V52.4024Z" fill="#878787" stroke="#263238" stroke-linecap="round" stroke-linejoin="round"/>
<path d="M125.023 52.4024H119.406V77.2954H125.023V52.4024Z" fill="#C9C9C9" stroke="#263238" stroke-linecap="round" stroke-linejoin="round"/>
<path d="M125.023 56.1472H119.406V58.5776H125.023V56.1472Z" fill="white" stroke="#263238" stroke-linecap="round" stroke-linejoin="round"/>
<path d="M125.023 71.5914H119.406V74.0218H125.023V71.5914Z" fill="white" stroke="#263238" stroke-linecap="round" stroke-linejoin="round"/>
<path d="M131.57 52.4024H123.709V77.2954H131.57V52.4024Z" fill="#C9C9C9" stroke="#263238" stroke-linecap="round" stroke-linejoin="round"/>
<path d="M136.692 77.5495H149.885L153.394 74.3751H136.692V77.5495Z" fill="white" stroke="#263238" stroke-linecap="round" stroke-linejoin="round"/>
<path d="M151.9 77.7108L151.479 76.9854L136.419 76.9544L136.853 77.7108H151.9Z" fill="white" stroke="#263238" stroke-linecap="round" stroke-linejoin="round"/>
<path d="M129.053 52.9207L124.19 55.7327L136.652 77.2819L141.515 74.4699L129.053 52.9207Z" fill="#C9C9C9" stroke="#263238" stroke-linecap="round" stroke-linejoin="round"/>
<path d="M130.929 56.1538L126.067 58.9658L127.283 61.0698L132.146 58.2578L130.929 56.1538Z" fill="white" stroke="#263238" stroke-linecap="round" stroke-linejoin="round"/>
<path d="M138.666 69.5219L133.803 72.3339L135.02 74.4379L139.882 71.6259L138.666 69.5219Z" fill="white" stroke="#263238" stroke-linecap="round" stroke-linejoin="round"/>
<path d="M153.308 74.5921L141.385 74.5611L128.923 53.0099L140.846 53.0409L153.308 74.5921Z" fill="#C9C9C9" stroke="#263238" stroke-linecap="round" stroke-linejoin="round"/>
<path d="M159.805 64.945C159.805 64.945 157.635 64.17 157.015 60.76C156.395 57.35 155.31 52.545 156.55 51.46C157.79 50.375 160.115 49.755 160.425 51.925C160.735 54.095 160.27 58.28 160.735 59.21C161.2 60.14 162.75 59.52 162.75 57.66C162.75 54.5972 161.51 51.46 161.95 48.36C162.57 44.0758 166.91 43.6046 167.375 48.36C167.636 50.9888 167.71 53.6734 167.71 56.3146C167.71 57.3996 169.57 58.0196 169.415 55.3846C169.303 53.5246 170.655 51.3546 172.515 51.9746C174.375 52.5946 172.825 60.8096 172.205 62.2046C171.585 63.5996 167.71 63.86 167.71 63.86V67.425L163.06 67.58L162.905 64.015C161.958 64.5623 160.897 64.8807 159.805 64.945Z" fill="#CBCBCB" stroke="#263238" stroke-linecap="round" stroke-linejoin="round"/>
<path d="M163.99 58.1497C164.046 58.9247 164.083 59.3897 164.083 59.3897" stroke="#263238" stroke-linecap="round" stroke-linejoin="round"/>
<path d="M164.3 46.128C164.3 46.128 163.283 46.8348 163.358 48.9552C163.407 50.2448 163.655 53.816 163.847 56.4262" stroke="#263238" stroke-linecap="round" stroke-linejoin="round"/>
<path d="M166.049 53.4377L166.21 58.6271" stroke="#263238" stroke-linecap="round" stroke-linejoin="round"/>
<path d="M168.318 62C167.959 62.0559 167.596 62.087 167.233 62.093" stroke="#263238" stroke-linecap="round" stroke-linejoin="round"/>
<path d="M171.554 53.2828C171.196 53.9614 171.007 54.7164 171.002 55.4838C171.002 56.7238 171.083 60.202 170.296 61.1444C170.103 61.356 169.869 61.5249 169.607 61.6404" stroke="#263238" stroke-linecap="round" stroke-linejoin="round"/>
<path d="M158.1 60.2577C158.287 61.1899 158.734 62.0499 159.39 62.7377C159.778 63.0483 160.257 63.2236 160.754 63.237C161.251 63.2505 161.738 63.1012 162.143 62.8121" stroke="#263238" stroke-linecap="round" stroke-linejoin="round"/>
<path d="M157.952 51.8693C157.952 51.8693 156.383 51.8693 156.928 54.6159C157.164 55.7753 157.381 57.2013 157.66 58.5467" stroke="#263238" stroke-linecap="round" stroke-linejoin="round"/>
<path d="M163.847 62.3223L164.164 65.7013" stroke="#263238" stroke-linecap="round" stroke-linejoin="round"/>
<path d="M171.895 66.0299L171.331 70.6551L170.946 73.8047L170.5 77.4689H159.346L158.9 73.8047L158.515 70.6551L157.951 66.0299H171.895Z" fill="white" stroke="#263238" stroke-linecap="round" stroke-linejoin="round"/>
<path d="M171.331 70.6551L170.947 73.8047H158.9L158.516 70.6551H171.331Z" fill="#CBCBCB" stroke="#263238" stroke-linecap="round" stroke-linejoin="round"/>
<path d="M178.021 77.469H106.429V82.212H178.021V77.469Z" fill="white" stroke="#263238" stroke-linecap="round" stroke-linejoin="round"/>
<path d="M178.021 77.469H161.516V82.212H178.021V77.469Z" fill="white" stroke="#263238" stroke-linecap="round" stroke-linejoin="round"/>
<path d="M159.911 82.2306C167.58 85.0578 166.197 90.4022 166.197 90.4022H173.458V82.2306H159.911Z" fill="#919191" stroke="#263238" stroke-linecap="round" stroke-linejoin="round"/>
<path d="M162.36 82.2306C170.023 85.0578 168.64 90.4022 168.64 90.4022H175.907V82.2306H162.36Z" fill="white" stroke="#263238" stroke-linecap="round" stroke-linejoin="round"/>
<path d="M110.775 82.2307C118.445 85.0579 117.062 90.4022 117.062 90.4022H124.322V82.2307H110.775Z" fill="#919191" stroke="#263238" stroke-linecap="round" stroke-linejoin="round"/>
<path d="M113.225 82.2307C120.888 85.0579 119.505 90.4022 119.505 90.4022H126.772V82.2307H113.225Z" fill="white" stroke="#263238" stroke-linecap="round" stroke-linejoin="round"/>
<path d="M277.785 53.2891H213.578V142.42H277.785V53.2891Z" fill="#919191" stroke="#263238" stroke-linecap="round" stroke-linejoin="round"/>
<path d="M275.001 57.1579H216.368V138.551H275.001V57.1579Z" fill="#CBCBCB"/>
<path opacity="0.5" d="M275.001 57.1579H216.368V138.551H275.001V57.1579Z" fill="white"/>
<path d="M229.257 132.37C227.685 134.768 225.699 136.867 223.392 138.57H275.001V57.1578H265.49L264.25 57.5484C254.95 60.481 245.34 68.9688 239.89 84.3944" stroke="#263238" stroke-linecap="round" stroke-linejoin="round"/>
<path d="M238.985 87.0977C236.82 94.4542 235.624 102.062 235.426 109.728C235.085 118.928 233.126 125.544 230.51 130.299" stroke="#263238" stroke-linecap="round" stroke-linejoin="round"/>
<path d="M269.266 77.8163C260.741 82.7763 250.815 91.1091 247.107 103.887C245.117 110.707 246.983 116.858 250.672 122.121" stroke="#263238" stroke-linecap="round" stroke-linejoin="round"/>
<path d="M252.669 124.688C257.784 130.677 265.069 135.389 270.965 138.558H275.001V74.8093C273.848 75.3487 272.62 75.9563 271.343 76.6693" stroke="#263238" stroke-linecap="round" stroke-linejoin="round"/>
<path d="M226.114 78.3804C230.603 69.2292 231.074 61.969 230.559 57.1578H216.38V94.395C218.476 91.4128 221.043 87.4262 224.143 82.0818C224.335 81.7532 224.515 81.4618 224.694 81.1146" stroke="#263238" stroke-linecap="round" stroke-linejoin="round"/>
<path d="M231.669 113.628C230.981 118.135 228.91 121.409 226.468 121.409C223.461 121.409 221.018 116.449 221.018 110.311C221.018 104.173 223.461 99.2125 226.468 99.2125C229.475 99.2125 231.917 104.173 231.917 110.311" stroke="#263238" stroke-linecap="round" stroke-linejoin="round"/>
<path d="M234.255 87.5316C234.255 89.8938 233.213 91.8158 231.917 91.8158C230.621 91.8158 229.586 89.8938 229.586 87.5316C229.586 85.1694 230.628 83.2474 231.917 83.2474C233.207 83.2474 234.255 85.1632 234.255 87.5316Z" stroke="#263238" stroke-linecap="round" stroke-linejoin="round"/>
<path d="M264.002 105.629C266.253 106.702 267.722 108.574 267.722 110.701C267.722 114.03 264.064 116.734 259.544 116.734C255.025 116.734 251.373 114.03 251.373 110.701C251.373 107.372 255.031 104.662 259.544 104.662C260.265 104.662 260.983 104.732 261.69 104.873" stroke="#263238" stroke-linecap="round" stroke-linejoin="round"/>
<path d="M262.992 110.701C262.992 112.096 261.46 113.231 259.563 113.231C257.666 113.231 256.135 112.096 256.135 110.701C256.135 109.306 257.672 108.165 259.563 108.165C261.454 108.165 262.992 109.3 262.992 110.701Z" stroke="#263238" stroke-linecap="round" stroke-linejoin="round"/>
<path d="M268.522 95.3188C268.522 97.2532 266.606 98.8218 264.238 98.8218C261.869 98.8218 259.953 97.2532 259.953 95.3188C259.953 93.3844 261.869 91.8158 264.238 91.8158C266.606 91.8158 268.522 93.3844 268.522 95.3188Z" stroke="#263238" stroke-linecap="round" stroke-linejoin="round"/>
<path d="M237.565 75.8507C239.178 75.8507 240.486 72.6252 240.486 68.6464C240.486 64.6675 239.178 61.442 237.565 61.442C235.953 61.442 234.645 64.6675 234.645 68.6464C234.645 72.6252 235.953 75.8507 237.565 75.8507Z" stroke="#263238" stroke-linecap="round" stroke-linejoin="round"/>
<path d="M245.551 130.56C245.551 131.369 245.311 132.16 244.862 132.833C244.412 133.506 243.773 134.031 243.025 134.34C242.277 134.65 241.455 134.731 240.661 134.573C239.867 134.415 239.138 134.026 238.566 133.453C237.993 132.881 237.604 132.152 237.446 131.358C237.288 130.564 237.369 129.742 237.679 128.994C237.988 128.246 238.513 127.607 239.186 127.157C239.859 126.708 240.65 126.468 241.459 126.468C242.544 126.468 243.585 126.899 244.353 127.666C245.12 128.434 245.551 129.475 245.551 130.56Z" stroke="#263238" stroke-linecap="round" stroke-linejoin="round"/>
<path d="M264.629 69.8121C264.63 70.3141 264.482 70.8053 264.204 71.2232C263.926 71.6412 263.53 71.9672 263.066 72.1599C262.602 72.3526 262.092 72.4033 261.6 72.3056C261.107 72.208 260.655 71.9664 260.3 71.6114C259.945 71.2563 259.703 70.8039 259.605 70.3115C259.508 69.819 259.558 69.3086 259.751 68.845C259.944 68.3814 260.27 67.9854 260.688 67.7073C261.106 67.4291 261.597 67.2813 262.099 67.2825C262.769 67.2841 263.412 67.5512 263.886 68.0252C264.36 68.4992 264.627 69.1417 264.629 69.8121Z" stroke="#263238" stroke-linecap="round" stroke-linejoin="round"/>
<path d="M248.664 87.7239C248.665 87.9939 248.586 88.2583 248.437 88.4834C248.288 88.7085 248.075 88.8843 247.826 88.9885C247.577 89.0927 247.302 89.1206 247.037 89.0686C246.772 89.0167 246.529 88.8873 246.337 88.6968C246.146 88.5063 246.015 88.2633 245.962 87.9985C245.909 87.7337 245.936 87.4592 246.039 87.2096C246.142 86.96 246.317 86.7466 246.541 86.5964C246.766 86.4463 247.029 86.3661 247.3 86.3661C247.478 86.3653 247.656 86.3998 247.821 86.4677C247.986 86.5355 248.137 86.6354 248.264 86.7616C248.39 86.8878 248.491 87.0377 248.56 87.2029C248.628 87.368 248.664 87.5451 248.664 87.7239V87.7239Z" stroke="#263238" stroke-linecap="round" stroke-linejoin="round"/>
<path d="M275.001 57.1579H216.368V138.551H275.001V57.1579Z" stroke="#263238" stroke-linecap="round" stroke-linejoin="round"/>
<path d="M179.174 173.222H163.246V179.217H179.174V173.222Z" fill="#263238" stroke="#263238" stroke-linecap="round" stroke-linejoin="round"/>
<path d="M200.545 174.127H137.15L140.151 124.986H203.552L200.545 174.127Z" fill="#919191" stroke="#263238" stroke-linecap="round" stroke-linejoin="round"/>
<path d="M198.729 174.127H135.334L138.335 124.986H201.73L198.729 174.127Z" fill="#263238" stroke="#263238" stroke-linecap="round" stroke-linejoin="round"/>
<path d="M195.375 171.393H139.023L141.689 127.714H198.041L195.375 171.393Z" fill="white" stroke="#263238" stroke-linecap="round" stroke-linejoin="round"/>
<path d="M178.982 164.883H140.703L142.755 131.223H181.04L178.982 164.883Z" fill="#919191" stroke="#263238" stroke-linecap="round" stroke-linejoin="round"/>
<path d="M155.806 150.425C155.806 150.425 147.833 153.58 147.783 154.43C147.734 155.279 146.171 164.883 146.171 164.883H169.88L167.884 153.822L159.111 150.177L155.806 150.425Z" fill="white" stroke="#263238" stroke-linecap="round" stroke-linejoin="round"/>
<path d="M156.042 148.478C155.442 148.636 154.885 148.926 154.411 149.327C153.791 149.947 153.035 151.999 153.035 151.999L153.004 154.43L156.147 152.731L159.34 152.52L162.329 155.316L162.713 151.063C162.713 151.063 162.254 148.633 161.287 148.509C160.32 148.385 156.042 148.478 156.042 148.478Z" fill="white" stroke="#263238" stroke-linecap="round" stroke-linejoin="round"/>
<path d="M155.943 146.171L155.806 150.424L157.685 153.462L160.791 150.3L161.275 146.413L155.943 146.171Z" fill="white" stroke="#263238" stroke-linecap="round" stroke-linejoin="round"/>
<path d="M163.606 141.199C163.383 144.764 161.014 149.085 158.417 149.085C155.819 149.085 153.977 144.745 154.194 141.199C154.411 137.652 156.674 134.745 159.291 134.745C161.907 134.745 163.823 137.64 163.606 141.199Z" fill="white" stroke="#263238" stroke-linecap="round" stroke-linejoin="round"/>
<path d="M154.151 141.67C154.151 141.67 153.314 139.488 152.967 141.186C152.619 142.885 154.331 144.708 154.331 144.708L154.151 141.67Z" fill="white" stroke="#263238" stroke-linecap="round" stroke-linejoin="round"/>
<path d="M163.606 141.199C163.606 141.199 165.658 140.337 165.057 142.16C164.904 142.676 164.638 143.151 164.277 143.55C163.917 143.949 163.471 144.262 162.974 144.466L163.606 141.199Z" fill="white" stroke="#263238" stroke-linecap="round" stroke-linejoin="round"/>
<path d="M158.162 141.67C158.178 141.451 158.149 141.231 158.076 141.024C158.003 140.817 157.887 140.628 157.737 140.468C157.586 140.308 157.404 140.182 157.202 140.096C157 140.011 156.782 139.968 156.562 139.971C156.106 139.983 155.669 140.163 155.336 140.476C155.003 140.79 154.798 141.215 154.758 141.67C154.742 141.889 154.771 142.109 154.845 142.317C154.918 142.524 155.033 142.714 155.184 142.874C155.334 143.034 155.516 143.161 155.718 143.248C155.92 143.334 156.138 143.377 156.358 143.375C156.816 143.363 157.253 143.182 157.586 142.867C157.919 142.553 158.124 142.126 158.162 141.67Z" fill="white" stroke="#263238" stroke-linecap="round" stroke-linejoin="round"/>
<path d="M162.292 141.67L164.145 141.187" stroke="#263238" stroke-linecap="round" stroke-linejoin="round"/>
<path d="M162.291 141.67C162.308 141.452 162.278 141.232 162.205 141.026C162.133 140.819 162.018 140.63 161.868 140.471C161.718 140.311 161.537 140.184 161.335 140.098C161.134 140.012 160.917 139.969 160.698 139.971C160.24 139.982 159.802 140.161 159.468 140.474C159.134 140.788 158.927 141.214 158.887 141.67C158.871 141.889 158.9 142.109 158.974 142.317C159.047 142.524 159.162 142.714 159.313 142.874C159.463 143.034 159.645 143.162 159.847 143.248C160.049 143.334 160.267 143.377 160.487 143.375C160.945 143.363 161.382 143.182 161.715 142.868C162.048 142.553 162.253 142.127 162.291 141.67Z" fill="white" stroke="#263238" stroke-linecap="round" stroke-linejoin="round"/>
<path d="M158.869 134.013C158.869 134.013 157.009 133.046 155.614 133.653C154.219 134.261 153.19 137.541 153.258 138.39C153.477 139.503 153.775 140.599 154.151 141.67L155.626 137.417L159.495 135.718L158.869 134.013Z" fill="#263238" stroke="#263238" stroke-linecap="round" stroke-linejoin="round"/>
<path d="M156.997 134.869C156.997 134.869 160.059 132.438 162.539 133.629C163.298 133.959 163.926 134.532 164.322 135.259C164.719 135.985 164.861 136.823 164.728 137.64C164.691 138.26 164.641 141.038 164.641 141.038L163.166 141.286L162.44 138.998C161.602 138.666 160.786 138.281 159.997 137.845C159.997 137.845 156.718 137.417 156.997 134.869Z" fill="#263238" stroke="#263238" stroke-linecap="round" stroke-linejoin="round"/>
<path d="M158.162 141.67L157.945 145.198H158.794" fill="white"/>
<path d="M158.162 141.67L157.945 145.198H158.794" stroke="#263238" stroke-linecap="round" stroke-linejoin="round"/>
<path d="M157.499 146.531H159.322" stroke="#263238" stroke-linecap="round" stroke-linejoin="round"/>
<path d="M157.685 153.463L157.009 164.517" stroke="#263238" stroke-linecap="round" stroke-linejoin="round"/>
<path d="M167.871 153.822C167.871 153.822 165.336 159.538 165.261 160.754C165.187 161.969 164.902 164.641 164.902 164.641" stroke="#263238" stroke-linecap="round" stroke-linejoin="round"/>
<path d="M147.783 154.43C147.783 154.43 150.307 158.807 150.635 159.39C150.964 159.972 150.561 164.616 150.561 164.616" stroke="#263238" stroke-linecap="round" stroke-linejoin="round"/>
<path d="M169.564 157.957L170.401 154.188L171.827 152.731L173.172 150.542H173.78L173.036 152.855L174.921 151.757L176.136 149.817L176.843 150.176L175.107 154.678L172.354 156.011L171.877 157.833L169.564 157.957Z" fill="white" stroke="#263238" stroke-linecap="round" stroke-linejoin="round"/>
<path d="M171.92 164.883L172.15 157.35L169.385 156.86L167.202 164.883H171.92Z" fill="white" stroke="#263238" stroke-linecap="round" stroke-linejoin="round"/>
<path d="M178.815 167.679H140.53L140.703 164.883H178.982L178.815 167.679Z" fill="white" stroke="#263238" stroke-linecap="round" stroke-linejoin="round"/>
<path d="M142.092 165.98H177.215" stroke="#263238" stroke-linecap="round" stroke-linejoin="round"/>
<path d="M195.437 140.207H182.553L183.099 131.335H195.982L195.437 140.207Z" fill="#CBCBCB" stroke="#263238" stroke-linecap="round" stroke-linejoin="round"/>
<path d="M195.437 140.207H182.553L182.646 138.75H195.53L195.437 140.207Z" fill="white" stroke="#263238" stroke-linecap="round" stroke-linejoin="round"/>
<path d="M191.276 135.253L187.928 133.251L187.687 137.256L191.276 135.253Z" fill="white" stroke="#263238" stroke-linecap="round" stroke-linejoin="round"/>
<path d="M194.6 153.94H181.716L182.255 145.074H195.139L194.6 153.94Z" fill="#CBCBCB" stroke="#263238" stroke-linecap="round" stroke-linejoin="round"/>
<path d="M194.6 153.94H181.716L181.809 152.483H194.686L194.6 153.94Z" fill="white" stroke="#263238" stroke-linecap="round" stroke-linejoin="round"/>
<path d="M190.439 148.992L187.091 146.99L186.85 150.995L190.439 148.992Z" fill="white" stroke="#263238" stroke-linecap="round" stroke-linejoin="round"/>
<path d="M193.757 167.679H180.879L181.419 158.807H194.302L193.757 167.679Z" fill="#CBCBCB" stroke="#263238" stroke-linecap="round" stroke-linejoin="round"/>
<path d="M193.757 167.679H180.879L180.966 166.222H193.85L193.757 167.679Z" fill="white" stroke="#263238" stroke-linecap="round" stroke-linejoin="round"/>
<path d="M189.596 162.725L186.254 160.723L186.006 164.728L189.596 162.725Z" fill="white" stroke="#263238" stroke-linecap="round" stroke-linejoin="round"/>
<path d="M182.59 141.67H195.102" stroke="#263238" stroke-linecap="round" stroke-linejoin="round"/>
<path d="M182.497 143.133H195.015" stroke="#263238" stroke-linecap="round" stroke-linejoin="round"/>
<path d="M181.741 155.527H194.259" stroke="#263238" stroke-linecap="round" stroke-linejoin="round"/>
<path d="M181.654 156.984H194.172" stroke="#263238" stroke-linecap="round" stroke-linejoin="round"/>
<path d="M176.192 179.217H166.781C166.781 178.279 167.154 177.378 167.817 176.714C168.481 176.05 169.382 175.677 170.321 175.677H172.64C173.578 175.677 174.479 176.05 175.143 176.714C175.807 177.378 176.18 178.279 176.18 179.217H176.192Z" fill="white" stroke="#263238" stroke-linecap="round" stroke-linejoin="round"/>
<path d="M162.298 177.289H116.281V179.217H162.298V177.289Z" fill="#919191" stroke="#263238" stroke-linecap="round" stroke-linejoin="round"/>
<path d="M162.285 177.289H150.722V179.217H162.285V177.289Z" fill="white" stroke="#263238" stroke-linecap="round" stroke-linejoin="round"/>
<path d="M97.4209 84.7107V48.0749" stroke="#263238" stroke-linecap="round" stroke-linejoin="round"/>
<path d="M97.4209 268.063V88.3563" stroke="#263238" stroke-linecap="round" stroke-linejoin="round"/>
<path d="M181.083 192.076L186.663 267.301C186.692 267.575 186.825 267.828 187.034 268.009C187.243 268.189 187.513 268.283 187.789 268.271C188.064 268.259 188.325 268.142 188.518 267.945C188.711 267.747 188.821 267.484 188.827 267.208L187.99 192.076H181.083Z" fill="#919191" stroke="#263238" stroke-linecap="round" stroke-linejoin="round"/>
<path d="M185.293 192.076L188.238 268.169C188.412 268.076 188.557 267.937 188.657 267.768C188.758 267.598 188.81 267.405 188.808 267.208L187.99 192.076H185.293Z" fill="white" stroke="#263238" stroke-linecap="round" stroke-linejoin="round"/>
<path d="M216.157 192.076L221.737 267.301C221.766 267.575 221.898 267.828 222.107 268.009C222.317 268.189 222.587 268.283 222.862 268.271C223.138 268.259 223.399 268.142 223.592 267.945C223.785 267.747 223.895 267.484 223.901 267.208L223.064 192.076H216.157Z" fill="#919191" stroke="#263238" stroke-linecap="round" stroke-linejoin="round"/>
<path d="M220.038 192.076L223.473 268.057C223.601 267.956 223.705 267.827 223.776 267.68C223.847 267.533 223.883 267.371 223.882 267.208L223.063 192.076H220.038Z" fill="white" stroke="#263238" stroke-linecap="round" stroke-linejoin="round"/>
<path d="M123.702 192.895L118.122 267.295C118.103 267.568 117.981 267.823 117.781 268.01C117.581 268.196 117.317 268.3 117.043 268.299C116.9 268.302 116.757 268.275 116.624 268.222C116.49 268.169 116.369 268.09 116.266 267.99C116.164 267.89 116.082 267.77 116.026 267.638C115.97 267.506 115.94 267.364 115.94 267.22L116.764 192.696L123.702 192.895Z" fill="#263238" stroke="#263238" stroke-linecap="round" stroke-linejoin="round"/>
<path d="M88.6598 192.894L83.0798 267.295C83.0609 267.568 82.939 267.823 82.7387 268.01C82.5384 268.196 82.2747 268.3 82.001 268.299C81.858 268.298 81.7165 268.269 81.5848 268.213C81.4531 268.158 81.3336 268.077 81.2334 267.975C81.1331 267.873 81.054 267.752 81.0006 267.619C80.9472 267.486 80.9206 267.345 80.9222 267.202L81.7468 192.677L88.6598 192.894Z" fill="#263238" stroke="#263238" stroke-linecap="round" stroke-linejoin="round"/>
<path d="M225.116 180.966H79.645V192.684H225.116V180.966Z" fill="#919191" stroke="#263238" stroke-linecap="round" stroke-linejoin="round"/>
<path d="M225.116 180.966H183.427V192.684H225.116V180.966Z" fill="white" stroke="#263238" stroke-linecap="round" stroke-linejoin="round"/>
<path d="M225.116 182.826H79.645V186.056H225.116V182.826Z" fill="#263238" stroke="#263238" stroke-linecap="round" stroke-linejoin="round"/>
<path d="M227.211 179.286H77.5493V183.204H227.211V179.286Z" fill="#919191" stroke="#263238" stroke-linecap="round" stroke-linejoin="round"/>
<path d="M227.205 179.286H186.105V183.204H227.205V179.286Z" fill="white" stroke="#263238" stroke-linecap="round" stroke-linejoin="round"/>
<path d="M183.08 106.64H162.88C161.828 106.64 160.819 107.058 160.075 107.802C159.33 108.546 158.912 109.556 158.912 110.608V118.048C158.912 118.569 159.014 119.086 159.213 119.567C159.412 120.049 159.704 120.487 160.073 120.856C160.441 121.224 160.879 121.516 161.361 121.716C161.843 121.915 162.359 122.017 162.88 122.016H173.458L169.496 133.083L177.085 122.016H183.08C183.601 122.017 184.118 121.915 184.599 121.716C185.081 121.516 185.519 121.224 185.888 120.856C186.256 120.487 186.548 120.049 186.748 119.567C186.947 119.086 187.049 118.569 187.048 118.048V110.608C187.048 109.556 186.63 108.546 185.886 107.802C185.142 107.058 184.132 106.64 183.08 106.64Z" fill="white" stroke="#263238" stroke-linecap="round" stroke-linejoin="round"/>
<path d="M167.567 116.021C168.365 116.021 169.012 115.374 169.012 114.576C169.012 113.778 168.365 113.131 167.567 113.131C166.77 113.131 166.123 113.778 166.123 114.576C166.123 115.374 166.77 116.021 167.567 116.021Z" fill="#263238"/>
<path d="M172.98 116.021C173.778 116.021 174.425 115.374 174.425 114.576C174.425 113.778 173.778 113.131 172.98 113.131C172.182 113.131 171.536 113.778 171.536 114.576C171.536 115.374 172.182 116.021 172.98 116.021Z" fill="#263238"/>
<path d="M179.831 114.576C179.831 114.29 179.746 114.01 179.587 113.773C179.428 113.535 179.202 113.35 178.938 113.241C178.674 113.132 178.383 113.103 178.102 113.16C177.822 113.216 177.565 113.354 177.363 113.557C177.161 113.759 177.024 114.017 176.969 114.298C176.914 114.579 176.943 114.869 177.054 115.133C177.164 115.397 177.35 115.622 177.588 115.78C177.827 115.938 178.107 116.022 178.393 116.021C178.582 116.021 178.77 115.983 178.945 115.91C179.12 115.838 179.278 115.731 179.412 115.597C179.546 115.463 179.651 115.304 179.723 115.128C179.795 114.953 179.832 114.765 179.831 114.576Z" fill="#263238"/>
<path d="M279 268.46H295.74" stroke="#263238" stroke-linecap="round" stroke-linejoin="round"/>
<path d="M14.8799 268.46H270.32" stroke="#263238" stroke-linecap="round" stroke-linejoin="round"/>
<path d="M113.237 158.894C111.42 155.794 106.076 143.859 106.076 143.859C106.237 142.584 106.498 141.323 106.857 140.089C107.297 138.849 108.407 135.092 108.184 134.311C107.961 133.529 104.743 132.091 104.414 131.979C104.086 131.868 104.854 129.983 103.633 129.537C102.412 129.09 101.971 129.76 101.971 129.76L101.506 132.86L100.08 135.092C99.4867 134.641 98.8655 134.226 98.2205 133.852C97.2223 133.294 94.8911 133.071 94.7795 133.963C94.6679 134.856 96.6395 135.625 97.3277 136.183C98.0159 136.741 98.8839 139.401 99.6651 140.182C100.375 140.957 101.041 141.77 101.661 142.619L102.108 144.063C102.108 144.063 103.627 158.689 103.807 162.328C103.986 165.968 104.532 175.596 105.623 177.047C106.714 178.498 106.9 179.416 109.963 178.324C113.026 177.233 113.596 175.776 114.303 172.503C115.01 169.229 115.053 161.981 113.237 158.894Z" fill="white" stroke="#263238" stroke-linecap="round" stroke-linejoin="round"/>
<path d="M114.328 172.521C115.053 169.254 115.053 161.981 113.237 158.881C113.038 158.54 112.797 158.1 112.524 157.579C108.413 156.383 104.507 158.336 104.507 158.336L103.515 158.77C103.645 160.289 103.745 161.56 103.782 162.335C103.968 165.968 104.507 175.603 105.598 177.053C106.69 178.504 106.876 179.422 109.938 178.331C113.001 177.239 113.596 175.795 114.328 172.521Z" fill="#CBCBCB" stroke="#263238" stroke-linecap="round" stroke-linejoin="round"/>
<path d="M99.9812 109.74C100.429 111.385 100.679 113.077 100.725 114.781C100.725 117.205 99.9812 118.699 101.103 119.443C102.226 120.187 103.156 120.193 102.963 121.687C102.89 122.512 102.563 123.294 102.027 123.926C102.027 123.926 101.655 131.576 101.283 132.327C100.911 133.077 96.0566 132.141 94.9344 131.948C93.8122 131.756 90.644 133.257 88.5856 129.152C86.5272 125.048 88.2136 118.885 91.946 115.711C94.5133 113.575 97.1957 111.582 99.9812 109.74Z" fill="white" stroke="#263238" stroke-linecap="round" stroke-linejoin="round"/>
<path d="M100.725 114.75C100.725 114.75 99.7146 113.993 99.1814 115.32" stroke="#263238" stroke-linecap="round" stroke-linejoin="round"/>
<path d="M99.82 117.837C99.6749 118.589 99.7218 119.365 99.9564 120.094" stroke="#263238" stroke-linecap="round" stroke-linejoin="round"/>
<path d="M101.68 126.604C101.514 126.657 101.339 126.675 101.166 126.656C100.993 126.637 100.826 126.582 100.676 126.494C100.525 126.407 100.395 126.288 100.294 126.147C100.192 126.006 100.122 125.844 100.086 125.674" stroke="#263238" stroke-linecap="round" stroke-linejoin="round"/>
<path d="M103.794 161.696C103.794 161.696 103.174 164.536 102.623 166.036C102.071 167.536 92.1755 170.289 87.8665 170.86C85.028 171.214 82.1711 171.402 79.3105 171.424L79.5833 179.273C79.5833 179.273 87.9286 179.44 88.5176 179.273C89.1066 179.106 103.156 172.825 103.156 172.825L109.219 172.031C109.219 172.031 111.768 171.411 111.867 169.434C111.966 167.456 109.715 161.832 108.692 160.958C107.669 160.084 105.512 157.765 104.216 159.191C102.92 160.617 103.794 161.696 103.794 161.696Z" fill="white" stroke="#263238" stroke-linecap="round" stroke-linejoin="round"/>
<path d="M85.1881 175.788C85.1881 172.397 86.0561 172.31 87.0481 170.965C84.4848 171.251 81.9083 171.404 79.3291 171.424L79.1245 178.628C79.1245 178.628 83.6939 179.05 86.4777 179.248C86.2483 179.601 85.1881 177.971 85.1881 175.788Z" fill="#CBCBCB" stroke="#263238" stroke-linecap="round" stroke-linejoin="round"/>
<path d="M112.133 191.041C108.832 187.331 104.635 184.528 99.9438 182.9L89.0566 187.544C88.2111 185.468 87.0891 183.516 85.721 181.741L83.6874 179.261L84.9956 172.149C84.9956 172.149 92.8324 166.78 93.843 164.455L93.8802 164.381C95.455 166.817 102.287 177.363 103.571 178.386C105.022 179.552 109.374 179.695 111.259 177.952C113.144 176.21 114.018 175.051 113.584 172.441C113.584 172.441 110.682 166.197 109.083 163.438C107.483 160.679 104.005 150.815 102.263 147.765C101.023 145.582 100.508 144.045 99.6276 143.015C99.0164 141.962 98.2952 140.977 97.4762 140.077C95.734 138.217 90.9414 137.752 89.9246 137.318C88.9078 136.884 88.7652 136.735 82.962 134.999C77.1588 133.263 70.624 132.24 65.9802 135.867C65.9802 135.867 59.743 143.27 57.3002 155.459C54.8574 167.648 54.6838 179.986 54.3986 182.162C54.1134 184.338 51.6396 194.934 50.9142 201.029C50.1888 207.123 56.55 213.243 60.4684 215.14C64.3868 217.037 81.2198 217.316 91.0902 215.14C100.961 212.964 116.634 203.093 116.634 203.093C116.634 203.093 117.211 196.993 112.133 191.041Z" fill="#CBCBCB" stroke="#263238" stroke-linecap="round" stroke-linejoin="round"/>
<path d="M86.4714 164.226L84.4812 164.157" stroke="#263238" stroke-linecap="round" stroke-linejoin="round"/>
<path d="M85.7209 161.057C88.5088 161.997 91.2236 163.14 93.843 164.48L88.7342 164.306" stroke="#263238" stroke-linecap="round" stroke-linejoin="round"/>
<path d="M112.685 164.721C113.258 165.621 113.61 166.643 113.714 167.704C113.714 169.074 113.944 170.909 113.373 170.339C112.803 169.768 112.567 167.815 112.567 167.815L112.685 164.721Z" fill="white" stroke="#263238" stroke-linecap="round" stroke-linejoin="round"/>
<path d="M109.25 163.122C109.25 163.122 111.395 161.956 112.35 163.358C113.305 164.759 113.051 167.555 112.35 168.938C111.649 170.32 110.85 169 110.949 167.772C111.048 166.544 109.25 163.122 109.25 163.122Z" fill="white" stroke="#263238" stroke-linecap="round" stroke-linejoin="round"/>
<path d="M108.444 161.634C108.444 161.634 110.596 160.468 111.544 161.87C112.493 163.271 112.239 166.061 111.544 167.45C110.85 168.838 110.044 167.512 110.143 166.284C110.242 165.056 108.444 161.634 108.444 161.634Z" fill="white" stroke="#263238" stroke-linecap="round" stroke-linejoin="round"/>
<path d="M107.458 160.028C107.458 160.028 109.61 158.863 110.558 160.264C111.507 161.665 111.259 164.461 110.558 165.844C109.858 167.226 109.058 165.906 109.157 164.678C109.256 163.451 107.458 160.028 107.458 160.028Z" fill="white" stroke="#263238" stroke-linecap="round" stroke-linejoin="round"/>
<path d="M102.015 103.918C102.05 106.146 101.476 108.342 100.353 110.267C97.1786 115.122 94.1964 114.557 92.913 118.482C91.6296 122.407 89.7138 126.48 91.7598 128.749C93.8058 131.018 95.4798 129.679 95.4798 129.679C95.4798 129.679 96.788 133.04 93.4276 136.4C90.0672 139.76 84.2826 138.452 82.7884 137.894C81.8475 137.532 80.9673 137.028 80.1782 136.4C80.1782 136.4 79.242 139.016 74.5982 139.016C69.9544 139.016 64.6782 135.842 64.6782 130.051C64.6782 124.26 67.8464 120.348 68.5966 118.104C69.3468 115.859 67.2884 108.959 70.4566 104.668C73.6248 100.378 78.5166 97.2284 82.2366 97.2284C85.9566 97.2284 93.2168 99.2682 93.2478 99.2806C93.7376 99.5472 96.8748 98.27 97.7242 98.3258C100.843 98.4994 101.977 101.06 102.015 103.918Z" fill="#263238" stroke="#263238" stroke-linecap="round" stroke-linejoin="round"/>
<path d="M89.8999 130.473C90.5768 130.563 91.2628 130.563 91.9397 130.473" stroke="#919191" stroke-linecap="round" stroke-linejoin="round"/>
<path d="M99.3241 107.173C99.0297 108.835 98.4171 110.425 97.5199 111.854C94.6183 116.411 91.3199 118.054 87.3705 122.394C84.8347 125.203 85.3121 128.005 87.3705 129.475" stroke="#919191" stroke-linecap="round" stroke-linejoin="round"/>
<path d="M99.3796 102.331C99.5005 103.015 99.5607 103.708 99.5595 104.402" stroke="#919191" stroke-linecap="round" stroke-linejoin="round"/>
<path d="M95.48 106.677C95.48 106.677 94.86 113.094 92.1692 116.82C89.4784 120.547 84.1092 122.4 84.3014 126.344" stroke="#919191" stroke-linecap="round" stroke-linejoin="round"/>
<path d="M120.466 214.092C120.466 214.092 124.334 233.969 127.645 243.629C130.956 253.289 134.267 262.124 135.085 262.954C135.904 263.785 138.123 266.817 138.123 266.817C137.097 267.636 135.844 268.119 134.533 268.2C132.599 268.2 130.119 265.72 127.906 264.331C125.692 262.942 125.426 262.124 121.005 260.468C116.584 258.813 120.18 254.398 121.284 252.185C121.922 250.99 122.298 249.674 122.388 248.322C120.633 242.105 117.522 236.354 113.28 231.483C106.392 223.758 105.009 205.84 105.009 205.84L118.258 200.88L120.466 214.092Z" fill="white" stroke="#263238" stroke-linecap="round" stroke-linejoin="round"/>
<path d="M134.54 261.962L133.74 262.124C133.74 262.124 129.047 255.775 125.463 253.568C124.242 252.724 122.805 252.247 121.322 252.191C120.212 254.398 116.628 258.813 121.043 260.468C125.457 262.124 125.736 262.948 127.943 264.331C130.151 265.713 132.637 268.2 134.571 268.2C135.882 268.119 137.135 267.636 138.161 266.817C138.161 266.817 135.948 263.779 135.123 262.954C134.888 262.649 134.692 262.316 134.54 261.962Z" fill="#CBCBCB" stroke="#263238" stroke-linecap="round" stroke-linejoin="round"/>
<path d="M132.314 267.412C130.132 265.906 128.16 262.558 124.608 260.468C121.377 258.571 119.716 258.497 119.028 258.639C119.196 259.082 119.467 259.479 119.819 259.796C120.17 260.114 120.591 260.345 121.049 260.468C125.469 262.124 125.742 262.948 127.949 264.331C129.344 265.224 130.882 266.6 132.314 267.412Z" fill="#CBCBCB" stroke="#263238" stroke-linecap="round" stroke-linejoin="round"/>
<path d="M134.54 268.2C134.399 268.194 134.258 268.18 134.118 268.156C134.257 268.183 134.398 268.197 134.54 268.2Z" fill="#CBCBCB" stroke="#263238" stroke-linecap="round" stroke-linejoin="round"/>
<path d="M95.8642 184.14C95.8642 184.14 109.132 179.44 110.372 182.54C111.612 185.64 117.291 197.203 115.221 201.953C113.15 206.702 98.5922 188.313 96.5214 187.916C94.4506 187.519 95.6224 185.529 95.8642 184.14Z" fill="white" stroke="#263238" stroke-linecap="round" stroke-linejoin="round"/>
<path d="M108.866 190.197C108.866 190.197 123.95 188.957 126.846 191.648C129.741 194.339 119.821 226.573 114.446 236.697C106.02 252.532 108.568 256.68 108.568 256.68C108.568 256.68 109.188 259.16 113.324 263.091C117.459 267.022 118.699 267.635 117.248 268.255C115.797 268.875 109.604 268.255 108.984 267.84C108.364 267.425 103.819 263.711 99.6836 262.471C95.5482 261.231 96.1682 260.4 98.0282 256.68C99.8882 252.96 99.6836 256.06 101.748 249.655C104.223 241.763 106.178 233.717 107.601 225.568C108.698 218.928 110.372 211.637 109.901 204.885L108.866 190.197Z" fill="white" stroke="#263238" stroke-linecap="round" stroke-linejoin="round"/>
<path d="M119.914 200.291C118.335 196.48 115.617 193.25 112.133 191.041C105.537 186.831 99.9441 182.9 99.9441 182.9L89.0569 187.544C89.0569 187.544 91.7105 192.045 78.0705 194.32C67.5677 196.069 57.9267 193.533 52.7249 190.476C51.9995 194.079 51.2431 198.084 50.8649 201.016C50.1395 207.111 56.5255 213.206 60.4439 215.097C64.3623 216.988 95.9327 220.9 104.433 215.438C119.914 205.536 119.914 200.291 119.914 200.291Z" fill="#263238" stroke="#263238" stroke-linecap="round" stroke-linejoin="round"/>
<path d="M87.8229 190.96C86.3659 192.157 83.5263 193.44 78.0703 194.327C67.5675 196.075 57.9265 193.539 52.7247 190.483C52.5387 191.406 52.3527 192.343 52.1667 193.304C55.7317 195.449 63.2213 199.082 71.6657 198.047C81.7407 196.813 86.2171 194.06 87.8229 190.96Z" fill="#CBCBCB" stroke="#263238" stroke-linecap="round" stroke-linejoin="round"/>
<path d="M79.7754 204.24C79.2918 204.86 78.7896 205.48 78.2812 206.1" stroke="white" stroke-linecap="round" stroke-linejoin="round"/>
<path d="M87.3702 192.473C85.4621 195.981 83.3333 199.365 80.9966 202.604" stroke="white" stroke-linecap="round" stroke-linejoin="round"/>
<path d="M82.826 196.397C82.826 196.397 79.106 201.357 75.1814 204.253" stroke="white" stroke-linecap="round" stroke-linejoin="round"/>
<path d="M113.324 263.078C109.188 259.16 108.568 256.68 108.568 256.68C108.43 256.551 108.32 256.395 108.246 256.221C107.967 256.513 107.124 257.064 105.059 256.271C103.267 255.583 101.568 254.411 99.7766 253.623C99.3488 254.386 98.9334 254.863 98.0282 256.68C96.1682 260.4 95.5482 261.231 99.6836 262.471C103.819 263.711 108.364 267.431 108.984 267.84C109.604 268.249 115.804 268.875 117.248 268.255C118.693 267.635 117.459 267.003 113.324 263.078Z" fill="#CBCBCB" stroke="#263238" stroke-linecap="round" stroke-linejoin="round"/>
<path d="M117.131 202.393L124.161 198.053" stroke="#263238" stroke-linecap="round" stroke-linejoin="round"/>
<path d="M33.1392 163.097C33.1392 163.097 55.5336 160.295 69.8432 164.337L72.0194 218.779H38.4402C38.4402 218.779 40.604 189.534 33.1392 163.097Z" fill="#919191" stroke="#263238" stroke-linecap="round" stroke-linejoin="round"/>
<path d="M69.8432 164.337C55.5336 160.295 33.1392 163.097 33.1392 163.097C35.5356 171.908 37.1273 180.919 37.8946 190.018C50.3992 196.262 61.8522 204.42 71.8396 214.198L69.8432 164.337Z" fill="#757575" stroke="#263238" stroke-linecap="round" stroke-linejoin="round"/>
<path d="M112.071 269.7C111.818 269.701 111.57 269.624 111.362 269.48C111.153 269.336 110.994 269.131 110.906 268.894C105.946 255.527 104.706 220.826 104.631 219.356C104.62 219.027 104.739 218.707 104.964 218.467C105.188 218.226 105.499 218.084 105.828 218.073C106.157 218.061 106.477 218.181 106.717 218.405C106.958 218.63 107.1 218.94 107.111 219.269C107.111 219.629 108.401 255.037 113.231 268.026C113.345 268.334 113.332 268.675 113.195 268.974C113.057 269.273 112.807 269.505 112.499 269.62C112.363 269.674 112.218 269.701 112.071 269.7Z" fill="white" stroke="#263238" stroke-linecap="round" stroke-linejoin="round"/>
<path d="M85.0702 269.7C84.8179 269.7 84.5717 269.622 84.3645 269.478C84.1574 269.334 83.9991 269.13 83.9108 268.894C78.9508 255.527 77.7108 220.826 77.6302 219.356C77.6186 219.027 77.7383 218.707 77.9627 218.467C78.1871 218.226 78.4979 218.084 78.8268 218.073C79.1556 218.061 79.4756 218.181 79.7163 218.405C79.957 218.63 80.0987 218.94 80.1102 219.269C80.1102 219.629 81.3998 255.037 86.2358 268.026C86.35 268.334 86.3371 268.675 86.1999 268.974C86.0627 269.273 85.8124 269.505 85.5042 269.62C85.3659 269.674 85.2186 269.701 85.0702 269.7Z" fill="white" stroke="#263238" stroke-linecap="round" stroke-linejoin="round"/>
<path d="M111.736 218.755H37.8511V216.275H109.269C109.927 216.275 110.557 216.536 111.022 217.001C111.488 217.466 111.749 218.097 111.749 218.755H111.736Z" fill="#919191" stroke="#263238" stroke-linecap="round" stroke-linejoin="round"/>
<path d="M111.73 218.153H37.8511V220.615H111.73V218.153Z" fill="white" stroke="#263238" stroke-linecap="round" stroke-linejoin="round"/>
<path d="M69.2911 269.7C69.1044 269.704 68.9193 269.666 68.7495 269.588C68.5797 269.511 68.4296 269.396 68.3104 269.252C68.1912 269.108 68.106 268.94 68.0611 268.759C68.0162 268.577 68.0127 268.388 68.0511 268.206C75.0632 234.986 68.6711 165.131 68.5843 164.43C68.5692 164.267 68.5863 164.103 68.6347 163.947C68.6831 163.791 68.7618 163.646 68.8663 163.52C68.9708 163.394 69.0991 163.29 69.2438 163.214C69.3884 163.138 69.5467 163.091 69.7095 163.075C70.0384 163.045 70.3659 163.147 70.62 163.358C70.874 163.569 71.0338 163.872 71.0642 164.201C71.1324 164.908 77.5742 235.129 70.4877 268.714C70.4299 268.99 70.2799 269.238 70.0624 269.417C69.8449 269.596 69.5728 269.696 69.2911 269.7Z" fill="white" stroke="#263238" stroke-linecap="round" stroke-linejoin="round"/>
<path d="M30.8511 268.795C30.7356 268.796 30.6205 268.779 30.5101 268.745C30.1949 268.656 29.928 268.445 29.7677 268.159C29.6074 267.873 29.5667 267.536 29.6545 267.22C45.7745 209.994 32.0911 163.916 31.9547 163.457C31.8766 163.148 31.9201 162.821 32.0763 162.544C32.2324 162.267 32.4893 162.06 32.7936 161.967C33.098 161.874 33.4265 161.901 33.7113 162.043C33.996 162.186 34.2151 162.432 34.3231 162.731C34.4657 163.196 48.3847 209.932 32.0415 267.89C31.9687 268.149 31.813 268.378 31.5981 268.542C31.3833 268.705 31.121 268.794 30.8511 268.795Z" fill="white" stroke="#263238" stroke-linecap="round" stroke-linejoin="round"/>
<path d="M257.535 166.563C257.535 166.563 249.916 162.329 249.351 171.926C248.787 181.524 247.38 243.902 247.38 243.902" stroke="#263238" stroke-width="2" stroke-linecap="round" stroke-linejoin="round"/>
<path d="M245.396 172.769C245.396 172.769 251.596 186.601 248.787 243.059" stroke="#263238" stroke-width="2" stroke-linecap="round" stroke-linejoin="round"/>
<path d="M251.503 168.497C251.503 168.497 248.583 170.357 246.927 168.225C245.272 166.092 248.049 162.173 245.6 160.499C243.151 158.825 238.917 161.38 238.917 161.38C238.917 161.38 242.172 162.335 242.066 164.114C241.961 165.893 240.392 166.563 240.206 165.788C240.02 165.013 238.439 161.095 235.798 162.725C235.035 163.175 234.371 163.775 233.847 164.489C233.322 165.203 232.949 166.016 232.748 166.879C232.748 166.879 238.904 166.222 239.276 168.535C239.648 170.847 236.753 168.132 234.211 167.983C231.669 167.834 229.35 168.206 229.518 169.744C229.574 171.104 229.493 172.467 229.276 173.811C230.668 172.655 232.427 172.035 234.236 172.062C237.032 172.23 236.927 174.009 234.385 173.86C231.843 173.712 229.66 176.13 229.66 176.13C229.66 176.13 231.979 180.091 234.924 182.051C237.869 184.01 238.929 183.291 239.264 181.796C239.599 180.302 238.818 176.415 240.597 176.52C242.376 176.626 237.652 183.229 239.921 183.619C242.19 184.01 244.019 183.353 244.615 181.858L245.235 180.364C245.235 180.364 244.441 176.489 244.788 174.983C245.135 173.476 245.551 175.026 245.954 176.843C246.357 178.659 246.611 182.999 247.386 182.788C248.161 182.578 250.647 179.416 251.23 178.169C251.813 176.923 247.956 173.135 248 172.372C248.043 171.61 251.019 173.061 251.484 173.854C251.822 174.457 252.126 175.078 252.396 175.714C252.396 175.714 254.256 174.549 254.206 170.977C254.156 167.406 251.503 168.497 251.503 168.497Z" fill="#CBCBCB"/>
<path opacity="0.3" d="M251.503 168.497C251.503 168.497 248.583 170.357 246.927 168.225C245.272 166.092 248.049 162.173 245.6 160.499C243.151 158.825 238.917 161.38 238.917 161.38C238.917 161.38 242.172 162.335 242.066 164.114C241.961 165.893 240.392 166.563 240.206 165.788C240.02 165.013 238.439 161.095 235.798 162.725C235.035 163.175 234.371 163.775 233.847 164.489C233.322 165.203 232.949 166.016 232.748 166.879C232.748 166.879 238.904 166.222 239.276 168.535C239.648 170.847 236.753 168.132 234.211 167.983C231.669 167.834 229.35 168.206 229.518 169.744C229.574 171.104 229.493 172.467 229.276 173.811C230.668 172.655 232.427 172.035 234.236 172.062C237.032 172.23 236.927 174.009 234.385 173.86C231.843 173.712 229.66 176.13 229.66 176.13C229.66 176.13 231.979 180.091 234.924 182.051C237.869 184.01 238.929 183.291 239.264 181.796C239.599 180.302 238.818 176.415 240.597 176.52C242.376 176.626 237.652 183.229 239.921 183.619C242.19 184.01 244.019 183.353 244.615 181.858L245.235 180.364C245.235 180.364 244.441 176.489 244.788 174.983C245.135 173.476 245.551 175.026 245.954 176.843C246.357 178.659 246.611 182.999 247.386 182.788C248.161 182.578 250.647 179.416 251.23 178.169C251.813 176.923 247.956 173.135 248 172.372C248.043 171.61 251.019 173.061 251.484 173.854C251.822 174.457 252.126 175.078 252.396 175.714C252.396 175.714 254.256 174.549 254.206 170.977C254.156 167.406 251.503 168.497 251.503 168.497Z" fill="#263238"/>
<path d="M236.722 176.873C238.626 174.524 241.422 171.343 243.772 169.824" stroke="#263238" stroke-linecap="round" stroke-linejoin="round"/>
<path d="M234.521 179.732C234.521 179.732 235.005 179.056 235.798 178.039" stroke="#263238" stroke-linecap="round" stroke-linejoin="round"/>
<path d="M245.011 170.407C245.011 170.407 247.839 174.4 248.359 178.511" stroke="#263238" stroke-linecap="round" stroke-linejoin="round"/>
<path d="M241.8 172.769C241.8 172.769 242.594 172.304 242.296 177.388" stroke="#263238" stroke-linecap="round" stroke-linejoin="round"/>
<path d="M243.877 168.02C243.877 168.02 245.495 166.588 244.64 163.73" stroke="#263238" stroke-linecap="round" stroke-linejoin="round"/>
<path d="M241.695 170.469L240.542 168.361" stroke="#263238" stroke-linecap="round" stroke-linejoin="round"/>
<path d="M239.271 172.62C239.271 172.62 235.613 169.855 233.325 169.719" stroke="#263238" stroke-linecap="round" stroke-linejoin="round"/>
<path d="M261.894 160.964C261.894 160.964 261.776 165.156 258.503 165.36C255.229 165.565 253.208 160.109 249.86 161.423C246.512 162.738 246.189 168.714 246.189 168.714C246.189 168.714 249.364 166.104 251.075 167.419C252.786 168.733 252.389 170.767 251.466 170.444C250.542 170.122 245.569 169.012 245.396 172.769C245.326 173.84 245.475 174.914 245.832 175.927C246.189 176.939 246.747 177.869 247.473 178.659C247.473 178.659 251.013 172.044 253.592 173.247C256.171 174.449 251.466 175.503 249.581 177.946C247.696 180.389 246.481 182.962 248.149 183.849C249.549 184.716 250.858 185.723 252.055 186.856C252.055 186.856 251.608 183.396 253.679 180.711C255.75 178.027 257.455 179.341 255.576 181.784C253.698 184.227 254.628 188.065 254.628 188.065C254.628 188.065 260.17 188.443 264.138 186.825C268.106 185.206 268.131 183.669 266.854 182.299C265.577 180.928 261.162 179.081 262.477 177.339C263.791 175.596 267.189 184.859 269.129 182.85C271.07 180.842 271.653 178.566 270.562 176.948L269.47 175.336C269.47 175.336 265.056 173.476 263.779 172.112C262.502 170.748 264.343 171.38 266.432 172.211C268.522 173.042 273.042 175.751 273.364 174.828C273.686 173.904 272.205 169.248 271.361 167.834C270.518 166.42 264.083 167.679 263.351 167.115C262.619 166.551 266.098 164.56 267.207 164.635C268.04 164.704 268.867 164.818 269.687 164.976C269.687 164.976 269.787 162.322 266.178 159.935C262.57 157.548 261.894 160.964 261.894 160.964Z" fill="#CBCBCB"/>
<path opacity="0.2" d="M261.894 160.964C261.894 160.964 261.776 165.156 258.503 165.36C255.229 165.565 253.208 160.109 249.86 161.423C246.512 162.738 246.189 168.714 246.189 168.714C246.189 168.714 249.364 166.104 251.075 167.419C252.786 168.733 252.389 170.767 251.466 170.444C250.542 170.122 245.569 169.012 245.396 172.769C245.326 173.84 245.475 174.914 245.832 175.927C246.189 176.939 246.747 177.869 247.473 178.659C247.473 178.659 251.013 172.044 253.592 173.247C256.171 174.449 251.466 175.503 249.581 177.946C247.696 180.389 246.481 182.962 248.149 183.849C249.549 184.716 250.858 185.723 252.055 186.856C252.055 186.856 251.608 183.396 253.679 180.711C255.75 178.027 257.455 179.341 255.576 181.784C253.698 184.227 254.628 188.065 254.628 188.065C254.628 188.065 260.17 188.443 264.138 186.825C268.106 185.206 268.131 183.669 266.854 182.299C265.577 180.928 261.162 179.081 262.477 177.339C263.791 175.596 267.189 184.859 269.129 182.85C271.07 180.842 271.653 178.566 270.562 176.948L269.47 175.336C269.47 175.336 265.056 173.476 263.779 172.112C262.502 170.748 264.343 171.38 266.432 172.211C268.522 173.042 273.042 175.751 273.364 174.828C273.686 173.904 272.205 169.248 271.361 167.834C270.518 166.42 264.083 167.679 263.351 167.115C262.619 166.551 266.098 164.56 267.207 164.635C268.04 164.704 268.867 164.818 269.687 164.976C269.687 164.976 269.787 162.322 266.178 159.935C262.57 157.548 261.894 160.964 261.894 160.964Z" fill="#263238"/>
<path d="M260.208 181.468C259.16 177.94 257.87 172.98 257.957 169.607" stroke="#263238" stroke-linecap="round" stroke-linejoin="round"/>
<path d="M261.566 185.628C261.566 185.628 261.219 184.673 260.741 183.191" stroke="#263238" stroke-linecap="round" stroke-linejoin="round"/>
<path d="M259.383 168.764C259.383 168.764 265.304 168.652 269.774 170.934" stroke="#263238" stroke-linecap="round" stroke-linejoin="round"/>
<path d="M259.569 173.6C259.569 173.6 259.644 172.49 264.529 176.254" stroke="#263238" stroke-linecap="round" stroke-linejoin="round"/>
<path d="M256.246 168.287C256.246 168.287 255.911 165.695 252.47 164.604" stroke="#263238" stroke-linecap="round" stroke-linejoin="round"/>
<path d="M257.182 172.124L254.287 171.839" stroke="#263238" stroke-linecap="round" stroke-linejoin="round"/>
<path d="M257.685 176.018C257.685 176.018 252.421 177.797 250.728 179.998" stroke="#263238" stroke-linecap="round" stroke-linejoin="round"/>
<path d="M226.771 188.864C226.771 188.864 243.424 199.869 243.145 242.494" stroke="#263238" stroke-width="2" stroke-linecap="round" stroke-linejoin="round"/>
<path d="M247.306 185.957C247.306 185.957 246.772 190.78 242.966 190.706C239.159 190.632 237.386 184.146 233.368 185.349C229.35 186.552 228.439 193.409 228.439 193.409C228.439 193.409 232.357 190.694 234.205 192.38C236.053 194.066 235.402 196.367 234.366 195.908C233.331 195.449 227.695 193.694 227.143 198.016C226.964 199.246 227.036 200.499 227.356 201.7C227.676 202.901 228.236 204.025 229.003 205.003C229.003 205.003 233.715 197.706 236.573 199.343C239.432 200.979 233.907 201.742 231.502 204.383C229.096 207.024 227.466 209.876 229.288 211.054C230.825 212.188 232.242 213.476 233.517 214.898C233.517 214.898 233.325 210.868 235.966 207.961C238.607 205.053 240.461 206.721 238.055 209.38C235.65 212.04 236.369 216.535 236.369 216.535C236.369 216.535 242.736 217.496 247.467 216.008C252.197 214.52 252.365 212.747 251.019 211.048C249.674 209.349 244.757 206.795 246.438 204.947C248.118 203.1 251.162 214.074 253.592 211.935C256.023 209.796 256.903 207.235 255.8 205.264L254.696 203.292C254.696 203.292 249.779 200.744 248.434 199.039C247.089 197.334 249.153 198.251 251.484 199.405C253.816 200.558 258.782 204.11 259.234 203.081C259.687 202.052 258.422 196.546 257.585 194.817C256.748 193.087 249.203 193.949 248.409 193.229C247.616 192.51 251.825 190.545 253.096 190.749C254.043 190.907 254.98 191.114 255.905 191.369C255.905 191.369 256.265 188.319 252.328 185.219C248.391 182.119 247.306 185.957 247.306 185.957Z" fill="#CBCBCB"/>
<path opacity="0.3" d="M247.306 185.957C247.306 185.957 246.772 190.78 242.966 190.706C239.159 190.632 237.386 184.146 233.368 185.349C229.35 186.552 228.439 193.409 228.439 193.409C228.439 193.409 232.357 190.694 234.205 192.38C236.053 194.066 235.402 196.367 234.366 195.908C233.331 195.449 227.695 193.694 227.143 198.016C226.964 199.246 227.036 200.499 227.356 201.7C227.676 202.901 228.236 204.025 229.003 205.003C229.003 205.003 233.715 197.706 236.573 199.343C239.432 200.979 233.907 201.742 231.502 204.383C229.096 207.024 227.466 209.876 229.288 211.054C230.825 212.188 232.242 213.476 233.517 214.898C233.517 214.898 233.325 210.868 235.966 207.961C238.607 205.053 240.461 206.721 238.055 209.38C235.65 212.04 236.369 216.535 236.369 216.535C236.369 216.535 242.736 217.496 247.467 216.008C252.197 214.52 252.365 212.747 251.019 211.048C249.674 209.349 244.757 206.795 246.438 204.947C248.118 203.1 251.162 214.074 253.592 211.935C256.023 209.796 256.903 207.235 255.8 205.264L254.696 203.292C254.696 203.292 249.779 200.744 248.434 199.039C247.089 197.334 249.153 198.251 251.484 199.405C253.816 200.558 258.782 204.11 259.234 203.081C259.687 202.052 258.422 196.546 257.585 194.817C256.748 193.087 249.203 193.949 248.409 193.229C247.616 192.51 251.825 190.545 253.096 190.749C254.043 190.907 254.98 191.114 255.905 191.369C255.905 191.369 256.265 188.319 252.328 185.219C248.391 182.119 247.306 185.957 247.306 185.957Z" fill="#263238"/>
<path d="M243.425 209.455C242.532 205.313 241.534 199.454 241.943 195.554" stroke="#263238" stroke-linecap="round" stroke-linejoin="round"/>
<path d="M244.602 214.384C244.602 214.384 244.292 213.249 243.877 211.494" stroke="#263238" stroke-linecap="round" stroke-linejoin="round"/>
<path d="M243.66 194.717C243.66 194.717 250.48 195.151 255.44 198.201" stroke="#263238" stroke-linecap="round" stroke-linejoin="round"/>
<path d="M243.43 200.26C243.43 200.26 243.623 198.989 248.905 203.794" stroke="#263238" stroke-linecap="round" stroke-linejoin="round"/>
<path d="M240.095 193.874C240.095 193.874 239.952 190.848 236.09 189.261" stroke="#263238" stroke-linecap="round" stroke-linejoin="round"/>
<path d="M240.814 198.388L237.504 197.786" stroke="#263238" stroke-linecap="round" stroke-linejoin="round"/>
<path d="M241.031 202.926C241.031 202.926 234.788 204.488 232.624 206.863" stroke="#263238" stroke-linecap="round" stroke-linejoin="round"/>
<path d="M233.263 222.45C233.263 222.45 243.989 230.634 245.117 242.773L242.86 202.12" stroke="#263238" stroke-width="2" stroke-linecap="round" stroke-linejoin="round"/>
<path d="M259.228 216.523C245.117 213.981 245.117 242.774 245.117 242.774" stroke="#263238" stroke-width="2" stroke-linecap="round" stroke-linejoin="round"/>
<path d="M246.81 242.494C246.81 242.494 238.626 182.937 262.31 182.937" stroke="#263238" stroke-width="2" stroke-linecap="round" stroke-linejoin="round"/>
<path d="M253.853 214.811C251.925 212.641 247.827 212.641 245.421 218.184C243.015 223.727 245.179 222.766 245.179 222.766C245.179 222.766 249.755 221.315 252.65 220.354C255.546 219.393 259.396 216.981 259.638 218.426C259.879 219.871 257.709 221.315 255.056 221.799C252.402 222.282 245.421 224.211 246.14 225.68C246.859 227.149 248.552 231.465 248.552 231.465C250.61 229.716 252.783 228.106 255.056 226.647C258.193 224.719 260.121 225.438 258.435 227.608C256.748 229.778 251.925 232.184 252.892 235.079C253.859 237.975 259.638 241.583 259.638 241.583C259.638 241.583 260.363 235.563 262.049 233.635C263.736 231.706 263.736 233.876 263.252 237.249C263.01 238.686 262.849 240.135 262.769 241.589L269.514 244.001C270.617 242.321 271.825 240.712 273.129 239.184L274.369 237.944C274.369 237.944 269.068 233.368 268.826 230.504C268.584 227.639 272.441 230.504 273.643 230.987C274.846 231.471 276.774 234.844 276.774 234.844C276.774 234.844 277.983 229.301 278.225 227.373L278.467 225.444C278.467 225.444 273.402 223.516 271.473 223.516C269.545 223.516 268.584 224.961 268.584 223.039C268.584 221.117 270.512 219.902 272.682 220.143C274.646 220.472 276.58 220.955 278.467 221.588C278.467 221.588 279.912 220.385 279.428 216.771C278.944 213.156 277.742 213.156 274.852 214.117C271.963 215.078 270.029 217.254 267.859 217.254C265.689 217.254 266.898 214.601 268.342 213.881C269.787 213.162 273.402 211.711 274.127 211.47C274.852 211.228 270.271 207.855 267.859 207.371C265.447 206.888 262.328 208.611 262.558 210.986C263.01 216.014 255.781 217 253.853 214.811Z" fill="#CBCBCB"/>
<path d="M269.365 239.624C269.439 240.347 269.489 241.073 269.514 241.8" stroke="#263238" stroke-linecap="round" stroke-linejoin="round"/>
<path d="M264.523 222.326C266.647 227.097 268.178 232.111 269.08 237.255" stroke="#263238" stroke-linecap="round" stroke-linejoin="round"/>
<path d="M263.655 220.391C262.465 217.825 261.566 216.256 261.566 216.256C262.881 215.637 263.974 214.628 264.697 213.367C265.261 212.225 266.087 211.232 267.108 210.471" stroke="#263238" stroke-linecap="round" stroke-linejoin="round"/>
<path d="M253.134 224.44C253.134 224.44 261.814 220.825 261.814 221.545" stroke="#263238" stroke-linecap="round" stroke-linejoin="round"/>
<path d="M266.6 219.871C266.6 219.871 270.456 217.942 273.829 217.942" stroke="#263238" stroke-linecap="round" stroke-linejoin="round"/>
<path d="M265.18 225.68C263.507 227.055 261.973 228.589 260.598 230.262C259.192 231.92 258.054 233.788 257.225 235.798" stroke="#263238" stroke-linecap="round" stroke-linejoin="round"/>
<path d="M267.84 226.622C267.84 226.622 272.906 225.172 275.553 227.583" stroke="#263238" stroke-linecap="round" stroke-linejoin="round"/>
<path d="M276.998 194.06C274.375 192.51 271.473 192.473 270.047 190.836C268.621 189.199 271.418 188.356 272.912 188.976C274.406 189.596 277.872 191.375 278.523 191.76C279.174 192.144 278.727 186.484 277.512 184.32C276.297 182.156 272.968 180.941 271.312 182.689C267.809 186.366 262.341 181.542 262.713 178.665C263.085 175.789 260.4 172.695 254.653 174.505C248.905 176.316 251.038 177.326 251.038 177.326C251.038 177.326 255.13 179.837 257.759 181.387C260.388 182.937 264.728 184.27 263.792 185.399C262.855 186.527 260.344 185.839 258.243 184.159C256.141 182.478 250.108 178.461 249.488 179.955C248.868 181.449 246.698 185.566 246.698 185.566C249.369 185.975 252.01 186.562 254.603 187.321C258.112 188.424 258.832 190.352 256.091 190.501C253.351 190.65 248.366 188.592 246.791 191.214C245.216 193.837 246.301 200.57 246.301 200.57C246.301 200.57 251.323 197.172 253.884 197.179C256.445 197.185 254.808 198.611 251.943 200.458C250.701 201.217 249.502 202.045 248.354 202.938L250.958 209.616C252.949 209.346 254.956 209.201 256.965 209.182L258.664 209.306C258.664 209.306 258.664 202.3 260.673 200.223C262.682 198.146 263.041 202.951 263.469 204.178C263.897 205.406 262.614 209.07 262.614 209.07C262.614 209.07 267.574 206.348 269.198 205.263L270.816 204.185C270.816 204.185 268.956 199.094 267.685 197.644C266.414 196.193 264.703 196.404 266.154 195.164C267.605 193.924 269.787 194.544 271.027 196.366C272.066 198.063 272.968 199.84 273.724 201.68C273.724 201.68 275.584 201.984 277.996 199.249C280.408 196.515 279.62 195.61 276.998 194.06ZM254.2 201.773C252.272 200.806 256.848 198.877 256.848 198.877C258.54 198.642 256.122 202.74 254.2 201.773ZM257.443 192.777C256.624 192.367 259.086 191.537 259.086 191.537C262.645 192.2 258.261 193.186 257.437 192.777H257.443Z" fill="#CBCBCB"/>
<path d="M254.138 206.683C253.642 207.21 253.121 207.725 252.594 208.221" stroke="#263238" stroke-linecap="round" stroke-linejoin="round"/>
<path d="M264.027 191.685C261.812 196.413 259.024 200.851 255.725 204.898" stroke="#263238" stroke-linecap="round" stroke-linejoin="round"/>
<path d="M264.92 189.763C266.079 187.178 266.668 185.473 266.668 185.473C268.001 186.058 269.48 186.222 270.909 185.944C272.139 185.619 273.429 185.591 274.672 185.864" stroke="#263238" stroke-linecap="round" stroke-linejoin="round"/>
<path d="M262.824 189.131C263.37 188.654 254.956 184.475 254.956 184.475" stroke="#263238" stroke-linecap="round" stroke-linejoin="round"/>
<path d="M267.257 191.661C267.257 191.661 271.244 193.31 273.457 195.858" stroke="#263238" stroke-linecap="round" stroke-linejoin="round"/>
<path d="M261.944 194.364C259.81 194.002 257.647 193.848 255.483 193.905C253.307 193.932 251.148 194.298 249.085 194.99" stroke="#263238" stroke-linecap="round" stroke-linejoin="round"/>
<path d="M262.954 196.999C262.954 196.999 267.362 199.869 267.294 203.453" stroke="#263238" stroke-linecap="round" stroke-linejoin="round"/>
<path d="M239.549 227.447C237.441 226.207 235.104 226.176 233.969 224.855C232.835 223.535 235.067 222.871 236.269 223.367C237.472 223.863 240.262 225.302 240.789 225.612C241.316 225.922 240.95 221.359 239.971 219.641C238.991 217.924 236.313 216.926 234.98 218.327C232.159 221.29 227.757 217.403 228.061 215.09C228.364 212.778 226.201 210.285 221.557 211.742C216.913 213.199 218.649 214.012 218.649 214.012C218.649 214.012 221.941 216.033 224.055 217.279C226.17 218.525 229.666 219.604 228.91 220.509C228.154 221.414 226.139 220.869 224.446 219.511C222.753 218.153 217.899 214.923 217.403 216.126C216.907 217.329 215.158 220.639 215.158 220.639C217.308 220.971 219.432 221.443 221.52 222.053C224.341 222.94 224.917 224.49 222.71 224.607C220.503 224.725 216.51 223.07 215.27 225.184C214.03 227.298 214.873 232.717 214.873 232.717C214.873 232.717 218.916 229.977 220.974 229.983C223.032 229.989 221.718 231.136 219.418 232.624C218.418 233.235 217.453 233.901 216.529 234.62L218.618 239.99C220.221 239.774 221.837 239.661 223.454 239.649L224.824 239.742C224.824 239.742 224.824 234.106 226.442 232.432C228.061 230.758 228.346 234.627 228.687 235.619C229.028 236.611 227.999 239.556 227.999 239.556C227.999 239.556 232.004 237.361 233.3 236.493L234.602 235.619C234.602 235.619 233.101 231.527 232.084 230.355C231.068 229.183 229.679 229.363 230.844 228.346C232.01 227.329 233.765 227.862 234.763 229.307C235.6 230.673 236.328 232.104 236.939 233.585C236.939 233.585 238.433 233.827 240.374 231.632C242.314 229.437 241.663 228.699 239.549 227.447ZM221.197 233.647C219.647 232.872 223.33 231.322 223.33 231.322C224.688 231.136 222.747 234.434 221.197 233.653V233.647ZM223.82 226.418C223.156 226.083 225.14 225.426 225.14 225.426C227.999 225.978 224.471 226.746 223.82 226.418Z" fill="#CBCBCB"/>
<path d="M221.16 237.609C220.757 238.03 220.342 238.446 219.92 238.849" stroke="#263238" stroke-linecap="round" stroke-linejoin="round"/>
<path d="M229.115 225.537C227.334 229.343 225.091 232.914 222.437 236.17" stroke="#263238" stroke-linecap="round" stroke-linejoin="round"/>
<path d="M229.834 223.987C230.764 221.91 231.242 220.54 231.242 220.54C232.314 221.009 233.503 221.141 234.652 220.918C235.641 220.657 236.678 220.635 237.677 220.856" stroke="#263238" stroke-linecap="round" stroke-linejoin="round"/>
<path d="M221.811 219.734C221.811 219.734 228.588 223.101 228.148 223.454" stroke="#263238" stroke-linecap="round" stroke-linejoin="round"/>
<path d="M231.712 225.519C231.712 225.519 234.918 226.846 236.672 228.898" stroke="#263238" stroke-linecap="round" stroke-linejoin="round"/>
<path d="M227.435 227.695C225.719 227.404 223.979 227.282 222.239 227.329C220.488 227.346 218.751 227.641 217.093 228.203" stroke="#263238" stroke-linecap="round" stroke-linejoin="round"/>
<path d="M228.253 229.815C228.253 229.815 231.799 232.128 231.731 235.005" stroke="#263238" stroke-linecap="round" stroke-linejoin="round"/>
<path d="M230.944 187.655C230.944 187.655 228.29 189.584 226.604 187.655C224.917 185.727 227.329 181.871 224.917 180.426C222.506 178.982 218.655 181.629 218.655 181.629C218.655 181.629 221.786 182.354 221.786 184.041C221.786 185.727 220.342 186.453 220.1 185.727C219.858 185.002 218.172 181.387 215.76 183.08C215.065 183.548 214.472 184.151 214.017 184.855C213.562 185.558 213.255 186.346 213.113 187.172C213.113 187.172 218.891 186.211 219.375 188.381C219.858 190.551 216.969 188.139 214.557 188.139C212.145 188.139 209.975 188.623 210.217 190.067C210.348 191.349 210.348 192.642 210.217 193.924C211.466 192.755 213.091 192.071 214.799 191.995C217.446 191.995 217.446 193.682 215.041 193.682C212.635 193.682 210.701 196.094 210.701 196.094C210.701 196.094 213.113 199.708 216.002 201.395C218.891 203.081 219.858 202.356 220.1 200.911C220.342 199.466 219.375 195.852 221.061 195.852C222.747 195.852 218.655 202.356 220.819 202.597C222.983 202.839 224.676 202.114 225.159 200.669L225.643 199.225C225.643 199.225 224.676 195.61 224.917 194.165C225.159 192.721 225.643 194.165 226.12 195.852C226.598 197.538 227.087 201.63 227.813 201.395C228.538 201.159 230.702 198.016 231.186 196.813C231.669 195.61 227.813 192.237 227.813 191.512C227.813 190.786 230.702 191.995 231.186 192.715C231.669 193.434 232.147 194.401 232.147 194.401C232.147 194.401 233.833 193.198 233.591 189.825C233.349 186.453 230.944 187.655 230.944 187.655Z" fill="#CBCBCB"/>
<path d="M217.44 196.397C219.108 194.072 221.582 190.91 223.715 189.342" stroke="#263238" stroke-linecap="round" stroke-linejoin="round"/>
<path d="M215.518 199.225C215.518 199.225 215.946 198.555 216.634 197.551" stroke="#263238" stroke-linecap="round" stroke-linejoin="round"/>
<path d="M224.917 189.825C224.917 189.825 227.813 193.44 228.532 197.296" stroke="#263238" stroke-linecap="round" stroke-linejoin="round"/>
<path d="M222.028 192.237C222.028 192.237 222.747 191.754 222.747 196.577" stroke="#263238" stroke-linecap="round" stroke-linejoin="round"/>
<path d="M223.715 187.655C223.715 187.655 225.159 186.211 224.198 183.557" stroke="#263238" stroke-linecap="round" stroke-linejoin="round"/>
<path d="M221.786 190.067L220.583 188.139" stroke="#263238" stroke-linecap="round" stroke-linejoin="round"/>
<path d="M219.617 192.237C219.617 192.237 216.002 189.826 213.832 189.826" stroke="#263238" stroke-linecap="round" stroke-linejoin="round"/>
<path d="M255.279 241.645H236.648V268.46H255.279V241.645Z" fill="#263238" stroke="#263238" stroke-width="2" stroke-linecap="round" stroke-linejoin="round"/>
</svg>
