<svg width="486" height="437" viewBox="0 0 486 437" fill="none" xmlns="http://www.w3.org/2000/svg">
<path d="M217.949 210.321C207.928 210.989 198.186 206.704 194.567 204.479H192.897L191.227 213.659V223.675L195.402 234.525C195.402 234.525 198.742 238.698 199.577 238.698C200.412 238.698 187.887 264.57 187.887 264.57V311.308L185.381 333.843L188.722 343.023C185.66 342.189 184.213 342.022 202.918 348.031C221.623 354.04 230.196 335.512 232.145 325.497C232.98 314.369 234.65 292.78 234.65 295.451C234.65 298.122 246.34 303.24 252.186 305.466C266.103 309.917 295.275 318.82 300.619 318.82C305.963 318.82 312.31 316.594 314.815 315.481C323.165 307.97 318.155 287.105 317.32 284.601C316.652 282.598 312.588 279.315 310.639 277.924C307.944 276.379 305.934 275.473 300.618 273.751L278.072 267.909L276.402 272.082C276.317 271.316 275.795 270.764 273.897 269.578L270.557 263.736L267.217 267.909L263.877 269.578V267.074L265.547 262.067L263.877 259.563C263.32 259.285 262.039 258.561 261.371 257.894C260.703 257.226 259.98 255.946 259.701 255.39L258.866 247.878C260.894 244.023 265.113 234.391 268.052 227.848C271.011 221.259 271.392 208.095 270.557 201.975L263.877 192.794C236.32 211.99 230.475 209.486 217.949 210.321Z" fill="#263238"/>
<path d="M198.258 240.233C198.105 240.232 197.954 240.195 197.818 240.126C197.682 240.056 197.564 239.956 197.473 239.833C194.851 236.16 190.058 225.444 189.557 220.503C189.056 215.562 191.878 203.811 191.995 203.277C192.058 203.033 192.215 202.824 192.43 202.693C192.646 202.562 192.904 202.521 193.15 202.577C193.395 202.634 193.609 202.784 193.746 202.996C193.883 203.207 193.932 203.464 193.882 203.711C193.882 203.844 191.026 215.696 191.477 220.403C191.928 225.11 196.604 235.426 199.043 238.764C199.117 238.867 199.171 238.984 199.2 239.108C199.23 239.232 199.235 239.36 199.214 239.485C199.194 239.611 199.15 239.731 199.083 239.84C199.016 239.948 198.929 240.042 198.826 240.116C198.652 240.211 198.455 240.251 198.258 240.233Z" fill="#263238"/>
<path d="M212.003 349.349L205.64 348.899C212.537 347.046 216.813 335.946 219.485 328.317C219.986 326.882 220.47 325.513 220.955 324.261C223.326 318.068 223.543 298.789 223.41 291.378C222.424 287.889 219.769 279.393 217.898 276.638C217.509 276.081 217.237 275.45 217.099 274.785C216.961 274.119 216.96 273.432 217.097 272.766C217.681 269.962 220.554 268.142 223.076 266.556C223.928 266.052 224.748 265.495 225.531 264.887C226.098 261.315 230.257 260.197 233.347 259.379C234.315 259.112 235.234 258.861 235.952 258.594C238.942 255.857 252.035 230.852 254.908 217.415C257.346 206.081 253.238 202.075 253.238 202.041L257.012 197.635C257.713 198.219 263.809 203.811 260.636 218.633C258.164 230.151 243.852 261.699 238.407 263.886C237.26 264.315 236.089 264.677 234.9 264.971C233.652 265.247 232.437 265.655 231.276 266.189C230.908 268.526 228.637 269.962 226.265 271.481C225.093 272.129 223.985 272.889 222.959 273.751C225.698 278.191 228.754 288.907 229.105 290.159L229.205 290.877C229.205 293.614 229.639 317.818 226.366 326.331C225.915 327.533 225.447 328.835 224.963 330.204C221.973 338.85 221.873 346.712 212.003 349.349Z" fill="white"/>
<path d="M319.641 291.461C315.082 289.224 303.207 286.887 296.093 285.385C293.053 284.751 290.431 284.183 288.46 283.716C285.19 282.939 281.75 283.354 278.757 284.884C277.869 285.273 276.953 285.596 276.018 285.853C272.411 286.754 269.956 283.215 268.185 280.628C267.985 280.344 267.768 280.01 267.534 279.71C265.279 281.029 262.173 282.831 259.184 281.98C258.491 281.771 257.848 281.422 257.296 280.954C256.745 280.486 256.295 279.909 255.977 279.259C255.216 277.619 254.655 275.892 254.307 274.118C253.756 271.798 253.372 270.329 252.219 269.411C248.278 266.273 248.294 264.787 248.211 264.403L251.167 259.579C252.505 261.552 254.075 263.356 255.843 264.954C258.116 267.015 259.573 269.822 259.952 272.866C260.204 274.095 260.573 275.296 261.054 276.455C262.286 276.041 263.463 275.481 264.561 274.786C265.38 274.246 266.267 273.819 267.2 273.517C269.822 272.866 271.425 275.186 272.962 277.406C273.591 278.381 274.307 279.297 275.1 280.144C275.517 280.01 276.018 279.81 276.569 279.576C280.721 277.558 285.45 277.062 289.93 278.174C291.784 278.642 294.356 279.176 297.329 279.843C304.409 281.19 311.312 283.341 317.904 286.253L319.641 291.461Z" fill="white"/>
<path d="M352.542 322.876C352.354 322.876 352.169 322.824 352.008 322.726C341.219 315.698 316.936 313.712 316.669 313.695C316.533 313.699 316.398 313.674 316.272 313.623C316.147 313.571 316.033 313.493 315.94 313.395C315.846 313.296 315.774 313.179 315.729 313.051C315.683 312.924 315.665 312.787 315.676 312.652C315.687 312.517 315.726 312.385 315.79 312.266C315.855 312.147 315.944 312.042 316.052 311.96C316.16 311.877 316.284 311.818 316.416 311.786C316.548 311.755 316.685 311.751 316.819 311.776C317.838 311.776 341.87 313.812 353.06 321.107C353.168 321.175 353.261 321.263 353.334 321.368C353.407 321.472 353.458 321.59 353.485 321.714C353.511 321.839 353.512 321.968 353.488 322.093C353.464 322.218 353.415 322.336 353.344 322.442C353.256 322.575 353.137 322.684 352.997 322.759C352.858 322.835 352.701 322.875 352.542 322.876Z" fill="#263238"/>
<path d="M343.857 303.88C343.103 303.864 342.356 303.74 341.636 303.513C338.179 302.528 319.925 292.73 319.19 292.313C318.965 292.192 318.797 291.988 318.722 291.744C318.647 291.5 318.671 291.237 318.789 291.011C318.913 290.785 319.12 290.616 319.367 290.541C319.614 290.466 319.88 290.491 320.109 290.61C326.605 294.115 339.565 300.909 342.154 301.66C342.847 301.942 343.607 302.018 344.342 301.877C344.402 301.653 344.54 301.458 344.732 301.327C344.924 301.196 345.157 301.139 345.387 301.165C345.618 301.192 345.832 301.3 345.989 301.47C346.147 301.641 346.238 301.862 346.246 302.094C346.237 302.351 346.169 302.601 346.047 302.827C345.925 303.053 345.753 303.248 345.544 303.396C345.05 303.738 344.458 303.908 343.857 303.88Z" fill="#263238"/>
<path d="M354.062 290.977C354.062 290.977 344.876 299.924 344.876 300.892C344.876 301.861 351.407 307.653 351.891 309.589C352.375 311.525 356.734 309.105 357.937 309.589C359.139 310.073 358.905 313.462 355.515 314.179C352.125 314.897 352.375 323.61 353.578 324.812C354.78 326.014 365.268 331.339 370.997 337.381C376.725 343.424 379.949 349.466 382.354 350.435C384.758 351.403 387.197 352.104 387.915 347.296C388.633 342.489 389.368 332.073 383.088 324.579C376.809 317.084 374.137 316.349 372.199 316.349C370.262 316.349 367.189 316.6 368.341 313.946C369.494 311.292 372.199 308.938 371.231 306.685C370.262 304.431 362.696 290.26 354.062 290.977Z" fill="#263238"/>
<path d="M387.598 353.973C386.892 354.009 386.191 353.85 385.569 353.515C384.948 353.179 384.43 352.68 384.074 352.07C384.017 351.958 383.983 351.835 383.974 351.709C383.965 351.583 383.981 351.456 384.021 351.337C384.062 351.217 384.126 351.107 384.209 351.012C384.293 350.917 384.394 350.84 384.508 350.785C384.734 350.673 384.996 350.654 385.236 350.732C385.476 350.81 385.676 350.979 385.794 351.202C385.877 351.336 386.529 352.421 388.566 351.92C391.355 351.219 393.577 350.418 394.144 347.113C394.927 339.899 393.451 332.62 389.919 326.281C387.773 323.046 385.2 320.115 382.27 317.568C379.648 315.114 377.594 313.178 377.443 311.108C377.443 310.357 377.443 309.606 377.36 308.821C377.501 305.825 376.929 302.839 375.69 300.108C373.502 295.751 368.308 290.092 363.381 288.006C358.855 286.153 356.801 286.971 355.031 291.344C354.931 291.581 354.741 291.769 354.503 291.866C354.265 291.963 353.998 291.961 353.761 291.862C353.524 291.762 353.337 291.573 353.24 291.335C353.142 291.097 353.144 290.83 353.244 290.593C355.498 285.218 358.671 283.916 364.183 286.203C369.694 288.49 375.172 294.549 377.544 299.24C378.94 302.211 379.604 305.474 379.481 308.754C379.481 309.511 379.514 310.245 379.581 310.958C379.665 312.26 381.585 314.062 383.79 316.132C386.854 318.798 389.54 321.87 391.773 325.263C395.564 332.002 397.13 339.765 396.249 347.447C395.414 351.87 392.324 353.005 389.234 353.773C388.701 353.918 388.15 353.985 387.598 353.973Z" fill="#263238"/>
<path d="M215.444 202.542C210.684 202.542 202.083 201.925 197.59 197.751C195.793 196.094 194.221 194.208 192.914 192.143C192.048 190.715 190.998 189.407 189.791 188.254C188.716 187.328 187.941 186.103 187.564 184.736C187.186 183.369 187.223 181.921 187.67 180.575C187.766 180.339 187.952 180.151 188.186 180.051C188.421 179.951 188.685 179.947 188.922 180.041C189.042 180.085 189.152 180.153 189.245 180.241C189.338 180.328 189.412 180.433 189.464 180.55C189.515 180.667 189.542 180.793 189.544 180.921C189.546 181.048 189.522 181.175 189.474 181.293C189.175 182.278 189.174 183.33 189.471 184.316C189.768 185.302 190.35 186.178 191.144 186.835C192.433 188.1 193.556 189.525 194.484 191.075C195.703 193.013 197.174 194.781 198.86 196.333C203.502 200.639 213.89 200.689 216.863 200.589C217.12 200.589 217.366 200.691 217.548 200.873C217.73 201.054 217.832 201.301 217.832 201.557C217.832 201.814 217.73 202.06 217.548 202.242C217.366 202.423 217.12 202.525 216.863 202.525L215.444 202.542Z" fill="#263238"/>
<path d="M222.558 211.155C214.513 211.245 206.509 209.992 198.876 207.45C188.638 203.444 188.855 199.104 189.273 197.919C189.4 197.482 189.551 197.053 189.724 196.633C190.125 195.632 190.275 195.264 189.724 194.363C188.354 192.293 189.473 187.803 189.607 187.302C189.67 187.055 189.828 186.843 190.047 186.711C190.266 186.58 190.528 186.541 190.776 186.601C191.025 186.668 191.237 186.829 191.368 187.051C191.5 187.272 191.539 187.536 191.478 187.786C191.027 189.456 190.693 192.327 191.344 193.295C191.773 193.875 192.024 194.566 192.069 195.286C192.113 196.006 191.948 196.723 191.594 197.351C191.436 197.701 191.307 198.064 191.21 198.436C190.759 200.105 192.697 202.926 199.561 205.647C207.911 208.985 229.222 211.756 241.831 205.647C262.29 195.799 263.743 192.16 263.693 191.275C263.643 190.39 263.559 189.606 263.459 188.604C262.951 185.934 263.054 183.184 263.76 180.559C264.895 177.621 266.031 174.7 264.862 171.044C264.086 167.7 263.689 164.279 263.676 160.845C263.559 158.575 263.459 156.422 263.225 154.786C262.94 151.838 262.011 148.989 260.503 146.44C260.404 146.361 260.322 146.263 260.262 146.151C260.202 146.04 260.164 145.918 260.152 145.792C260.14 145.666 260.152 145.539 260.19 145.418C260.227 145.297 260.288 145.185 260.369 145.088C260.535 144.892 260.771 144.768 261.027 144.743C261.283 144.718 261.538 144.794 261.739 144.954C263.142 146.14 264.578 150.78 265.079 154.586C265.346 156.255 265.446 158.508 265.563 160.829C265.567 164.098 265.937 167.356 266.666 170.543C268.035 174.85 266.666 178.239 265.563 181.226C264.953 183.6 264.873 186.079 265.329 188.487C265.43 189.456 265.53 190.39 265.58 191.258C265.68 193.428 263.426 197.468 242.616 207.466C237.038 210.137 229.74 211.155 222.558 211.155Z" fill="#263238"/>
<path d="M309.587 212.825C305.249 212.712 300.934 212.153 296.711 211.156C292.819 210.254 292.051 205.163 291.483 201.441C291.385 200.147 291.074 198.878 290.565 197.685C288.26 196.149 287.893 194.797 287.893 191.259C287.699 189.436 286.9 187.732 285.621 186.418C284.806 185.374 284.091 184.256 283.484 183.079C282.131 180.375 277.438 167.155 278.573 163.349C279.375 160.695 276.135 154.686 270.791 152.616C264.979 150.346 253.372 143.168 252.887 142.868C252.778 142.801 252.684 142.714 252.609 142.611C252.534 142.507 252.48 142.39 252.451 142.266C252.421 142.142 252.417 142.013 252.437 141.888C252.458 141.762 252.503 141.641 252.57 141.533C252.708 141.316 252.924 141.162 253.174 141.103C253.423 141.044 253.686 141.084 253.906 141.215C254.023 141.215 265.847 148.61 271.492 150.813C277.588 153.184 281.513 160.111 280.427 163.9C279.609 166.671 283.517 178.823 285.204 182.261C285.797 183.328 286.484 184.339 287.258 185.283C288.794 186.93 289.729 189.047 289.913 191.292C289.913 194.63 290.231 195.114 291.734 196.116C292.803 196.834 293.087 198.653 293.404 201.124C293.922 204.462 294.556 208.635 297.145 209.236C306.097 211.289 316.218 211.823 317.286 208.184C318.188 205.13 317.804 200.289 317.453 196.016C317.131 193.363 317.064 190.686 317.253 188.02C317.671 185.066 312.243 164.518 308.903 152.249C307.316 146.273 306.063 141.566 305.663 139.697C304.493 134.188 270.724 109.751 262.073 106.312C254.624 103.291 243.501 99.3182 232.813 99.6354C232.671 99.6481 232.528 99.6258 232.397 99.5705C232.266 99.5152 232.151 99.4286 232.061 99.3182C230.465 97.4484 228.686 95.7429 226.75 94.2271L226.166 94.8614C223.861 97.3486 218.466 103.208 210.734 102.206C206.483 101.751 202.32 100.683 198.375 99.0345C198.403 99.9221 198.092 100.787 197.507 101.455L197.356 101.572C197.189 101.689 193.231 104.159 182.325 103.241C171.804 102.289 166.025 101.772 155.938 91.6899C153.115 88.869 149.842 85.4304 146.351 81.7748C138.302 73.145 129.116 63.5136 125.609 61.7609C121.601 59.7579 114.386 58.9567 111.78 58.723C111.496 61.7776 110.01 70.6912 102.461 73.7459C102.461 74.9477 102.996 78.4865 107.622 84.5457L110.177 87.8841C117.976 98.1999 136.264 122.353 142.059 124.841C143.93 125.642 147.07 126.76 150.644 128.045C160.414 131.551 172.589 135.907 176.213 139.546C179.286 142.601 181.925 154.269 184.263 164.584C185.632 170.594 187.052 176.82 187.887 177.821C189.601 179.446 191.592 180.752 193.766 181.677C195.22 182.226 196.537 183.086 197.624 184.198C197.762 184.413 197.81 184.674 197.757 184.924C197.704 185.174 197.554 185.393 197.34 185.533C197.125 185.669 196.867 185.717 196.618 185.668C196.369 185.618 196.149 185.474 196.004 185.266C195.055 184.508 194.011 183.88 192.897 183.397C190.481 182.365 188.278 180.893 186.401 179.057C185.315 177.771 184.229 173.114 182.376 165.018C180.371 155.905 177.516 143.552 174.843 140.865C171.503 137.527 159.078 133.07 149.992 129.815C146.368 128.513 143.312 127.394 141.291 126.476C135.028 123.789 117.191 100.236 108.641 88.919L106.085 85.5806C99.7055 77.2346 100.49 73.1116 100.607 72.6776C100.641 72.5192 100.716 72.3725 100.824 72.2523C100.933 72.1321 101.071 72.0427 101.225 71.9932C109.576 69.1889 109.91 57.6881 109.926 57.5712C109.931 57.4426 109.961 57.3161 110.014 57.1991C110.068 57.0822 110.145 56.9771 110.24 56.8901C110.334 56.8031 110.446 56.7358 110.567 56.6922C110.688 56.6487 110.817 56.6297 110.945 56.6365C111.363 56.6365 121.2 57.3208 126.477 59.9749C130.268 61.9446 139.187 71.2755 147.804 80.3059C151.278 83.9448 154.485 87.3834 157.357 90.1876C166.944 99.7689 172.155 100.203 182.543 101.188C191.695 102.022 195.536 100.286 196.187 99.9358C196.386 99.4789 196.472 98.9808 196.438 98.4836C196.438 97.9328 196.438 96.6642 197.624 96.6642C198.039 96.7167 198.442 96.8469 198.809 97.0481C202.673 98.7121 206.767 99.7814 210.951 100.22C217.631 101.071 222.642 95.7461 224.729 93.5428C225.101 93.0743 225.54 92.6636 226.032 92.3242C226.6 92.0572 227.702 91.5397 233.18 97.6991C244.069 97.4988 255.276 101.488 262.791 104.543C271.492 108.098 306.097 132.586 307.533 139.396C307.917 141.215 309.203 145.906 310.756 151.848C315.616 170.009 319.591 185.233 319.107 188.387C318.943 190.915 319.016 193.452 319.324 195.966C319.675 200.406 320.076 205.43 319.073 208.819C318.205 211.89 314.113 212.825 309.587 212.825Z" fill="#263238"/>
<path d="M210.583 110.285C207.602 110.3 204.639 109.82 201.815 108.866C192.162 105.528 192.262 102.273 192.379 101.655C192.419 101.401 192.559 101.172 192.767 101.02C192.975 100.869 193.235 100.806 193.49 100.846C193.745 100.885 193.973 101.025 194.125 101.233C194.277 101.441 194.34 101.701 194.3 101.956C194.3 102.122 194.684 104.359 202.45 106.963C207.711 108.648 213.361 108.686 218.645 107.072C223.928 105.458 228.591 102.269 232.011 97.9327C232.089 97.8329 232.186 97.7497 232.297 97.6879C232.408 97.6262 232.53 97.5872 232.656 97.5732C232.782 97.5592 232.909 97.5705 233.031 97.6065C233.152 97.6424 233.265 97.7023 233.364 97.7825C233.563 97.9458 233.69 98.1805 233.718 98.4363C233.746 98.6921 233.673 98.9487 233.514 99.1513C230.774 102.609 227.29 105.406 223.32 107.334C219.35 109.261 214.997 110.27 210.583 110.285Z" fill="#263238"/>
<path d="M126.043 33.835L6.42993 12.8864L117.007 16.7589L126.043 33.835Z" fill="#E8E8E8"/>
<path d="M106.352 16.375V10.9501L6.42993 12.8864L106.352 16.375Z" fill="#D9D9D9"/>
<path d="M112.832 10.8332L92.1897 0L6.42993 12.8863L112.832 10.8332Z" fill="#E8E8E8"/>
<path d="M101.542 73.9462C101.402 73.9514 101.263 73.924 101.135 73.866C101.008 73.8081 100.896 73.7212 100.807 73.6124C100.657 73.4454 85.9769 56.4028 81.6012 52.9642C80.6993 52.2631 79.7641 51.4953 78.7954 50.7107C74.8983 47.2122 70.5442 44.2586 65.8521 41.9307C59.8397 39.3935 52.1573 27.0413 51.84 26.5072C51.7742 26.3976 51.7306 26.2761 51.7118 26.1496C51.693 26.0232 51.6992 25.8943 51.7302 25.7703C51.7613 25.6463 51.8164 25.5296 51.8926 25.4269C51.9687 25.3243 52.0643 25.2375 52.174 25.1718C52.2836 25.106 52.4052 25.0625 52.5317 25.0437C52.6582 25.0249 52.7871 25.0311 52.9112 25.0621C53.0353 25.0931 53.152 25.1483 53.2548 25.2244C53.3575 25.3004 53.4443 25.396 53.5101 25.5056C53.5101 25.6225 61.1925 37.8411 66.6538 40.1613C71.4303 42.1811 76.0063 45.9201 80.0146 49.2085L82.787 51.4452C87.3296 55.0006 101.659 71.6427 102.277 72.3604C102.36 72.4554 102.424 72.5659 102.464 72.6855C102.504 72.8052 102.519 72.9316 102.51 73.0574C102.501 73.1833 102.467 73.306 102.409 73.4184C102.352 73.5309 102.273 73.6309 102.177 73.7125C102.002 73.8668 101.776 73.9502 101.542 73.9462Z" fill="#263238"/>
<path d="M72.2321 24.2704L9.00195 12.8864L74.5368 32.5831L72.2321 24.2704Z" fill="#9E9E9E"/>
<path d="M84.1732 35.4708L107.672 42.5315L109.342 30.9305L81.4175 25.9229C81.4175 25.9229 82.0354 29.545 82.3861 30.9305C82.8738 32.4842 83.4709 34.0014 84.1732 35.4708Z" fill="#9E9E9E"/>
<path d="M202.083 100.303H201.815C201.692 100.268 201.577 100.21 201.477 100.13C201.377 100.051 201.293 99.9528 201.231 99.8411C201.169 99.7293 201.129 99.6064 201.115 99.4794C201.101 99.3524 201.112 99.2238 201.147 99.101C201.147 99.101 202.968 92.6746 201.147 88.2511C201.083 88.1312 201.045 87.9991 201.035 87.8635C201.026 87.7278 201.045 87.5917 201.091 87.4639C201.138 87.3361 201.211 87.2195 201.305 87.1218C201.4 87.024 201.514 86.9473 201.64 86.8966C201.767 86.8459 201.902 86.8223 202.038 86.8275C202.174 86.8326 202.307 86.8663 202.43 86.9264C202.552 86.9864 202.66 87.0716 202.747 87.1761C202.834 87.2807 202.898 87.4025 202.934 87.5334C204.988 92.541 203.051 99.3514 202.934 99.6352C202.875 99.8186 202.762 99.9801 202.61 100.099C202.459 100.218 202.275 100.289 202.083 100.303Z" fill="#263238"/>
<path d="M223.66 96.9313C223.507 96.9313 223.356 96.895 223.219 96.8254C223.083 96.7558 222.965 96.6548 222.875 96.5307C220.236 92.8918 215.827 86.5154 215.994 84.7294C216.024 84.477 216.15 84.2457 216.346 84.0839C216.542 83.9222 216.793 83.8424 217.047 83.8614C217.3 83.8908 217.533 84.016 217.698 84.2115C217.863 84.407 217.946 84.6579 217.932 84.913C217.932 85.9312 221.272 91.1558 224.445 95.3956C224.52 95.4987 224.573 95.6154 224.603 95.7391C224.632 95.8628 224.637 95.9911 224.617 96.1166C224.597 96.2422 224.552 96.3625 224.485 96.4708C224.418 96.5791 224.331 96.6732 224.228 96.7477C224.062 96.8651 223.864 96.9292 223.66 96.9313Z" fill="#263238"/>
<path d="M331.732 247.294C331.502 247.29 331.272 247.262 331.048 247.211C328.376 246.626 317.921 235.927 316.017 233.323C314.545 231.463 312.665 229.967 310.522 228.949C309.458 230.425 308.791 232.15 308.585 233.957C308.384 236.428 308 238.848 306.564 239.833C306.22 240.059 305.829 240.203 305.42 240.252C305.011 240.301 304.597 240.255 304.209 240.116C301.236 239.215 301.687 236.461 302.322 232.655L302.539 231.303C303.201 228.324 304.328 225.468 305.879 222.84C306.146 222.339 306.43 221.789 306.581 221.455C305.812 220.169 302.673 214.995 300.518 211.439C300.387 211.219 300.347 210.957 300.406 210.707C300.465 210.458 300.619 210.242 300.836 210.104C300.944 210.037 301.065 209.992 301.191 209.971C301.317 209.951 301.445 209.956 301.57 209.985C301.694 210.015 301.811 210.068 301.914 210.143C302.017 210.218 302.105 210.312 302.172 210.421C303.19 212.09 308.234 220.32 308.468 220.804C308.702 221.288 308.468 221.955 307.583 223.675C306.138 226.123 305.084 228.781 304.46 231.553L304.226 232.905C303.575 236.878 303.541 237.83 304.76 238.197C305.228 238.347 305.395 238.197 305.478 238.197C306.347 237.613 306.581 234.725 306.664 233.773C306.841 231.272 307.887 228.91 309.62 227.097C309.794 226.977 309.991 226.897 310.199 226.863C310.407 226.828 310.62 226.839 310.823 226.896C313.444 228.041 315.74 229.819 317.503 232.071C320.075 235.409 329.829 244.89 331.449 245.241C331.632 245.241 331.95 245.324 332.033 245.157C332.117 244.991 332.033 243.655 330.597 242.303C328.676 240.634 322.346 232.288 322.898 230.368C322.956 230.159 323.071 229.97 323.23 229.823C323.389 229.676 323.586 229.575 323.799 229.534C324.701 229.35 325.603 230.001 330.764 234.541C333.419 236.895 337.444 240.434 338.446 240.634C338.833 240.71 339.223 240.766 339.615 240.801C339.405 240.43 339.171 240.073 338.914 239.733C338.112 238.614 336.526 236.878 334.989 235.192C333.112 233.3 331.407 231.245 329.895 229.05C329.777 228.824 329.753 228.56 329.828 228.316C329.903 228.072 330.071 227.868 330.296 227.748C330.523 227.627 330.787 227.6 331.034 227.672C331.28 227.743 331.489 227.908 331.616 228.132C333.054 230.178 334.657 232.104 336.409 233.89C338.079 235.693 339.615 237.396 340.484 238.597C341.352 239.799 342.154 241.051 341.469 241.936C340.784 242.821 339.432 242.737 338.129 242.453C336.826 242.17 333.937 239.799 329.545 235.927C328.376 234.892 326.973 233.64 325.837 232.705C327.565 235.624 329.616 238.339 331.95 240.801C333.803 242.47 334.555 244.54 333.82 245.959C333.646 246.365 333.354 246.709 332.982 246.947C332.61 247.186 332.174 247.306 331.732 247.294Z" fill="#263238"/>
<path d="M341.519 239.215C340.151 239.141 338.817 238.765 337.611 238.113C337.422 237.972 337.292 237.766 337.243 237.535C337.195 237.304 337.233 237.064 337.35 236.859C337.467 236.654 337.655 236.498 337.878 236.422C338.102 236.346 338.345 236.354 338.563 236.444C339.577 237.028 340.735 237.312 341.904 237.262L341.987 237.162C341.987 237.162 341.987 236.594 340.133 234.908C337.13 231.759 334.341 228.413 331.783 224.893C331.645 224.701 331.572 224.47 331.572 224.234C331.572 223.997 331.645 223.767 331.783 223.574C332.935 222.172 342.789 226.779 342.889 226.913C342.955 226.926 343.023 226.926 343.089 226.913C343.089 226.913 343.089 226.128 341.853 225.093C340.317 223.841 331.716 220.687 318.823 216.647L318.589 216.564C315.85 215.712 314.698 211.823 314.581 211.389C314.543 211.154 314.593 210.914 314.722 210.714C314.85 210.514 315.048 210.368 315.277 210.304C315.506 210.24 315.75 210.263 315.964 210.367C316.177 210.472 316.345 210.652 316.435 210.872C316.702 211.773 317.687 214.21 319.157 214.728H319.391C328.944 217.732 340.818 221.688 343.073 223.524C345.327 225.36 345.277 226.996 344.743 227.931C344.46 228.346 344.031 228.638 343.542 228.75C343.052 228.861 342.538 228.783 342.104 228.532C341.102 228.031 337.394 226.562 334.923 225.711C336.98 228.439 339.211 231.032 341.603 233.473C343.357 235.142 344.091 236.26 344.058 237.262C344.036 237.568 343.946 237.866 343.796 238.134C343.646 238.403 343.439 238.635 343.19 238.814C342.702 239.15 342.107 239.293 341.519 239.215Z" fill="#263238"/>
<path d="M188.287 16.3916C188.287 16.3916 176.33 19.4629 174.726 26.0062C173.123 32.5495 174.726 39.3599 179.887 38.6756C185.047 37.9912 191.811 33.5177 196.321 33.8348C200.83 34.152 199.878 35.8546 198.258 38.7089C196.638 41.5633 199.544 46.404 207.611 44.1506C215.677 41.8971 215.961 37.7074 221.79 39.3099C227.618 40.9123 222.307 54.1325 223.66 56.002C225.013 57.8715 225.33 60.5089 228.37 56.002C231.41 51.4951 235.986 45.3691 240.812 46.9882C245.639 48.6074 236.303 57.9383 231.476 59.8746L226.633 61.8109C226.633 61.8109 224.696 75.3315 221.79 77.2678C221.79 77.2678 241.146 74.6972 248.511 67.9202C255.877 61.1432 249.48 61.2433 250.766 57.6211C252.052 53.9989 259.467 53.8153 259.467 49.4253C259.467 45.0353 258.499 45.6863 251.735 42.4647C244.971 39.2431 246.891 37.6406 247.86 36.0215C248.829 34.4024 249.797 31.5146 244.319 29.8955C238.841 28.2764 225.948 24.4205 228.32 20.8817C230.691 17.343 231.927 10.2489 223.61 10.8665C215.293 11.4841 207.343 16.8923 202.617 16.3081C197.891 15.7239 193.532 14.472 188.287 16.3916Z" fill="#263238"/>
<path d="M204.07 89.2529H203.836L201.665 88.7688C196.037 87.5336 184.329 84.9797 178.083 80.5563C170.451 75.148 171.837 61.6942 173.207 57.4043C174.576 53.1144 177.666 38.609 177.699 38.392C177.725 38.2645 177.776 38.1437 177.851 38.0374C177.926 37.9311 178.022 37.8415 178.133 37.7744C178.24 37.7027 178.361 37.6552 178.488 37.635C178.615 37.6148 178.745 37.6225 178.868 37.6575C179.063 37.6754 179.258 37.6754 179.453 37.6575C179.552 37.6067 179.659 37.5728 179.77 37.5574C182.307 37.0676 184.774 36.2717 187.119 35.1871C190.459 33.8183 193.699 32.5163 196.388 32.7166C197.874 32.8335 199.728 33.1006 200.329 34.3859C200.93 35.6712 200.179 37.1734 199.11 39.0597C198.869 39.5237 198.771 40.0484 198.827 40.5681C198.884 41.0878 199.092 41.5792 199.427 41.9808C200.763 43.65 203.736 44.1341 207.343 43.1158C209.791 42.4338 212.106 41.3447 214.191 39.8943C216.496 38.4087 218.299 37.2402 222.057 38.225C226.7 39.527 225.631 46.1538 224.863 51.0112C224.525 52.4431 224.39 53.9152 224.462 55.3846C224.713 55.7351 224.93 56.119 225.147 56.4862C225.316 56.8476 225.542 57.18 225.815 57.4711C226.468 56.8518 227.03 56.1438 227.485 55.3679C230.207 51.4118 235.268 44.0506 241.046 45.9869C241.612 46.1327 242.114 46.4598 242.476 46.918C242.838 47.3762 243.04 47.9404 243.05 48.5241C243.167 52.3466 235.986 58.9901 231.744 60.676L227.368 62.4286C226.783 64.7655 224.278 74.5471 222.558 77.6519L222.224 78.2862C221.155 80.3894 218.884 84.7961 214.592 87.0662C214.366 87.1844 214.102 87.2086 213.858 87.1336C213.614 87.0586 213.41 86.8904 213.289 86.6656C213.17 86.4371 213.145 86.171 213.22 85.9245C213.295 85.678 213.464 85.4706 213.69 85.3469C217.464 83.3606 219.518 79.3378 220.504 77.4015L220.871 76.7171C222.642 73.4788 225.581 61.6942 225.614 61.4939C225.649 61.3452 225.718 61.207 225.817 61.0908C225.916 60.9746 226.041 60.8839 226.182 60.8262L231.026 58.8899C234.75 57.4043 241.196 51.1948 241.046 48.5742C241.046 48.3238 241.046 48.0233 240.361 47.8063C236.503 46.521 232.629 51.1448 229.021 56.4695C227.535 58.6228 226.5 59.4241 225.497 59.3907C224.495 59.3573 223.827 58.3391 223.31 57.4377C223.126 57.1205 222.942 56.7867 222.725 56.4695C222.057 55.5348 222.291 53.8489 222.725 50.6941C223.393 46.5711 224.295 40.9292 221.322 40.0946C218.349 39.26 217.214 40.0946 215.026 41.4633C212.859 43.0524 210.444 44.2709 207.878 45.0688C201.548 46.8382 198.793 44.4011 197.857 43.2661C197.29 42.5731 196.941 41.7272 196.854 40.8358C196.768 39.9443 196.949 39.0473 197.373 38.2584C197.957 37.2068 198.759 35.788 198.559 35.4208C198.559 35.4208 198.258 34.9701 196.204 34.8199C194.15 34.6696 190.826 35.9215 187.853 37.1568C185.402 38.2586 182.837 39.0871 180.204 39.6272C179.948 39.7217 179.676 39.767 179.403 39.7607C178.684 43.0991 176.213 54.3496 175.044 57.9885C173.875 61.6274 172.539 74.2467 179.202 78.9872C185.114 83.177 196.571 85.6641 202.066 86.8826L204.287 87.3667C204.411 87.3961 204.528 87.4497 204.631 87.5244C204.735 87.599 204.822 87.6934 204.889 87.8019C204.956 87.9105 205 88.0311 205.02 88.1569C205.04 88.2827 205.035 88.4113 205.005 88.5351C204.953 88.7424 204.832 88.9259 204.662 89.0562C204.493 89.1864 204.284 89.2557 204.07 89.2529Z" fill="#263238"/>
<path d="M175.645 52.8973C175.487 52.9001 175.331 52.8597 175.194 52.7805C172.987 51.499 171.062 49.7861 169.532 47.7441C168.003 45.7021 166.901 43.3729 166.292 40.8957C165.791 39.4523 165.791 37.8822 166.292 36.4389C166.549 36.0641 166.906 35.7687 167.322 35.5858C167.738 35.4029 168.197 35.3399 168.647 35.404C170.317 35.5542 172.488 37.0732 174.025 40.662C174.894 42.9121 176.014 45.0567 177.365 47.0551C177.522 47.2587 177.592 47.5164 177.559 47.7716C177.526 48.0267 177.394 48.2583 177.19 48.4155C176.986 48.5726 176.728 48.6425 176.473 48.6096C176.218 48.5767 175.986 48.4439 175.829 48.2402C174.343 46.1235 173.115 43.8372 172.171 41.4298C170.868 38.3418 169.182 37.3903 168.38 37.3236C167.996 37.3236 167.862 37.4571 167.829 37.5072C167.278 38.7257 169.232 47.5225 176.046 51.0779C176.234 51.18 176.384 51.3419 176.471 51.5381C176.557 51.7344 176.576 51.9538 176.525 52.162C176.473 52.3702 176.354 52.5554 176.186 52.6885C176.017 52.8216 175.809 52.895 175.595 52.8973H175.645Z" fill="#263238"/>
<path d="M215.076 50.2266H214.575C214.159 50.1539 213.775 49.9546 213.476 49.6559C213.177 49.3571 212.978 48.9735 212.905 48.5574C212.638 47.4223 210.233 45.8032 208.596 45.0186C208.48 44.9634 208.377 44.8857 208.291 44.7901C208.206 44.6945 208.14 44.5829 208.098 44.4618C208.057 44.3407 208.039 44.2125 208.047 44.0845C208.055 43.9566 208.088 43.8316 208.145 43.7166C208.199 43.6016 208.275 43.4984 208.369 43.4132C208.463 43.328 208.573 43.2625 208.693 43.2205C208.813 43.1785 208.94 43.1609 209.067 43.1687C209.194 43.1765 209.317 43.2096 209.431 43.266C210.233 43.6499 214.224 45.703 214.792 48.1234C214.792 48.2736 214.792 48.2736 214.926 48.2903C215.137 48.2971 215.346 48.2519 215.535 48.1588C215.725 48.0656 215.888 47.9274 216.011 47.7561C216.118 47.5985 216.176 47.4125 216.176 47.222C216.176 47.0315 216.118 46.8455 216.011 46.6878C214.742 44.3343 213.874 43.0156 212.805 42.7318C212.674 42.7079 212.549 42.6573 212.439 42.5831C212.328 42.5089 212.234 42.4127 212.162 42.3005C212.091 42.1884 212.043 42.0627 212.022 41.9313C212.001 41.7999 212.008 41.6656 212.041 41.5367C212.074 41.4079 212.134 41.2874 212.216 41.1826C212.298 41.0778 212.401 40.9911 212.518 40.9278C212.635 40.8645 212.764 40.826 212.897 40.8148C213.029 40.8035 213.163 40.8197 213.289 40.8623C215.226 41.3631 216.396 43.2993 217.715 45.7865C217.995 46.272 218.123 46.8297 218.085 47.3886C218.046 47.9475 217.842 48.4822 217.498 48.9246C217.216 49.3075 216.853 49.623 216.434 49.8482C216.015 50.0734 215.551 50.2026 215.076 50.2266Z" fill="#263238"/>
<path d="M180.371 43.4998C180.266 43.5159 180.159 43.5159 180.054 43.4998C179.554 43.3901 179.091 43.1524 178.71 42.8101C178.329 42.4677 178.044 42.0324 177.883 41.5468C177.806 41.0597 177.838 40.5615 177.976 40.0882C178.115 39.6149 178.357 39.1781 178.684 38.8093C178.868 38.6319 179.114 38.5327 179.369 38.5327C179.625 38.5327 179.87 38.6319 180.054 38.8093C180.23 38.9902 180.329 39.2328 180.329 39.4854C180.329 39.738 180.23 39.9806 180.054 40.1614C179.887 40.3617 179.603 40.8458 179.686 41.1128C179.77 41.3799 179.937 41.4467 180.254 41.5969C182.033 40.7851 183.947 40.3097 185.899 40.1948C186.185 40.1839 186.46 40.085 186.687 39.9117C186.915 39.7384 187.083 39.4991 187.168 39.2266C187.42 38.6533 187.467 38.0111 187.302 37.4072C187.082 37.4404 186.858 37.3972 186.666 37.2848C186.475 37.1723 186.328 36.9975 186.25 36.7896C186.161 36.559 186.165 36.303 186.262 36.0756C186.359 35.8482 186.54 35.6672 186.768 35.5711C187.072 35.4432 187.407 35.4083 187.731 35.4707C188.055 35.5331 188.353 35.69 188.588 35.9216C189.001 36.4788 189.258 37.1364 189.331 37.8261C189.405 38.5158 189.292 39.2126 189.006 39.8443C188.793 40.4867 188.39 41.0494 187.85 41.4578C187.31 41.8662 186.659 42.101 185.983 42.1311C184.167 42.2393 182.391 42.7044 180.755 43.4998C180.629 43.5285 180.498 43.5285 180.371 43.4998Z" fill="#263238"/>
<path d="M182.793 49.2584C181.817 48.8553 180.812 48.5261 179.787 48.2735C179.341 48.1546 178.889 48.0599 178.434 47.9898C177.916 47.8896 177.365 47.8396 176.647 47.6392C177.026 47.0444 177.585 46.585 178.242 46.3271C178.899 46.0692 179.621 46.026 180.304 46.2037C181.006 46.3524 181.635 46.7365 182.088 47.2922C182.54 47.8479 182.789 48.5418 182.793 49.2584Z" fill="#263238"/>
<path d="M200.413 51.9291C201.016 51.1157 201.874 50.5279 202.851 50.2599C203.835 49.976 204.874 49.9416 205.874 50.1597C206.861 50.3871 207.778 50.8512 208.546 51.5118C209.318 52.1471 209.896 52.9855 210.216 53.9321C209.264 53.5983 208.546 53.2144 207.711 52.9306C206.975 52.6364 206.215 52.4074 205.44 52.2462C204.673 52.0569 203.89 51.9451 203.101 51.9124C202.2 51.9124 201.348 51.9124 200.413 51.9291Z" fill="#263238"/>
<path d="M188.438 63.4301H188.254C186.541 63.0861 184.863 62.5832 183.244 61.9278C182.944 61.7991 182.678 61.6048 182.464 61.3592C182.25 61.1135 182.094 60.823 182.008 60.5089C181.853 59.3306 182.151 58.1374 182.843 57.1705L187.619 47.7728L187.786 47.5391C188.102 47.1679 188.501 46.8762 188.951 46.6877C189.401 46.4992 189.889 46.4192 190.375 46.4542C190.892 46.5605 191.381 46.7745 191.81 47.0822C192.238 47.3899 192.597 47.7845 192.863 48.2402C192.968 48.4342 193.009 48.6561 192.98 48.8745C192.98 48.8745 191.895 55.9854 191.778 58.8898C191.826 59.8747 191.555 60.849 191.004 61.6672C190.453 62.4854 189.653 63.1037 188.722 63.4301H188.438ZM189.223 48.741L184.463 58.1053C184.052 58.6422 183.829 59.299 183.828 59.9748C183.828 59.9748 183.828 60.0916 184.012 60.1584C185.414 60.7319 186.868 61.168 188.354 61.4604C188.823 61.1981 189.207 60.8074 189.462 60.3343C189.716 59.8612 189.83 59.3253 189.79 58.7896C189.907 56.1189 190.726 50.4436 190.96 48.9246C190.743 48.6357 190.438 48.4248 190.091 48.3237C189.924 48.3317 189.761 48.3744 189.611 48.4492C189.462 48.5239 189.329 48.629 189.223 48.7577V48.741Z" fill="#263238"/>
<path d="M176.647 51.8792C177.023 51.7564 177.421 51.7138 177.816 51.7541C178.21 51.7943 178.591 51.9165 178.935 52.1129C179.997 52.6966 180.845 53.6039 181.356 54.7027C181.866 55.8015 182.013 57.0344 181.774 58.2222C181.24 59.5909 179.503 58.0386 176.997 57.0537C176.179 56.7366 176.096 57.0537 175.327 56.7867L176.647 51.8792Z" fill="#263238"/>
<path d="M196.437 61.21C196.153 62.8792 199.243 62.4786 202.867 63.0628C206.491 63.647 209.247 65.0659 209.548 63.3299C209.848 61.5939 207.51 57.3207 203.903 56.7365C200.295 56.1523 196.721 59.474 196.437 61.21Z" fill="#263238"/>
<path d="M187.402 70.7245C189.59 70.0569 191.444 69.723 193.214 69.1722C194.102 68.918 194.972 68.6057 195.819 68.2374C196.705 67.8869 197.49 67.3861 198.592 66.8687C198.37 68.0178 197.785 69.0653 196.922 69.8565C196.062 70.6372 195.033 71.2085 193.916 71.5258C192.832 71.8393 191.697 71.9357 190.575 71.8095C189.442 71.7234 188.35 71.35 187.402 70.7245Z" fill="#263238"/>
<path d="M229.856 151.481C229.856 160.728 225.981 168.173 212.103 168.173C202.316 168.173 196.421 160.695 196.421 151.481C196.421 142.267 200.362 134.789 212.103 134.789C223.844 134.789 229.856 142.25 229.856 151.481Z" fill="#E8E8E8"/>
<path d="M210.433 153.568H210.116C209.581 153.568 208.563 153.568 208.262 152.65C207.961 151.732 208.646 151.298 209.114 150.981C209.351 150.791 209.569 150.578 209.765 150.346L209.615 150.246C208.362 149.378 199.978 149.645 192.596 150.413C192.47 150.429 192.342 150.42 192.219 150.386C192.096 150.351 191.981 150.293 191.882 150.213C191.782 150.134 191.699 150.035 191.639 149.923C191.578 149.811 191.54 149.688 191.528 149.562C191.504 149.306 191.582 149.05 191.744 148.851C191.906 148.651 192.14 148.523 192.396 148.493C195.018 148.226 208.245 146.941 210.767 148.66C211.058 148.834 211.301 149.077 211.473 149.369C211.645 149.661 211.741 149.991 211.753 150.33C211.76 150.593 211.715 150.856 211.62 151.102C211.526 151.349 211.383 151.574 211.201 151.765C212.003 151.765 213.105 151.581 214.375 151.431C219.969 150.764 229.405 149.645 237.589 151.832C237.83 151.904 238.034 152.068 238.157 152.288C238.279 152.507 238.311 152.766 238.246 153.01C238.181 153.253 238.024 153.461 237.807 153.59C237.591 153.719 237.333 153.759 237.088 153.701C229.188 151.615 220.07 152.7 214.608 153.351C212.704 153.384 211.318 153.568 210.433 153.568Z" fill="#263238"/>
<path d="M75.4218 40.5953C75.2329 40.5966 75.0479 40.5418 74.8903 40.4378C74.7327 40.3337 74.6096 40.1852 74.5367 40.011C73.8276 37.6465 73.5006 35.1841 73.568 32.7166L71.28 24.671C71.2395 24.5133 71.2387 24.3482 71.2777 24.1902C71.3167 24.0322 71.3943 23.8863 71.5035 23.7656C71.6127 23.6449 71.7501 23.5532 71.9034 23.4985C72.0568 23.4438 72.2213 23.428 72.3822 23.4524L80.4655 24.8713C80.8664 24.8713 82.8037 25.5056 83.1544 29.8789C83.315 31.7322 83.9474 33.5136 84.9915 35.0535C85.06 35.1609 85.1057 35.2812 85.1259 35.407C85.1462 35.5328 85.1405 35.6614 85.1092 35.7848C85.0779 35.9083 85.0217 36.0241 84.944 36.1251C84.8664 36.2261 84.7688 36.3102 84.6575 36.3721C84.5493 36.4382 84.429 36.482 84.3037 36.501C84.1783 36.5199 84.0504 36.5137 83.9275 36.4826C83.8046 36.4515 83.6892 36.3962 83.588 36.3199C83.4868 36.2436 83.4018 36.1479 83.3381 36.0383C82.137 34.2528 81.4126 32.19 81.2338 30.0458C81 27.1581 80.0647 26.7074 80.048 26.7074L73.568 25.5723L75.4719 32.2492C75.48 32.3436 75.48 32.4385 75.4719 32.533C75.3973 34.7864 75.6677 37.038 76.2736 39.2098C76.3744 39.4446 76.3783 39.7096 76.2845 39.9473C76.1906 40.1849 76.0066 40.3758 75.7725 40.4784C75.6636 40.5381 75.5448 40.5777 75.4218 40.5953Z" fill="#263238"/>
<path d="M110.895 58.6395C110.718 58.647 110.543 58.6004 110.394 58.506C108.189 57.204 88.7825 45.5529 86.1772 40.7455C86.0907 40.5958 86.0452 40.426 86.0452 40.2531C86.0452 40.0803 86.0907 39.9104 86.1772 39.7607C86.7181 38.7839 87.0427 37.7023 87.1291 36.5892C87.1401 36.4621 87.176 36.3383 87.2348 36.2251C87.2936 36.1118 87.3742 36.0112 87.4719 35.9291C87.5696 35.8469 87.6825 35.7848 87.8043 35.7463C87.926 35.7077 88.0541 35.6936 88.1813 35.7045C88.3085 35.7155 88.4323 35.7514 88.5456 35.8102C88.659 35.8689 88.7596 35.9494 88.8418 36.0471C88.924 36.1447 88.9861 36.2576 89.0247 36.3793C89.0632 36.5009 89.0774 36.629 89.0665 36.7561C88.9517 37.965 88.6297 39.1451 88.1145 40.2448C90.9537 44.2008 105.701 53.4816 111.346 56.9369C111.457 56.9989 111.555 57.0829 111.632 57.1839C111.71 57.2849 111.766 57.4007 111.797 57.5242C111.829 57.6477 111.834 57.7763 111.814 57.9021C111.794 58.0278 111.748 58.1481 111.68 58.2556C111.588 58.3766 111.469 58.4744 111.333 58.5411C111.197 58.6077 111.046 58.6415 110.895 58.6395Z" fill="#263238"/>
<path d="M209.13 389.561C209.13 389.561 208.212 375.439 207.46 374.755C206.709 374.071 197.106 375.373 195.135 374.388C193.164 373.403 192.079 378.795 190.809 379.395C189.54 379.996 186.868 377.426 188.688 374.071C190.509 370.716 183.027 364.69 181.156 364.84C179.286 364.99 167.361 369.848 158.142 370.415C148.923 370.983 141.591 369.247 139.053 370.582C136.514 371.917 134.159 373.42 137.7 377.493C141.241 381.565 149.391 389.628 160.213 389.728C171.035 389.828 173.574 388.059 174.91 386.49C176.246 384.921 178.25 382.066 179.703 384.987C181.156 387.908 181.19 391.864 183.711 392.616C186.233 393.367 203.502 397.373 209.13 389.561Z" fill="#263238"/>
<path d="M192.997 403.95C190.469 403.97 187.947 403.695 185.482 403.132C182.005 402.165 178.807 400.393 176.146 397.957C175.511 397.44 174.876 396.922 174.242 396.455C173.039 395.57 170.133 395.887 166.793 396.254C162.367 396.911 157.871 396.956 153.432 396.388C145.099 394.745 137.499 390.509 131.721 384.286C128.631 380.464 129.901 377.109 131.454 373.987C131.814 373.022 132.495 372.21 133.383 371.688C134.271 371.165 135.311 370.963 136.331 371.116C136.553 371.198 136.738 371.359 136.85 371.568C136.962 371.778 136.993 372.021 136.937 372.251C136.881 372.482 136.743 372.684 136.548 372.819C136.353 372.955 136.115 373.014 135.88 372.986C135.713 372.986 134.209 372.719 133.174 374.855C131.754 377.71 130.853 380.13 133.174 383.068C138.674 388.916 145.86 392.907 153.733 394.485C157.996 395.011 162.31 394.96 166.559 394.335C170.451 393.901 173.54 393.567 175.344 394.902C176.012 395.387 176.663 395.921 177.332 396.455C179.772 398.714 182.714 400.362 185.916 401.262C191.16 402.564 199.728 402.297 204.972 399.593C209.832 397.089 210.617 394.752 208.312 389.995C208.266 389.786 208.29 389.567 208.382 389.373C208.474 389.18 208.627 389.022 208.818 388.924C209.009 388.827 209.227 388.796 209.437 388.835C209.648 388.875 209.84 388.983 209.982 389.144C212.821 394.819 211.652 398.341 205.874 401.296C201.839 403.146 197.435 404.054 192.997 403.95Z" fill="#263238"/>
<path d="M184.63 371.5C184.452 371.501 184.277 371.451 184.126 371.357C183.975 371.262 183.855 371.127 183.778 370.966C183.72 370.856 183.685 370.736 183.674 370.613C183.663 370.49 183.676 370.366 183.713 370.248C183.751 370.13 183.811 370.02 183.891 369.926C183.971 369.831 184.069 369.753 184.179 369.697C184.313 369.597 188.672 366.626 193.431 347.063C193.448 346.927 193.493 346.796 193.563 346.679C193.634 346.562 193.728 346.461 193.84 346.383C193.953 346.305 194.08 346.252 194.215 346.227C194.349 346.201 194.487 346.205 194.62 346.237C194.753 346.269 194.878 346.329 194.986 346.412C195.094 346.496 195.183 346.602 195.248 346.722C195.312 346.843 195.35 346.976 195.359 347.112C195.369 347.248 195.349 347.385 195.302 347.513C190.292 368.278 185.582 371.149 185.064 371.4C184.929 371.466 184.78 371.501 184.63 371.5Z" fill="#263238"/>
<path d="M204.254 378.244C204.01 378.244 203.775 378.151 203.598 377.983C203.42 377.815 203.315 377.586 203.302 377.342C202.834 370.065 212.454 349.901 212.871 349.049C213.013 348.892 213.203 348.785 213.411 348.746C213.619 348.707 213.835 348.737 214.024 348.831C214.214 348.926 214.367 349.08 214.46 349.27C214.554 349.461 214.582 349.676 214.541 349.884C214.441 350.084 204.738 370.449 205.155 377.209C205.165 377.336 205.148 377.464 205.108 377.585C205.067 377.706 205.004 377.817 204.92 377.914C204.836 378.01 204.734 378.089 204.62 378.145C204.505 378.202 204.381 378.235 204.254 378.244Z" fill="#263238"/>
<path d="M211.803 350.535C205.456 350.535 194.049 347.196 188.588 343.975C182.877 340.636 184.613 328.317 186.133 317.434C186.317 316.099 186.501 314.78 186.668 313.528C187.336 308.354 187.169 298.405 186.985 288.774C186.785 277.406 186.601 266.657 187.653 262.2C189.59 253.854 206.375 223.14 207.093 221.838C207.151 221.725 207.231 221.625 207.329 221.544C207.426 221.462 207.54 221.402 207.662 221.366C207.784 221.33 207.912 221.32 208.038 221.335C208.164 221.35 208.286 221.391 208.396 221.454C208.507 221.514 208.606 221.595 208.686 221.693C208.766 221.791 208.825 221.904 208.861 222.025C208.897 222.146 208.908 222.273 208.894 222.399C208.88 222.524 208.841 222.646 208.78 222.756C208.613 223.073 191.411 254.638 189.524 262.634C188.538 266.857 188.739 277.991 188.922 288.74C189.089 298.438 189.273 308.47 188.588 313.778C188.421 315.047 188.238 316.366 188.037 317.701C186.684 327.466 184.981 339.635 189.557 342.305C195.252 345.644 208.63 349.366 213.556 348.465C215.978 348.031 224.195 345.66 228.788 333.609C232.529 323.81 233.564 291.394 233.564 288.023C232.914 286.059 231.986 284.198 230.808 282.497C228.487 278.591 227.468 276.672 228.404 275.587C229.339 274.502 230.558 275.32 231.059 275.587C233.158 276.64 235.116 277.952 236.888 279.493L238.023 280.378C238.023 280.378 238.023 280.194 238.023 280.094C237.606 278.575 237.138 277.223 236.754 276.138C235.952 273.784 235.501 272.482 236.253 271.614C236.502 271.372 236.813 271.203 237.151 271.124C237.489 271.044 237.843 271.058 238.174 271.163C240.712 271.664 242.098 271.481 243.184 270.462C244.487 269.06 267.417 232.07 269.037 224.058C270.874 215.178 270.707 205.296 268.686 202.058C266.315 198.269 263.442 194.43 263.409 194.396C263.257 194.19 263.192 193.932 263.23 193.679C263.267 193.426 263.404 193.197 263.609 193.044C263.709 192.966 263.824 192.908 263.947 192.875C264.07 192.842 264.198 192.833 264.324 192.85C264.451 192.868 264.572 192.91 264.682 192.975C264.791 193.039 264.886 193.126 264.962 193.228C264.962 193.228 267.918 197.167 270.323 201.023C272.979 205.28 272.628 216.263 270.941 224.392C269.254 232.521 245.839 270.412 244.403 271.848C242.533 273.717 240.111 273.517 237.723 273.083C237.92 273.911 238.171 274.725 238.474 275.52C238.858 276.638 239.343 278.024 239.777 279.61C240.111 280.862 240.361 282.13 239.476 282.698C238.591 283.265 237.489 282.514 235.635 281.029C233.983 279.591 232.16 278.363 230.207 277.373H230.107C230.788 278.841 231.563 280.262 232.428 281.629C234.299 284.801 235.451 286.821 235.451 288.139C235.451 288.473 234.7 323.527 230.558 334.41C225.548 347.413 216.529 350 213.857 350.485C213.175 350.563 212.488 350.58 211.803 350.535Z" fill="#263238"/>
<path d="M299.65 320.072C298.798 320.072 297.98 320.072 297.328 319.971C293.32 319.671 279.391 315.097 267.099 311.074C259.718 308.654 252.753 306.367 249.279 305.449C243.246 303.694 237.859 300.212 233.781 295.434C233.684 295.338 233.609 295.222 233.56 295.095C233.511 294.968 233.489 294.831 233.497 294.695C233.504 294.559 233.54 294.426 233.603 294.305C233.665 294.183 233.752 294.077 233.859 293.992C233.965 293.906 234.089 293.845 234.221 293.81C234.353 293.776 234.491 293.77 234.625 293.793C234.76 293.816 234.888 293.866 235.002 293.942C235.115 294.018 235.211 294.117 235.284 294.232C239.128 298.651 244.15 301.887 249.764 303.563C253.304 304.498 260.302 306.785 267.701 309.222C279.291 313.011 293.704 317.751 297.479 318.035C303.124 318.469 312.693 317.267 315.85 312.193C319.006 307.118 319.507 294.75 318.639 291.712L318.522 291.294C317.486 287.639 315.065 279.042 307.165 276.422C297.278 273.083 280.026 268.393 278.189 268.71C277.805 268.71 277.387 269.745 277.137 270.296C276.753 271.164 276.352 272.048 275.467 272.065C274.582 272.082 273.997 271.047 273.797 270.613C273.446 269.912 273.095 269.094 272.744 268.242C272.21 266.957 271.074 264.286 270.456 264.136C269.66 264.87 268.938 265.681 268.302 266.557C266.765 268.526 265.73 269.895 264.561 269.411C263.392 268.927 263.525 267.742 263.525 267.274C263.559 266.106 263.705 264.943 263.96 263.802C264.494 261.098 264.511 260.163 262.707 259.479C258.432 257.81 257.48 250.782 257.48 248.195C257.48 247.938 257.582 247.692 257.763 247.511C257.945 247.329 258.191 247.227 258.448 247.227C258.705 247.227 258.952 247.329 259.133 247.511C259.315 247.692 259.417 247.938 259.417 248.195C259.417 249.864 260.102 256.441 263.392 257.676C266.682 258.912 266.331 261.733 265.864 264.17C265.685 265.128 265.579 266.099 265.546 267.074C265.964 266.607 266.465 265.956 266.849 265.405C267.559 264.401 268.383 263.482 269.304 262.667C269.537 262.485 269.808 262.357 270.097 262.293C270.386 262.23 270.686 262.232 270.974 262.3C272.511 262.717 273.446 264.954 274.531 267.525C274.832 268.242 275.133 268.96 275.417 269.578C275.868 268.576 276.485 267.224 277.788 266.89C280.26 266.289 301.32 272.482 307.85 274.652C316.702 277.607 319.424 287.221 320.443 290.844L320.559 291.244C321.562 294.716 321.194 307.569 317.553 313.295C314.096 318.686 305.328 320.072 299.65 320.072Z" fill="#263238"/>
<path d="M428.732 383.235C428.393 383.259 428.053 383.259 427.714 383.235C427.459 383.197 427.23 383.06 427.076 382.853C426.923 382.647 426.858 382.388 426.895 382.133C426.933 381.878 427.07 381.649 427.277 381.496C427.484 381.342 427.743 381.277 427.997 381.315C428.131 381.315 439.688 382.717 449.859 363.254C458.627 346.562 459.045 341.554 458.911 340.286C458.594 340.519 458.176 340.903 457.792 341.254C456.801 342.267 455.636 343.092 454.352 343.691C452.431 344.459 431.705 362.052 427.463 380.581C427.435 380.704 427.384 380.82 427.311 380.924C427.238 381.027 427.145 381.114 427.037 381.181C426.93 381.248 426.811 381.293 426.686 381.313C426.561 381.333 426.433 381.328 426.311 381.298C426.186 381.273 426.067 381.222 425.962 381.15C425.857 381.078 425.768 380.985 425.699 380.878C425.631 380.77 425.585 380.65 425.563 380.525C425.542 380.399 425.546 380.271 425.576 380.147C430.018 360.75 451.362 342.806 453.634 341.888C454.698 341.384 455.66 340.688 456.473 339.835C457.121 339.063 457.971 338.485 458.928 338.166C459.203 338.107 459.49 338.13 459.752 338.234C460.013 338.339 460.238 338.518 460.397 338.75C462.702 341.821 455.855 355.96 451.563 364.105C442.294 381.732 431.972 383.235 428.732 383.235Z" fill="#263238"/>
<path d="M430.202 380.965C430.061 380.963 429.923 380.931 429.796 380.87C429.669 380.81 429.557 380.722 429.467 380.614C429.384 380.517 429.322 380.404 429.283 380.282C429.244 380.161 429.23 380.033 429.241 379.905C429.251 379.778 429.287 379.654 429.346 379.541C429.405 379.428 429.486 379.327 429.584 379.245C429.718 379.145 442.794 368.045 448.456 356.027C448.572 355.806 448.768 355.639 449.004 355.56C449.24 355.48 449.498 355.494 449.723 355.6C449.949 355.705 450.125 355.893 450.216 356.125C450.307 356.356 450.304 356.614 450.21 356.844C444.364 369.263 431.388 380.213 430.837 380.731C430.659 380.881 430.434 380.964 430.202 380.965Z" fill="#263238"/>
<path d="M427.914 357.646H427.831C427.704 357.637 427.58 357.604 427.467 357.547C427.353 357.49 427.252 357.411 427.17 357.314C427.088 357.218 427.025 357.106 426.987 356.985C426.948 356.864 426.934 356.737 426.946 356.611C428.265 340.736 436.014 324.361 449.976 307.97C450.561 307.269 450.962 306.801 451.129 306.568C451.465 306.028 451.772 305.471 452.047 304.898C453.183 302.762 454.101 301.093 455.387 301.46C456.673 301.827 457.057 303.129 456.707 309.806C456.005 323.16 446.903 348.999 446.519 350.084C446.487 350.215 446.429 350.339 446.346 350.446C446.264 350.553 446.16 350.642 446.041 350.707C445.923 350.772 445.792 350.811 445.657 350.822C445.522 350.833 445.386 350.816 445.259 350.771C445.131 350.727 445.014 350.656 444.915 350.564C444.816 350.471 444.738 350.359 444.685 350.235C444.633 350.11 444.607 349.976 444.609 349.841C444.611 349.706 444.642 349.572 444.699 349.45C444.799 349.183 454.101 322.826 454.719 309.706C454.872 307.789 454.872 305.864 454.719 303.947C454.369 304.498 453.951 305.282 453.684 305.783C453.417 306.284 452.949 307.169 452.648 307.603C452.348 308.037 452.014 308.387 451.362 309.155C437.668 325.246 430.085 341.237 428.799 356.694C428.796 356.934 428.704 357.164 428.54 357.34C428.377 357.516 428.153 357.625 427.914 357.646Z" fill="#263238"/>
<path d="M428.398 367.227H428.131C427.885 367.153 427.679 366.986 427.557 366.76C427.435 366.535 427.407 366.271 427.48 366.025C433.108 346.762 446.235 322.625 446.368 322.325C446.428 322.214 446.509 322.115 446.607 322.035C446.705 321.955 446.818 321.896 446.939 321.86C447.061 321.824 447.188 321.813 447.313 321.827C447.439 321.841 447.561 321.88 447.671 321.941C447.783 322.001 447.881 322.082 447.961 322.18C448.041 322.278 448.101 322.39 448.136 322.512C448.172 322.633 448.183 322.76 448.169 322.885C448.156 323.011 448.117 323.133 448.055 323.243C447.922 323.493 434.912 347.513 429.333 366.643C429.258 366.825 429.127 366.979 428.959 367.084C428.792 367.189 428.595 367.239 428.398 367.227Z" fill="#263238"/>
<path d="M422.536 381.282C422.287 381.283 422.047 381.188 421.868 381.015C421.2 380.38 405.568 365.074 407.388 345.961C408.975 329.269 413.033 313.562 416.24 311.509C416.454 311.353 416.702 311.251 416.963 311.211C417.225 311.17 417.492 311.192 417.743 311.275C419.664 311.943 420.064 314.764 420.566 318.352C420.839 321.204 421.479 324.01 422.469 326.698C425.158 333.025 431.655 362.002 428.164 377.693C428.095 377.928 427.939 378.129 427.728 378.254C427.516 378.378 427.266 378.418 427.026 378.365C426.786 378.312 426.575 378.17 426.436 377.968C426.298 377.766 426.241 377.518 426.277 377.276C429.617 361.969 423.321 333.642 420.682 327.45C419.633 324.621 418.949 321.671 418.645 318.669C418.328 316.449 417.943 313.662 417.225 313.211C415.422 314.346 411.079 327.633 409.309 346.195C407.639 364.322 423.054 379.462 423.204 379.579C423.354 379.709 423.459 379.881 423.506 380.074C423.552 380.266 423.538 380.468 423.464 380.651C423.391 380.835 423.262 380.991 423.096 381.098C422.929 381.205 422.734 381.257 422.536 381.248V381.282Z" fill="#263238"/>
<path d="M423.872 378.995C423.686 378.993 423.504 378.939 423.348 378.839C423.191 378.739 423.066 378.596 422.987 378.427C414.636 359.966 413.284 334.043 413.284 333.793C413.275 333.666 413.291 333.539 413.332 333.419C413.372 333.299 413.436 333.189 413.52 333.094C413.604 332.999 413.707 332.922 413.821 332.867C413.935 332.812 414.059 332.781 414.186 332.774C414.435 332.77 414.677 332.863 414.858 333.035C415.039 333.207 415.145 333.443 415.154 333.692C415.154 333.943 416.574 359.515 424.707 377.643C424.809 377.875 424.815 378.139 424.725 378.376C424.634 378.613 424.454 378.806 424.223 378.911C424.113 378.963 423.994 378.992 423.872 378.995Z" fill="#263238"/>
<path d="M422.736 331.222C422.49 331.223 422.254 331.13 422.074 330.962C421.894 330.795 421.785 330.566 421.768 330.321C420.281 304.848 430.853 282.865 435.93 272.315C436.861 270.492 437.692 268.62 438.419 266.707C439.537 262.951 440.974 262.317 441.959 262.45C443.412 262.634 445.383 264.403 445.734 277.34C446.184 293.665 441.425 322.208 441.391 322.408C441.37 322.535 441.325 322.655 441.257 322.764C441.19 322.872 441.102 322.966 440.998 323.041C440.894 323.115 440.776 323.168 440.652 323.197C440.527 323.226 440.398 323.231 440.272 323.21C440.146 323.189 440.025 323.143 439.917 323.076C439.808 323.008 439.714 322.92 439.64 322.816C439.565 322.713 439.512 322.595 439.483 322.471C439.454 322.346 439.45 322.217 439.471 322.091C439.471 321.808 444.23 293.431 443.796 277.306C443.479 265.271 441.692 264.286 441.675 264.27C440.977 265.109 440.495 266.106 440.272 267.174C439.523 269.189 438.653 271.156 437.667 273.067C432.657 283.482 422.252 305.149 423.705 330.12C423.712 330.247 423.693 330.375 423.651 330.495C423.608 330.615 423.542 330.725 423.457 330.82C423.372 330.914 423.269 330.991 423.153 331.046C423.038 331.101 422.914 331.132 422.786 331.138L422.736 331.222Z" fill="#263238"/>
<path d="M427.547 353.523C427.307 353.52 427.077 353.431 426.899 353.271C426.72 353.112 426.606 352.892 426.578 352.655C426.261 349.767 427.296 345.36 429.2 337.348C430.152 333.309 431.321 328.284 432.657 322.075C435.448 307.722 437.505 293.237 438.82 278.675C438.849 278.422 438.974 278.189 439.17 278.024C439.366 277.86 439.617 277.776 439.872 277.791C439.999 277.801 440.122 277.837 440.235 277.896C440.347 277.954 440.447 278.035 440.528 278.133C440.609 278.231 440.67 278.345 440.706 278.466C440.742 278.588 440.754 278.716 440.74 278.842C439.423 293.482 437.36 308.045 434.561 322.475C433.208 328.702 432.022 333.726 431.07 337.765C429.233 345.577 428.215 349.867 428.499 352.438C428.527 352.692 428.453 352.948 428.293 353.148C428.134 353.348 427.901 353.477 427.647 353.506L427.547 353.523Z" fill="#263238"/>
<path d="M442.444 388.075C442.235 388.075 442.033 388.008 441.865 387.885C441.697 387.762 441.572 387.589 441.508 387.391C441.436 387.145 441.463 386.881 441.586 386.656C441.708 386.43 441.914 386.263 442.16 386.189L444.13 385.572C444.035 385.52 443.945 385.459 443.863 385.388C443.674 385.213 443.537 384.99 443.466 384.743C443.395 384.496 443.394 384.234 443.462 383.986C443.793 382.989 444.284 382.054 444.915 381.215L445.132 380.898C441.508 382.267 436.481 383.752 433.024 382.25C432.907 382.201 432.8 382.129 432.711 382.038C432.621 381.948 432.55 381.841 432.502 381.723C432.454 381.605 432.43 381.479 432.43 381.352C432.431 381.224 432.457 381.099 432.506 380.981C432.612 380.746 432.807 380.562 433.047 380.468C433.288 380.375 433.555 380.379 433.792 380.48C437.133 381.916 442.911 379.679 444.832 378.945C445.517 378.678 446.769 378.194 447.437 379.045C448.105 379.896 447.437 380.898 446.535 382.283C446.218 382.751 445.867 383.285 445.617 383.752C446.168 383.619 446.919 383.385 447.521 383.201C449.132 382.61 450.819 382.25 452.531 382.133C453.6 382.133 453.917 382.65 453.967 383.084C454.101 383.986 454.201 384.57 442.744 388.092L442.444 388.075Z" fill="#263238"/>
<path d="M419.363 380.714C419.205 380.717 419.049 380.677 418.912 380.597C416.274 379.154 413.874 377.313 411.797 375.139C410.211 373.47 409.042 373.019 408.457 373.169C408.349 373.213 408.256 373.287 408.188 373.381C408.12 373.476 408.08 373.587 408.073 373.704C408.045 373.954 407.95 374.192 407.797 374.392C407.644 374.592 407.439 374.746 407.205 374.839C406.286 375.189 405.384 374.455 404.332 373.603L404.065 373.403C404.065 373.52 404.065 373.637 404.065 373.737C404.232 375.69 404.499 378.628 402.395 379.596C402.278 379.648 402.153 379.678 402.025 379.682C401.898 379.686 401.771 379.665 401.651 379.62C401.532 379.575 401.423 379.507 401.33 379.42C401.236 379.333 401.161 379.228 401.109 379.112C401.056 378.996 401.027 378.87 401.023 378.743C401.019 378.615 401.04 378.488 401.085 378.369C401.13 378.249 401.198 378.14 401.285 378.047C401.372 377.954 401.477 377.879 401.593 377.826C402.445 377.443 402.244 375.222 402.127 373.904C402.011 372.585 401.927 371.517 402.729 371.066C403.53 370.615 404.482 371.283 405.518 372.101L406.319 372.735C406.459 372.397 406.672 372.094 406.944 371.848C407.215 371.603 407.538 371.421 407.889 371.317C408.741 371.066 410.545 371.066 413.117 373.82C415.049 375.807 417.266 377.495 419.697 378.828C419.812 378.886 419.914 378.967 419.998 379.065C420.081 379.163 420.144 379.277 420.183 379.4C420.222 379.522 420.236 379.652 420.224 379.78C420.212 379.908 420.175 380.033 420.114 380.147C420.047 380.296 419.942 380.427 419.811 380.526C419.68 380.625 419.526 380.69 419.363 380.714Z" fill="#263238"/>
<path d="M84.3735 379.529C82.6474 379.528 80.9233 379.411 79.2129 379.178C71.6306 378.16 60.5746 374.171 51.0216 361.418C35.1723 340.169 34.5544 322.876 34.3205 315.481C34.3205 314.363 34.3205 313.495 34.1702 312.861C33.7527 309.522 34.1702 305.583 36.1243 304.765C36.6253 304.531 37.6441 304.364 38.7296 305.683C39.4328 306.663 39.8491 307.819 39.9321 309.021C40.2828 311.158 40.6836 313.595 45.41 316.349C55.297 322.075 88.2315 343.207 97.3502 374.588C97.3991 374.713 97.4213 374.848 97.4154 374.982C97.4095 375.116 97.3757 375.248 97.316 375.369C97.2563 375.489 97.1721 375.596 97.0688 375.682C96.9655 375.769 96.8454 375.833 96.716 375.87C96.5867 375.907 96.451 375.917 96.3176 375.899C96.1842 375.881 96.056 375.835 95.9412 375.765C95.8265 375.695 95.7277 375.601 95.6511 375.49C95.5745 375.38 95.5218 375.254 95.4964 375.122C86.5781 344.442 54.1614 323.66 44.4414 318.018C38.9133 314.814 38.3956 311.642 38.0282 309.338C37.9776 308.494 37.707 307.676 37.2432 306.968C37.1315 306.807 36.9825 306.675 36.809 306.584C36.4917 306.785 35.6232 308.955 36.0909 312.677C36.0909 313.345 36.2078 314.346 36.2579 315.465C36.5084 322.676 37.1096 339.551 52.5915 360.316C61.7102 372.568 72.1985 376.307 79.3966 377.309C83.9462 377.979 88.5852 377.707 93.0247 376.508C93.2683 376.429 93.5334 376.449 93.7618 376.565C93.9903 376.681 94.1636 376.882 94.2438 377.125C94.2854 377.246 94.3022 377.373 94.2935 377.5C94.2847 377.627 94.2505 377.752 94.1929 377.865C94.1353 377.979 94.0554 378.08 93.958 378.162C93.8606 378.244 93.7477 378.306 93.6259 378.344C90.6179 379.197 87.4995 379.596 84.3735 379.529Z" fill="#263238"/>
<path d="M93.5257 376.124H93.3587C92.7408 376.007 77.9771 373.369 62.061 359.181C52.1982 350.057 45.0244 338.408 41.3183 325.497C41.2887 325.373 41.2838 325.244 41.3039 325.118C41.3239 324.993 41.3686 324.872 41.4353 324.764C41.5019 324.655 41.5894 324.561 41.6925 324.486C41.7957 324.411 41.9125 324.358 42.0365 324.328C42.1604 324.298 42.2889 324.294 42.4147 324.314C42.5405 324.334 42.6612 324.378 42.7697 324.445C42.8783 324.512 42.9726 324.599 43.0474 324.702C43.1222 324.805 43.1759 324.922 43.2055 325.046C46.7995 337.587 53.7659 348.903 63.347 357.762C78.8121 371.567 93.5424 374.221 93.6927 374.237C93.9429 374.286 94.1644 374.43 94.3108 374.639C94.4571 374.847 94.517 375.104 94.4777 375.356C94.4346 375.575 94.3155 375.772 94.1414 375.913C93.9674 376.053 93.7494 376.128 93.5257 376.124Z" fill="#263238"/>
<path d="M102.979 375.79C102.726 375.812 102.475 375.733 102.281 375.57C102.087 375.407 101.965 375.174 101.943 374.922C101.921 374.67 102 374.419 102.163 374.225C102.326 374.031 102.559 373.909 102.812 373.887C102.995 373.887 121.183 370.064 121.868 336.363C122.703 299.19 115.187 281.379 110.528 276.722C109.559 275.737 108.707 275.27 108.29 275.437C106.503 276.138 106.352 284.334 106.269 289.224C106.135 295.768 102.929 302.061 98.6197 310.791C97.1334 313.762 95.4633 317.134 93.7096 320.806C87.1795 334.844 90.6868 359.064 90.7202 359.298C90.7554 359.43 90.7623 359.567 90.7406 359.702C90.7189 359.837 90.6689 359.965 90.5941 360.079C90.5192 360.193 90.4211 360.29 90.3062 360.363C90.1913 360.437 90.0621 360.485 89.9272 360.505C89.7922 360.526 89.6546 360.517 89.5232 360.48C89.3918 360.443 89.2697 360.379 89.1648 360.292C89.06 360.205 88.9747 360.097 88.9146 359.974C88.8545 359.852 88.821 359.718 88.8162 359.582C88.6659 358.58 85.1754 334.544 91.956 319.988C93.6261 316.232 95.4131 312.861 96.9663 309.873C101.208 301.376 104.281 295.25 104.398 289.141C104.549 280.461 104.866 274.686 107.638 273.584C109.526 272.833 111.363 274.702 111.964 275.253C118.427 281.78 124.607 303.196 123.872 336.296C123.07 371.684 104.031 375.523 103.229 375.673L102.979 375.79Z" fill="#263238"/>
<path d="M80.4154 384.403C74.7204 384.203 74.5199 383.201 74.4197 382.734C74.3195 382.267 74.7204 381.465 75.7057 381.065C77.088 380.448 78.6103 380.211 80.1148 380.38C81.2382 380.502 82.3745 380.394 83.455 380.063C86.0103 379.279 86.4111 378.311 86.4111 378.311C86.4405 378.189 86.4936 378.074 86.5675 377.973C86.6413 377.872 86.7345 377.786 86.8416 377.721C86.9486 377.656 87.0675 377.612 87.1914 377.593C87.3153 377.574 87.4417 377.58 87.5635 377.61C87.8129 377.677 88.0269 377.837 88.1607 378.058C88.2945 378.279 88.3378 378.543 88.2816 378.795C88.2816 379.112 87.6637 380.798 84.0228 381.916C82.709 382.312 81.3305 382.448 79.9645 382.317C79.2493 382.225 78.5253 382.225 77.81 382.317C78.595 382.417 79.4801 382.484 80.4321 382.517C80.689 382.517 80.9354 382.619 81.1171 382.801C81.2987 382.982 81.4008 383.228 81.4008 383.485C81.4008 383.742 81.2987 383.988 81.1171 384.17C80.9354 384.351 80.689 384.453 80.4321 384.453L80.4154 384.403Z" fill="#263238"/>
<path d="M109.693 378.912C109.561 378.912 109.432 378.885 109.311 378.833C109.19 378.782 109.082 378.706 108.991 378.611C108.81 378.43 108.708 378.183 108.708 377.927C108.708 377.67 108.81 377.424 108.991 377.242C109.603 376.683 110.162 376.068 110.661 375.406L110.561 375.506C109.876 376.324 108.891 377.543 107.505 376.858C106.962 376.532 106.489 376.102 106.113 375.592C105.738 375.082 105.467 374.502 105.317 373.887C105.257 373.637 105.299 373.373 105.434 373.154C105.568 372.935 105.785 372.778 106.035 372.719C106.285 372.659 106.549 372.701 106.768 372.836C106.988 372.97 107.144 373.186 107.204 373.436C107.385 374.122 107.813 374.717 108.407 375.106C108.607 374.79 108.836 374.494 109.091 374.221C109.793 373.403 110.979 372.018 112.432 372.986C112.637 373.127 112.809 373.314 112.933 373.53C113.057 373.747 113.131 373.989 113.15 374.238C113.25 375.79 111.246 377.827 110.377 378.628C110.192 378.804 109.948 378.905 109.693 378.912Z" fill="#263238"/>
<path d="M102.862 371.567C102.735 371.592 102.605 371.592 102.478 371.567C102.36 371.516 102.253 371.442 102.165 371.35C102.076 371.257 102.007 371.147 101.961 371.027C101.916 370.907 101.896 370.779 101.901 370.651C101.907 370.523 101.938 370.397 101.994 370.281C111.369 346.825 114.888 321.439 112.248 296.319C112.22 296.062 112.293 295.805 112.452 295.602C112.611 295.399 112.844 295.267 113.1 295.234C113.226 295.217 113.355 295.227 113.477 295.261C113.6 295.295 113.715 295.354 113.814 295.433C113.914 295.513 113.997 295.611 114.058 295.723C114.119 295.835 114.156 295.958 114.169 296.085C118.979 336.78 103.897 370.732 103.747 371.083C103.658 371.237 103.529 371.364 103.373 371.449C103.216 371.534 103.04 371.575 102.862 371.567Z" fill="#263238"/>
<path d="M89.1667 355.643C88.9883 355.645 88.8129 355.597 88.6596 355.506C88.5064 355.415 88.3813 355.283 88.2983 355.125C88.1814 354.875 75.5387 329.77 79.6138 292.162C81.2522 275.813 85.0369 259.751 90.8703 244.39C92.8076 239.031 94.0768 235.493 93.7261 233.289C93.5424 232.154 92.056 222.139 94.8117 220.904C95.3628 220.653 96.2647 220.62 97.3001 221.888C100.206 225.461 108.991 252.502 108.473 274.819C108.473 274.946 108.448 275.072 108.399 275.19C108.351 275.307 108.279 275.414 108.189 275.504C108.099 275.594 107.993 275.665 107.875 275.714C107.758 275.762 107.632 275.787 107.504 275.787C107.377 275.787 107.251 275.762 107.134 275.714C107.016 275.665 106.909 275.594 106.82 275.504C106.73 275.414 106.658 275.307 106.61 275.19C106.561 275.072 106.536 274.946 106.536 274.819C107.054 252.318 98.035 225.895 95.7971 223.074L95.5298 222.79C95.0288 223.858 94.8451 227.931 95.6467 232.955C96.0643 235.643 94.7282 239.365 92.6907 245.007C86.9199 260.226 83.1692 276.136 81.5344 292.329C77.5261 329.336 89.8849 353.957 90.0185 354.207C90.0787 354.32 90.1157 354.443 90.1273 354.57C90.1388 354.697 90.1247 354.825 90.0857 354.946C90.0468 355.068 89.9838 355.18 89.9005 355.277C89.8173 355.374 89.7154 355.453 89.601 355.509C89.4689 355.587 89.32 355.633 89.1667 355.643Z" fill="#263238"/>
<path d="M89.484 333.943C89.2328 333.943 88.9914 333.845 88.8106 333.671C88.6299 333.496 88.524 333.259 88.5154 333.008C88.5154 332.657 88.2983 324.528 91.4548 306.935C94.6113 289.341 98.1352 247.694 98.1352 247.26C98.1646 247.007 98.2899 246.774 98.4855 246.609C98.6811 246.445 98.9322 246.361 99.1874 246.376C99.3141 246.386 99.4375 246.422 99.5502 246.481C99.6629 246.539 99.7627 246.62 99.8437 246.718C99.9246 246.816 99.9851 246.929 100.022 247.051C100.058 247.173 100.07 247.301 100.056 247.427C100.056 247.845 96.4651 289.758 93.3754 307.285C90.2857 324.812 90.4527 332.858 90.4694 332.941C90.4697 333.198 90.3711 333.446 90.1938 333.632C90.0166 333.818 89.7744 333.93 89.5174 333.943H89.484Z" fill="#263238"/>
<path d="M65.6017 332.657C65.4627 332.656 65.3257 332.625 65.1992 332.568C65.0726 332.51 64.9595 332.427 64.8668 332.323C64.7332 332.157 50.8714 316.082 47.4811 294.499C44.0908 272.916 42.6545 265.722 40.4666 262.617C39.1974 260.798 39.1473 258.845 40.3497 257.726C41.0011 257.109 43.6899 255.473 49.6188 260.347C57.485 266.773 76.0231 290.393 80.6994 305.8C80.7559 306.04 80.7182 306.293 80.5943 306.507C80.4703 306.72 80.2693 306.878 80.0324 306.949C79.7956 307.019 79.5408 306.996 79.3201 306.885C79.0995 306.774 78.9298 306.583 78.8456 306.35C74.353 291.545 55.9151 267.959 48.3829 261.849C44.6252 258.778 42.3038 258.511 41.7025 259.145C41.3351 259.496 41.3351 260.414 42.1033 261.499C44.5417 264.954 45.9279 271.948 49.4351 294.199C52.7753 315.231 66.253 330.921 66.3866 331.055C66.4703 331.151 66.534 331.263 66.5743 331.384C66.6145 331.505 66.6304 331.633 66.6211 331.76C66.6118 331.887 66.5775 332.011 66.52 332.125C66.4626 332.239 66.3832 332.34 66.2864 332.424C66.0961 332.585 65.8513 332.669 65.6017 332.657Z" fill="#263238"/>
<path d="M86.8455 350.318C86.7021 350.319 86.5603 350.288 86.4303 350.227C86.3003 350.166 86.1854 350.078 86.0939 349.967C86.0939 349.867 77.9438 340.119 67.2218 324.545C56.4997 308.971 50.6711 280.695 50.4205 279.476C50.3963 279.351 50.397 279.223 50.4225 279.098C50.448 278.973 50.4978 278.855 50.5692 278.75C50.6405 278.644 50.732 278.554 50.8383 278.484C50.9446 278.414 51.0637 278.365 51.1888 278.341C51.4384 278.296 51.6958 278.349 51.9073 278.489C52.1189 278.629 52.2683 278.845 52.3245 279.092C52.3245 279.393 58.2533 308.07 68.8251 323.443C79.3968 338.817 87.5135 348.615 87.597 348.715C87.7578 348.916 87.8338 349.171 87.8089 349.427C87.7839 349.683 87.6599 349.918 87.4634 350.084C87.2912 350.232 87.0725 350.315 86.8455 350.318Z" fill="#263238"/>
<path d="M58.6542 272.332C58.4467 272.327 58.2462 272.256 58.0813 272.13C57.9163 272.004 57.7953 271.83 57.7356 271.631C57.7356 271.431 51.5896 250.966 49.6857 237.646C49.2348 234.424 48.8006 231.787 48.4498 229.617C47.5146 223.958 47.1639 221.822 48.2828 220.753C48.5824 220.504 48.9387 220.333 49.3203 220.254C49.7019 220.176 50.097 220.192 50.4707 220.303C53.6105 220.92 80.0482 241.084 86.428 264.37C86.4652 264.494 86.4772 264.624 86.4632 264.753C86.4491 264.882 86.4093 265.007 86.3462 265.12C86.283 265.233 86.1978 265.332 86.0955 265.412C85.9933 265.491 85.8761 265.55 85.7508 265.583C85.6256 265.617 85.4949 265.625 85.3665 265.607C85.2381 265.589 85.1146 265.546 85.0033 265.479C84.892 265.413 84.7952 265.325 84.7187 265.22C84.6421 265.116 84.5873 264.997 84.5575 264.871C78.495 242.804 52.9925 222.756 50.1032 222.189C49.9321 222.158 49.7567 222.158 49.5855 222.189C49.2515 222.673 49.7692 225.761 50.3538 229.35C50.7045 231.503 51.1387 234.174 51.6063 237.412C53.4769 250.599 59.5226 270.913 59.5894 271.113C59.6621 271.359 59.6343 271.624 59.5122 271.849C59.3901 272.074 59.1837 272.242 58.9381 272.315C58.8453 272.338 58.749 272.344 58.6542 272.332Z" fill="#263238"/>
<path d="M79.9477 301.193C79.7217 301.196 79.5017 301.119 79.3273 300.976C79.1529 300.832 79.0354 300.631 78.9957 300.408C77.2152 292.967 74.0357 285.932 69.6265 279.677C61.8772 268.393 57.1675 243.221 56.9838 242.153C56.9595 242.028 56.9602 241.899 56.9857 241.775C57.0112 241.65 57.061 241.532 57.1324 241.426C57.2038 241.321 57.2952 241.23 57.4015 241.16C57.5079 241.09 57.627 241.042 57.752 241.018C58.0059 240.978 58.2652 241.037 58.4766 241.183C58.6879 241.329 58.8351 241.551 58.8877 241.802C58.8877 242.053 63.6976 267.642 71.2131 278.525C75.8043 284.991 79.0942 292.287 80.8997 300.008C80.9236 300.133 80.9222 300.262 80.8954 300.386C80.8687 300.511 80.8172 300.629 80.744 300.733C80.6708 300.837 80.5774 300.926 80.4693 300.993C80.3612 301.061 80.2406 301.106 80.1147 301.126L79.9477 301.193Z" fill="#263238"/>
<path d="M91.3546 246.843C91.2274 246.839 91.1023 246.81 90.9864 246.757C90.8705 246.704 90.7662 246.629 90.6793 246.536C90.5924 246.443 90.5248 246.334 90.4802 246.215C90.4356 246.096 90.4149 245.969 90.4194 245.842C90.7701 236.611 89.6344 230.518 86.361 224.142L85.9769 223.424C79.5303 210.755 71.9647 195.532 70.8625 190.257C70.1443 186.919 69.0254 185.566 68.4909 185.55C68.374 185.55 66.9878 185.667 65.301 191.259C62.4284 200.706 69.1757 235.91 69.2592 236.327C69.3079 236.58 69.2543 236.841 69.1102 237.054C68.9662 237.267 68.7434 237.414 68.4909 237.462C68.2384 237.511 67.977 237.458 67.764 237.314C67.551 237.17 67.404 236.947 67.3553 236.695C67.0713 235.226 60.441 200.656 63.4472 190.758C64.8835 185.984 66.5369 183.664 68.4575 183.664H68.4742C70.9794 183.764 72.1651 187.62 72.6495 189.906C73.852 195.598 83.8392 215.212 87.6804 222.59L88.0478 223.324C91.4882 230.001 92.6907 236.427 92.3233 246.009C92.2908 246.242 92.1746 246.455 91.9964 246.609C91.8181 246.762 91.59 246.846 91.3546 246.843Z" fill="#263238"/>
<path d="M84.4403 262.3C84.1984 262.297 83.9659 262.205 83.7872 262.042C83.6086 261.879 83.4963 261.656 83.4717 261.415C83.4717 261.299 82.5364 249.047 81.6179 241.235C80.6993 233.423 71.5972 219.034 71.4636 218.901C71.3263 218.679 71.2826 218.412 71.3421 218.159C71.4016 217.905 71.5595 217.686 71.781 217.549C72.0024 217.411 72.2694 217.368 72.5231 217.427C72.7768 217.487 72.9964 217.644 73.1337 217.866C73.5179 218.467 82.6199 232.889 83.5719 241.001C84.5238 249.113 85.4257 261.148 85.4424 261.265C85.4609 261.519 85.3783 261.771 85.2126 261.964C85.0469 262.158 84.8114 262.279 84.5572 262.3H84.4403Z" fill="#263238"/>
<ellipse cx="264.712" cy="269.578" rx="0.835059" ry="0.834599" fill="#263238"/>
<ellipse cx="275.567" cy="272.082" rx="1.6701" ry="1.66921" fill="#263238"/>
<ellipse cx="263.876" cy="268.743" rx="1.6701" ry="1.6692" fill="#263238"/>
<ellipse rx="1.25625" ry="6.27925" transform="matrix(0.895083 0.4459 -0.446279 0.894894 194.617 251.846)" fill="#263238"/>
</svg>
